<svg xmlns="http://www.w3.org/2000/svg" width="127.291" height="18.85" viewBox="0 0 127.291 18.85">
  <g id="Grupo_638292" data-name="Grupo 638292" transform="translate(10408.791 -9723.507)">
    <g id="Grupo_583452" data-name="Grupo 583452" transform="translate(3 18272.623)">
      <path id="Dots" d="M20.326,63.477a1.983,1.983,0,1,1,1.983,2A1.993,1.993,0,0,1,20.326,63.477ZM0,63.477a1.993,1.993,0,0,1,1.983-2,2,2,0,0,1,0,4.008A1.993,1.993,0,0,1,0,63.477ZM20.326,49.635a1.983,1.983,0,1,1,1.983,2A1.993,1.993,0,0,1,20.326,49.635ZM0,49.635a1.993,1.993,0,0,1,1.983-2,2,2,0,0,1,0,4.007A1.993,1.993,0,0,1,0,49.635Z" transform="translate(-10309.291 -8596.248)" fill="#fff" stroke="#fff" stroke-width="1"/>
      <path id="Dots-2" data-name="Dots" d="M20.326,63.477a1.983,1.983,0,1,1,1.983,2A1.993,1.993,0,0,1,20.326,63.477ZM0,63.477a1.993,1.993,0,0,1,1.983-2,2,2,0,0,1,0,4.008A1.993,1.993,0,0,1,0,63.477ZM20.326,49.635a1.983,1.983,0,1,1,1.983,2A1.993,1.993,0,0,1,20.326,49.635ZM0,49.635a1.993,1.993,0,0,1,1.983-2,2,2,0,0,1,0,4.007A1.993,1.993,0,0,1,0,49.635Z" transform="translate(-10343.291 -8596.248)" fill="#fff" stroke="#fff" stroke-width="1"/>
      <path id="Dots-3" data-name="Dots" d="M20.326,63.477a1.983,1.983,0,1,1,1.983,2A1.993,1.993,0,0,1,20.326,63.477ZM0,63.477a1.993,1.993,0,0,1,1.983-2,2,2,0,0,1,0,4.008A1.993,1.993,0,0,1,0,63.477ZM20.326,49.635a1.983,1.983,0,1,1,1.983,2A1.993,1.993,0,0,1,20.326,49.635ZM0,49.635a1.993,1.993,0,0,1,1.983-2,2,2,0,0,1,0,4.007A1.993,1.993,0,0,1,0,49.635Z" transform="translate(-10377.291 -8596.248)" fill="#fff" stroke="#fff" stroke-width="1"/>
      <path id="Dots-4" data-name="Dots" d="M20.326,63.477a1.983,1.983,0,1,1,1.983,2A1.993,1.993,0,0,1,20.326,63.477ZM0,63.477a1.993,1.993,0,0,1,1.983-2,2,2,0,0,1,0,4.008A1.993,1.993,0,0,1,0,63.477ZM20.326,49.635a1.983,1.983,0,1,1,1.983,2A1.993,1.993,0,0,1,20.326,49.635ZM0,49.635a1.993,1.993,0,0,1,1.983-2,2,2,0,0,1,0,4.007A1.993,1.993,0,0,1,0,49.635Z" transform="translate(-10411.291 -8596.248)" fill="#fff" stroke="#fff" stroke-width="1"/>
    </g>
  </g>
</svg>
