<svg xmlns="http://www.w3.org/2000/svg" width="296" height="286" viewBox="0 0 296 286">
  <g id="Grupo_596862" data-name="Grupo 596862" transform="translate(-284 -2571)">
    <g id="Grupo_595674" data-name="Grupo 595674" transform="translate(50 72)">
      <rect id="Rectángulo_213040" data-name="Rectángulo 213040" width="36" height="35" transform="translate(248 2511)" fill="#ffcbc5"/>
      <rect id="Rectángulo_213053" data-name="Rectángulo 213053" width="36" height="35" transform="translate(325 2511)" fill="#ffcbc5"/>
      <rect id="Rectángulo_213060" data-name="Rectángulo 213060" width="36" height="35" transform="translate(436 2511)" fill="#ffcbc5"/>
      <rect id="Rectángulo_213059" data-name="Rectángulo 213059" width="36" height="35" transform="translate(360 2511)" fill="#ffcbc5"/>
      <rect id="Rectángulo_213061" data-name="Rectángulo 213061" width="36" height="35" transform="translate(471 2511)" fill="#ffcbc5"/>
      <rect id="Rectángulo_213047" data-name="Rectángulo 213047" width="36" height="35" transform="translate(248 2639)" fill="#ffcbc5"/>
      <rect id="Rectángulo_213048" data-name="Rectángulo 213048" width="36" height="35" transform="translate(325 2639)" fill="#ffcbc5"/>
      <rect id="Rectángulo_213068" data-name="Rectángulo 213068" width="36" height="35" transform="translate(436 2639)" fill="#ffcbc5"/>
      <rect id="Rectángulo_213054" data-name="Rectángulo 213054" width="36" height="35" transform="translate(360 2639)" fill="#ffcbc5"/>
      <rect id="Rectángulo_213069" data-name="Rectángulo 213069" width="36" height="35" transform="translate(471 2639)" fill="#ffcbc5"/>
      <rect id="Rectángulo_213041" data-name="Rectángulo 213041" width="36" height="35" transform="translate(248 2542)" fill="#ffcbc5"/>
      <rect id="Rectángulo_213052" data-name="Rectángulo 213052" width="36" height="35" transform="translate(325 2542)" fill="#ffcbc5"/>
      <rect id="Rectángulo_213062" data-name="Rectángulo 213062" width="36" height="35" transform="translate(436 2542)" fill="#ffcbc5"/>
      <rect id="Rectángulo_213058" data-name="Rectángulo 213058" width="36" height="35" transform="translate(360 2542)" fill="#ffcbc5"/>
      <rect id="Rectángulo_213063" data-name="Rectángulo 213063" width="36" height="35" transform="translate(471 2542)" fill="#ffcbc5"/>
      <rect id="Rectángulo_213046" data-name="Rectángulo 213046" width="36" height="35" transform="translate(248 2672)" fill="#ffcbc5"/>
      <rect id="Rectángulo_213049" data-name="Rectángulo 213049" width="36" height="35" transform="translate(325 2672)" fill="#ffcbc5"/>
      <rect id="Rectángulo_213070" data-name="Rectángulo 213070" width="36" height="35" transform="translate(436 2672)" fill="#ffcbc5"/>
      <rect id="Rectángulo_213055" data-name="Rectángulo 213055" width="36" height="35" transform="translate(360 2672)" fill="#ffcbc5"/>
      <rect id="Rectángulo_213071" data-name="Rectángulo 213071" width="36" height="35" transform="translate(471 2672)" fill="#ffcbc5"/>
      <rect id="Rectángulo_213042" data-name="Rectángulo 213042" width="36" height="35" transform="translate(248 2573)" fill="#ffcbc5"/>
      <rect id="Rectángulo_213051" data-name="Rectángulo 213051" width="36" height="35" transform="translate(325 2573)" fill="#ffcbc5"/>
      <rect id="Rectángulo_213064" data-name="Rectángulo 213064" width="36" height="35" transform="translate(436 2573)" fill="#ffcbc5"/>
      <rect id="Rectángulo_213057" data-name="Rectángulo 213057" width="36" height="35" transform="translate(360 2573)" fill="#ffcbc5"/>
      <rect id="Rectángulo_213065" data-name="Rectángulo 213065" width="36" height="35" transform="translate(471 2573)" fill="#ffcbc5"/>
      <rect id="Rectángulo_213043" data-name="Rectángulo 213043" width="36" height="35" transform="translate(248 2606)" fill="#ffcbc5"/>
      <rect id="Rectángulo_213050" data-name="Rectángulo 213050" width="36" height="35" transform="translate(325 2606)" fill="#ffcbc5"/>
      <rect id="Rectángulo_213066" data-name="Rectángulo 213066" width="36" height="35" transform="translate(436 2606)" fill="#ffcbc5"/>
      <rect id="Rectángulo_213056" data-name="Rectángulo 213056" width="36" height="35" transform="translate(360 2606)" fill="#ffcbc5"/>
      <rect id="Rectángulo_213067" data-name="Rectángulo 213067" width="36" height="35" transform="translate(471 2606)" fill="#ffcbc5"/>
      <text id="_01" data-name="01" transform="translate(254 2677)" fill="#ff4a36" font-size="20" font-family="SegoeUI-Bold, Segoe UI" font-weight="700"><tspan x="0" y="22">01</tspan></text>
      <text id="_1" data-name="1" transform="translate(260 2704)" fill="#ff4a36" font-size="20" font-family="SegoeUI-Bold, Segoe UI" font-weight="700"><tspan x="0" y="22">1</tspan></text>
      <text id="_2" data-name="2" transform="translate(337 2704)" fill="#ff4a36" font-size="20" font-family="SegoeUI-Bold, Segoe UI" font-weight="700"><tspan x="0" y="22">2</tspan></text>
      <text id="_3" data-name="3" transform="translate(372 2704)" fill="#ff4a36" font-size="20" font-family="SegoeUI-Bold, Segoe UI" font-weight="700"><tspan x="0" y="22">3</tspan></text>
      <text id="_4" data-name="4" transform="translate(448 2704)" fill="#ff4a36" font-size="20" font-family="SegoeUI-Bold, Segoe UI" font-weight="700"><tspan x="0" y="22">4</tspan></text>
      <text id="_5" data-name="5" transform="translate(477 2704)" fill="#ff4a36" font-size="20" font-family="SegoeUI-Bold, Segoe UI" font-weight="700"><tspan x="0" y="22">5</tspan></text>
      <text id="_01-2" data-name="01" transform="translate(366 2677)" fill="#ff4a36" font-size="20" font-family="SegoeUI-Bold, Segoe UI" font-weight="700"><tspan x="0" y="22">01</tspan></text>
      <text id="_01-3" data-name="01" transform="translate(478 2677)" fill="#ff4a36" font-size="20" font-family="SegoeUI-Bold, Segoe UI" font-weight="700"><tspan x="0" y="22">01</tspan></text>
      <text id="_06" data-name="06" transform="translate(331 2677)" fill="#ff4a36" font-size="20" font-family="SegoeUI-Bold, Segoe UI" font-weight="700"><tspan x="0" y="22">06</tspan></text>
      <text id="_06-2" data-name="06" transform="translate(443 2677)" fill="#ff4a36" font-size="20" font-family="SegoeUI-Bold, Segoe UI" font-weight="700"><tspan x="0" y="22">06</tspan></text>
      <text id="_02" data-name="02" transform="translate(254 2643)" fill="#ff4a36" font-size="20" font-family="SegoeUI-Bold, Segoe UI" font-weight="700"><tspan x="0" y="22">02</tspan></text>
      <text id="_02-2" data-name="02" transform="translate(366 2643)" fill="#ff4a36" font-size="20" font-family="SegoeUI-Bold, Segoe UI" font-weight="700"><tspan x="0" y="22">02</tspan></text>
      <text id="_02-3" data-name="02" transform="translate(478 2643)" fill="#ff4a36" font-size="20" font-family="SegoeUI-Bold, Segoe UI" font-weight="700"><tspan x="0" y="22">02</tspan></text>
      <text id="_05" data-name="05" transform="translate(331 2643)" fill="#ff4a36" font-size="20" font-family="SegoeUI-Bold, Segoe UI" font-weight="700"><tspan x="0" y="22">05</tspan></text>
      <text id="_05-2" data-name="05" transform="translate(443 2643)" fill="#ff4a36" font-size="20" font-family="SegoeUI-Bold, Segoe UI" font-weight="700"><tspan x="0" y="22">05</tspan></text>
      <text id="_03" data-name="03" transform="translate(254 2610)" fill="#ff4a36" font-size="20" font-family="SegoeUI-Bold, Segoe UI" font-weight="700"><tspan x="0" y="22">03</tspan></text>
      <text id="_03-2" data-name="03" transform="translate(366 2610)" fill="#ff4a36" font-size="20" font-family="SegoeUI-Bold, Segoe UI" font-weight="700"><tspan x="0" y="22">03</tspan></text>
      <text id="_03-3" data-name="03" transform="translate(478 2610)" fill="#ff4a36" font-size="20" font-family="SegoeUI-Bold, Segoe UI" font-weight="700"><tspan x="0" y="22">03</tspan></text>
      <text id="_04" data-name="04" transform="translate(331 2610)" fill="#ff4a36" font-size="20" font-family="SegoeUI-Bold, Segoe UI" font-weight="700"><tspan x="0" y="22">04</tspan></text>
      <text id="_04-2" data-name="04" transform="translate(443 2610)" fill="#ff4a36" font-size="20" font-family="SegoeUI-Bold, Segoe UI" font-weight="700"><tspan x="0" y="22">04</tspan></text>
      <text id="_04-3" data-name="04" transform="translate(254 2576)" fill="#ff4a36" font-size="20" font-family="SegoeUI-Bold, Segoe UI" font-weight="700"><tspan x="0" y="22">04</tspan></text>
      <text id="_04-4" data-name="04" transform="translate(366 2576)" fill="#ff4a36" font-size="20" font-family="SegoeUI-Bold, Segoe UI" font-weight="700"><tspan x="0" y="22">04</tspan></text>
      <text id="_04-5" data-name="04" transform="translate(478 2576)" fill="#ff4a36" font-size="20" font-family="SegoeUI-Bold, Segoe UI" font-weight="700"><tspan x="0" y="22">04</tspan></text>
      <text id="_03-4" data-name="03" transform="translate(331 2576)" fill="#ff4a36" font-size="20" font-family="SegoeUI-Bold, Segoe UI" font-weight="700"><tspan x="0" y="22">03</tspan></text>
      <text id="_03-5" data-name="03" transform="translate(443 2576)" fill="#ff4a36" font-size="20" font-family="SegoeUI-Bold, Segoe UI" font-weight="700"><tspan x="0" y="22">03</tspan></text>
      <text id="_05-3" data-name="05" transform="translate(254 2544)" fill="#ff4a36" font-size="20" font-family="SegoeUI-Bold, Segoe UI" font-weight="700"><tspan x="0" y="22">05</tspan></text>
      <text id="_05-4" data-name="05" transform="translate(366 2544)" fill="#ff4a36" font-size="20" font-family="SegoeUI-Bold, Segoe UI" font-weight="700"><tspan x="0" y="22">05</tspan></text>
      <text id="_05-5" data-name="05" transform="translate(478 2544)" fill="#ff4a36" font-size="20" font-family="SegoeUI-Bold, Segoe UI" font-weight="700"><tspan x="0" y="22">05</tspan></text>
      <text id="_02-4" data-name="02" transform="translate(331 2544)" fill="#ff4a36" font-size="20" font-family="SegoeUI-Bold, Segoe UI" font-weight="700"><tspan x="0" y="22">02</tspan></text>
      <text id="_02-5" data-name="02" transform="translate(443 2544)" fill="#ff4a36" font-size="20" font-family="SegoeUI-Bold, Segoe UI" font-weight="700"><tspan x="0" y="22">02</tspan></text>
      <text id="_06-3" data-name="06" transform="translate(366 2512)" fill="#ff4a36" font-size="20" font-family="SegoeUI-Bold, Segoe UI" font-weight="700"><tspan x="0" y="22">06</tspan></text>
      <text id="_06-4" data-name="06" transform="translate(478 2512)" fill="#ff4a36" font-size="20" font-family="SegoeUI-Bold, Segoe UI" font-weight="700"><tspan x="0" y="22">06</tspan></text>
      <text id="_01-4" data-name="01" transform="translate(331 2512)" fill="#ff4a36" font-size="20" font-family="SegoeUI-Bold, Segoe UI" font-weight="700"><tspan x="0" y="22">01</tspan></text>
      <text id="_01-5" data-name="01" transform="translate(443 2512)" fill="#ff4a36" font-size="20" font-family="SegoeUI-Bold, Segoe UI" font-weight="700"><tspan x="0" y="22">01</tspan></text>
      <g id="Grupo_593727" data-name="Grupo 593727" transform="translate(1)">
        <line id="Línea_1906" data-name="Línea 1906" y1="191" transform="translate(288 2516.5)" fill="none" stroke="#ff8578" stroke-width="1"/>
        <path id="Polígono_1" data-name="Polígono 1" d="M4,0,8,7H0Z" transform="translate(284 2513)" fill="#ff4a36"/>
      </g>
      <g id="Grupo_593731" data-name="Grupo 593731" transform="translate(113)">
        <line id="Línea_1906-2" data-name="Línea 1906" y1="191" transform="translate(288 2516.5)" fill="none" stroke="#ff8578" stroke-width="1"/>
        <path id="Polígono_1-2" data-name="Polígono 1" d="M4,0,8,7H0Z" transform="translate(284 2513)" fill="#ff4a36"/>
      </g>
      <g id="Grupo_593734" data-name="Grupo 593734" transform="translate(226)">
        <line id="Línea_1906-3" data-name="Línea 1906" y1="191" transform="translate(288 2516.5)" fill="none" stroke="#ff8578" stroke-width="1"/>
        <path id="Polígono_1-3" data-name="Polígono 1" d="M4,0,8,7H0Z" transform="translate(284 2513)" fill="#ff4a36"/>
      </g>
      <g id="Grupo_593728" data-name="Grupo 593728" transform="translate(607 5222) rotate(180)">
        <line id="Línea_1906-4" data-name="Línea 1906" y1="191" transform="translate(288 2516.5)" fill="none" stroke="#ff8578" stroke-width="1"/>
        <path id="Polígono_1-4" data-name="Polígono 1" d="M4,0,8,7H0Z" transform="translate(284 2513)" fill="#ff4a36"/>
      </g>
      <g id="Grupo_593732" data-name="Grupo 593732" transform="translate(718 5222) rotate(180)">
        <line id="Línea_1906-5" data-name="Línea 1906" y1="191" transform="translate(288 2516.5)" fill="none" stroke="#ff8578" stroke-width="1"/>
        <path id="Polígono_1-5" data-name="Polígono 1" d="M4,0,8,7H0Z" transform="translate(284 2513)" fill="#ff4a36"/>
      </g>
      <text id="_06-5" data-name="06" transform="translate(254 2512)" fill="#ff4a36" font-size="20" font-family="SegoeUI-Bold, Segoe UI" font-weight="700"><tspan x="0" y="22">06</tspan></text>
      <line id="Línea_1908" data-name="Línea 1908" y1="195" transform="translate(360 2512.5)" fill="none" stroke="#ff8578" stroke-width="1"/>
      <line id="Línea_1909" data-name="Línea 1909" y1="196" transform="translate(472 2511.5)" fill="none" stroke="#ff8578" stroke-width="1"/>
      <g id="Grupo_593729" data-name="Grupo 593729">
        <line id="Línea_1907" data-name="Línea 1907" x1="20" transform="translate(292.5 2516.5)" fill="none" stroke="#ff8578" stroke-width="1"/>
        <path id="Polígono_2" data-name="Polígono 2" d="M4,0,8,7H0Z" transform="translate(317.5 2512.5) rotate(90)" fill="#ff4a36"/>
      </g>
      <g id="Grupo_593733" data-name="Grupo 593733" transform="translate(111.5)">
        <line id="Línea_1907-2" data-name="Línea 1907" x1="20" transform="translate(292.5 2516.5)" fill="none" stroke="#ff8578" stroke-width="1"/>
        <path id="Polígono_2-2" data-name="Polígono 2" d="M4,0,8,7H0Z" transform="translate(317.5 2512.5) rotate(90)" fill="#ff4a36"/>
      </g>
      <g id="Rectángulo_213072" data-name="Rectángulo 213072" transform="translate(234 2499)" fill="none" stroke="#ff4a36" stroke-width="1">
        <rect width="296" height="239" stroke="none"/>
        <rect x="0.5" y="0.5" width="295" height="238" fill="none"/>
      </g>
    </g>
    <text id="Fig._2.19._Codificación_por_estantería_" data-name="Fig. 2.19. Codificación por estantería " transform="translate(301 2823)" fill="#6adee2" font-size="16" font-family="ArialMT, Arial"><tspan x="0" y="14">Fig. 2.19.</tspan><tspan y="14" fill="#12263f"> </tspan><tspan y="14" fill="#12263f" font-family="Arial-ItalicMT, Arial" font-style="italic">Codificación por estantería </tspan></text>
  </g>
</svg>
