<svg xmlns="http://www.w3.org/2000/svg" width="64.783" height="96.208" viewBox="0 0 64.783 96.208">
  <g id="Grupo_595717" data-name="Grupo 595717" transform="translate(1053.526 -348)">
    <path id="Trazado_316584" data-name="Trazado 316584" d="M-1039.55,444.209c-.6-.145-1.208-.277-1.806-.438a12.663,12.663,0,0,1-9.321-11.35c-.047-.686-.053-1.376-.053-2.065q0-36.4.01-72.8a1.794,1.794,0,0,0-.945-1.88,3.782,3.782,0,0,1-1.84-3.845,4.071,4.071,0,0,1,2.418-3.44c.272-.137.55-.261.826-.391h24.43c.275.13.553.255.826.391a4.061,4.061,0,0,1,2.417,3.44,3.78,3.78,0,0,1-1.84,3.845,1.793,1.793,0,0,0-.943,1.881q.021,36.446.009,72.892c0,.657-.011,1.316-.055,1.971a12.678,12.678,0,0,1-9.41,11.379c-.569.148-1.144.274-1.716.411Zm11.3-87.744h-1.054l-11.364-.005c-1,0-2,.025-3.005-.012a1.38,1.38,0,0,1-1.411-1.44,1.391,1.391,0,0,1,1.385-1.371c.249-.02.5-.007.751-.007q6.1,0,12.209,0c1.315,0,2.63.018,3.944-.024a1.335,1.335,0,0,0,1.374-1.366,1.366,1.366,0,0,0-1.35-1.394c-.186-.017-.375-.007-.563-.008l-21.413-.01a4.009,4.009,0,0,0-.749.023,1.313,1.313,0,0,0-1.187,1.255,1.32,1.32,0,0,0,1.039,1.474c1.683.5,1.736.559,1.736,2.311q0,25.168,0,50.335V407.5h19.659Z"/>
    <path id="Trazado_316585" data-name="Trazado 316585" d="M-904.536,444.209c-.6-.145-1.208-.277-1.806-.438a12.663,12.663,0,0,1-9.321-11.35c-.047-.686-.053-1.376-.054-2.065q0-36.4.01-72.8a1.8,1.8,0,0,0-.943-1.882,3.779,3.779,0,0,1-1.842-3.843,4.07,4.07,0,0,1,2.418-3.44c.272-.137.55-.261.826-.391h24.43c.246.119.49.242.738.358a4.039,4.039,0,0,1,2.512,3.567,3.891,3.891,0,0,1-2,3.868,1.433,1.433,0,0,0-.793,1.482q.02,36.775.022,73.549a12.841,12.841,0,0,1-5.5,11.126,11.936,11.936,0,0,1-5.173,2.088,3.343,3.343,0,0,0-.521.17Zm-8.3-36.7h19.573V356.527h-19.573Zm.037,2.942a2.278,2.278,0,0,0-.064.346c.008,7.138-.114,14.28.071,21.414.155,6.017,6.2,10.342,12.045,8.884a9.842,9.842,0,0,0,7.53-9.954c.021-6.575.006-13.15,0-19.725,0-.3-.031-.609-.05-.964Zm9.7-56.823q3.611,0,7.223,0c1.251,0,2.5,0,3.752-.012,1.118-.01,1.725-.517,1.713-1.41s-.617-1.355-1.754-1.369h-.094l-21.576-.01c-.156,0-.314-.008-.469.006a1.379,1.379,0,0,0-1.38,1.368,1.385,1.385,0,0,0,1.421,1.422c.249.017.5.006.75.006Z" transform="translate(-101.187)"/>
    <path id="Trazado_316586" data-name="Trazado 316586" d="M-1019.757,364.906v51.035h-19.659v-1.273q0-25.168,0-50.335c0-1.753-.053-1.808-1.736-2.312a1.32,1.32,0,0,1-1.04-1.474,1.313,1.313,0,0,1,1.187-1.255,4.009,4.009,0,0,1,.749-.023l21.413.01c.188,0,.377-.01.563.008a1.366,1.366,0,0,1,1.35,1.394,1.335,1.335,0,0,1-1.374,1.366c-1.314.042-2.629.023-3.944.024q-6.1,0-12.209,0c-.25,0-.5-.013-.751.007a1.391,1.391,0,0,0-1.385,1.371,1.38,1.38,0,0,0,1.411,1.44c1,.037,2,.011,3.005.012l11.364.005Z" transform="translate(-8.491 -8.441)" fill="#ff765b"/>
    <path id="Trazado_316587" data-name="Trazado 316587" d="M-895.857,433.016V382.033h19.573v50.983Z" transform="translate(-118.166 -25.506)" fill="#fac850"/>
    <path id="Trazado_316588" data-name="Trazado 316588" d="M-896,597.265h19.535c.019.356.05.66.05.964,0,6.575.018,13.15,0,19.726a9.842,9.842,0,0,1-7.53,9.954c-5.842,1.458-11.89-2.867-12.045-8.883-.184-7.134-.062-14.275-.071-21.414A2.278,2.278,0,0,1-896,597.265Zm9.8,14.018a7.062,7.062,0,0,0-7.083,7.007,7.071,7.071,0,0,0,6.989,7.1,7.1,7.1,0,0,0,7.144-7.055A7.1,7.1,0,0,0-886.2,611.283Zm2.827-2.8a4.264,4.264,0,0,0,4.222-4.267,4.26,4.26,0,0,0-4.282-4.205,4.241,4.241,0,0,0-4.213,4.266A4.243,4.243,0,0,0-883.375,608.481Zm-8.522-2.83a1.409,1.409,0,0,0-1.375,1.463,1.412,1.412,0,0,0,1.385,1.362,1.417,1.417,0,0,0,1.427-1.418A1.414,1.414,0,0,0-891.9,605.651Z" transform="translate(-117.99 -186.813)" fill="#ff765b"/>
    <path id="Trazado_316589" data-name="Trazado 316589" d="M-894.621,362.079h-10.413c-.25,0-.5.012-.75-.006a1.385,1.385,0,0,1-1.421-1.422,1.379,1.379,0,0,1,1.38-1.368c.155-.013.313-.006.469-.006l21.576.01h.094c1.137.014,1.743.487,1.754,1.369s-.6,1.4-1.713,1.41c-1.251.012-2.5.011-3.752.012Q-891.009,362.081-894.621,362.079Z" transform="translate(-109.661 -8.451)" fill="#fac850"/>
    <path id="Trazado_316590" data-name="Trazado 316590" d="M-877.8,653.217a7.1,7.1,0,0,1,7.05,7.055,7.1,7.1,0,0,1-7.144,7.055,7.071,7.071,0,0,1-6.989-7.1A7.061,7.061,0,0,1-877.8,653.217Z" transform="translate(-126.388 -228.747)"/>
    <path id="Trazado_316591" data-name="Trazado 316591" d="M-858.114,616.689a4.243,4.243,0,0,1-4.273-4.207,4.241,4.241,0,0,1,4.213-4.265,4.26,4.26,0,0,1,4.282,4.205A4.264,4.264,0,0,1-858.114,616.689Z" transform="translate(-143.25 -195.021)"/>
    <path id="Trazado_316592" data-name="Trazado 316592" d="M-883.463,630.735a1.414,1.414,0,0,1,1.436,1.407,1.417,1.417,0,0,1-1.427,1.418,1.411,1.411,0,0,1-1.384-1.362A1.409,1.409,0,0,1-883.463,630.735Z" transform="translate(-126.424 -211.898)"/>
  </g>
</svg>
