<svg xmlns="http://www.w3.org/2000/svg" width="88.95" height="88.949" viewBox="0 0 88.95 88.949">
  <g id="Grupo_595714" data-name="Grupo 595714" transform="translate(626.889 -203.139)">
    <path id="Trazado_316566" data-name="Trazado 316566" d="M-537.939,231.452a9.15,9.15,0,0,1-2.734,3.911c-1.831,1.77-3.612,3.593-5.412,5.4-.2.2-.39.414-.591.628,4.533,2.965,6.116,6.042,5.208,10.063a8.663,8.663,0,0,1-7.441,6.7,8.585,8.585,0,0,1-9.03-5.142l-19.051,19.048c3.9,2.011,5.838,5.279,4.967,9.9a8.443,8.443,0,0,1-6.716,6.61c-4.567.766-7.756-1.209-9.894-5.278-1.109,1.113-2.186,2.2-3.267,3.28-1.247,1.25-2.491,2.5-3.746,3.746a5.209,5.209,0,0,1-7.84-.013c-2.424-2.406-4.829-4.832-7.251-7.241a1.876,1.876,0,0,1-.691-2.155,1.909,1.909,0,0,1,2.035-1.144,5.123,5.123,0,0,0,5.167-4.552,5.205,5.205,0,0,0-3.57-5.592,5.163,5.163,0,0,0-6.765,4.884c-.013.934-.184,1.739-1.15,2.121-.942.373-1.593-.124-2.217-.752-2.366-2.382-4.749-4.748-7.118-7.128-2.457-2.468-2.46-5.5-.009-7.961,2.308-2.313,4.623-4.618,6.976-6.969-4.13-2.11-6.079-5.357-5.262-9.937a8.359,8.359,0,0,1,7.147-6.774c4.376-.6,7.448,1.406,9.463,5.311.27-.256.52-.482.76-.721q10.133-10.131,20.265-20.263c.184-.184.365-.372.556-.549a1.651,1.651,0,0,1,1.914-.381,1.64,1.64,0,0,1,1.041,1.649,5.311,5.311,0,0,0,1.772,4.261,5.192,5.192,0,0,0,6.13.568,5.181,5.181,0,0,0,2.335-5.851,5.2,5.2,0,0,0-4.842-3.8,3.545,3.545,0,0,1-1.572-.343,1.684,1.684,0,0,1-.132-2.748c3.185-3.2,6.351-6.423,9.6-9.555a12.712,12.712,0,0,1,2.647-1.542h1.911a19.171,19.171,0,0,1,2.228,1.1,10.137,10.137,0,0,1,1.521,1.412c1.444,1.445,2.878,2.9,4.368,4.4,2.128-4.074,5.317-6.109,9.816-5.287a8.024,8.024,0,0,1,6.794,6.688c.912,4.56-1.095,7.815-5.254,9.968,1.494,1.476,2.906,2.916,4.371,4.3a8.26,8.26,0,0,1,2.56,3.819ZM-568.747,258.6a8.078,8.078,0,0,1,.7-.951q4.685-4.709,9.39-9.4a6.559,6.559,0,0,1,.634-.591,1.724,1.724,0,0,1,1.949-.2,1.772,1.772,0,0,1,1.015,1.6,10.1,10.1,0,0,0,.172,1.631,5.115,5.115,0,0,0,4.439,3.945,5.249,5.249,0,0,0,4.852-2.467,5.14,5.14,0,0,0-.268-5.637,4.805,4.805,0,0,0-3.849-2.029c-.145,0-.29,0-.434-.013a2,2,0,0,1-1.978-1.273,1.944,1.944,0,0,1,.674-2.171q4.513-4.512,9.026-9.025c1.2-1.2,1.19-1.933-.023-3.147q-3.528-3.533-7.064-7.057a1.977,1.977,0,0,1-.682-2.319,1.991,1.991,0,0,1,2.123-1.152,5.015,5.015,0,0,0,5.05-5.158,4.93,4.93,0,0,0-5.03-4.969,5.051,5.051,0,0,0-5.107,5.026,3.581,3.581,0,0,1-.1,1.027,1.84,1.84,0,0,1-3.212.573c-2.45-2.421-4.874-4.868-7.313-7.3-1.087-1.083-1.865-1.084-2.958,0q-3.078,3.062-6.139,6.139c-.2.2-.373.416-.572.639,6.423,3.339,6.342,10.383,3.15,13.936a8.58,8.58,0,0,1-6.385,3.047,8.71,8.71,0,0,1-8.344-5.131l-8.181,8.184a3.929,3.929,0,0,1,.612.438c2.687,2.674,5.361,5.362,8.05,8.035a1.927,1.927,0,0,1,.6,2.19,1.975,1.975,0,0,1-1.932,1.216c-.173.011-.347.007-.521.014a5.062,5.062,0,0,0-4.8,4.9,5.15,5.15,0,0,0,4.945,5.235,5.049,5.049,0,0,0,5.19-4.938c.029-.975.187-1.877,1.2-2.3s1.749.106,2.444.809c2.605,2.634,5.233,5.245,7.854,7.864C-569.361,258.028-569.152,258.217-568.747,258.6Zm-9.27-3.889a8.768,8.768,0,0,1-9.364,5.221,8.64,8.64,0,0,1-7.281-7.075,8.647,8.647,0,0,1,5.069-9.618l-6.486-6.484c-1.4,1.4-2.864,2.877-4.335,4.349q-3.068,3.071-6.138,6.141a1.79,1.79,0,0,1-2.059.485,1.722,1.722,0,0,1-1.1-1.8c0-.174,0-.348,0-.521a5.182,5.182,0,0,0-4.848-4.9,5.2,5.2,0,0,0-5.481,5.065,5.213,5.213,0,0,0,5.309,5.255,1.862,1.862,0,0,1,1.946,1.138,1.816,1.816,0,0,1-.594,2.1q-2.4,2.388-4.791,4.788c-1.514,1.515-3.037,3.021-4.539,4.548-.788.8-.923,1.684-.241,2.4,1.756,1.832,3.579,3.6,5.408,5.427,2.178-4.058,5.416-6.028,10-5.189a8.533,8.533,0,0,1,6.707,6.837c.739,4.52-1.192,7.71-5.2,9.826.168.192.305.368.462.525q2.268,2.275,4.543,4.544c1.063,1.055,1.89,1.045,2.974-.032q2.157-2.141,4.3-4.3c1.658-1.657,3.3-3.328,4.979-4.967a1.774,1.774,0,0,1,3.053.627,4.915,4.915,0,0,1,.075,1.035,5.231,5.231,0,0,0,5.216,5.092,5.192,5.192,0,0,0,5.114-5.269,5.133,5.133,0,0,0-5.211-5.056,1.9,1.9,0,0,1-2-1.073,1.914,1.914,0,0,1,.624-2.254q4.9-4.861,9.767-9.757c.221-.221.43-.455.6-.64Z"/>
    <path id="Trazado_316567" data-name="Trazado 316567" d="M-457.29,270.49c-.405-.384-.614-.574-.813-.773-2.621-2.618-5.249-5.23-7.854-7.864-.7-.7-1.422-1.233-2.444-.809s-1.173,1.323-1.2,2.3a5.049,5.049,0,0,1-5.19,4.938,5.15,5.15,0,0,1-4.945-5.235,5.062,5.062,0,0,1,4.8-4.9c.173-.007.348,0,.521-.014a1.975,1.975,0,0,0,1.932-1.216,1.927,1.927,0,0,0-.6-2.19c-2.689-2.673-5.363-5.361-8.05-8.035a3.931,3.931,0,0,0-.611-.438l8.181-8.184a8.71,8.71,0,0,0,8.344,5.131,8.58,8.58,0,0,0,6.385-3.047c3.192-3.553,3.273-10.6-3.15-13.936.2-.223.375-.442.572-.639q3.066-3.073,6.139-6.139c1.094-1.088,1.872-1.087,2.958,0,2.439,2.431,4.864,4.878,7.313,7.3a1.84,1.84,0,0,0,3.212-.573,3.584,3.584,0,0,0,.1-1.027,5.051,5.051,0,0,1,5.107-5.026,4.93,4.93,0,0,1,5.03,4.969,5.015,5.015,0,0,1-5.05,5.158,1.991,1.991,0,0,0-2.123,1.152,1.977,1.977,0,0,0,.682,2.319q3.544,3.516,7.064,7.057c1.213,1.214,1.222,1.946.023,3.147q-4.509,4.517-9.026,9.025a1.944,1.944,0,0,0-.674,2.171,2,2,0,0,0,1.978,1.273c.144.011.289.011.434.013a4.805,4.805,0,0,1,3.849,2.029,5.14,5.14,0,0,1,.268,5.637,5.249,5.249,0,0,1-4.852,2.467,5.115,5.115,0,0,1-4.439-3.945,10.089,10.089,0,0,1-.172-1.631,1.772,1.772,0,0,0-1.015-1.6,1.724,1.724,0,0,0-1.949.2,6.566,6.566,0,0,0-.634.591q-4.7,4.694-9.39,9.4A8.093,8.093,0,0,0-457.29,270.49Zm18.124-28.147c-1.538,1.519-2.955,2.877-4.322,4.284a1.787,1.787,0,0,0-.015,2.572,1.771,1.771,0,0,0,2.568.064q2.865-2.773,5.643-5.636a1.653,1.653,0,0,0,.1-2.426c-1.69-1.78-3.415-3.533-5.216-5.2a1.759,1.759,0,0,0-2.831.812,1.823,1.823,0,0,0,.59,2.1C-441.535,240.042-440.393,241.141-439.166,242.344Zm-6.061,10.518a1.972,1.972,0,0,0-1.794-1.894,1.914,1.914,0,0,0-1.928,1.834,1.921,1.921,0,0,0,1.785,1.886A1.916,1.916,0,0,0-445.226,252.862Z" transform="translate(-111.458 -11.889)" fill="#ff765b"/>
    <path id="Trazado_316568" data-name="Trazado 316568" d="M-566.434,365.966l6.492,6.479c-.174.185-.383.418-.6.64q-4.879,4.883-9.767,9.757a1.914,1.914,0,0,0-.624,2.254,1.9,1.9,0,0,0,2,1.073,5.133,5.133,0,0,1,5.211,5.056,5.192,5.192,0,0,1-5.114,5.269,5.231,5.231,0,0,1-5.216-5.092,4.915,4.915,0,0,0-.074-1.035,1.774,1.774,0,0,0-3.053-.627c-1.676,1.639-3.321,3.31-4.979,4.967q-2.149,2.148-4.3,4.3c-1.085,1.077-1.911,1.087-2.974.032q-2.281-2.263-4.543-4.544c-.157-.157-.294-.333-.462-.525,4.006-2.117,5.937-5.306,5.2-9.826a8.533,8.533,0,0,0-6.707-6.837c-4.588-.839-7.825,1.131-10,5.189-1.829-1.827-3.652-3.595-5.409-5.427-.682-.712-.547-1.6.241-2.4,1.5-1.527,3.025-3.033,4.539-4.548q2.394-2.394,4.791-4.788a1.816,1.816,0,0,0,.594-2.1,1.862,1.862,0,0,0-1.946-1.138,5.213,5.213,0,0,1-5.309-5.255,5.2,5.2,0,0,1,5.481-5.065,5.182,5.182,0,0,1,4.848,4.9c.007.173.008.347,0,.521a1.722,1.722,0,0,0,1.1,1.8,1.79,1.79,0,0,0,2.059-.485q3.062-3.078,6.138-6.141c1.471-1.472,2.938-2.948,4.335-4.349l6.486,6.484a8.647,8.647,0,0,0-5.069,9.618,8.64,8.64,0,0,0,7.281,7.075A8.768,8.768,0,0,0-566.434,365.966Z" transform="translate(-11.583 -111.254)" fill="#63d9b8"/>
    <path id="Trazado_316569" data-name="Trazado 316569" d="M-314.367,298.393c-1.227-1.2-2.369-2.3-3.486-3.426a1.823,1.823,0,0,1-.59-2.1,1.759,1.759,0,0,1,2.831-.812c1.8,1.665,3.526,3.418,5.216,5.2a1.653,1.653,0,0,1-.1,2.426q-2.783,2.856-5.643,5.636a1.771,1.771,0,0,1-2.568-.064,1.787,1.787,0,0,1,.015-2.572C-317.321,301.27-315.9,299.912-314.367,298.393Z" transform="translate(-236.256 -67.938)"/>
    <path id="Trazado_316570" data-name="Trazado 316570" d="M-336.668,359.906a1.916,1.916,0,0,1-1.937,1.826,1.921,1.921,0,0,1-1.785-1.886,1.914,1.914,0,0,1,1.928-1.834A1.972,1.972,0,0,1-336.668,359.906Z" transform="translate(-220.016 -118.932)"/>
  </g>
</svg>
