<svg xmlns="http://www.w3.org/2000/svg" width="83.336" height="96.332" viewBox="0 0 83.336 96.332">
  <g id="Grupo_595715" data-name="Grupo 595715" transform="translate(246.22 -167.95)">
    <path id="Trazado_316571" data-name="Trazado 316571" d="M-230.193,257.923c0,1.542.013,3.01,0,4.477a1.637,1.637,0,0,1-1.834,1.868q-2.954.027-5.908,0c-1.288-.011-1.855-.608-1.866-1.937-.012-1.462,0-2.924,0-4.48-1.491,0-2.884,0-4.277,0-1.589,0-2.128-.525-2.131-2.077q-.008-4.364,0-8.728c0-1.493.554-2.034,2.069-2.036,3.535-.005,7.07,0,10.748,0V243.8q0-22.271,0-44.542c0-1.986.424-2.414,2.4-2.414h21.577v-9.632h-1.1q-10.314,0-20.628,0c-1.768,0-2.246-.483-2.247-2.264q0-7.424,0-14.847c0-1.641.513-2.153,2.155-2.153q26.686,0,53.373,0c1.642,0,2.159.515,2.16,2.149q0,7.474,0,14.948c0,1.644-.516,2.166-2.145,2.166-7.243,0-14.485,0-21.809,0v9.632h1.03q10.364,0,20.728,0c1.7,0,2.2.5,2.2,2.213q0,22.321,0,44.642v1.307h2.938c2.637,0,5.274-.006,7.911,0,1.382,0,1.962.573,1.967,1.937q.016,4.464,0,8.928c0,1.418-.578,1.966-2.034,1.974-1.426.007-2.852,0-4.373,0,0,1.493,0,2.888,0,4.283-.005,1.622-.526,2.134-2.174,2.137q-2.654.005-5.307,0c-1.62,0-2.128-.525-2.132-2.178,0-1.367,0-2.735,0-4.172Zm.136-57.765v40.078h1.171q21.931,0,43.863,0c1.339,0,1.344,0,1.345-1.3q0-18.811,0-37.622c0-.383-.059-.766-.087-1.116h-12.718v1.284q0,10.284.007,20.567a1.881,1.881,0,0,1-.925,1.946,1.9,1.9,0,0,1-2.126-.372c-1.438-1.031-2.907-2.019-4.326-3.076a1,1,0,0,0-1.4.011c-1.4,1.026-2.843,1.991-4.263,2.99-.674.475-1.348.905-2.206.458s-.9-1.224-.9-2.061q.017-10.283.006-20.567v-1.216Zm-.031-28.932V183.9h51.079V171.252H-183.7c0,1.535.03,3-.018,4.469-.014.44-.116,1.059-.41,1.266a2.6,2.6,0,0,1-1.687.488,1.411,1.411,0,0,1-1.129-1.564c0-1.558,0-3.116,0-4.662h-3.165c0,1.3,0,2.531,0,3.763,0,.3.011.6-.005.9a1.624,1.624,0,0,1-1.619,1.682,1.6,1.6,0,0,1-1.613-1.68c-.029-1.558-.008-3.116-.008-4.67h-3.165c0,1.3,0,2.527,0,3.759,0,.3.011.6,0,.9a1.625,1.625,0,0,1-1.612,1.688,1.6,1.6,0,0,1-1.62-1.673c-.03-1.558-.008-3.118-.008-4.679h-3.165v1.146c0,2.207.012,4.415-.006,6.622a1.624,1.624,0,0,1-1.6,1.795,1.62,1.62,0,0,1-1.631-1.767c-.022-1.271-.006-2.542-.006-3.813,0-1.326,0-2.651,0-3.986h-3.162c0,1.456,0,2.854,0,4.252,0,1.351-.572,2.089-1.6,2.1s-1.637-.726-1.642-2.061c-.006-1.426,0-2.852,0-4.3h-3.162c0,1.387,0,2.717,0,4.047,0,1.544-.52,2.291-1.6,2.31-1.105.018-1.649-.757-1.65-2.356,0-1.326,0-2.652,0-4h-3.162c0,1.484.006,2.914,0,4.344-.007,1.267-.588,1.994-1.59,2.015-1.039.021-1.65-.727-1.655-2.048-.006-1.427,0-2.854,0-4.323Zm30.22,29h-9.376V219.21c.756-.526,1.4-.971,2.048-1.425,2.776-1.96,2.453-2.017,5.253-.035.662.469,1.328.931,2.076,1.455Zm-3.155-3.431v-9.477h-3.044v9.477Zm-33.525,64.188h3.076v-3.028h-3.076Zm60.931-3.06v3.058h3.037v-3.058Z"/>
    <path id="Trazado_316572" data-name="Trazado 316572" d="M-185.8,288.34h17.438v1.216q0,10.283-.006,20.567c0,.837.047,1.617.9,2.061s1.532.017,2.206-.458c1.42-1,2.864-1.964,4.263-2.99a1,1,0,0,1,1.4-.011c1.419,1.056,2.888,2.045,4.326,3.076a1.9,1.9,0,0,0,2.126.372,1.881,1.881,0,0,0,.925-1.946q-.018-10.283-.007-20.567v-1.284h12.718c.029.349.087.732.087,1.116q.007,18.811,0,37.622c0,1.3-.006,1.3-1.345,1.3q-21.932,0-43.863,0H-185.8Z" transform="translate(-44.253 -88.182)" fill="#fac850"/>
    <path id="Trazado_316573" data-name="Trazado 316573" d="M-185.918,180.2h4.681c0,1.469,0,2.9,0,4.323.005,1.321.616,2.07,1.655,2.048,1-.021,1.583-.749,1.59-2.015.007-1.43,0-2.86,0-4.344h3.162c0,1.351,0,2.677,0,4,0,1.6.545,2.374,1.65,2.356,1.078-.018,1.6-.766,1.6-2.31,0-1.33,0-2.661,0-4.047h3.162c0,1.443,0,2.869,0,4.3.005,1.336.6,2.075,1.642,2.061s1.6-.751,1.6-2.1c0-1.4,0-2.8,0-4.252h3.162c0,1.335,0,2.66,0,3.986,0,1.271-.016,2.542.006,3.813a1.62,1.62,0,0,0,1.631,1.767,1.624,1.624,0,0,0,1.6-1.795c.018-2.207.006-4.415.006-6.622v-1.146h3.165c0,1.562-.022,3.121.008,4.679a1.6,1.6,0,0,0,1.62,1.673,1.625,1.625,0,0,0,1.612-1.688c.016-.3,0-.6,0-.9,0-1.232,0-2.464,0-3.759h3.165c0,1.554-.022,3.112.008,4.67a1.6,1.6,0,0,0,1.613,1.68,1.624,1.624,0,0,0,1.619-1.682c.017-.3.005-.6.005-.9,0-1.232,0-2.465,0-3.763h3.165c0,1.546,0,3.1,0,4.662a1.411,1.411,0,0,0,1.129,1.564,2.6,2.6,0,0,0,1.687-.488c.293-.207.4-.826.41-1.266.048-1.466.018-2.934.018-4.469h4.691v12.652h-51.079Z" transform="translate(-44.169 -8.969)" fill="#fa5d3f"/>
    <path id="Trazado_316574" data-name="Trazado 316574" d="M-98.63,288.585v18.981c-.748-.524-1.414-.986-2.076-1.455-2.8-1.982-2.477-1.926-5.253.035-.643.454-1.292.9-2.048,1.425V288.585Z" transform="translate(-101.237 -88.361)" fill="#fa5d3f"/>
    <path id="Trazado_316575" data-name="Trazado 316575" d="M-93.084,249.813h-3.044v-9.477h3.044Z" transform="translate(-109.937 -53.021)" fill="#fac850"/>
    <path id="Trazado_316576" data-name="Trazado 316576" d="M-210.062,507.4v-3.028h3.076V507.4Z" transform="translate(-26.484 -246.416)" fill="#fa5d3f"/>
    <path id="Trazado_316577" data-name="Trazado 316577" d="M17.692,504.253h3.037v3.058H17.692Z" transform="translate(-193.307 -246.331)" fill="#fa5d3f"/>
  </g>
</svg>
