<svg xmlns="http://www.w3.org/2000/svg" xmlns:xlink="http://www.w3.org/1999/xlink" width="104" height="104" viewBox="0 0 104 104">
  <defs>
    <clipPath id="clip-path">
      <rect id="Rectángulo_215236" data-name="Rectángulo 215236" width="104" height="104" transform="translate(0 0)" fill="none"/>
    </clipPath>
  </defs>
  <g id="Grupo_596554" data-name="Grupo 596554" transform="translate(0 -0.105)">
    <g id="Grupo_596553" data-name="Grupo 596553" transform="translate(0 0.105)" clip-path="url(#clip-path)">
      <path id="Trazado_319387" data-name="Trazado 319387" d="M263.136,37.684c-1.745,2.316-3.445,4.668-5.246,6.94-3.245,4.092-6.544,8.142-9.833,12.2-1.832,2.259-4.519,2.3-6.336.061q-7.084-8.73-14.123-17.495a3.885,3.885,0,0,1-.6-4.369,3.763,3.763,0,0,1,3.789-2.226c.78.019,1.56.007,2.34,0,.231,0,.462-.028.757-.048a22.625,22.625,0,0,0-2.788-8.678,46.629,46.629,0,0,0-8.452-10.887c-.814-.817-1.652-1.611-2.445-2.448a7.019,7.019,0,0,1-2.133-5.013A5.7,5.7,0,0,1,222.058.278c.252-.083.5-.185.745-.278h2.241c1.978.681,4.008,1.24,5.926,2.062,10.744,4.606,18.659,12.076,22.864,23.126a75.447,75.447,0,0,1,2.043,7.607c.653,0,1.469.06,2.274-.011a4.358,4.358,0,0,1,4.984,3.067Zm-4.33-.769c-1.695,0-3.172,0-4.649,0-1.837-.005-2.513-.743-2.666-2.572a24.922,24.922,0,0,0-.743-5.211C246.678,15.848,237.43,7.975,224.358,4.2a1.642,1.642,0,0,0-2,2.307,5.938,5.938,0,0,0,1.349,1.87,68.8,68.8,0,0,1,8.833,10.092c3.25,4.8,5.511,9.949,5.6,15.865.026,1.843-.7,2.572-2.577,2.577-1.471,0-2.943,0-4.647,0L244.864,54.2l13.941-17.285" transform="translate(-158.843 -0.145)"/>
      <path id="Trazado_319388" data-name="Trazado 319388" d="M0,189.312c1.959-2.58,3.877-5.192,5.887-7.731,3.009-3.8,6.082-7.555,9.129-11.327,1.91-2.363,4.564-2.411,6.466-.065,4.677,5.769,9.323,11.564,13.994,17.338a3.951,3.951,0,0,1,.656,4.452,3.812,3.812,0,0,1-3.892,2.229c-.975-.03-1.953-.005-3-.005a22.728,22.728,0,0,0,2.8,8.729,47.368,47.368,0,0,0,8.669,11.1c.839.839,1.715,1.647,2.5,2.535A6.1,6.1,0,0,1,40.332,227H38.091c-2.719-1.015-5.541-1.819-8.14-3.082C20.262,219.2,13.129,212,9.3,201.809A78.51,78.51,0,0,1,7.257,194.2c-.65,0-1.466-.059-2.27.011A4.364,4.364,0,0,1,0,191.145v-1.833m4.332.769c1.7,0,3.179,0,4.658,0,1.83.005,2.5.748,2.657,2.581a25.833,25.833,0,0,0,.807,5.4c4.11,13.18,13.342,20.981,26.332,24.726a1.639,1.639,0,0,0,1.98-2.317,5.989,5.989,0,0,0-1.349-1.87,68.568,68.568,0,0,1-8.888-10.177c-3.18-4.716-5.4-9.776-5.529-15.576-.046-2.085.622-2.768,2.681-2.771,1.436,0,2.873,0,4.543,0L18.275,172.8,4.332,190.081" transform="translate(0 -122.848)"/>
      <path id="Trazado_319389" data-name="Trazado 319389" d="M189.315,263.107c-2.262-1.7-4.561-3.362-6.779-5.121-4.091-3.245-8.139-6.545-12.2-9.83-2.511-2.032-2.5-4.634.01-6.66q8.471-6.835,16.937-13.676a4.567,4.567,0,0,1,3.128-1.246,3.875,3.875,0,0,1,3.783,3.775c.035,1.145.007,2.291.007,3.515a22.858,22.858,0,0,0,8.822-2.844,47.044,47.044,0,0,0,10.8-8.405c.889-.885,1.745-1.808,2.675-2.648a6.108,6.108,0,0,1,10.5,2.807v2.241a2.87,2.87,0,0,0-.2.445,40.932,40.932,0,0,1-4.314,10.5c-5.413,9.141-12.932,15.7-23.274,18.7-1.61.467-3.292.688-5,1.035,0,.81-.058,1.625.011,2.43a4.371,4.371,0,0,1-3.07,4.985ZM172.8,244.833l17.286,13.938c0-1.644,0-3.034,0-4.424,0-2.129.668-2.74,2.757-2.892a22.806,22.806,0,0,0,5.009-.728c13.281-4.069,21.158-13.31,24.937-26.379a1.641,1.641,0,0,0-2.283-2.022,5.86,5.86,0,0,0-1.873,1.343,69.008,69.008,0,0,1-10.258,8.948c-4.782,3.213-9.914,5.428-15.791,5.5-1.73.02-2.488-.724-2.5-2.452-.008-1.51,0-3.019,0-4.772L172.8,244.833" transform="translate(-122.706 -158.959)"/>
      <path id="Trazado_319390" data-name="Trazado 319390" d="M0,38.091c1.1-2.9,2.092-5.855,3.334-8.7a39.154,39.154,0,0,1,2.906-5,2.064,2.064,0,1,1,3.437,2.244A39,39,0,0,0,4.425,37.919a2.146,2.146,0,0,0-.2.78c.089.6.085,1.412.463,1.73a2.227,2.227,0,0,0,1.84.3A5.1,5.1,0,0,0,8.4,39.405a69.527,69.527,0,0,1,10.012-8.772,30.165,30.165,0,0,1,13.622-5.491A23.762,23.762,0,0,1,34.675,25a2.026,2.026,0,0,1,2.233,2.2c.022,1.586.005,3.173.005,5.024L54.2,18.277,36.914,4.325c0,1.591,0,2.987,0,4.382,0,2.207-.642,2.871-2.81,2.926a25.593,25.593,0,0,0-10.431,2.753c-.336.161-.661.345-1,.5A2.069,2.069,0,1,1,20.812,11.2,31.376,31.376,0,0,1,31.471,7.7c.4-.053.8-.123,1.321-.2,0-.832.061-1.677-.011-2.51A4.366,4.366,0,0,1,35.851,0h1.833c2.531,1.915,5.1,3.787,7.584,5.756,3.858,3.055,7.665,6.174,11.489,9.272,2.358,1.91,2.389,4.556.03,6.47C51.041,26.16,45.27,30.791,39.518,35.445a3.985,3.985,0,0,1-4.542.666,3.839,3.839,0,0,1-2.189-3.922c.032-.944.006-1.891.006-2.931a20.291,20.291,0,0,0-7.149,2,43.984,43.984,0,0,0-12.451,9.217c-.891.885-1.746,1.809-2.676,2.652a6.484,6.484,0,0,1-7.7,1.145A6.414,6.414,0,0,1,0,40.332V38.091" transform="translate(0 -0.145)"/>
      <path id="Trazado_319391" data-name="Trazado 319391" d="M48.465,62.349a2.027,2.027,0,0,1-2.089,2.028,2.051,2.051,0,1,1,2.089-2.028" transform="translate(-32.312 -44.049)"/>
      <path id="Trazado_319392" data-name="Trazado 319392" d="M269.892,47.97,255.951,65.254,242,47.97c1.7,0,3.176,0,4.647,0,1.873-.006,2.6-.734,2.577-2.577-.085-5.916-2.346-11.068-5.6-15.865A68.8,68.8,0,0,0,234.8,19.435a5.938,5.938,0,0,1-1.349-1.87,1.642,1.642,0,0,1,2-2.307c13.073,3.772,22.32,11.645,26.39,24.928a24.925,24.925,0,0,1,.743,5.211c.152,1.829.829,2.567,2.666,2.572,1.477,0,2.954,0,4.649,0" transform="translate(-169.929 -11.2)" fill="#fa5d3f"/>
      <path id="Trazado_319393" data-name="Trazado 319393" d="M15.949,201.727l13.943-17.284,13.949,17.284c-1.67,0-3.106,0-4.543,0-2.059,0-2.726.686-2.681,2.771.127,5.8,2.35,10.86,5.529,15.576a68.569,68.569,0,0,0,8.888,10.177,5.989,5.989,0,0,1,1.349,1.87,1.639,1.639,0,0,1-1.98,2.317c-12.99-3.745-22.222-11.546-26.332-24.726a25.833,25.833,0,0,1-.807-5.4c-.161-1.833-.827-2.576-2.657-2.581-1.479,0-2.959,0-4.658,0" transform="translate(-11.617 -134.494)" fill="#fa5d3f"/>
      <path id="Trazado_319394" data-name="Trazado 319394" d="M184.439,255.944,201.726,242c0,1.753-.006,3.262,0,4.772.008,1.728.766,2.471,2.5,2.452,5.877-.067,11.009-2.282,15.791-5.5a69.012,69.012,0,0,0,10.258-8.948,5.86,5.86,0,0,1,1.873-1.343,1.641,1.641,0,0,1,2.283,2.022c-3.779,13.069-11.656,22.31-24.937,26.379a22.8,22.8,0,0,1-5.009.728c-2.089.152-2.755.763-2.757,2.892,0,1.39,0,2.78,0,4.424l-17.286-13.938" transform="translate(-134.346 -170.07)" fill="#fac850"/>
      <path id="Trazado_319395" data-name="Trazado 319395" d="M45.764,15.177l18.12,13.711L46.648,43.7c-.054-1.743-.1-3.248-.148-4.753-.065-1.916-.834-2.639-2.718-2.554-6.048.274-11.246,2.75-16.049,6.226a70.387,70.387,0,0,0-10.042,9.355,6.077,6.077,0,0,1-1.87,1.439A1.68,1.68,0,0,1,13.4,51.447c3.443-13.49,11.2-23.2,24.66-27.782a25.5,25.5,0,0,1,5.306-.925c1.866-.214,2.6-.929,2.546-2.808-.043-1.511-.093-3.022-.147-4.755" transform="translate(-9.712 -11.2)" fill="#fac850"/>
    </g>
  </g>
</svg>
