<svg xmlns="http://www.w3.org/2000/svg" width="60" height="60" viewBox="0 0 60 60">
  <g id="Grupo_597152" data-name="Grupo 597152" transform="translate(-187 -10307.109)">
    <circle id="Elipse_5410" data-name="Elipse 5410" cx="30" cy="30" r="30" transform="translate(187 10307.109)" fill="#5263e2"/>
    <g id="Grupo_577361" data-name="Grupo 577361" transform="translate(1561.128 9958.523)">
      <path id="Trazado_289298" data-name="Trazado 289298" d="M-1336.136,383a8.025,8.025,0,0,0,.982-.012.634.634,0,0,0,.368-.266q.561-.8,1.084-1.619a1,1,0,0,1,.959-.506c.447.018.9,0,1.41,0,0-.689,0-1.349,0-2.01,0-.968.21-1.183,1.158-1.192.13,0,.259,0,.4,0a1.924,1.924,0,0,0-.555-1.9c-1.852-1.753-3.65-3.565-5.414-5.407a1.85,1.85,0,0,0-1.991-.63c0,.741-.015,1.518.016,2.294.005.121.209.263.35.345a2.407,2.407,0,0,1,1.113,2.837,2.42,2.42,0,0,1-2.466,1.655,2.425,2.425,0,0,1-2.2-2.112,2.211,2.211,0,0,1,0-.26h1.536a3.557,3.557,0,0,0,.149.345.745.745,0,0,0,.881.406.748.748,0,0,0,.612-.755.758.758,0,0,0-.578-.784c-1.014-.324-1.015-.32-1.015-1.366q0-3.2,0-6.4c0-.815.258-1.068,1.08-1.069.85,0,1.7.021,2.551-.009a1.485,1.485,0,0,1,1.194.486c1.827,1.851,3.681,3.675,5.5,5.53a1.176,1.176,0,0,0,1,.4,4.675,4.675,0,0,1,1.048.026,2.382,2.382,0,0,1,2.022,2.375c.013,1.15,0,2.3,0,3.451v.544c.268,0,.5-.007.724,0a.8.8,0,0,1,.873.873c.013.749,0,1.5,0,2.327.709,0,1.4,0,2.094,0,.856,0,1.107.248,1.108,1.092,0,.9.025,1.8-.014,2.7a1.476,1.476,0,0,1-.306.854q-3.064,3.5-6.183,6.95a1.362,1.362,0,0,1-.906.392q-18.206.029-36.412.022a.975.975,0,0,1-1.021-.7c-1-2.523-2.012-5.04-3.017-7.559-.352-.883-.038-1.348.908-1.355.15,0,.3,0,.531,0v-.887q0-1.375,0-2.751c0-.931.222-1.158,1.136-1.164h.464v-.553q0-3.976,0-7.953c0-.851.248-1.1,1.1-1.1h18.606c.851,0,1.1.249,1.1,1.1q0,3.951,0,7.9v.6h.567q3.176,0,6.352,0c.823,0,1.083.256,1.084,1.066C-1336.134,380.5-1336.136,381.727-1336.136,383Zm14.406-.8h-.6c-3.018,0-6.036.034-9.053-.022-.825-.015-1.4.146-1.74.932-.117.271-.353.488-.487.754a1.349,1.349,0,0,1-1.384.749q-15.255-.025-30.511-.012h-.658c.385.97.765,1.889,1.113,2.82a.519.519,0,0,0,.581.389q19.632-.013,39.264-.018a.893.893,0,0,0,.586-.264c.9-.98,1.786-1.981,2.664-2.985a.846.846,0,0,0,.215-.474C-1321.714,383.474-1321.729,382.875-1321.729,382.2Zm-4.566,7.227h-37.93a10.164,10.164,0,0,1,.379,1.007c.121.461.377.583.851.582q17.353-.023,34.707-.012a1.985,1.985,0,0,0,.4-.007.662.662,0,0,0,.339-.158C-1327.143,390.4-1326.754,389.951-1326.3,389.43Zm-37.03-16.067h7.957v-3.136h-1.594v1.546h-1.589v-1.54h-1.607v1.533h-1.607v-1.544h-1.558Zm14.373-1.575v-1.552h-1.607v1.529h-1.607v-1.54h-1.543v3.136h7.944V370.23h-1.6v1.558Zm-14.386,6.381h1.613v-1.541h1.589v1.534h1.607v-1.528h1.607v1.539h1.542v-3.135h-7.959Zm9.617,0h7.957V375.03h-1.594v1.546h-1.59v-1.54h-1.608v1.533h-1.607v-1.544h-1.558Zm-6.439,3.219v-1.551h-1.608v1.544h-1.59V379.84h-1.567v3.133h7.942v-3.147h-1.571v1.557Zm4.839,1.584h7.956v-3.136h-1.594v1.547h-1.59v-1.54h-1.607v1.534h-1.607v-1.545h-1.558Zm9.615-3.155v3.152h7.943v-3.13h-1.6v1.54h-1.59v-1.534h-1.607v1.527h-1.607v-1.556Zm7.993-12.016a10,10,0,0,0,1.032-.006,1.7,1.7,0,0,1,1.5.605c1.652,1.7,3.339,3.357,5.013,5.03.12.12.245.234.439.419,0-.572.019-1.021-.01-1.467a.8.8,0,0,0-.219-.465q-2.729-2.752-5.479-5.483a.715.715,0,0,0-.414-.222c-.611-.024-1.224-.01-1.858-.01Zm12.763,11.243h-4.757v1.535h4.757Zm-1.582-1.659c0-1.356.009-2.655,0-3.954a.782.782,0,0,0-.817-.824c-.244-.013-.489,0-.745,0v4.78Z" transform="translate(0)" fill="#fff"/>
      <path id="Trazado_289299" data-name="Trazado 289299" d="M-1098.123,510.39v-1.54h1.539v1.54Z" transform="translate(-233.988 -125.02)" fill="#fff"/>
      <path id="Trazado_289300" data-name="Trazado 289300" d="M-1072.546,510.392h-1.535v-1.556h1.535Z" transform="translate(-254.823 -125.008)" fill="#fff"/>
      <path id="Trazado_289301" data-name="Trazado 289301" d="M-1048.483,510.443h-1.536V508.9h1.536Z" transform="translate(-275.675 -125.062)" fill="#fff"/>
    </g>
  </g>
</svg>
