<svg xmlns="http://www.w3.org/2000/svg" width="1233" height="455.5" viewBox="0 0 1233 455.5">
  <g id="Grupo_596860" data-name="Grupo 596860" transform="translate(-187 -10096.609)">
    <g id="Grupo_171388" data-name="Grupo 171388" transform="translate(285 10132.109)">
      <text id="Desagrupar_o_desconsolidar_varios_embarques" data-name="Desagrupar o desconsolidar varios embarques" fill="#12263f" font-size="18" font-family="Arial-Black, Arial" font-weight="800"><tspan x="0" y="20">Desagrupar o desconsolidar varios </tspan></text>
      <text id="Relacionados_en_un_mismo_documento_de_transporte_carta_de_porte_o_equivalente_donde_la_mercancía_está_referenciada_a_diferentes_clientes_o_consignatarios_que_necesitan_una_distribución_posterior." data-name="Relacionados en un mismo documento de transporte, carta de porte o equivalente, donde la mercancía está referenciada a diferentes clientes o consignatarios que necesitan una distribución posterior." transform="translate(0 39)" fill="#12263f" font-size="16" font-family="ArialMT, Arial"><tspan x="0" y="14">Relacionados en un mismo documento de transporte, carta de porte o equivalente, donde la mercancía está referenciada a diferentes clientes o consignatarios </tspan><tspan x="0" y="36">que necesitan una distribución posterior.</tspan></text>
    </g>
    <g id="Grupo_171386" data-name="Grupo 171386" transform="translate(285 10292.109)">
      <text id="Desconsolidar_embarques_consolidados_en_un_mismo_packing" data-name="Desconsolidar embarques consolidados en un mismo packing" fill="#12263f" font-size="18" font-family="Arial-Black, Arial" font-weight="800"><tspan x="0" y="20">Desconsolidar embarques consolidados en un mismo </tspan><tspan y="20" font-family="Arial-BoldItalicMT, Arial" font-weight="700" font-style="italic">packing</tspan></text>
      <text id="Lista_de_empaque_o_lista_de_carga:_inventario_de_la_mercancía_que_se_va_a_exportar_la_cual_debe_ser_clasificada_por_referencias_y_así_facilitar_la_ubicación_en_el_almacén." data-name="Lista de empaque o lista de carga: inventario de la mercancía que se va a exportar; la cual debe ser clasificada por referencias y así facilitar la ubicación en el almacén." transform="translate(0 39)" fill="#12263f" font-size="16" font-family="ArialMT, Arial"><tspan x="0" y="14">Lista de empaque o lista de carga: inventario de la mercancía que se va a exportar; la cual debe ser clasificada por referencias y así facilitar la ubicación en el </tspan><tspan x="0" y="36">almacén.</tspan></text>
    </g>
    <g id="Grupo_577359" data-name="Grupo 577359" transform="translate(285 10445.109)">
      <text id="Desconsolidación_de_embarques_mixtos" data-name="Desconsolidación de embarques mixtos" fill="#12263f" font-size="18" font-family="Arial-Black, Arial" font-weight="800"><tspan x="0" y="20">Desconsolidación de embarques mixtos</tspan></text>
      <text id="Es_la_combinación_de_los_dos_anteriores_y_requiere_que_las_mercancías_sean_distribuidas_tanto_para_stock_como_para_cross-docking_cruzar_de_un_muelle_a_otro_sin_necesidad_de_almacenar_mercancías_como_en_el_caso_de_objetos_postales_pues_simplemente_llega" data-name="Es la combinación de los dos anteriores y requiere que las mercancías sean distribuidas tanto para stock como para cross-docking (cruzar de un muelle a otro, sin necesidad de almacenar mercancías, como en el caso de objetos postales, pues simplemente llega" transform="translate(0 39)" fill="#12263f" font-size="16" font-family="ArialMT, Arial"><tspan x="0" y="14">Es la combinación de los dos anteriores y requiere que las mercancías sean distribuidas tanto para stock como para </tspan><tspan y="14" font-family="Arial-ItalicMT, Arial" font-style="italic">cross-docking</tspan><tspan y="14" xml:space="preserve"> (cruzar de un muelle a otro, </tspan><tspan x="0" y="36">sin necesidad de almacenar mercancías, como en el caso de objetos postales, pues simplemente llegan y luego se reparten para cada lugar de destino, no se </tspan><tspan x="0" y="58">almacenan).</tspan></text>
    </g>
    <circle id="Elipse_5409" data-name="Elipse 5409" cx="30" cy="30" r="30" transform="translate(187 10143.109)" fill="#5263e2"/>
    <circle id="Elipse_5410" data-name="Elipse 5410" cx="30" cy="30" r="30" transform="translate(187 10307.109)" fill="#5263e2"/>
    <circle id="Elipse_5691" data-name="Elipse 5691" cx="30" cy="30" r="30" transform="translate(187 10469.109)" fill="#5263e2"/>
    <line id="Línea_628" data-name="Línea 628" x2="469.5" transform="translate(202.5 10097.609)" fill="none" stroke="#afafaf" stroke-width="2"/>
    <line id="Línea_627" data-name="Línea 627" x2="469.5" transform="translate(202.5 10255.109)" fill="none" stroke="#afafaf" stroke-width="2"/>
    <line id="Línea_626" data-name="Línea 626" x2="469.5" transform="translate(202.5 10414.848)" fill="none" stroke="#afafaf" stroke-width="2"/>
    <g id="Grupo_577360" data-name="Grupo 577360" transform="translate(865.447 9882.92)">
      <path id="Trazado_289286" data-name="Trazado 289286" d="M-669.447,288.37a1,1,0,0,1,1.033-.47c.373.042.519-.068.578-.476.39-2.687.817-5.369,1.233-8.053.08-.518.31-.743.834-.747q2.739-.016,5.479,0c.619,0,.833.279.833.99q0,4.433,0,8.867v1.531h1.432v-.5q0-5.6,0-11.209c0-.94.181-1.119,1.131-1.119h24.885c.912,0,1.113.2,1.114,1.1q0,4.517,0,9.034v.549c.165.008.311.022.457.022.962,0,1.924,0,2.886,0,.842.006,1.138.483.762,1.232q-1.957,3.9-3.92,7.8c-.068.136-.131.275-.215.453,1.2.387,2.177,1.277,3.52,1.232a.707.707,0,0,1,.782.742c-.023.432-.355.669-.891.667a5.6,5.6,0,0,1-2.776-.8,4.222,4.222,0,0,0-4.377-.032,5.9,5.9,0,0,1-6.084-.023,4.119,4.119,0,0,0-4.225,0,5.942,5.942,0,0,1-6.16-.017,4.03,4.03,0,0,0-4.147,0,5.888,5.888,0,0,1-5.137.507,7.778,7.778,0,0,1-1.012-.492,4.21,4.21,0,0,0-4.229-.006,6.088,6.088,0,0,1-2.8.86.894.894,0,0,1-.981-.528v-.418a1.134,1.134,0,0,1,1.026-.5c.281-.01.56-.07.9-.116l-1.931-3.235Zm1.461.957a1.265,1.265,0,0,0-.033.176q0,2.572,0,5.143a.569.569,0,0,0,.058.278c.571.968,1.15,1.932,1.723,2.89a5.753,5.753,0,0,1,5.525.129,4.464,4.464,0,0,0,4.678-.007,5.491,5.491,0,0,1,5.62-.016,4.59,4.59,0,0,0,4.725.018,5.6,5.6,0,0,1,5.666,0,4.515,4.515,0,0,0,4.722-.029,5.014,5.014,0,0,1,2.462-.706.6.6,0,0,0,.6-.392c1.169-2.356,2.355-4.7,3.535-7.055.06-.12.111-.243.185-.405-.122-.012-.2-.026-.279-.026-2.2,0-4.4-.006-6.607.008a.981.981,0,0,0-.522.2c-.733.531-1.438,1.1-2.185,1.613a1.734,1.734,0,0,1-.914.3c-6.955.017-13.91.011-20.865.018a1.231,1.231,0,0,1-.965-.394c-.49-.515-.99-1.021-1.512-1.5a.946.946,0,0,0-.575-.238c-1.547-.019-3.094-.011-4.641-.011Zm1.515-1.431c1.294,0,2.505.016,3.715-.008a1.443,1.443,0,0,1,1.254.517c.16.2.358.362.587.589v-8.921h-4.353Zm34.116-6.438v-2.809h-7.115c0,.819.017,1.609-.008,2.4-.011.353.1.444.447.441,2.088-.015,4.177-.007,6.265-.008C-632.63,281.481-632.5,281.467-632.354,281.459Zm-8.564-2.809H-648v2.8h7.081Zm-15.64,0v2.806h7.072v-2.806Zm17.129,4.288v2.8h7.083v-2.8Zm-17.14,2.8h7.091v-2.789h-7.091Zm15.649-2.792H-648v2.8h7.08Zm-8.567,7.088v-2.81h-7.074v2.81Zm8.551,0v-2.8H-648v2.8Zm1.485.113a3.86,3.86,0,0,0,.727-.307c.736-.527,1.439-1.1,2.185-1.612a1.842,1.842,0,0,1,.915-.311c.946-.04,1.894-.013,2.842-.016.146,0,.292-.017.427-.026v-.648h-7.1Z" fill="#fff"/>
      <path id="Trazado_289287" data-name="Trazado 289287" d="M-669.447,534.571a.878.878,0,0,1,.895-.554,4.231,4.231,0,0,0,2.058-.607,5.677,5.677,0,0,1,5.884,0,4.293,4.293,0,0,0,4.45,0,5.679,5.679,0,0,1,5.849-.022,4.388,4.388,0,0,0,4.5.023,5.79,5.79,0,0,1,5.9,0,4.373,4.373,0,0,0,4.459,0,5.812,5.812,0,0,1,6.006.058,3.889,3.889,0,0,0,1.864.541,2.113,2.113,0,0,1,.291.031.715.715,0,0,1,.673.756.722.722,0,0,1-.786.651,5.266,5.266,0,0,1-2.49-.608,5.329,5.329,0,0,0-2.307-.791,4.241,4.241,0,0,0-2.335.5,6.179,6.179,0,0,1-3.719.866,6.1,6.1,0,0,1-2.4-.787,3.955,3.955,0,0,0-2.606-.553,6.148,6.148,0,0,0-1.77.563,6.364,6.364,0,0,1-3.577.774,5.537,5.537,0,0,1-2.251-.712,4.466,4.466,0,0,0-4.714.007,5.478,5.478,0,0,1-5.619,0,4.445,4.445,0,0,0-4.713.007,5.426,5.426,0,0,1-2.458.729,1.06,1.06,0,0,1-1.075-.453Z" transform="translate(0 -232.565)" fill="#fff"/>
      <path id="Trazado_289288" data-name="Trazado 289288" d="M-524.524,454.247c-.723,0-1.051-.226-1.044-.719s.345-.707,1.067-.707h.125c.592.008.927.273.92.73s-.323.689-.9.7Z" transform="translate(-131.014 -159.928)" fill="#fff"/>
      <path id="Trazado_289289" data-name="Trazado 289289" d="M-484.731,454.256c-.715.008-1.066-.228-1.062-.7s.36-.715,1.073-.711a2.3,2.3,0,0,1,.5.038.685.685,0,0,1,.558.725.685.685,0,0,1-.648.651A4.079,4.079,0,0,1-484.731,454.256Z" transform="translate(-167.232 -159.944)" fill="#fff"/>
      <path id="Trazado_289290" data-name="Trazado 289290" d="M-404.7,454.275a2.929,2.929,0,0,1-.458,0,.648.648,0,0,1-.6-.641.615.615,0,0,1,.5-.711,3.391,3.391,0,0,1,.951-.038.685.685,0,0,1,.65.731.7.7,0,0,1-.713.671c-.111.007-.222,0-.334,0Z" transform="translate(-240.105 -159.968)" fill="#fff"/>
      <path id="Trazado_289291" data-name="Trazado 289291" d="M-364.948,454.244c-.727,0-1.068-.22-1.077-.7s.354-.731,1.1-.73c.056,0,.111,0,.167,0,.531.015.863.284.871.707s-.332.711-.89.719Z" transform="translate(-276.291 -159.924)" fill="#fff"/>
      <path id="Trazado_289292" data-name="Trazado 289292" d="M-285.022,454.247c-.723,0-1.05-.227-1.042-.72s.345-.706,1.068-.706h.125c.592.008.926.274.919.731s-.323.688-.9.694Z" transform="translate(-349.101 -159.928)" fill="#fff"/>
      <path id="Trazado_289293" data-name="Trazado 289293" d="M-604.458,454.248c-.709,0-1.06-.24-1.045-.722s.355-.7,1.041-.7a2.746,2.746,0,0,1,.458.02.724.724,0,0,1,.631.717.718.718,0,0,1-.709.683C-604.207,454.256-604.333,454.248-604.458,454.248Z" transform="translate(-58.226 -159.932)" fill="#fff"/>
      <path id="Trazado_289294" data-name="Trazado 289294" d="M-564.514,454.186c-.083,0-.167,0-.25,0-.5-.016-.81-.293-.808-.71a.736.736,0,0,1,.773-.712,4.009,4.009,0,0,1,.667.008.7.7,0,0,1,.674.751.693.693,0,0,1-.722.659c-.111.007-.222,0-.334,0Z" transform="translate(-94.587 -159.867)" fill="#fff"/>
      <path id="Trazado_289295" data-name="Trazado 289295" d="M-444.752,454.177c-.1,0-.195,0-.292,0a.72.72,0,0,1-.773-.7.729.729,0,0,1,.724-.715,3.889,3.889,0,0,1,.708,0,.7.7,0,0,1,.682.745.691.691,0,0,1-.715.666c-.111.007-.222,0-.334,0Z" transform="translate(-203.634 -159.859)" fill="#fff"/>
      <path id="Trazado_289296" data-name="Trazado 289296" d="M-325.024,454.258c-.713.007-1.057-.232-1.045-.716.012-.466.358-.7,1.036-.7a2.349,2.349,0,0,1,.537.041.651.651,0,0,1,.537.733.671.671,0,0,1-.649.64C-324.745,454.27-324.885,454.258-325.024,454.258Z" transform="translate(-312.674 -159.946)" fill="#fff"/>
      <path id="Trazado_289297" data-name="Trazado 289297" d="M-612.356,318.5c-.1,0-.195,0-.292,0a.707.707,0,0,1-.763-.709.709.709,0,0,1,.725-.709,4.794,4.794,0,0,1,.626,0,.713.713,0,0,1,.762.716.7.7,0,0,1-.765.706C-612.161,318.5-612.259,318.5-612.356,318.5Z" transform="translate(-51.025 -36.31)" fill="#fff"/>
    </g>
    <g id="Grupo_577361" data-name="Grupo 577361" transform="translate(1561.128 9958.523)">
      <path id="Trazado_289298" data-name="Trazado 289298" d="M-1336.136,383a8.025,8.025,0,0,0,.982-.012.634.634,0,0,0,.368-.266q.561-.8,1.084-1.619a1,1,0,0,1,.959-.506c.447.018.9,0,1.41,0,0-.689,0-1.349,0-2.01,0-.968.21-1.183,1.158-1.192.13,0,.259,0,.4,0a1.924,1.924,0,0,0-.555-1.9c-1.852-1.753-3.65-3.565-5.414-5.407a1.85,1.85,0,0,0-1.991-.63c0,.741-.015,1.518.016,2.294.005.121.209.263.35.345a2.407,2.407,0,0,1,1.113,2.837,2.42,2.42,0,0,1-2.466,1.655,2.425,2.425,0,0,1-2.2-2.112,2.211,2.211,0,0,1,0-.26h1.536a3.557,3.557,0,0,0,.149.345.745.745,0,0,0,.881.406.748.748,0,0,0,.612-.755.758.758,0,0,0-.578-.784c-1.014-.324-1.015-.32-1.015-1.366q0-3.2,0-6.4c0-.815.258-1.068,1.08-1.069.85,0,1.7.021,2.551-.009a1.485,1.485,0,0,1,1.194.486c1.827,1.851,3.681,3.675,5.5,5.53a1.176,1.176,0,0,0,1,.4,4.675,4.675,0,0,1,1.048.026,2.382,2.382,0,0,1,2.022,2.375c.013,1.15,0,2.3,0,3.451v.544c.268,0,.5-.007.724,0a.8.8,0,0,1,.873.873c.013.749,0,1.5,0,2.327.709,0,1.4,0,2.094,0,.856,0,1.107.248,1.108,1.092,0,.9.025,1.8-.014,2.7a1.476,1.476,0,0,1-.306.854q-3.064,3.5-6.183,6.95a1.362,1.362,0,0,1-.906.392q-18.206.029-36.412.022a.975.975,0,0,1-1.021-.7c-1-2.523-2.012-5.04-3.017-7.559-.352-.883-.038-1.348.908-1.355.15,0,.3,0,.531,0v-.887q0-1.375,0-2.751c0-.931.222-1.158,1.136-1.164h.464v-.553q0-3.976,0-7.953c0-.851.248-1.1,1.1-1.1h18.606c.851,0,1.1.249,1.1,1.1q0,3.951,0,7.9v.6h.567q3.176,0,6.352,0c.823,0,1.083.256,1.084,1.066C-1336.134,380.5-1336.136,381.727-1336.136,383Zm14.406-.8h-.6c-3.018,0-6.036.034-9.053-.022-.825-.015-1.4.146-1.74.932-.117.271-.353.488-.487.754a1.349,1.349,0,0,1-1.384.749q-15.255-.025-30.511-.012h-.658c.385.97.765,1.889,1.113,2.82a.519.519,0,0,0,.581.389q19.632-.013,39.264-.018a.893.893,0,0,0,.586-.264c.9-.98,1.786-1.981,2.664-2.985a.846.846,0,0,0,.215-.474C-1321.714,383.474-1321.729,382.875-1321.729,382.2Zm-4.566,7.227h-37.93a10.164,10.164,0,0,1,.379,1.007c.121.461.377.583.851.582q17.353-.023,34.707-.012a1.985,1.985,0,0,0,.4-.007.662.662,0,0,0,.339-.158C-1327.143,390.4-1326.754,389.951-1326.3,389.43Zm-37.03-16.067h7.957v-3.136h-1.594v1.546h-1.589v-1.54h-1.607v1.533h-1.607v-1.544h-1.558Zm14.373-1.575v-1.552h-1.607v1.529h-1.607v-1.54h-1.543v3.136h7.944V370.23h-1.6v1.558Zm-14.386,6.381h1.613v-1.541h1.589v1.534h1.607v-1.528h1.607v1.539h1.542v-3.135h-7.959Zm9.617,0h7.957V375.03h-1.594v1.546h-1.59v-1.54h-1.608v1.533h-1.607v-1.544h-1.558Zm-6.439,3.219v-1.551h-1.608v1.544h-1.59V379.84h-1.567v3.133h7.942v-3.147h-1.571v1.557Zm4.839,1.584h7.956v-3.136h-1.594v1.547h-1.59v-1.54h-1.607v1.534h-1.607v-1.545h-1.558Zm9.615-3.155v3.152h7.943v-3.13h-1.6v1.54h-1.59v-1.534h-1.607v1.527h-1.607v-1.556Zm7.993-12.016a10,10,0,0,0,1.032-.006,1.7,1.7,0,0,1,1.5.605c1.652,1.7,3.339,3.357,5.013,5.03.12.12.245.234.439.419,0-.572.019-1.021-.01-1.467a.8.8,0,0,0-.219-.465q-2.729-2.752-5.479-5.483a.715.715,0,0,0-.414-.222c-.611-.024-1.224-.01-1.858-.01Zm12.763,11.243h-4.757v1.535h4.757Zm-1.582-1.659c0-1.356.009-2.655,0-3.954a.782.782,0,0,0-.817-.824c-.244-.013-.489,0-.745,0v4.78Z" transform="translate(0)" fill="#fff"/>
      <path id="Trazado_289299" data-name="Trazado 289299" d="M-1098.123,510.39v-1.54h1.539v1.54Z" transform="translate(-233.988 -125.02)" fill="#fff"/>
      <path id="Trazado_289300" data-name="Trazado 289300" d="M-1072.546,510.392h-1.535v-1.556h1.535Z" transform="translate(-254.823 -125.008)" fill="#fff"/>
      <path id="Trazado_289301" data-name="Trazado 289301" d="M-1048.483,510.443h-1.536V508.9h1.536Z" transform="translate(-275.675 -125.062)" fill="#fff"/>
    </g>
    <g id="Grupo_577362" data-name="Grupo 577362" transform="translate(2181.224 10195.182)">
      <path id="Trazado_289302" data-name="Trazado 289302" d="M-1986.6,303.492a1.023,1.023,0,0,1,1.013-.443c.344.028.692.006,1.084.006V300.1c0-.35,0-.7,0-1.049,0-.657.237-.888.9-.894.145,0,.29,0,.5,0v-1.218q0-1,0-2.01c0-.749.212-.962.955-.967h.434V288.4h1.389v5.542h1.405V290.5h1.4v3.464c.2,0,.36,0,.516,0,.65.006.885.243.886.905,0,1.076,0,2.152,0,3.289.206,0,.388,0,.571,0,.57.011.824.26.826.833,0,1.646,0,3.291,0,4.937v3.293h1.4v-.446q0-3.43,0-6.86c0-.871.183-1.058,1.039-1.058h6.652v-.486q0-3.474,0-6.947c0-.741.218-.956.966-.956h12.059c.74,0,.957.219.957.965q0,3.452,0,6.9v.52h.5q3.124,0,6.248,0c.716,0,.939.224.942.937,0,.364,0,.727,0,1.16.371,0,.73.023,1.084-.006a1.027,1.027,0,0,1,1.013.443v2.447c-.028.271-.064.541-.084.812-.212,2.858-.483,5.7-2.021,8.264a2.959,2.959,0,0,1,2.106,2.284v.874c-.363,1.552-1.523,2.385-3.416,2.379-12.7-.037-25.4-.019-38.1-.02-.175,0-.35,0-.524,0a2.815,2.815,0,0,1-2.519-1.792c-.061-.159-.123-.318-.185-.477v-1.049a3.009,3.009,0,0,1,2.427-2.267c.016,0,.026-.041.045-.072a11.174,11.174,0,0,1-2.115-5.307c-.149-.854-.239-1.719-.356-2.578Zm1.747,3.758a11.288,11.288,0,0,0,1.385,4.049,3.1,3.1,0,0,0,2.828,1.556q17.059-.031,34.117,0a1.462,1.462,0,0,0,1.317-.682,6.394,6.394,0,0,0,.488-.824,12.369,12.369,0,0,0,1.021-3.549c.136-.867.225-1.742.337-2.627h-4.783c0,.962-.015,1.9.008,2.847a.63.63,0,0,0,.583.614.651.651,0,0,0,.719-.379c.051-.1.089-.2.125-.284h1.353a2.031,2.031,0,0,1-.964,1.735,2.108,2.108,0,0,1-2.538-.169,2.085,2.085,0,0,1-2.476.195,2.035,2.035,0,0,1-1.01-1.769h1.358l.051.123c.174.424.474.633.822.544a.725.725,0,0,0,.565-.818c-.008-.291,0-.582,0-.874v-1.785c-2.441,0-4.814,0-7.186.01a.642.642,0,0,0-.419.232c-.444.539-.881,1.085-1.292,1.651a3.772,3.772,0,0,1-3.3,1.611c-3.742-.026-7.484-.008-11.227-.009-.947,0-1.894.023-2.839-.017a3.059,3.059,0,0,1-2.7-1.25c-.057-.088-.248-.124-.378-.125-1.107-.009-2.213-.005-3.32-.005Zm20.659,6.991h-19.224c-.146,0-.292-.005-.437,0a1.4,1.4,0,0,0-1.34,1.262,1.4,1.4,0,0,0,1.079,1.491,2.518,2.518,0,0,0,.564.039q19.334,0,38.667,0c.117,0,.234,0,.349-.006a1.416,1.416,0,0,0,1.274-1.238,1.38,1.38,0,0,0-.975-1.476,2.5,2.5,0,0,0-.689-.073Q-1954.556,314.239-1964.19,314.241Zm11.134-22.34H-1964.2v6.935h11.147Zm-7.7,15.3V300.28h-11.128V307.2Zm-15.373-.024v-7.586h-6.935v3.439a.459.459,0,0,0,.074.019c1.15,0,2.3,0,3.449.012a2.028,2.028,0,0,1,2.036,2.022c.007.276,0,.554.019.829C-1977.423,306.773-1977.025,307.143-1976.133,307.173Zm20.315-3.447h12.526v-1.37h-.506c-3.2,0-6.4.023-9.6-.013A2.526,2.526,0,0,0-1955.818,303.726Zm-25.849-8.346v2.758h4.133v-2.758Zm36.3,4.906h-11.139v1.936a3.869,3.869,0,0,1,3.41-1.264h7.729Zm-33.537,5.549v-.348c0-.892-.142-1.033-1.037-1.033q-2.38,0-4.76,0c-.151,0-.3.012-.468.02l.116,1.361Zm19.6.043c.474-.609.891-1.142,1.3-1.68a.351.351,0,0,0,.067-.2c0-1.233,0-2.465,0-3.714h-1.372Z" fill="#fff"/>
      <path id="Trazado_289303" data-name="Trazado 289303" d="M-1775.055,334.641h-1.345V330.5h1.345Z" transform="translate(-185.704 -37.198)" fill="#fff"/>
      <path id="Trazado_289304" data-name="Trazado 289304" d="M-1752.332,330.366h1.344v4.14h-1.344Z" transform="translate(-206.967 -37.079)" fill="#fff"/>
      <path id="Trazado_289305" data-name="Trazado 289305" d="M-1728.332,330.366h1.344v4.14h-1.344Z" transform="translate(-228.171 -37.079)" fill="#fff"/>
      <path id="Trazado_289306" data-name="Trazado 289306" d="M-1842.316,402.35h1.341v4.155h-1.341Z" transform="translate(-127.468 -100.675)" fill="#fff"/>
      <path id="Trazado_289307" data-name="Trazado 289307" d="M-1817,406.572h-1.348v-4.15H-1817Z" transform="translate(-148.644 -100.739)" fill="#fff"/>
      <path id="Trazado_289308" data-name="Trazado 289308" d="M-1794.439,406.545v-4.138h1.345v4.138Z" transform="translate(-169.767 -100.725)" fill="#fff"/>
    </g>
  </g>
</svg>
