<svg xmlns="http://www.w3.org/2000/svg" width="1030" height="593.597" viewBox="0 0 1030 593.597">
  <g id="Grupo_596864" data-name="Grupo 596864" transform="translate(-285 -1810)">
    <g id="Grupo_577363" data-name="Grupo 577363" transform="translate(333.559 1843.288)">
      <rect id="Rectángulo_209309" data-name="Rectángulo 209309" width="26.056" height="257.007" transform="translate(0 136.202)" fill="#43a99b"/>
      <rect id="Rectángulo_209310" data-name="Rectángulo 209310" width="26.056" height="257.007" transform="translate(370.706 136.202)" fill="#43a99b"/>
      <rect id="Rectángulo_209312" data-name="Rectángulo 209312" width="26.056" height="257.007" transform="translate(741.411 136.202)" fill="#43a99b"/>
      <rect id="Rectángulo_209311" data-name="Rectángulo 209311" width="26.056" height="257.007" transform="translate(499.801 26.056) rotate(-90)" fill="#43a99b"/>
      <rect id="Rectángulo_209313" data-name="Rectángulo 209313" width="26.056" height="257.007" transform="translate(146.861 444.136) rotate(-90)" fill="#43a99b"/>
    </g>
    <g id="Rectángulo_209301" data-name="Rectángulo 209301" transform="translate(285.789 2021)" fill="#fff1d3" stroke="#fff6e2" stroke-width="3">
      <rect width="285.431" height="174.101" rx="15" stroke="none"/>
      <rect x="1.5" y="1.5" width="282.431" height="171.101" rx="13.5" fill="none"/>
    </g>
    <text id="_2._Diferenciar_las_zonas_del_almacén_1_o_2_dígitos_" data-name="2. Diferenciar las zonas del almacén (1 o 2 dígitos)" transform="translate(315.794 2049)" fill="#12263f" font-size="22" font-family="Arial-BoldMT, Arial" font-weight="700"><tspan x="0" y="20">2. Diferenciar las </tspan><tspan x="0" y="50">zonas del almacén (1 </tspan><tspan x="0" y="80">o 2 dígitos)</tspan></text>
    <g id="Rectángulo_38762" data-name="Rectángulo 38762" transform="translate(285 1810)" fill="#fde9bf" stroke="#fff6e2" stroke-width="3">
      <rect width="285.431" height="174.101" rx="15" stroke="none"/>
      <rect x="1.5" y="1.5" width="282.431" height="171.101" rx="13.5" fill="none"/>
    </g>
    <text id="_1._Disponer_del_plano_o_layout_del_almacen" data-name="1. Disponer del plano o layout del almacen" transform="translate(315.794 1842)" fill="#12263f" font-size="22" font-family="Arial-BoldMT, Arial" font-weight="700"><tspan x="0" y="20">1. Disponer del plano </tspan><tspan x="0" y="50">o </tspan><tspan y="50" font-family="Arial-ItalicMT, Arial" font-weight="400" font-style="italic">layout </tspan><tspan y="50">del almacen</tspan></text>
    <g id="Rectángulo_209303" data-name="Rectángulo 209303" transform="translate(657.679 2021.005)" fill="#fde9bf" stroke="#fff6e2" stroke-width="3">
      <rect width="285.431" height="174.101" rx="15" stroke="none"/>
      <rect x="1.5" y="1.5" width="282.431" height="171.101" rx="13.5" fill="none"/>
    </g>
    <text id="_5._Iniciar_con_el_área_cerca_a_las_oficinas" data-name="5. Iniciar con el área cerca a las oficinas" transform="translate(688.868 2049)" fill="#12263f" font-size="22" font-family="Arial-BoldMT, Arial" font-weight="700"><tspan x="0" y="20">5. Iniciar con el área </tspan><tspan x="0" y="50">cerca a las oficinas</tspan></text>
    <g id="Rectángulo_209299" data-name="Rectángulo 209299" transform="translate(657.679 1810)" fill="#fde9bf" stroke="#fff6e2" stroke-width="3">
      <rect width="285.431" height="174.101" rx="15" stroke="none"/>
      <rect x="1.5" y="1.5" width="282.431" height="171.101" rx="13.5" fill="none"/>
    </g>
    <text id="_6._Codificar_estantería_o_muebles" data-name="6. Codificar estantería o muebles" transform="translate(688.868 1842)" fill="#12263f" font-size="22" font-family="Arial-BoldMT, Arial" font-weight="700"><tspan x="0" y="20">6. Codificar </tspan><tspan x="0" y="50">estantería o muebles</tspan></text>
    <g id="Rectángulo_209300" data-name="Rectángulo 209300" transform="translate(1029.568 1810)" fill="#fde9bf" stroke="#fff6e2" stroke-width="3">
      <rect width="285.431" height="174.101" rx="15" stroke="none"/>
      <rect x="1.5" y="1.5" width="282.431" height="171.101" rx="13.5" fill="none"/>
    </g>
    <text id="_7._Codificar_las_alturas_en_los_estantes" data-name="7. Codificar las alturas en los estantes" transform="translate(1060.758 1842)" fill="#12263f" font-size="22" font-family="Arial-BoldMT, Arial" font-weight="700"><tspan x="0" y="20">7. Codificar las </tspan><tspan x="0" y="50">alturas en los </tspan><tspan x="0" y="80">estantes</tspan></text>
    <g id="Rectángulo_209304" data-name="Rectángulo 209304" transform="translate(1029.568 2021.005)" fill="#fde9bf" stroke="#fff6e2" stroke-width="3">
      <rect width="285.431" height="174.101" rx="15" stroke="none"/>
      <rect x="1.5" y="1.5" width="282.431" height="171.101" rx="13.5" fill="none"/>
    </g>
    <text id="_8._Inicia_del_suelo_hacia_arriba" data-name="8. Inicia del suelo hacia arriba" transform="translate(1060.758 2049)" fill="#12263f" font-size="22" font-family="Arial-BoldMT, Arial" font-weight="700"><tspan x="0" y="20">8. Inicia del suelo </tspan><tspan x="0" y="50">hacia arriba</tspan></text>
    <g id="Rectángulo_209308" data-name="Rectángulo 209308" transform="translate(1029.568 2229.496)" fill="#fde9bf" stroke="#fff6e2" stroke-width="3">
      <rect width="285.431" height="174.101" rx="15" stroke="none"/>
      <rect x="1.5" y="1.5" width="282.431" height="171.101" rx="13.5" fill="none"/>
    </g>
    <text id="_9._Instalar_etiquetas" data-name="9. Instalar etiquetas" transform="translate(1060.758 2257)" fill="#12263f" font-size="22" font-family="Arial-BoldMT, Arial" font-weight="700"><tspan x="0" y="20">9. Instalar etiquetas</tspan></text>
    <g id="Rectángulo_209305" data-name="Rectángulo 209305" transform="translate(286.185 2229)" fill="#ffeeca" stroke="#fff6e2" stroke-width="3">
      <rect width="285.431" height="174.101" rx="15" stroke="none"/>
      <rect x="1.5" y="1.5" width="282.431" height="171.101" rx="13.5" fill="none"/>
    </g>
    <text id="_3._Codificar_cada_uno_de_los_espacios" data-name="3. Codificar cada uno de los espacios" transform="translate(316.979 2257)" fill="#12263f" font-size="22" font-family="Arial-BoldMT, Arial" font-weight="700"><tspan x="0" y="20">3. Codificar cada uno </tspan><tspan x="0" y="50">de los espacios</tspan></text>
    <g id="Rectángulo_209307" data-name="Rectángulo 209307" transform="translate(657.679 2229)" fill="#fde9bf" stroke="#fff6e2" stroke-width="3">
      <rect width="285.431" height="174.101" rx="15" stroke="none"/>
      <rect x="1.5" y="1.5" width="282.431" height="171.101" rx="13.5" fill="none"/>
    </g>
    <text id="_4._Codificar_cada_pasillo" data-name="4. Codificar cada pasillo" transform="translate(688.868 2257)" fill="#12263f" font-size="22" font-family="Arial-BoldMT, Arial" font-weight="700"><tspan x="0" y="20">4. Codificar cada </tspan><tspan x="0" y="50">pasillo</tspan></text>
  </g>
</svg>
