<svg xmlns="http://www.w3.org/2000/svg" width="79.736" height="79.736" viewBox="0 0 79.736 79.736">
  <g id="Grupo_596926" data-name="Grupo 596926" transform="translate(6846.736 7154)">
    <path id="Trazado_320346" data-name="Trazado 320346" d="M1341.487,812.162a39.868,39.868,0,1,1-39.868-39.868,39.868,39.868,0,0,1,39.868,39.868" transform="translate(-8108.487 -7926.294)" fill="#ff8578"/>
    <rect id="Rectángulo_215522" data-name="Rectángulo 215522" width="2.214" height="2.658" transform="translate(-6809.67 -7113.814) rotate(-80.72)" fill="#545454"/>
    <path id="Trazado_320349" data-name="Trazado 320349" d="M1345.52,826.828a29.237,29.237,0,1,1-29.236-29.236,29.236,29.236,0,0,1,29.236,29.236" transform="translate(-8123.152 -7940.592)" fill="#fff"/>
    <path id="Trazado_320353" data-name="Trazado 320353" d="M17.563,13.121a7.2,7.2,0,0,1-1.221,4.512A4.261,4.261,0,0,1,12.768,19.2a4.291,4.291,0,0,1-3.555-1.533,6.992,6.992,0,0,1-1.26-4.395V10.65A7.109,7.109,0,0,1,9.188,6.129a4.293,4.293,0,0,1,3.56-1.543A4.3,4.3,0,0,1,16.3,6.114a6.971,6.971,0,0,1,1.26,4.39ZM14.74,10.244a5.207,5.207,0,0,0-.483-2.576,1.634,1.634,0,0,0-1.509-.806,1.6,1.6,0,0,0-1.47.767,4.873,4.873,0,0,0-.5,2.4v3.46a5.466,5.466,0,0,0,.474,2.586,1.612,1.612,0,0,0,1.519.846,1.585,1.585,0,0,0,1.494-.811,5.335,5.335,0,0,0,.479-2.483ZM27.123,4.635V6.959H26.85a4.8,4.8,0,0,0-3.081,1,4.047,4.047,0,0,0-1.4,2.686,3.844,3.844,0,0,1,2.861-1.152,3.622,3.622,0,0,1,2.949,1.328,5.324,5.324,0,0,1,1.094,3.5,5.237,5.237,0,0,1-.6,2.51,4.307,4.307,0,0,1-1.7,1.748,4.937,4.937,0,0,1-2.485.625,4.611,4.611,0,0,1-3.628-1.562,6.065,6.065,0,0,1-1.382-4.17V12.447a9.128,9.128,0,0,1,.874-4.087,6.409,6.409,0,0,1,2.51-2.744,7.354,7.354,0,0,1,3.794-.981Zm-2.754,7.129a2.255,2.255,0,0,0-1.24.356,2.143,2.143,0,0,0-.82.941v.858a3.8,3.8,0,0,0,.557,2.208,1.8,1.8,0,0,0,1.563.794A1.779,1.779,0,0,0,25.9,16.2a2.922,2.922,0,0,0,.562-1.857,2.916,2.916,0,0,0-.566-1.871A1.846,1.846,0,0,0,24.369,11.764Z" transform="translate(-6825 -7127)" fill="#12263f"/>
  </g>
</svg>
