<svg xmlns="http://www.w3.org/2000/svg" width="79.735" height="79.736" viewBox="0 0 79.735 79.736">
  <g id="Grupo_596921" data-name="Grupo 596921" transform="translate(7373 7424)">
    <rect id="Rectángulo_215517" data-name="Rectángulo 215517" width="2.658" height="2.215" transform="translate(-7335 -7384.877) rotate(-25)" fill="#545454"/>
    <path id="Trazado_320338" data-name="Trazado 320338" d="M1341.487,169.948a39.868,39.868,0,1,1-39.868-39.868,39.868,39.868,0,0,1,39.868,39.868" transform="translate(-8634.751 -7554.08)" fill="#a4a3ff"/>
    <path id="Trazado_320340" data-name="Trazado 320340" d="M1345.52,184.614a29.237,29.237,0,1,1-29.236-29.236,29.236,29.236,0,0,1,29.236,29.236" transform="translate(-8649.047 -7568.378)" fill="#fff"/>
    <path id="Trazado_320350" data-name="Trazado 320350" d="M17.563,13.121a7.2,7.2,0,0,1-1.221,4.512A4.261,4.261,0,0,1,12.768,19.2a4.291,4.291,0,0,1-3.555-1.533,6.992,6.992,0,0,1-1.26-4.395V10.65A7.109,7.109,0,0,1,9.188,6.129a4.293,4.293,0,0,1,3.56-1.543A4.3,4.3,0,0,1,16.3,6.114a6.971,6.971,0,0,1,1.26,4.39ZM14.74,10.244a5.207,5.207,0,0,0-.483-2.576,1.634,1.634,0,0,0-1.509-.806,1.6,1.6,0,0,0-1.47.767,4.873,4.873,0,0,0-.5,2.4v3.46a5.466,5.466,0,0,0,.474,2.586,1.612,1.612,0,0,0,1.519.846,1.585,1.585,0,0,0,1.494-.811,5.335,5.335,0,0,0,.479-2.483ZM26.322,19H23.5V8.106l-3.369,1.04V6.871L26.02,4.762h.3Z" transform="translate(-7351 -7396)" fill="#12263f"/>
  </g>
</svg>
