<svg xmlns="http://www.w3.org/2000/svg" width="79.735" height="79.736" viewBox="0 0 79.735 79.736">
  <g id="Grupo_596923" data-name="Grupo 596923" transform="translate(7373 7288)">
    <rect id="Rectángulo_215518" data-name="Rectángulo 215518" width="2.658" height="2.215" transform="translate(-7334 -7249.571) rotate(-9.283)" fill="#545454"/>
    <path id="Trazado_320339" data-name="Trazado 320339" d="M1341.487,493.192a39.868,39.868,0,1,1-39.868-39.868,39.868,39.868,0,0,1,39.868,39.868" transform="translate(-8634.751 -7741.324)" fill="#ffde96"/>
    <path id="Trazado_320341" data-name="Trazado 320341" d="M1345.52,507.858a29.237,29.237,0,1,1-29.236-29.236,29.236,29.236,0,0,1,29.236,29.236" transform="translate(-8649.047 -7756.622)" fill="#fff"/>
    <path id="Trazado_320354" data-name="Trazado 320354" d="M17.563,13.121a7.2,7.2,0,0,1-1.221,4.512A4.261,4.261,0,0,1,12.768,19.2a4.291,4.291,0,0,1-3.555-1.533,6.992,6.992,0,0,1-1.26-4.395V10.65A7.109,7.109,0,0,1,9.188,6.129a4.293,4.293,0,0,1,3.56-1.543A4.3,4.3,0,0,1,16.3,6.114a6.971,6.971,0,0,1,1.26,4.39ZM14.74,10.244a5.207,5.207,0,0,0-.483-2.576,1.634,1.634,0,0,0-1.509-.806,1.6,1.6,0,0,0-1.47.767,4.873,4.873,0,0,0-.5,2.4v3.46a5.466,5.466,0,0,0,.474,2.586,1.612,1.612,0,0,0,1.519.846,1.585,1.585,0,0,0,1.494-.811,5.335,5.335,0,0,0,.479-2.483Zm7.6.4h1.5a2.119,2.119,0,0,0,1.592-.537,1.968,1.968,0,0,0,.518-1.426,1.74,1.74,0,0,0-.513-1.338,1.987,1.987,0,0,0-1.411-.479,2.083,2.083,0,0,0-1.357.444,1.421,1.421,0,0,0-.547,1.157H19.3a3.471,3.471,0,0,1,.6-2,4,4,0,0,1,1.68-1.382,5.606,5.606,0,0,1,2.378-.5,5.316,5.316,0,0,1,3.535,1.079,3.682,3.682,0,0,1,1.279,2.974,2.992,2.992,0,0,1-.6,1.8,3.87,3.87,0,0,1-1.562,1.26,3.533,3.533,0,0,1,1.792,1.289A3.5,3.5,0,0,1,29,15.016a3.743,3.743,0,0,1-1.382,3.037A5.556,5.556,0,0,1,23.959,19.2a5.268,5.268,0,0,1-3.481-1.123A3.668,3.668,0,0,1,19.125,15.1h2.822a1.635,1.635,0,0,0,.6,1.309,2.505,2.505,0,0,0,3.057-.024,1.837,1.837,0,0,0,.571-1.411q0-2.129-2.344-2.129H22.338Z" transform="translate(-7351 -7260)" fill="#12263f"/>
  </g>
</svg>
