<svg xmlns="http://www.w3.org/2000/svg" width="1026.736" height="349.736" viewBox="0 0 1026.736 349.736">
  <g id="Grupo_596860" data-name="Grupo 596860" transform="translate(-287.264 -4197)">
    <text id="Integración_entre_sistemas_y_herramientas_para_una_gestión_más_eficiente_en_la_cadena_de_suministro_como:_códigos_de_barras_RFID_radiofrecuencia_en_el_control_de_inventarios_y_GPS_optimización_de_rutas_." data-name="Integración entre sistemas y herramientas para una gestión más eficiente en la cadena de suministro, como: códigos de barras, RFID (radiofrecuencia en el control de inventarios) y GPS (optimización de rutas)." transform="translate(390 4201.332)" fill="#12263f" font-size="16" font-family="ArialMT, Arial"><tspan x="0" y="14">Integración entre sistemas y herramientas para una </tspan><tspan x="0" y="38">gestión más eficiente en la cadena de suministro, como: </tspan><tspan x="0" y="62">códigos de barras, RFID (radiofrecuencia en el control </tspan><tspan x="0" y="86">de inventarios) y GPS (optimización de rutas).</tspan></text>
    <text id="Implementación_de_sensores_en_medios_de_transporte_para_informar_la_geolocalización_y_condiciones_ambientales." data-name="Implementación de sensores en medios de transporte para informar la geolocalización y condiciones ambientales." transform="translate(914 4202)" fill="#12263f" font-size="16" font-family="ArialMT, Arial"><tspan x="0" y="14">Implementación de sensores en medios de transporte </tspan><tspan x="0" y="38">para informar la geolocalización y condiciones </tspan><tspan x="0" y="62">ambientales.</tspan></text>
    <text id="Sirve_como_herramienta_para_identificar_nuevos_clientes_tendencias_estrategias_o_ubicación_del_producto_y_centros_de_distribución." data-name="Sirve como herramienta para identificar nuevos clientes, tendencias, estrategias o ubicación del producto y centros de distribución." transform="translate(390 4337.332)" fill="#12263f" font-size="16" font-family="ArialMT, Arial"><tspan x="0" y="14">Sirve como herramienta para identificar nuevos clientes, </tspan><tspan x="0" y="38">tendencias, estrategias o ubicación del producto y </tspan><tspan x="0" y="62">centros de distribución.</tspan></text>
    <text id="Es_uno_de_los_principales_eslabones_de_las_compras_online." data-name="Es uno de los principales eslabones de las compras online." transform="translate(914 4350)" fill="#12263f" font-size="16" font-family="ArialMT, Arial"><tspan x="0" y="14">Es uno de los principales eslabones de las compras </tspan><tspan x="0" y="38">online.</tspan></text>
    <text id="Permite_la_integración_y_uso_de_dispositivos_masivos." data-name="Permite la integración y uso de dispositivos masivos." transform="translate(390 4494)" fill="#12263f" font-size="16" font-family="ArialMT, Arial"><tspan x="0" y="14">Permite la integración y uso de dispositivos masivos.</tspan></text>
    <text id="Reducción_de_tiempos_y_costos_para_una_mejor_rentabilidad." data-name="Reducción de tiempos y costos para una mejor rentabilidad." transform="translate(915 4484)" fill="#12263f" font-size="16" font-family="ArialMT, Arial"><tspan x="0" y="14">Reducción de tiempos y costos para una mejor </tspan><tspan x="0" y="38">rentabilidad.</tspan></text>
    <path id="Trazado_150845" data-name="Trazado 150845" d="M1341.487,169.948a39.868,39.868,0,1,1-39.868-39.868,39.868,39.868,0,0,1,39.868,39.868" transform="translate(-974.487 4066.92)" fill="#a4a3ff"/>
    <path id="Trazado_296606" data-name="Trazado 296606" d="M1341.487,169.948a39.868,39.868,0,1,1-39.868-39.868,39.868,39.868,0,0,1,39.868,39.868" transform="translate(-448.487 4066.92)" fill="#a4a3ff"/>
    <path id="Trazado_150846" data-name="Trazado 150846" d="M1341.487,493.192a39.868,39.868,0,1,1-39.868-39.868,39.868,39.868,0,0,1,39.868,39.868" transform="translate(-974.487 3879.523)" fill="#ffde96"/>
    <path id="Trazado_296607" data-name="Trazado 296607" d="M1341.487,493.192a39.868,39.868,0,1,1-39.868-39.868,39.868,39.868,0,0,1,39.868,39.868" transform="translate(-448.487 3879.676)" fill="#ffde96"/>
    <path id="Trazado_150847" data-name="Trazado 150847" d="M1341.487,812.162a39.868,39.868,0,1,1-39.868-39.868,39.868,39.868,0,0,1,39.868,39.868" transform="translate(-974.487 3694.604)" fill="#ff8578"/>
    <path id="Trazado_296608" data-name="Trazado 296608" d="M1341.487,812.162a39.868,39.868,0,1,1-39.868-39.868,39.868,39.868,0,0,1,39.868,39.868" transform="translate(-448.487 3694.706)" fill="#ff8578"/>
    <path id="Trazado_150868" data-name="Trazado 150868" d="M1345.52,184.614a29.237,29.237,0,1,1-29.236-29.236,29.236,29.236,0,0,1,29.236,29.236" transform="translate(-989.152 4052.254)" fill="#fff"/>
    <path id="Trazado_296609" data-name="Trazado 296609" d="M1345.52,184.614a29.237,29.237,0,1,1-29.236-29.236,29.236,29.236,0,0,1,29.236,29.236" transform="translate(-463.152 4052.622)" fill="#fff"/>
    <path id="Trazado_150869" data-name="Trazado 150869" d="M1345.52,507.858a29.237,29.237,0,1,1-29.236-29.236,29.236,29.236,0,0,1,29.236,29.236" transform="translate(-989.152 3864.856)" fill="#fff"/>
    <path id="Trazado_296610" data-name="Trazado 296610" d="M1345.52,507.858a29.237,29.237,0,1,1-29.236-29.236,29.236,29.236,0,0,1,29.236,29.236" transform="translate(-463.152 3864.378)" fill="#fff"/>
    <path id="Trazado_150871" data-name="Trazado 150871" d="M1345.52,826.828a29.237,29.237,0,1,1-29.236-29.236,29.236,29.236,0,0,1,29.236,29.236" transform="translate(-989.152 3679.938)" fill="#fff"/>
    <path id="Trazado_296611" data-name="Trazado 296611" d="M1345.52,826.828a29.237,29.237,0,1,1-29.236-29.236,29.236,29.236,0,0,1,29.236,29.236" transform="translate(-463.152 3680.408)" fill="#fff"/>
    <text id="_01" data-name="01" transform="translate(333 4225.282)" fill="#12263f" font-size="20" font-family="Arial-BoldMT, Arial" font-weight="700"><tspan x="-11.123" y="18">01</tspan></text>
    <text id="_04" data-name="04" transform="translate(858 4226)" fill="#12263f" font-size="20" font-family="Arial-BoldMT, Arial" font-weight="700"><tspan x="-11.123" y="18">04</tspan></text>
    <text id="_02" data-name="02" transform="translate(333 4361.236)" fill="#12263f" font-size="20" font-family="Arial-BoldMT, Arial" font-weight="700"><tspan x="-11.123" y="18">02</tspan></text>
    <text id="_05" data-name="05" transform="translate(858 4361)" fill="#12263f" font-size="20" font-family="Arial-BoldMT, Arial" font-weight="700"><tspan x="-11.123" y="18">05</tspan></text>
    <text id="_03" data-name="03" transform="translate(333 4494)" fill="#12263f" font-size="20" font-family="Arial-BoldMT, Arial" font-weight="700"><tspan x="-11.123" y="18">03</tspan></text>
    <text id="_06" data-name="06" transform="translate(858 4496)" fill="#12263f" font-size="20" font-family="Arial-BoldMT, Arial" font-weight="700"><tspan x="-11.123" y="18">06</tspan></text>
  </g>
</svg>
