<svg xmlns="http://www.w3.org/2000/svg" width="343.609" height="300.137" viewBox="0 0 343.609 300.137">
  <g id="Grupo_582020" data-name="Grupo 582020" transform="translate(-615.261 -60.879)">
    <g id="Grupo_581981" data-name="Grupo 581981" transform="translate(857.312 63.101)">
      <path id="Trazado_294748" data-name="Trazado 294748" d="M1048.01,87.964l-2.889-17.049a3.28,3.28,0,0,0-3.783-2.686L952.286,83.317A3.281,3.281,0,0,0,949.6,87.1l2.889,17.049a3.28,3.28,0,0,0,3.783,2.686l89.052-15.088A3.282,3.282,0,0,0,1048.01,87.964Z" transform="translate(-946.498 -65.05)" opacity="0.1"/>
      <g id="Grupo_581980" data-name="Grupo 581980">
        <rect id="Rectángulo_212761" data-name="Rectángulo 212761" width="96.884" height="23.853" rx="4.474" transform="translate(0 16.185) rotate(-9.616)" fill="#e9eaf4"/>
        <g id="Grupo_581979" data-name="Grupo 581979" transform="translate(3.834 7.46)">
          <rect id="Rectángulo_212762" data-name="Rectángulo 212762" width="16.564" height="16.564" rx="4.349" transform="translate(0 11.771) rotate(-9.617)" fill="none" stroke="#ccc1e0" stroke-miterlimit="10" stroke-width="0.985"/>
          <path id="Trazado_294749" data-name="Trazado 294749" d="M1047.76,78.535,987.071,88.817a2.241,2.241,0,0,1-2.584-1.834h0a2.241,2.241,0,0,1,1.835-2.584l60.688-10.283a2.241,2.241,0,0,1,2.584,1.835h0A2.241,2.241,0,0,1,1047.76,78.535Z" transform="translate(-959.644 -74.085)" fill="#ccc1e0"/>
          <path id="Trazado_294750" data-name="Trazado 294750" d="M1012.714,95.075l-24.267,4.112a2.24,2.24,0,0,1-2.583-1.834h0a2.241,2.241,0,0,1,1.834-2.584l24.267-4.111a2.24,2.24,0,0,1,2.583,1.834h0A2.241,2.241,0,0,1,1012.714,95.075Z" transform="translate(-960.011 -78.498)" fill="#ccc1e0"/>
        </g>
      </g>
    </g>
    <g id="Grupo_581984" data-name="Grupo 581984" transform="translate(617.897 60.879)">
      <path id="Trazado_294751" data-name="Trazado 294751" d="M747.64,90.4l-3.649-21.538a4.145,4.145,0,0,0-4.779-3.394l-112.5,19.062a4.145,4.145,0,0,0-3.394,4.779l3.649,21.538a4.145,4.145,0,0,0,4.779,3.394l112.5-19.062A4.145,4.145,0,0,0,747.64,90.4Z" transform="translate(-620.029 -62.088)" opacity="0.1"/>
      <g id="Grupo_581983" data-name="Grupo 581983">
        <path id="Trazado_294752" data-name="Trazado 294752" d="M739.846,90.648l-112.5,19.062a4.144,4.144,0,0,1-4.778-3.394l-3.649-21.538A4.144,4.144,0,0,1,622.309,80l112.5-19.062a4.144,4.144,0,0,1,4.778,3.394L743.24,85.87A4.144,4.144,0,0,1,739.846,90.648Z" transform="translate(-618.856 -60.879)" fill="#e9eaf4"/>
        <g id="Grupo_581982" data-name="Grupo 581982" transform="translate(4.21 8.792)">
          <rect id="Rectángulo_212763" data-name="Rectángulo 212763" width="20.926" height="20.926" rx="5.494" transform="matrix(0.986, -0.167, 0.167, 0.986, 0, 14.871)" fill="none" stroke="#ccc1e0" stroke-miterlimit="10" stroke-width="1.244"/>
          <path id="Trazado_294753" data-name="Trazado 294753" d="M747.324,78.491,670.653,91.482a2.831,2.831,0,0,1-3.263-2.318h0a2.831,2.831,0,0,1,2.318-3.264l76.67-12.99a2.83,2.83,0,0,1,3.264,2.318h0A2.83,2.83,0,0,1,747.324,78.491Z" transform="translate(-636.003 -72.869)" fill="#ccc1e0"/>
          <path id="Trazado_294754" data-name="Trazado 294754" d="M703.049,99.387l-30.658,5.194a2.83,2.83,0,0,1-3.263-2.318h0A2.831,2.831,0,0,1,671.447,99L702.1,93.805a2.83,2.83,0,0,1,3.264,2.318h0A2.831,2.831,0,0,1,703.049,99.387Z" transform="translate(-636.467 -78.444)" fill="#ccc1e0"/>
        </g>
      </g>
    </g>
    <g id="Grupo_581987" data-name="Grupo 581987" transform="translate(615.262 286.502)">
      <path id="Trazado_294755" data-name="Trazado 294755" d="M717.885,392.653,715,375.605a3.281,3.281,0,0,0-3.783-2.687l-89.053,15.089a3.281,3.281,0,0,0-2.687,3.783l2.889,17.049a3.281,3.281,0,0,0,3.783,2.686L715.2,396.436A3.28,3.28,0,0,0,717.885,392.653Z" transform="translate(-616.373 -369.739)" opacity="0.1"/>
      <g id="Grupo_581986" data-name="Grupo 581986">
        <rect id="Rectángulo_212764" data-name="Rectángulo 212764" width="96.884" height="23.853" rx="4.474" transform="translate(0 16.184) rotate(-9.616)" fill="#e9eaf4"/>
        <g id="Grupo_581985" data-name="Grupo 581985" transform="translate(3.834 7.461)">
          <rect id="Rectángulo_212765" data-name="Rectángulo 212765" width="16.564" height="16.564" rx="4.349" transform="translate(0 11.771) rotate(-9.617)" fill="none" stroke="#ccc1e0" stroke-miterlimit="10" stroke-width="0.985"/>
          <path id="Trazado_294756" data-name="Trazado 294756" d="M717.635,383.224l-60.688,10.283a2.241,2.241,0,0,1-2.584-1.835h0a2.241,2.241,0,0,1,1.835-2.583l60.688-10.283a2.241,2.241,0,0,1,2.584,1.834h0A2.24,2.24,0,0,1,717.635,383.224Z" transform="translate(-629.519 -378.775)" fill="#ccc1e0"/>
          <path id="Trazado_294757" data-name="Trazado 294757" d="M682.589,399.765l-24.267,4.112a2.241,2.241,0,0,1-2.583-1.835h0a2.24,2.24,0,0,1,1.834-2.583l24.267-4.112a2.241,2.241,0,0,1,2.583,1.835h0A2.24,2.24,0,0,1,682.589,399.765Z" transform="translate(-629.886 -383.187)" fill="#ccc1e0"/>
        </g>
      </g>
    </g>
    <ellipse id="Elipse_6048" data-name="Elipse 6048" cx="125.431" cy="12.093" rx="125.431" ry="12.093" transform="translate(673.581 324.036)" opacity="0.1"/>
    <ellipse id="Elipse_6049" data-name="Elipse 6049" cx="30.247" cy="8.33" rx="30.247" ry="8.33" transform="translate(871.186 344.355)" opacity="0.1"/>
    <g id="Grupo_582008" data-name="Grupo 582008" transform="translate(666.292 99.229)">
      <g id="Grupo_581989" data-name="Grupo 581989" transform="translate(57.319 198.789)">
        <g id="Grupo_581988" data-name="Grupo 581988">
          <path id="Trazado_294758" data-name="Trazado 294758" d="M894.873,437.894H768.339a5.3,5.3,0,0,1-5.3-5.3h0a5.3,5.3,0,0,1,5.3-5.3H894.873a5.3,5.3,0,0,1,5.3,5.3h0A5.3,5.3,0,0,1,894.873,437.894Z" transform="translate(-763.036 -395.773)" fill="#c8cad7"/>
          <path id="Trazado_294759" data-name="Trazado 294759" d="M884.419,419.457h-87.6c16.139-6.24,17.483-19.885,16.61-28.22a34.4,34.4,0,0,0-1.4-6.931h49.015a43.789,43.789,0,0,0-1.175,6.931C857.753,416.764,884.419,419.457,884.419,419.457Z" transform="translate(-772.049 -384.306)" fill="#c8cad7"/>
        </g>
        <path id="Trazado_294760" data-name="Trazado 294760" d="M866.582,384.306a43.789,43.789,0,0,0-1.175,6.931H818.965a34.4,34.4,0,0,0-1.4-6.931Z" transform="translate(-777.584 -384.306)" fill="#babecc"/>
      </g>
      <path id="Trazado_294761" data-name="Trazado 294761" d="M936.638,127.56V300.892a14.378,14.378,0,0,1-14.376,14.379H699.239a14.381,14.381,0,0,1-14.379-14.379V127.56a14.378,14.378,0,0,1,14.379-14.376H922.262A14.376,14.376,0,0,1,936.638,127.56Z" transform="translate(-684.86 -113.184)" fill="#c8cad7"/>
      <path id="Trazado_294762" data-name="Trazado 294762" d="M936.638,127.56V283.122H684.86V127.56a14.378,14.378,0,0,1,14.379-14.376H922.262A14.376,14.376,0,0,1,936.638,127.56Z" transform="translate(-684.86 -113.184)" fill="#474157"/>
      <rect id="Rectángulo_212766" data-name="Rectángulo 212766" width="237.2" height="153.055" rx="9.498" transform="translate(7.289 10.099)" fill="#fff"/>
      <path id="Trazado_294763" data-name="Trazado 294763" d="M932,133.921v3.8H694.8v-3.8a6.963,6.963,0,0,1,6.964-6.964H925.038A6.962,6.962,0,0,1,932,133.921Z" transform="translate(-687.512 -116.859)" fill="#c8cad7"/>
      <path id="Trazado_294764" data-name="Trazado 294764" d="M720.056,134.23a3.239,3.239,0,1,1-3.239-3.239A3.239,3.239,0,0,1,720.056,134.23Z" transform="translate(-692.521 -117.935)" fill="#dcdfea"/>
      <path id="Trazado_294765" data-name="Trazado 294765" d="M732.707,134.23a3.239,3.239,0,1,1-3.239-3.239A3.239,3.239,0,0,1,732.707,134.23Z" transform="translate(-695.897 -117.935)" fill="#dcdfea"/>
      <path id="Trazado_294766" data-name="Trazado 294766" d="M744.872,134.23a3.239,3.239,0,1,1-3.239-3.239A3.239,3.239,0,0,1,744.872,134.23Z" transform="translate(-699.142 -117.935)" fill="#dcdfea"/>
      <g id="Grupo_581991" data-name="Grupo 581991" transform="translate(24.275 30.909)">
        <path id="Rectángulo_212767" data-name="Rectángulo 212767" d="M4.474,0H92.409a4.474,4.474,0,0,1,4.474,4.474v14.9a4.475,4.475,0,0,1-4.475,4.475H4.474A4.474,4.474,0,0,1,0,19.378V4.474A4.474,4.474,0,0,1,4.474,0Z" fill="#e9eaf4"/>
        <g id="Grupo_581990" data-name="Grupo 581990" transform="translate(3.271 3.644)">
          <rect id="Rectángulo_212768" data-name="Rectángulo 212768" width="16.564" height="16.564" rx="4.349" fill="none" stroke="#ccc1e0" stroke-miterlimit="10" stroke-width="0.985"/>
          <path id="Trazado_294767" data-name="Trazado 294767" d="M819.375,168.911H757.822a2.24,2.24,0,0,1-2.241-2.24h0a2.241,2.241,0,0,1,2.241-2.241h61.554a2.24,2.24,0,0,1,2.241,2.241h0A2.24,2.24,0,0,1,819.375,168.911Z" transform="translate(-731.274 -161.409)" fill="#ccc1e0"/>
          <path id="Trazado_294768" data-name="Trazado 294768" d="M782.434,177.151H757.822a2.24,2.24,0,0,1-2.241-2.241h0a2.24,2.24,0,0,1,2.241-2.24h24.612a2.24,2.24,0,0,1,2.241,2.24h0A2.24,2.24,0,0,1,782.434,177.151Z" transform="translate(-731.274 -163.607)" fill="#ccc1e0"/>
        </g>
      </g>
      <g id="Grupo_581993" data-name="Grupo 581993" transform="translate(24.275 63.817)">
        <rect id="Rectángulo_212769" data-name="Rectángulo 212769" width="96.884" height="23.853" rx="4.474" fill="#e9eaf4"/>
        <g id="Grupo_581992" data-name="Grupo 581992" transform="translate(3.271 3.644)">
          <rect id="Rectángulo_212770" data-name="Rectángulo 212770" width="16.564" height="16.564" rx="4.349" fill="none" stroke="#ccc1e0" stroke-miterlimit="10" stroke-width="0.985"/>
          <path id="Trazado_294769" data-name="Trazado 294769" d="M819.375,213.793H757.822a2.241,2.241,0,0,1-2.241-2.241h0a2.24,2.24,0,0,1,2.241-2.241h61.554a2.24,2.24,0,0,1,2.241,2.241h0A2.24,2.24,0,0,1,819.375,213.793Z" transform="translate(-731.274 -206.291)" fill="#ccc1e0"/>
          <path id="Trazado_294770" data-name="Trazado 294770" d="M782.434,222.033H757.822a2.24,2.24,0,0,1-2.241-2.24h0a2.24,2.24,0,0,1,2.241-2.241h24.612a2.24,2.24,0,0,1,2.241,2.241h0A2.24,2.24,0,0,1,782.434,222.033Z" transform="translate(-731.274 -208.49)" fill="#ccc1e0"/>
        </g>
      </g>
      <g id="Grupo_581995" data-name="Grupo 581995" transform="translate(130.619 63.817)">
        <rect id="Rectángulo_212771" data-name="Rectángulo 212771" width="96.884" height="23.853" rx="4.474" fill="#e9eaf4"/>
        <g id="Grupo_581994" data-name="Grupo 581994" transform="translate(3.271 3.644)">
          <rect id="Rectángulo_212772" data-name="Rectángulo 212772" width="16.564" height="16.564" rx="4.349" fill="none" stroke="#ccc1e0" stroke-miterlimit="10" stroke-width="0.985"/>
          <path id="Trazado_294771" data-name="Trazado 294771" d="M964.414,213.793H902.861a2.24,2.24,0,0,1-2.241-2.241h0a2.24,2.24,0,0,1,2.241-2.241h61.554a2.24,2.24,0,0,1,2.241,2.241h0A2.24,2.24,0,0,1,964.414,213.793Z" transform="translate(-876.313 -206.291)" fill="#ccc1e0"/>
          <path id="Trazado_294772" data-name="Trazado 294772" d="M927.473,222.033H902.861a2.24,2.24,0,0,1-2.241-2.24h0a2.24,2.24,0,0,1,2.241-2.241h24.612a2.24,2.24,0,0,1,2.241,2.241h0A2.24,2.24,0,0,1,927.473,222.033Z" transform="translate(-876.313 -208.49)" fill="#ccc1e0"/>
        </g>
      </g>
      <g id="Grupo_581997" data-name="Grupo 581997" transform="translate(130.619 96.725)">
        <rect id="Rectángulo_212773" data-name="Rectángulo 212773" width="96.884" height="23.853" rx="4.474" fill="#e9eaf4"/>
        <g id="Grupo_581996" data-name="Grupo 581996" transform="translate(3.271 3.644)">
          <rect id="Rectángulo_212774" data-name="Rectángulo 212774" width="16.564" height="16.564" rx="4.349" fill="none" stroke="#ccc1e0" stroke-miterlimit="10" stroke-width="0.985"/>
          <path id="Trazado_294773" data-name="Trazado 294773" d="M964.414,258.675H902.861a2.24,2.24,0,0,1-2.241-2.241h0a2.24,2.24,0,0,1,2.241-2.241h61.554a2.24,2.24,0,0,1,2.241,2.241h0A2.24,2.24,0,0,1,964.414,258.675Z" transform="translate(-876.313 -251.173)" fill="#ccc1e0"/>
          <path id="Trazado_294774" data-name="Trazado 294774" d="M927.473,266.915H902.861a2.24,2.24,0,0,1-2.241-2.241h0a2.24,2.24,0,0,1,2.241-2.241h24.612a2.24,2.24,0,0,1,2.241,2.241h0A2.24,2.24,0,0,1,927.473,266.915Z" transform="translate(-876.313 -253.372)" fill="#ccc1e0"/>
        </g>
      </g>
      <g id="Grupo_581999" data-name="Grupo 581999" transform="translate(24.275 129.633)">
        <rect id="Rectángulo_212775" data-name="Rectángulo 212775" width="96.884" height="23.853" rx="4.474" fill="#e9eaf4"/>
        <g id="Grupo_581998" data-name="Grupo 581998" transform="translate(3.271 3.644)">
          <rect id="Rectángulo_212776" data-name="Rectángulo 212776" width="16.564" height="16.564" rx="4.349" fill="none" stroke="#ccc1e0" stroke-miterlimit="10" stroke-width="0.985"/>
          <rect id="Rectángulo_212777" data-name="Rectángulo 212777" width="66.035" height="4.481" rx="2.24" transform="translate(24.307 3.021)" fill="#ccc1e0"/>
          <path id="Trazado_294775" data-name="Trazado 294775" d="M782.434,311.8H757.822a2.24,2.24,0,0,1-2.241-2.241h0a2.24,2.24,0,0,1,2.241-2.241h24.612a2.24,2.24,0,0,1,2.241,2.241h0A2.24,2.24,0,0,1,782.434,311.8Z" transform="translate(-731.274 -298.254)" fill="#ccc1e0"/>
        </g>
      </g>
      <g id="Grupo_582001" data-name="Grupo 582001" transform="translate(130.619 129.633)">
        <rect id="Rectángulo_212778" data-name="Rectángulo 212778" width="96.884" height="23.853" rx="4.474" fill="#e9eaf4"/>
        <g id="Grupo_582000" data-name="Grupo 582000" transform="translate(3.271 3.644)">
          <rect id="Rectángulo_212779" data-name="Rectángulo 212779" width="16.564" height="16.564" rx="4.349" fill="none" stroke="#ccc1e0" stroke-miterlimit="10" stroke-width="0.985"/>
          <rect id="Rectángulo_212780" data-name="Rectángulo 212780" width="66.035" height="4.481" rx="2.24" transform="translate(24.307 3.021)" fill="#ccc1e0"/>
          <path id="Trazado_294776" data-name="Trazado 294776" d="M927.473,311.8H902.861a2.24,2.24,0,0,1-2.241-2.241h0a2.24,2.24,0,0,1,2.241-2.241h24.612a2.24,2.24,0,0,1,2.241,2.241h0A2.24,2.24,0,0,1,927.473,311.8Z" transform="translate(-876.313 -298.254)" fill="#ccc1e0"/>
        </g>
      </g>
      <g id="Grupo_582004" data-name="Grupo 582004" transform="translate(128.171 26.204)">
        <g id="Grupo_582003" data-name="Grupo 582003">
          <rect id="Rectángulo_212781" data-name="Rectángulo 212781" width="115.991" height="28.557" rx="5.357" transform="translate(0 3.616)" fill="#c8cad7" opacity="0.3"/>
          <rect id="Rectángulo_212782" data-name="Rectángulo 212782" width="115.991" height="28.557" rx="5.357" transform="translate(2.449)" fill="#e9eaf4"/>
          <g id="Grupo_582002" data-name="Grupo 582002" transform="translate(6.365 4.363)">
            <rect id="Rectángulo_212783" data-name="Rectángulo 212783" width="19.831" height="19.831" rx="5.207" fill="none" stroke="#ccc1e0" stroke-miterlimit="10" stroke-width="1.179"/>
            <path id="Trazado_294777" data-name="Trazado 294777" d="M984.413,165.172H910.72a2.682,2.682,0,0,1-2.682-2.683h0a2.682,2.682,0,0,1,2.682-2.682h73.693a2.682,2.682,0,0,1,2.683,2.682h0A2.683,2.683,0,0,1,984.413,165.172Z" transform="translate(-878.938 -156.19)" fill="#ccc1e0"/>
            <path id="Trazado_294778" data-name="Trazado 294778" d="M940.187,175.036H910.72a2.682,2.682,0,0,1-2.682-2.682h0a2.682,2.682,0,0,1,2.682-2.683h29.467a2.682,2.682,0,0,1,2.682,2.683h0A2.682,2.682,0,0,1,940.187,175.036Z" transform="translate(-878.938 -158.822)" fill="#ccc1e0"/>
          </g>
        </g>
        <path id="Trazado_294779" data-name="Trazado 294779" d="M874.409,163.824l-2.232,1.934,5.356,6.993,10.118-11.606-1.934-2.083-7.838,9.671Z" transform="translate(-863.005 -151.628)" fill="#f93862"/>
      </g>
      <g id="Grupo_582007" data-name="Grupo 582007" transform="translate(24.275 96.725)">
        <g id="Grupo_582006" data-name="Grupo 582006">
          <rect id="Rectángulo_212784" data-name="Rectángulo 212784" width="96.884" height="23.853" rx="4.474" fill="#e9eaf4"/>
          <g id="Grupo_582005" data-name="Grupo 582005" transform="translate(3.271 3.644)">
            <rect id="Rectángulo_212785" data-name="Rectángulo 212785" width="16.564" height="16.564" rx="4.349" fill="none" stroke="#ccc1e0" stroke-miterlimit="10" stroke-width="0.985"/>
            <path id="Trazado_294780" data-name="Trazado 294780" d="M819.375,258.675H757.822a2.24,2.24,0,0,1-2.241-2.241h0a2.24,2.24,0,0,1,2.241-2.241h61.554a2.24,2.24,0,0,1,2.241,2.241h0A2.24,2.24,0,0,1,819.375,258.675Z" transform="translate(-731.274 -251.173)" fill="#ccc1e0"/>
            <path id="Trazado_294781" data-name="Trazado 294781" d="M782.434,266.915H757.822a2.24,2.24,0,0,1-2.241-2.241h0a2.24,2.24,0,0,1,2.241-2.241h24.612a2.24,2.24,0,0,1,2.241,2.241h0A2.24,2.24,0,0,1,782.434,266.915Z" transform="translate(-731.274 -253.372)" fill="#ccc1e0"/>
          </g>
        </g>
        <path id="Trazado_294782" data-name="Trazado 294782" d="M727.492,257.55l-1.864,1.616,4.474,5.841,8.451-9.694-1.616-1.74-6.547,8.078Z" transform="translate(-720.012 -247.363)" fill="#f93862"/>
      </g>
    </g>
    <g id="Grupo_582019" data-name="Grupo 582019" transform="translate(862.709 160.086)">
      <rect id="Rectángulo_212786" data-name="Rectángulo 212786" width="6.914" height="14.551" transform="translate(35.628 25.407)" fill="#ffb69b"/>
      <path id="Trazado_294783" data-name="Trazado 294783" d="M1008.254,232.569v4.754a36.081,36.081,0,0,1-6.914,1.5v-4.135l4.776-2.977S1007.061,232.075,1008.254,232.569Z" transform="translate(-965.712 -205.662)" opacity="0.05"/>
      <g id="Grupo_582010" data-name="Grupo 582010" transform="translate(32.915 168.248)">
        <path id="Trazado_294784" data-name="Trazado 294784" d="M1014.695,443.27s6.254-2.8,9.4-.979C1024.093,442.291,1022,447.146,1014.695,443.27Z" transform="translate(-1002.19 -429.927)" fill="#75524f"/>
        <path id="Trazado_294785" data-name="Trazado 294785" d="M1013.617,428.268l2.023,12.85s7.548-1.474,7.586-1.843-2.505-13.622-2.505-13.622Z" transform="translate(-1001.902 -425.653)" fill="#eba88f"/>
        <g id="Grupo_582009" data-name="Grupo 582009" transform="translate(0 12.364)">
          <path id="Trazado_294786" data-name="Trazado 294786" d="M998.685,450.41a1.873,1.873,0,0,1-1.022-1.846c.2-1.2,1.917-2.192,3.536-2.186a10.332,10.332,0,0,0,2.584-.494c.17-.051.341-.1.517-.156.392-.121.789-.255,1.188-.394l.515-.18.909-.335c.172-.065.339-.13.507-.2,1.545-.6,2.727-1.126,2.727-1.126,6.877,2.318,9.4-.979,9.4-.979,2.942,2.572,1.995,4.357,1.924,5.532a1.163,1.163,0,0,0,.112.658C1024.22,453.5,1001.249,452.2,998.685,450.41Z" transform="translate(-997.64 -442.516)" fill="#8e6863"/>
          <path id="Trazado_294787" data-name="Trazado 294787" d="M998.685,452.423a1.873,1.873,0,0,1-1.022-1.845c.249.142.49.3.743.436a14.261,14.261,0,0,0,3.081,1.161,27.618,27.618,0,0,0,6.71.721,33.969,33.969,0,0,0,5.19-.3,45.368,45.368,0,0,0,4.437-.961,9.236,9.236,0,0,0,2.106-.719c.448-.241.854-.55,1.309-.765.072-.032.147-.063.229-.093a1.163,1.163,0,0,0,.112.658C1024.22,455.517,1001.249,454.217,998.685,452.423Z" transform="translate(-997.64 -444.529)" fill="#75524f"/>
        </g>
      </g>
      <g id="Grupo_582015" data-name="Grupo 582015" transform="translate(20.842 173.589)">
        <path id="Trazado_294788" data-name="Trazado 294788" d="M997.412,451.077s5.935-3.426,9.249-1.93C1006.661,449.147,1005.07,454.19,997.412,451.077Z" transform="translate(-985.506 -437.161)" fill="#89605c"/>
        <path id="Trazado_294789" data-name="Trazado 294789" d="M994.851,436.261l3.32,12.578s7.358-2.236,7.358-2.605-3.879-13.3-3.879-13.3Z" transform="translate(-984.823 -432.937)" fill="#ffb69b"/>
        <g id="Grupo_582014" data-name="Grupo 582014" transform="translate(0 11.986)">
          <path id="Trazado_294790" data-name="Trazado 294790" d="M982.383,459.26c-.914-.508-1.253-1.127-1.2-1.732.078-1.209,1.683-2.376,3.3-2.535a10.327,10.327,0,0,0,2.52-.755c.165-.067.329-.135.5-.207.378-.16.76-.334,1.142-.513l.493-.232.871-.425c.164-.082.324-.165.483-.247,1.476-.754,2.6-1.4,2.6-1.4,7.078,1.606,9.25-1.93,9.25-1.93,3.189,2.259,2.429,4.132,2.478,5.307a1.162,1.162,0,0,0,.179.643C1008.1,459.739,985.116,460.785,982.383,459.26Z" transform="translate(-981.174 -449.285)" fill="#a27771"/>
          <path id="Trazado_294791" data-name="Trazado 294791" d="M982.383,461.191c-.914-.508-1.253-1.127-1.2-1.732.262.116.518.251.784.358a14.293,14.293,0,0,0,3.184.842,27.631,27.631,0,0,0,6.748.034,33.993,33.993,0,0,0,5.133-.823,45.359,45.359,0,0,0,4.315-1.408,9.264,9.264,0,0,0,2.022-.929c.421-.285.793-.634,1.224-.9.067-.038.14-.077.218-.116a1.162,1.162,0,0,0,.179.643C1008.1,461.67,985.116,462.716,982.383,461.191Z" transform="translate(-981.174 -451.216)" fill="#89605c"/>
          <g id="Grupo_582011" data-name="Grupo 582011" transform="translate(5.82 4.746)">
            <path id="Trazado_294792" data-name="Trazado 294792" d="M993.315,457.843a.243.243,0,0,1-.237.194.2.2,0,0,1-.048,0,8.253,8.253,0,0,1-3.919-2.066c.165-.067.329-.135.5-.207a7.741,7.741,0,0,0,3.517,1.8A.243.243,0,0,1,993.315,457.843Z" transform="translate(-989.111 -455.758)" fill="#fff"/>
          </g>
          <g id="Grupo_582012" data-name="Grupo 582012" transform="translate(7.46 4)">
            <path id="Trazado_294793" data-name="Trazado 294793" d="M995.281,456.6a.242.242,0,0,1-.237.194H995a8.163,8.163,0,0,1-3.648-1.824l.493-.232a7.551,7.551,0,0,0,3.246,1.577A.25.25,0,0,1,995.281,456.6Z" transform="translate(-991.348 -454.741)" fill="#fff"/>
          </g>
          <g id="Grupo_582013" data-name="Grupo 582013" transform="translate(8.824 3.328)">
            <path id="Trazado_294794" data-name="Trazado 294794" d="M996.929,455.527a.243.243,0,0,1-.238.2c-.014,0-.029,0-.048,0a8.086,8.086,0,0,1-3.434-1.65c.164-.082.324-.165.483-.247a7.5,7.5,0,0,0,3.048,1.418A.246.246,0,0,1,996.929,455.527Z" transform="translate(-993.209 -453.824)" fill="#fff"/>
          </g>
        </g>
      </g>
      <path id="Trazado_294795" data-name="Trazado 294795" d="M1000.2,406.813l-1.838.361-9.491,1.855s-9.263-20.649-11.329-31.273a108.335,108.335,0,0,1-1.422-19.821L978.65,314.6l17.422,2.461-.46,3.387-6.126,45.245Z" transform="translate(-958.977 -227.776)" fill="#65617d"/>
      <path id="Trazado_294796" data-name="Trazado 294796" d="M1003.978,408.941l-1.838.361a4.2,4.2,0,0,1-.449-.667c-1.589-2.9-2.194-6.226-2.955-9.447a112.079,112.079,0,0,0-5.3-16.294,44.118,44.118,0,0,1-2.4-6.765,36.084,36.084,0,0,1-.683-7.092,128.565,128.565,0,0,1,1.333-25.269,81.079,81.079,0,0,1,3.583-13.618,56.141,56.141,0,0,0,1.76-5.592,2.055,2.055,0,0,1,.861-1.483,6.247,6.247,0,0,1,1.5-.505l-6.126,45.246Z" transform="translate(-962.757 -229.903)" fill="#575470" opacity="0.5"/>
      <path id="Trazado_294797" data-name="Trazado 294797" d="M1019.719,400.43l-.861.172-9.358,1.86-6.77-41.43s-.867-44.818-.989-45.557l16.128-1.722-.25,5.121-2.088,43.269Z" transform="translate(-965.819 -227.551)" fill="#65617d"/>
      <path id="Trazado_294798" data-name="Trazado 294798" d="M1023.951,402.293l-.861.172a6.123,6.123,0,0,1-.85-1.544,16.551,16.551,0,0,1-.994-3.715c-.25-1.716-.222-3.46-.394-5.187-.194-1.949-.633-3.86-1.016-5.781a113.886,113.886,0,0,1-1.955-15.267,183.536,183.536,0,0,1,.655-27.9c.422-4.715.955-9.414,1.532-14.107a57.028,57.028,0,0,1,.878-6.958,1.846,1.846,0,0,1,.906-1.272l-2.088,43.269Z" transform="translate(-970.052 -229.414)" fill="#575470" opacity="0.5"/>
      <g id="Grupo_582016" data-name="Grupo 582016" transform="translate(44.208 36.515)">
        <path id="Trazado_294799" data-name="Trazado 294799" d="M1028,284.767c-5.542,3.51-12.374,13.112-12.374,13.112l-2.588-11.451,8.753-7.514a.719.719,0,0,0,.067-.056l-3.171-3.749-4.171-4.932s-.017-.095-.05-.272c-.461-2.527-3.788-21.848,2.082-23.919,0,0,5.543,1.1,7.2,9.969.561,3.021,1.128,5.9,1.667,8.48A71.594,71.594,0,0,0,1028,274.61C1028.925,276.642,1033.541,281.257,1028,284.767Z" transform="translate(-1013.042 -245.986)" fill="#eba88f"/>
        <path id="Trazado_294800" data-name="Trazado 294800" d="M1025.444,264.435c-.71.4-1.444.766-2.183,1.111-2.216,1.044-4.509,1.927-6.642,3.143a8.125,8.125,0,0,1-2.127,1.216c-.46-2.527-3.787-21.848,2.083-23.919,0,0,5.542,1.1,7.2,9.969C1024.339,258.976,1024.905,261.858,1025.444,264.435Z" transform="translate(-1013.068 -245.986)" fill="#ff748e"/>
      </g>
      <path id="Trazado_294801" data-name="Trazado 294801" d="M1024.117,279.817c-.011.483-.027.971-.039,1.461a2,2,0,0,1-.089.655,11.255,11.255,0,0,1-.5,1.939l-3.171-3.749c-.15-.966-.211-1.955-.323-2.921-.15-1.372-.4-2.755-.589-4.132a16.674,16.674,0,0,1,.034-6.053,2.626,2.626,0,0,1,.488-1.123,2.671,2.671,0,0,1,.856-.6c.622-.322,1.838-.9,2.249-.15a10.806,10.806,0,0,1,.678,3.193c.139.867.238,1.738.311,2.61A81.324,81.324,0,0,1,1024.117,279.817Z" transform="translate(-970.462 -214.484)" opacity="0.1"/>
      <path id="Trazado_294802" data-name="Trazado 294802" d="M1011.953,253.093s-1.832,24.625-.111,41.125c1.622,15.506-14.606,12.3-27.2,9.818l-2.355-.46c-8.891-1.711-8.28-7.581-7.081-11a61.605,61.605,0,0,0,2.432-9.519l4.088-22.6,2.044-11.3c2.46-6.159,7.136-4.926,17.727-4.682S1011.953,253.093,1011.953,253.093Z" transform="translate(-958.559 -208.997)" fill="#ff748e"/>
      <rect id="Rectángulo_212787" data-name="Rectángulo 212787" width="11.698" height="3.63" rx="1.12" transform="translate(42.656 172.531) rotate(-11.661)" fill="#6e6b87"/>
      <g id="Grupo_582017" data-name="Grupo 582017" transform="translate(0 0.189)">
        <path id="Trazado_294803" data-name="Trazado 294803" d="M984.972,236.67,981.646,256.8l-15.983-11.569-5.22-3.776s-6.026-4.154-5.57-26.025h4.981s4.621,11.268,4.248,15.328a32.557,32.557,0,0,0,8.553,4A40.537,40.537,0,0,0,984.972,236.67Z" transform="translate(-953.308 -201.509)" fill="#ffb69b"/>
        <path id="Trazado_294804" data-name="Trazado 294804" d="M988.908,243.7l-3.327,20.132L969.6,252.268c2.027-3.482,4.837-6.57,6.792-10.085.073-.128.139-.261.2-.383A40.537,40.537,0,0,0,988.908,243.7Z" transform="translate(-957.243 -208.543)" fill="#ff748e"/>
        <path id="Trazado_294805" data-name="Trazado 294805" d="M956.289,201.519a.5.5,0,0,0,.765.216.4.4,0,0,0,.139-.184.634.634,0,0,0-.031-.38c-.047-.155-.118-.329-.272-.381a.487.487,0,0,0-.169-.015.506.506,0,0,0-.438.179.473.473,0,0,0-.038.294c.01.085.031.168.043.252a.871.871,0,0,0-.247-.136.591.591,0,0,0-.288.012.578.578,0,0,0-.256.152c-.017.018-.158.23-.117.245l-.166-.064a.731.731,0,0,0-.991.608l0,.034c-.432-.427-1.138.161-1.317.743-.686,2.229,1.117,4.442,1.315,6.766.052.62.039,1.353.543,1.717a1.8,1.8,0,0,0,1.117.217l1.891-.047c.578-.014,1.288-.118,1.485-.661a2.621,2.621,0,0,0,.021-.9,4.2,4.2,0,0,1,1.172-2.274c1.053-1.448,1.538-3.557.466-4.992a46.027,46.027,0,0,1-3.29-5.566c-.252-.456-.61-.972-1.155-.906a.921.921,0,0,0-.743.966,3.56,3.56,0,0,0,.89,1.839,2.264,2.264,0,0,1,.394,1.035,1.16,1.16,0,0,1-.076.524c-.075.182-.414.121-.564.13a.045.045,0,0,0-.034.012.046.046,0,0,0-.007.026l-.035.54" transform="translate(-952.748 -196.442)" fill="#ffb69b"/>
      </g>
      <rect id="Rectángulo_212788" data-name="Rectángulo 212788" width="13.329" height="3.63" rx="1.195" transform="translate(28.331 179.125) rotate(-14.588)" fill="#6e6b87"/>
      <path id="Trazado_294806" data-name="Trazado 294806" d="M984.646,309.946l-2.355-.46c-8.891-1.711-8.28-7.581-7.081-11a61.6,61.6,0,0,0,2.432-9.519l4.088-22.6a22.116,22.116,0,0,1,.906,7.015,36.471,36.471,0,0,1-.372,4.609c-.672,4.66-2.043,9.191-2.849,13.829a11.2,11.2,0,0,0-.194,3.549,14.769,14.769,0,0,0,2.238,4.992,22.314,22.314,0,0,1,3.154,8.936A6.208,6.208,0,0,1,984.646,309.946Z" transform="translate(-958.559 -214.907)" fill="#f26886"/>
      <g id="Grupo_582018" data-name="Grupo 582018" transform="translate(28.767)">
        <path id="Trazado_294807" data-name="Trazado 294807" d="M1008.588,196.971a7.662,7.662,0,0,0-3.687-.786c-2.007-.015-4.247.46-5.372,2.123a5.977,5.977,0,0,0-.722,3.923c.216,2.291,1.159,4.732,3.206,5.783,1.568.805,3.61.706,4.858,1.952a5.474,5.474,0,0,1,1.114,1.941,35.422,35.422,0,0,1,2.368,10.864c2.48-3.153,5.78-5.443,8.26-8.6a13.515,13.515,0,0,0,2.277-6.959,6.921,6.921,0,0,0-3.332-6.153c-1.826-1.145-3.624-1.164-5.682-1.3-1.561-.1-.781.147-1.588-1.022A5.012,5.012,0,0,0,1008.588,196.971Z" transform="translate(-993.79 -196.185)" fill="#292749"/>
        <path id="Trazado_294808" data-name="Trazado 294808" d="M1003.067,229.861c-5.023.606-6.523,1.228-7.207-4.3-.066-.557-.124-1.175-.181-1.869-.028-.375-.056-.768-.084-1.186-.569-8.774,4.613-17.944,4.613-17.944,13.181.961,12.211,8.791,12.2,12.722S1008.876,229.159,1003.067,229.861Z" transform="translate(-992.934 -198.42)" fill="#ffb69b"/>
        <path id="Trazado_294809" data-name="Trazado 294809" d="M1000.907,208.269a8.17,8.17,0,0,0,2.619.812c2.077.421,4.33,1.169,5.364,3.019.71,1.271.693,2.807,1.04,4.221s1.36,2.91,2.816,2.9c1.26-.005,2.2-1.117,2.911-2.16a7.44,7.44,0,0,0,1.48-3.4,5.206,5.206,0,0,0-.243-1.972c-1.032-3.36-4.319-5.456-7.478-7a11.877,11.877,0,0,0-5.272-1.539C1001.759,203.188,997.505,206.24,1000.907,208.269Z" transform="translate(-994.024 -198.043)" fill="#292749"/>
        <path id="Trazado_294810" data-name="Trazado 294810" d="M1017.514,222.472a2.545,2.545,0,1,1-1.984-3A2.545,2.545,0,0,1,1017.514,222.472Z" transform="translate(-997.449 -202.383)" fill="#ffb69b"/>
        <path id="Trazado_294811" data-name="Trazado 294811" d="M992.739,222.224a1.59,1.59,0,0,0-.755,1.037c-.048.658.667,1.091,1.3,1.293a9.476,9.476,0,0,0,1.752.383,1.74,1.74,0,0,0,2.125-2.119,8.163,8.163,0,0,0-.356-2.642c-.355-1.153-.878-1-1.553-.312A23.087,23.087,0,0,1,992.739,222.224Z" transform="translate(-991.982 -202.358)" fill="#ffb69b"/>
        <path id="Trazado_294812" data-name="Trazado 294812" d="M999.693,218.1c-.145.71-.589,1.218-.993,1.135s-.613-.724-.468-1.433.589-1.218.993-1.135S999.838,217.389,999.693,218.1Z" transform="translate(-993.637 -201.646)" fill="#292749"/>
        <path id="Trazado_294813" data-name="Trazado 294813" d="M997.931,214.586a1.673,1.673,0,0,0,.875.073,4.4,4.4,0,0,1,1.764.574,1.018,1.018,0,0,0,.369.109.381.381,0,0,0,.337-.152.387.387,0,0,0-.084-.459,1.083,1.083,0,0,0-.442-.232,10.386,10.386,0,0,0-2-.493,1.328,1.328,0,0,0-.69-.012C997.864,214.091,997.7,214.451,997.931,214.586Z" transform="translate(-993.539 -200.923)" fill="#292749"/>
        <path id="Trazado_294814" data-name="Trazado 294814" d="M999.844,228.477c-.111.219-1.6,3.053-3.937,3.465-.066-.557-.124-1.175-.181-1.869C996.964,229.872,999.284,229.385,999.844,228.477Z" transform="translate(-992.981 -204.8)" fill="#fff"/>
      </g>
    </g>
  </g>
</svg>
