<svg xmlns="http://www.w3.org/2000/svg" width="186.127" height="161.871" viewBox="0 0 186.127 161.871">
  <g id="Grupo_593805" data-name="Grupo 593805" transform="translate(608.588 -339.459)">
    <path id="Trazado_309414" data-name="Trazado 309414" d="M-536.681,483.424c-3.348,11.8-10.927,18.124-21.41,17.9-8.254-.177-17.9-5.656-20.322-17.988h-10.6c-1.438,0-2.876.014-4.314,0a8.975,8.975,0,0,1-9.249-9.234c-.036-8.188-.01-16.376-.01-24.564v-2.009c-4.668-1.2-6-2.948-6-7.723q0-1.407,0-2.813c0-4.941,1.195-6.536,6.018-7.906V399.337h17.951V369.372h17.967V339.459h42.04v29.772h17.966V399.3c3.047,0,5.9.041,8.744-.045.436-.013.909-.564,1.273-.952A14.782,14.782,0,0,1-485.5,393.33c10.69-.029,21.381-.063,32.071.011a14.654,14.654,0,0,1,14.418,12.116c1.35,7.367,2.562,14.762,3.716,22.164.291,1.867.89,3.1,2.766,3.9,7.084,3,10.231,8.445,10.065,16.132-.187,8.621-.035,17.25-.046,25.875-.007,6.1-3.708,9.792-9.815,9.807-2.745.007-5.49,0-8.376,0a21.341,21.341,0,0,1-9.358,14.554,20.631,20.631,0,0,1-12.62,3.417c-9.6-.437-16.616-6.771-19.731-17.881Zm-59.556-11.959c-.66,4.474.375,5.734,4.458,5.735,3.877,0,7.754-.035,11.629.021,1.2.017,1.656-.308,1.958-1.585A20.989,20.989,0,0,1-557.808,459.2a20.948,20.948,0,0,1,20.828,16.338c.358,1.491.99,1.687,2.266,1.683,10.691-.035,21.383-.018,32.075-.024.6,0,1.2-.065,1.809-.1v-29.47h-95.506v5.6h18.642a15.18,15.18,0,0,1-.2,1.546c-1.224,4.959-2.5,9.9-3.67,14.878a2.018,2.018,0,0,1-2.413,1.848C-588.024,471.394-592.082,471.465-596.236,471.465Zm167.427-24.244c.408-4.124-1.258-7.4-4.586-9.219-1.915-1.046-3.943-1.893-5.818-3a3.2,3.2,0,0,1-1.375-1.951c-1.462-8.4-2.813-16.825-4.225-25.238-.93-5.539-4.3-8.354-9.963-8.358q-14.812-.009-29.625,0c-6.339,0-10.013,3.672-10.013,10q0,32.806.013,65.611c0,.663.058,1.325.088,1.978h5.644v-2.385q0-31.493,0-62.987c0-3.949,2.482-6.473,6.375-6.479q13.313-.022,26.625,0a5.948,5.948,0,0,1,6.322,4.963c.36,1.447.633,2.922.857,4.4.722,4.732,1.886,9.458,2.005,14.209.292,11.678.079,23.368.129,35.053a4.273,4.273,0,0,0,.784,2.527,24.137,24.137,0,0,1,4.824,9.619,1.972,1.972,0,0,0,1.409,1.183c2.432.123,4.873.1,7.31.042,2.181-.051,3.3-1.205,3.369-3.408.048-1.624-.068-3.254.038-4.872a2.108,2.108,0,0,0-1.424-2.3q-4.642-2.223-9.209-4.6c-.545-.283-1.311-.874-1.322-1.338-.1-4.415-.06-8.833-.06-13.449Zm-23.9,13.6c0-6.237,0-12.162,0-18.088,0-1.181-.779-1.231-1.656-1.23-8.747.007-17.494.022-26.241-.016-1.271-.005-1.777.384-1.773,1.715.037,10.741.021,21.483.021,32.582,1.754-6.672,5.4-11.447,11.239-14.434C-465.2,458.326-459.125,458.47-452.709,460.821Zm-98.956-19.675q23.724,0,47.447,0c3.9,0,3.4.462,3.526-3.51.049-1.618-.424-2.16-2.105-2.158q-48.759.067-97.518,0c-1.661,0-2.32.509-2.1,2.143a3.969,3.969,0,0,1,0,1.123c-.285,1.869.426,2.459,2.364,2.45C-583.921,441.113-567.793,441.146-551.665,441.146Zm-8.671-95.633v23.511h29.5V345.577h-5.675v11.7h-18.238V345.512Zm11.52,53.607V375.561h-5.652V387.3h-18.239V375.6H-578.3V399.12Zm36.015,0V375.561h-5.652V387.3h-18.238V375.6h-5.593V399.12Zm-77.938,18.211V405.582h-5.588v23.5H-566.8V405.546h-5.7v11.785Zm35.978.015V405.567h-5.566v23.527h29.487V405.6h-5.682v11.748Zm101.54,5.926c-.661-3.5-1.369-6.787-1.868-10.1-.208-1.388-.658-1.847-2.1-1.833-7.87.074-15.741.033-23.612.04-.535,0-1.069.073-1.544.108v23.672h13.176c-.371-1.06-.739-1.98-1.017-2.926-1.711-5.816,2.26-9.393,6.879-9.01C-460.033,423.492-456.714,423.272-453.222,423.272Zm-104.346,42.176a15.074,15.074,0,0,0-14.887,14.791,15.1,15.1,0,0,0,14.889,14.98,15.09,15.09,0,0,0,14.887-14.794A15.086,15.086,0,0,0-557.568,465.448Zm96.133,29.771a15.087,15.087,0,0,0,14.8-14.885,15.086,15.086,0,0,0-14.98-14.885,15.074,15.074,0,0,0-14.795,15.069A15.083,15.083,0,0,0-461.435,495.219Zm-39.365-66.1V417.4h-17.927v-11.8h-5.556V429.2c7.392,0,14.637,0,21.882,0C-501.91,429.2-501.419,429.15-500.8,429.117Zm48.1.382h-11.619c.2,2.846,1.645,4.952,4.275,5.411a59.756,59.756,0,0,0,7.344.422Zm-143.731,35.67h9.48c.449-1.919.88-3.758,1.329-5.677h-10.809Zm167.719-4.918v-6.723h-5.743a18.6,18.6,0,0,0,.023,2.369c.084.617.188,1.509.6,1.755C-432.244,458.608-430.532,459.352-428.71,460.251Z"/>
    <path id="Trazado_309415" data-name="Trazado 309415" d="M-584.069,579.633c4.154,0,8.212-.071,12.265.037a2.018,2.018,0,0,0,2.413-1.848c1.166-4.973,2.446-9.919,3.67-14.878a15.184,15.184,0,0,0,.2-1.546h-18.642v-5.6h95.506v29.47c-.605.034-1.207.1-1.809.1-10.692.006-21.383-.011-32.075.024-1.276,0-1.908-.191-2.266-1.683a20.949,20.949,0,0,0-20.828-16.339A20.989,20.989,0,0,0-566.023,583.8c-.3,1.277-.759,1.6-1.958,1.586-3.875-.056-7.753-.02-11.63-.021C-583.694,585.367-584.729,584.107-584.069,579.633Z" transform="translate(-12.168 -108.168)" fill="#ff826e"/>
    <path id="Trazado_309416" data-name="Trazado 309416" d="M-314.637,507.21h-11.825c0,4.615-.04,9.033.06,13.449.01.464.777,1.055,1.322,1.338q4.567,2.373,9.209,4.6a2.108,2.108,0,0,1,1.424,2.3c-.1,1.618.011,3.248-.038,4.872-.066,2.2-1.188,3.357-3.369,3.408-2.436.057-4.878.082-7.309-.042a1.972,1.972,0,0,1-1.409-1.183,24.138,24.138,0,0,0-4.824-9.619,4.272,4.272,0,0,1-.784-2.527c-.05-11.685.163-23.375-.129-35.053-.119-4.75-1.283-9.477-2.005-14.209-.225-1.475-.5-2.95-.857-4.4a5.948,5.948,0,0,0-6.322-4.963q-13.312-.02-26.625,0c-3.892.007-6.373,2.53-6.375,6.479q-.011,31.493,0,62.987v2.385h-5.644c-.03-.653-.088-1.315-.088-1.978q-.013-32.806-.013-65.611c0-6.328,3.674-10,10.013-10q14.812-.01,29.625,0c5.659,0,9.034,2.819,9.963,8.358,1.412,8.412,2.763,16.834,4.225,25.238a3.2,3.2,0,0,0,1.375,1.951c1.875,1.109,3.9,1.956,5.817,3C-315.895,499.809-314.229,503.086-314.637,507.21Z" transform="translate(-114.172 -59.989)" fill="#ff826e"/>
    <path id="Trazado_309417" data-name="Trazado 309417" d="M-326.5,562.85c-6.416-2.351-12.495-2.495-18.406.529-5.84,2.987-9.485,7.762-11.239,14.434,0-11.1.016-21.84-.021-32.582,0-1.331.5-1.72,1.773-1.715,8.747.037,17.494.022,26.241.016.877,0,1.657.049,1.656,1.231C-326.5,550.687-326.5,556.613-326.5,562.85Z" transform="translate(-126.214 -102.029)" fill="#fc6e51"/>
    <path id="Trazado_309418" data-name="Trazado 309418" d="M-545.551,537.159c-16.128,0-32.256-.033-48.384.043-1.938.009-2.649-.581-2.364-2.45a3.969,3.969,0,0,0,0-1.123c-.224-1.634.436-2.145,2.1-2.143q48.759.065,97.518,0c1.681,0,2.154.54,2.1,2.159-.121,3.972.373,3.508-3.526,3.51Q-521.827,537.172-545.551,537.159Z" transform="translate(-6.114 -96.014)" fill="#fc6e51"/>
    <path id="Trazado_309419" data-name="Trazado 309419" d="M-512.085,351.566h5.591v11.763h18.238v-11.7h5.675v23.447h-29.5Z" transform="translate(-48.252 -6.054)" fill="#d3a06c"/>
    <path id="Trazado_309420" data-name="Trazado 309420" d="M-518.529,435.222h-29.484V411.7h5.593v11.708h18.239V411.663h5.652Z" transform="translate(-30.288 -36.102)" fill="#d3a06c"/>
    <path id="Trazado_309421" data-name="Trazado 309421" d="M-446.5,435.222h-29.483V411.7h5.593v11.708h18.238V411.663h5.652Z" transform="translate(-66.303 -36.102)" fill="#d3a06c"/>
    <path id="Trazado_309422" data-name="Trazado 309422" d="M-578.481,483.419h18.238V471.634h5.7v23.534h-29.525v-23.5h5.588Z" transform="translate(-12.259 -66.088)" fill="#d3a06c"/>
    <path id="Trazado_309423" data-name="Trazado 309423" d="M-506.5,483.455h18.238V471.707h5.682v23.5h-29.487V471.676h5.566Z" transform="translate(-48.26 -66.109)" fill="#d3a06c"/>
    <path id="Trazado_309424" data-name="Trazado 309424" d="M-326.982,495.148c-3.492,0-6.811.22-10.089-.053-4.619-.383-8.59,3.193-6.879,9.01.278.946.646,1.866,1.017,2.926h-13.176V483.359c.475-.035,1.009-.107,1.544-.108,7.87-.008,15.742.034,23.612-.041,1.444-.013,1.894.445,2.1,1.833C-328.351,488.361-327.643,491.647-326.982,495.148Z" transform="translate(-126.24 -71.876)" fill="#69d6f4"/>
    <path id="Trazado_309425" data-name="Trazado 309425" d="M-521.436,591.439a15.086,15.086,0,0,1,14.889,14.976,15.09,15.09,0,0,1-14.887,14.794,15.1,15.1,0,0,1-14.889-14.98A15.074,15.074,0,0,1-521.436,591.439Zm-9.11,14.817a9.029,9.029,0,0,0,9.091,9.178,9.039,9.039,0,0,0,9.132-8.952,9.024,9.024,0,0,0-9-9.268A9.021,9.021,0,0,0-530.546,606.256Z" transform="translate(-36.132 -125.991)" fill="#969faa"/>
    <path id="Trazado_309426" data-name="Trazado 309426" d="M-329.262,621.209a15.083,15.083,0,0,1-14.979-14.7,15.074,15.074,0,0,1,14.795-15.069,15.086,15.086,0,0,1,14.98,14.885A15.087,15.087,0,0,1-329.262,621.209Zm9.02-14.8a9.026,9.026,0,0,0-9.071-9.2,9.024,9.024,0,0,0-9.152,8.926,9.033,9.033,0,0,0,8.975,9.293A9.038,9.038,0,0,0-320.242,606.41Z" transform="translate(-132.173 -125.99)" fill="#969faa"/>
    <path id="Trazado_309427" data-name="Trazado 309427" d="M-416.5,495.251c-.619.033-1.11.081-1.6.081-7.245.005-14.49,0-21.882,0V471.727h5.556v11.8H-416.5Z" transform="translate(-84.305 -66.134)" fill="#d3a06c"/>
    <path id="Trazado_309428" data-name="Trazado 309428" d="M-308.425,519.54v5.833a59.744,59.744,0,0,1-7.344-.422c-2.63-.459-4.074-2.565-4.275-5.411Z" transform="translate(-144.272 -90.041)" fill="#969faa"/>
    <path id="Trazado_309429" data-name="Trazado 309429" d="M-584.27,585.2v-5.677h10.809c-.449,1.919-.88,3.758-1.329,5.677Z" transform="translate(-12.159 -120.034)" fill="#d3a06c"/>
    <path id="Trazado_309430" data-name="Trazado 309430" d="M-254.6,574.322c-1.822-.9-3.535-1.644-5.121-2.6-.41-.247-.514-1.139-.6-1.755a18.6,18.6,0,0,1-.023-2.37h5.743Z" transform="translate(-174.109 -114.07)" fill="#fcd770"/>
    <path id="Trazado_309431" data-name="Trazado 309431" d="M-524.768,612.031a9.021,9.021,0,0,1,9.224-9.041,9.024,9.024,0,0,1,9,9.268,9.039,9.039,0,0,1-9.133,8.952A9.03,9.03,0,0,1-524.768,612.031Zm12.052-.012a3.016,3.016,0,0,0-3.068-2.862,3.014,3.014,0,0,0-2.812,3.114,3.021,3.021,0,0,0,2.971,2.77A3.015,3.015,0,0,0-512.716,612.019Z" transform="translate(-41.91 -131.766)"/>
    <path id="Trazado_309432" data-name="Trazado 309432" d="M-314.464,612.186a9.038,9.038,0,0,1-9.248,9.024,9.033,9.033,0,0,1-8.975-9.293,9.024,9.024,0,0,1,9.152-8.926A9.026,9.026,0,0,1-314.464,612.186Zm-6.171-.032a3.009,3.009,0,0,0-2.934-3,3.016,3.016,0,0,0-2.948,2.793,3.018,3.018,0,0,0,2.838,3.091A3.017,3.017,0,0,0-320.634,612.154Z" transform="translate(-137.951 -131.766)"/>
    <path id="Trazado_309433" data-name="Trazado 309433" d="M-506.548,618.184a3.015,3.015,0,0,1-2.909,3.022,3.021,3.021,0,0,1-2.971-2.77,3.014,3.014,0,0,1,2.812-3.114A3.016,3.016,0,0,1-506.548,618.184Z" transform="translate(-48.077 -137.931)" fill="#ccd1d9"/>
    <path id="Trazado_309434" data-name="Trazado 309434" d="M-314.468,618.322a3.017,3.017,0,0,1-3.043,2.887,3.018,3.018,0,0,1-2.838-3.09,3.016,3.016,0,0,1,2.948-2.794A3.009,3.009,0,0,1-314.468,618.322Z" transform="translate(-144.118 -137.934)" fill="#ccd1d9"/>
  </g>
</svg>
