<svg xmlns="http://www.w3.org/2000/svg" xmlns:xlink="http://www.w3.org/1999/xlink" width="1246.037" height="289.132" viewBox="0 0 1246.037 289.132">
  <defs>
    <radialGradient id="radial-gradient" cx="0.85" cy="0.076" r="2.062" gradientUnits="objectBoundingBox">
      <stop offset="0" stop-color="#ffe900"/>
      <stop offset="0.217" stop-color="gold"/>
      <stop offset="0.649" stop-color="#ffa900"/>
      <stop offset="1" stop-color="#ff8000"/>
    </radialGradient>
    <radialGradient id="radial-gradient-2" cx="0.905" cy="0.004" r="2.062" gradientTransform="translate(0)" gradientUnits="objectBoundingBox">
      <stop offset="0" stop-color="#fff"/>
      <stop offset="0.259" stop-color="#fbfbfb"/>
      <stop offset="0.471" stop-color="#f1f1f1"/>
      <stop offset="0.666" stop-color="#e0e0e0"/>
      <stop offset="0.85" stop-color="#c8c8c9"/>
      <stop offset="1" stop-color="#afafb0"/>
    </radialGradient>
    <radialGradient id="radial-gradient-3" cx="0.075" cy="0.963" r="1.212" xlink:href="#radial-gradient-2"/>
    <radialGradient id="radial-gradient-4" cx="0.914" cy="0.102" r="1.212" xlink:href="#radial-gradient-2"/>
    <radialGradient id="radial-gradient-5" cx="0.85" cy="0.076" r="2.062" gradientTransform="translate(0)" gradientUnits="objectBoundingBox">
      <stop offset="0" stop-color="#00e1ff"/>
      <stop offset="0.117" stop-color="#00d9fa"/>
      <stop offset="0.293" stop-color="#00c4ee"/>
      <stop offset="0.506" stop-color="#00a3d9"/>
      <stop offset="0.748" stop-color="#0074bd"/>
      <stop offset="1" stop-color="#003c9c"/>
    </radialGradient>
    <radialGradient id="radial-gradient-6" cx="0.905" cy="0.004" r="2.062" xlink:href="#radial-gradient-2"/>
    <radialGradient id="radial-gradient-7" cx="0.075" cy="0.963" r="1.212" xlink:href="#radial-gradient-2"/>
    <radialGradient id="radial-gradient-8" cx="0.914" cy="0.102" r="1.212" xlink:href="#radial-gradient-2"/>
    <radialGradient id="radial-gradient-9" cx="0.85" cy="0.076" r="2.062" gradientTransform="translate(0)" gradientUnits="objectBoundingBox">
      <stop offset="0" stop-color="#ff8f45"/>
      <stop offset="0.135" stop-color="#ff8942"/>
      <stop offset="0.314" stop-color="#ff783c"/>
      <stop offset="0.519" stop-color="#ff5c33"/>
      <stop offset="0.742" stop-color="#ff3625"/>
      <stop offset="0.977" stop-color="#ff0513"/>
      <stop offset="1" stop-color="#ff0012"/>
    </radialGradient>
    <radialGradient id="radial-gradient-13" cx="0.85" cy="0.076" r="2.062" gradientTransform="translate(0)" gradientUnits="objectBoundingBox">
      <stop offset="0" stop-color="#ff0"/>
      <stop offset="0.296" stop-color="#b5d900"/>
      <stop offset="0.784" stop-color="#429d00"/>
      <stop offset="1" stop-color="#148500"/>
    </radialGradient>
    <radialGradient id="radial-gradient-14" cx="0.905" cy="0.004" r="2.062" xlink:href="#radial-gradient-2"/>
  </defs>
  <g id="Grupo_596867" data-name="Grupo 596867" transform="translate(-182.066 -10259.447)">
    <g id="Grupo_594180" data-name="Grupo 594180" transform="translate(982.486 10189.363)">
      <g id="Grupo_594164" data-name="Grupo 594164" transform="translate(111.328 71.045)">
        <path id="Trazado_310521" data-name="Trazado 310521" d="M-212.408,214.615A144.088,144.088,0,0,1-356.494,358.7,144.083,144.083,0,0,1-500.579,214.615,144.085,144.085,0,0,1-356.494,70.533,144.089,144.089,0,0,1-212.408,214.615Z" transform="translate(546.697 -70.533)" fill="url(#radial-gradient)"/>
        <g id="Grupo_594163" data-name="Grupo 594163" transform="translate(0 25.834)">
          <g id="Grupo_594162" data-name="Grupo 594162" transform="translate(71.952)">
            <path id="Trazado_310554" data-name="Trazado 310554" d="M-252,200.857A118.254,118.254,0,0,1-370.253,319.114,118.252,118.252,0,0,1-488.5,200.857,118.251,118.251,0,0,1-370.253,82.608,118.253,118.253,0,0,1-252,200.857Z" transform="translate(488.504 -82.608)" fill="url(#radial-gradient-2)"/>
            <path id="Trazado_310555" data-name="Trazado 310555" d="M-260.944,197.751A112.417,112.417,0,0,1-373.36,310.171,112.417,112.417,0,0,1-485.777,197.751,112.417,112.417,0,0,1-373.36,85.334,112.417,112.417,0,0,1-260.944,197.751Z" transform="translate(491.611 -79.502)" fill="url(#radial-gradient-3)"/>
            <g id="Grupo_594161" data-name="Grupo 594161" transform="translate(11.202 26.713)" style="mix-blend-mode: multiply;isolation: isolate">
              <path id="Trazado_310556" data-name="Trazado 310556" d="M-281.308,192.926c0,59.628-46.056,101.927-105.69,101.927S-487.859,235-482.857,185.378s39.676-90.284,99.31-90.284S-281.308,133.289-281.308,192.926Z" transform="translate(483.268 -95.094)" fill="#fff" opacity="0"/>
              <path id="Trazado_310557" data-name="Trazado 310557" d="M-282.137,192.25c0,59.224-45.66,101.61-104.892,101.61S-487.345,234.976-482.5,185.433s39.659-90.181,98.889-90.181S-282.137,133.015-282.137,192.25Z" transform="translate(483.697 -94.914)" fill="#f9f9f9" opacity="0.032"/>
              <path id="Trazado_310558" data-name="Trazado 310558" d="M-282.968,191.574c0,58.822-45.264,101.3-104.092,101.3s-99.77-57.921-95.091-107.383,39.642-90.079,98.47-90.079S-282.968,132.744-282.968,191.574Z" transform="translate(484.126 -94.735)" fill="#f3f3f3" opacity="0.065"/>
              <path id="Trazado_310559" data-name="Trazado 310559" d="M-283.8,190.9c0,58.417-44.868,100.979-103.294,100.979s-99.227-56.954-94.708-106.336,39.627-89.974,98.052-89.974S-283.8,132.47-283.8,190.9Z" transform="translate(484.553 -94.555)" fill="#ededed" opacity="0.097"/>
              <path id="Trazado_310560" data-name="Trazado 310560" d="M-284.625,190.222c0,58.015-44.472,100.663-102.494,100.663S-485.8,234.9-481.445,185.6s39.612-89.871,97.633-89.871S-284.625,132.2-284.625,190.222Z" transform="translate(484.981 -94.375)" fill="#e6e6e7" opacity="0.129"/>
              <path id="Trazado_310561" data-name="Trazado 310561" d="M-285.455,189.546c0,57.611-44.077,100.346-101.692,100.346s-98.138-55.02-93.945-104.242,39.6-89.769,97.214-89.769S-285.455,131.927-285.455,189.546Z" transform="translate(485.408 -94.196)" fill="#e0e0e1" opacity="0.161"/>
              <path id="Trazado_310562" data-name="Trazado 310562" d="M-286.283,188.87c0,57.208-43.681,100.029-100.894,100.029s-97.595-54.055-93.56-103.2,39.58-89.664,96.792-89.664S-286.283,131.653-286.283,188.87Z" transform="translate(485.836 -94.016)" fill="#dadada" opacity="0.194"/>
              <path id="Trazado_310563" data-name="Trazado 310563" d="M-287.112,188.195c0,56.8-43.285,99.713-100.093,99.713s-97.049-53.088-93.177-102.147S-440.82,96.2-384.007,96.2-287.112,131.382-287.112,188.195Z" transform="translate(486.263 -93.837)" fill="#d4d4d4" opacity="0.226"/>
              <path id="Trazado_310564" data-name="Trazado 310564" d="M-287.94,187.518c0,56.4-42.887,99.4-99.293,99.4s-96.506-52.121-92.794-101.1,39.547-89.458,95.956-89.458S-287.94,131.108-287.94,187.518Z" transform="translate(486.689 -93.657)" fill="#cecece" opacity="0.258"/>
              <path id="Trazado_310565" data-name="Trazado 310565" d="M-288.766,186.842c0,56-42.493,99.079-98.5,99.079s-95.96-51.154-92.411-100.055,39.532-89.353,95.536-89.353S-288.766,130.836-288.766,186.842Z" transform="translate(487.115 -93.477)" fill="#c8c8c8" opacity="0.29"/>
              <path id="Trazado_310566" data-name="Trazado 310566" d="M-289.594,186.167c0,55.6-42.1,98.763-97.7,98.763s-95.414-50.189-92.028-99.007S-439.8,96.67-384.2,96.67-289.594,130.563-289.594,186.167Z" transform="translate(487.54 -93.298)" fill="#c2c1c2" opacity="0.323"/>
              <path id="Trazado_310567" data-name="Trazado 310567" d="M-290.42,185.49c0,55.191-41.7,98.446-96.9,98.446s-94.871-49.222-91.643-97.96,39.5-89.148,94.7-89.148S-290.42,130.291-290.42,185.49Z" transform="translate(487.967 -93.118)" fill="#bcbbbc" opacity="0.355"/>
              <path id="Trazado_310568" data-name="Trazado 310568" d="M-291.247,184.815c0,54.789-41.3,98.129-96.1,98.129s-94.326-48.255-91.26-96.912,39.483-89.048,94.278-89.048S-291.247,130.018-291.247,184.815Z" transform="translate(488.392 -92.939)" fill="#b5b5b6" opacity="0.387"/>
              <path id="Trazado_310569" data-name="Trazado 310569" d="M-292.074,184.139c0,54.384-40.908,97.813-95.3,97.813s-93.782-47.288-90.877-95.866,39.468-88.943,93.859-88.943S-292.074,129.746-292.074,184.139Z" transform="translate(488.816 -92.759)" fill="#afafb0" opacity="0.419"/>
              <path id="Trazado_310570" data-name="Trazado 310570" d="M-292.9,183.462c0,53.982-40.512,97.5-94.5,97.5s-93.239-46.325-90.5-94.822S-438.438,97.3-384.451,97.3-292.9,129.474-292.9,183.462Z" transform="translate(489.24 -92.579)" fill="#a9a9aa" opacity="0.452"/>
              <path id="Trazado_310571" data-name="Trazado 310571" d="M-293.724,182.787c0,53.578-40.117,97.182-93.7,97.182s-92.693-45.358-90.113-93.774,39.438-88.737,93.021-88.737S-293.724,129.2-293.724,182.787Z" transform="translate(489.664 -92.4)" fill="#a3a3a4" opacity="0.484"/>
              <path id="Trazado_310572" data-name="Trazado 310572" d="M-294.551,182.111c0,53.176-39.719,96.865-92.9,96.865s-92.15-44.391-89.728-92.727,39.419-88.633,92.6-88.633S-294.551,128.929-294.551,182.111Z" transform="translate(490.088 -92.22)" fill="#9d9c9d" opacity="0.516"/>
              <path id="Trazado_310573" data-name="Trazado 310573" d="M-295.374,181.436c0,52.771-39.325,96.548-92.1,96.548s-91.6-43.424-89.345-91.681,39.4-88.53,92.182-88.53S-295.374,128.656-295.374,181.436Z" transform="translate(490.511 -92.041)" fill="#979697" opacity="0.548"/>
              <path id="Trazado_310574" data-name="Trazado 310574" d="M-296.2,180.759c0,52.367-38.927,96.232-91.3,96.232s-91.059-42.459-88.962-90.633S-437.07,97.931-384.7,97.931-296.2,128.384-296.2,180.759Z" transform="translate(490.934 -91.861)" fill="#919091" opacity="0.581"/>
              <path id="Trazado_310575" data-name="Trazado 310575" d="M-297.021,180.083c0,51.965-38.533,95.915-90.5,95.915s-90.515-41.492-88.579-89.587,39.374-88.322,91.343-88.322S-297.021,128.11-297.021,180.083Z" transform="translate(491.356 -91.681)" fill="#8b8a8b" opacity="0.613"/>
              <path id="Trazado_310576" data-name="Trazado 310576" d="M-297.844,179.408c0,51.56-38.135,95.6-89.7,95.6s-89.97-40.525-88.2-88.54,39.357-88.22,90.926-88.22S-297.844,127.839-297.844,179.408Z" transform="translate(491.777 -91.502)" fill="#848485" opacity="0.645"/>
              <path id="Trazado_310577" data-name="Trazado 310577" d="M-298.669,178.731c0,51.158-37.74,95.282-88.9,95.282s-89.426-39.558-87.811-87.492,39.34-88.117,90.5-88.117S-298.669,127.564-298.669,178.731Z" transform="translate(492.2 -91.322)" fill="#7e7e7f" opacity="0.677"/>
              <path id="Trazado_310578" data-name="Trazado 310578" d="M-299.49,178.053c0,50.756-37.344,94.967-88.1,94.967s-88.881-38.591-87.428-86.446,39.325-88.012,90.085-88.012S-299.49,127.292-299.49,178.053Z" transform="translate(492.62 -91.142)" fill="#787779" opacity="0.71"/>
              <path id="Trazado_310579" data-name="Trazado 310579" d="M-300.312,177.377c0,50.354-36.948,94.651-87.3,94.651s-88.337-37.626-87.047-85.4,39.31-87.909,89.666-87.909S-300.312,127.022-300.312,177.377Z" transform="translate(493.041 -90.964)" fill="#727173" opacity="0.742"/>
              <path id="Trazado_310580" data-name="Trazado 310580" d="M-301.134,176.7c0,49.949-36.55,94.334-86.5,94.334s-87.794-36.659-86.664-84.351,39.3-87.807,89.249-87.807S-301.134,126.747-301.134,176.7Z" transform="translate(493.46 -90.784)" fill="#6c6b6d" opacity="0.774"/>
              <path id="Trazado_310581" data-name="Trazado 310581" d="M-301.953,176.026c0,49.547-36.156,94.017-85.7,94.017s-87.248-35.692-86.281-83.305,39.278-87.7,88.829-87.7S-301.953,126.477-301.953,176.026Z" transform="translate(493.88 -90.605)" fill="#666567" opacity="0.806"/>
              <path id="Trazado_310582" data-name="Trazado 310582" d="M-302.776,175.349c0,49.143-35.758,93.7-84.9,93.7s-86.7-34.727-85.9-82.261,39.261-87.6,88.408-87.6S-302.776,126.2-302.776,175.349Z" transform="translate(494.3 -90.425)" fill="#605f60" opacity="0.839"/>
              <path id="Trazado_310583" data-name="Trazado 310583" d="M-303.594,174.673c0,48.741-35.365,93.386-84.1,93.386s-86.159-33.762-85.513-81.213,39.246-87.5,87.989-87.5S-303.594,125.93-303.594,174.673Z" transform="translate(494.718 -90.245)" fill="#5a595a" opacity="0.871"/>
              <path id="Trazado_310584" data-name="Trazado 310584" d="M-304.414,174c0,48.336-34.967,93.07-83.3,93.07s-85.614-32.8-85.13-80.167,39.231-87.394,87.571-87.394S-304.414,125.657-304.414,174Z" transform="translate(495.136 -90.066)" fill="#535254" opacity="0.903"/>
              <path id="Trazado_310585" data-name="Trazado 310585" d="M-305.234,173.321c0,47.934-34.571,92.753-82.5,92.753s-85.07-31.828-84.747-79.121,39.216-87.289,87.152-87.289S-305.234,125.385-305.234,173.321Z" transform="translate(495.553 -89.886)" fill="#4d4c4e" opacity="0.935"/>
              <path id="Trazado_310586" data-name="Trazado 310586" d="M-306.05,172.646c0,47.53-34.175,92.436-81.705,92.436s-84.525-30.861-84.364-78.072,39.2-87.188,86.733-87.188S-306.05,125.114-306.05,172.646Z" transform="translate(495.97 -89.707)" fill="#474648" opacity="0.968"/>
              <path id="Trazado_310587" data-name="Trazado 310587" d="M-306.87,171.97c0,47.127-33.78,92.12-80.9,92.12s-83.981-29.9-83.981-77.026,39.182-87.084,86.311-87.084S-306.87,124.84-306.87,171.97Z" transform="translate(496.387 -89.527)" fill="#414042"/>
            </g>
            <path id="Trazado_310588" data-name="Trazado 310588" d="M-287.77,188.428a94.912,94.912,0,0,1-94.912,94.918A94.915,94.915,0,0,1-477.6,188.428a94.914,94.914,0,0,1,94.914-94.912A94.91,94.91,0,0,1-287.77,188.428Z" transform="translate(500.933 -70.179)" fill="url(#radial-gradient-4)"/>
          </g>
        </g>
      </g>
      <g id="Grupo_594169" data-name="Grupo 594169" transform="translate(-846.486 70.084)">
        <path id="Trazado_310589" data-name="Trazado 310589" d="M-736.781,214.168A144.091,144.091,0,0,1-880.869,358.257a144.086,144.086,0,0,1-144.084-144.089A144.088,144.088,0,0,1-880.869,70.084,144.093,144.093,0,0,1-736.781,214.168Z" transform="translate(1071.02 -70.084)" fill="url(#radial-gradient-5)"/>
        <g id="Grupo_594168" data-name="Grupo 594168" transform="translate(0 25.836)">
          <g id="Grupo_594167" data-name="Grupo 594167" transform="translate(71.899)">
            <path id="Trazado_310622" data-name="Trazado 310622" d="M-776.375,200.409A118.255,118.255,0,0,1-894.628,318.664a118.253,118.253,0,0,1-118.251-118.255A118.253,118.253,0,0,1-894.628,82.16,118.255,118.255,0,0,1-776.375,200.409Z" transform="translate(1012.879 -82.16)" fill="url(#radial-gradient-6)"/>
            <path id="Trazado_310623" data-name="Trazado 310623" d="M-785.317,197.3A112.419,112.419,0,0,1-897.735,309.723,112.418,112.418,0,0,1-1010.152,197.3,112.419,112.419,0,0,1-897.735,84.886,112.419,112.419,0,0,1-785.317,197.3Z" transform="translate(1015.986 -79.054)" fill="url(#radial-gradient-7)"/>
            <g id="Grupo_594166" data-name="Grupo 594166" transform="translate(11.205 26.713)" style="mix-blend-mode: multiply;isolation: isolate">
              <path id="Trazado_310624" data-name="Trazado 310624" d="M-805.682,192.476c0,59.63-46.056,101.929-105.693,101.929s-100.859-59.853-95.857-109.475,39.674-90.284,99.308-90.284S-805.682,132.839-805.682,192.476Z" transform="translate(1007.642 -94.646)" fill="#fff" opacity="0"/>
              <path id="Trazado_310625" data-name="Trazado 310625" d="M-806.511,191.8c0,59.226-45.66,101.612-104.894,101.612s-100.314-58.886-95.472-108.429S-967.221,94.8-907.989,94.8-806.511,132.567-806.511,191.8Z" transform="translate(1008.071 -94.466)" fill="#f9f9f9" opacity="0.032"/>
              <path id="Trazado_310626" data-name="Trazado 310626" d="M-807.342,191.124c0,58.822-45.264,101.3-104.094,101.3s-99.768-57.919-95.089-107.38,39.641-90.079,98.469-90.079S-807.342,132.3-807.342,191.124Z" transform="translate(1008.499 -94.287)" fill="#f3f3f3" opacity="0.065"/>
              <path id="Trazado_310627" data-name="Trazado 310627" d="M-808.172,190.448c0,58.419-44.868,100.979-103.294,100.979s-99.225-56.952-94.707-106.334,39.627-89.974,98.05-89.974S-808.172,132.022-808.172,190.448Z" transform="translate(1008.927 -94.107)" fill="#ededed" opacity="0.097"/>
              <path id="Trazado_310628" data-name="Trazado 310628" d="M-809,189.773c0,58.015-44.473,100.663-102.5,100.663s-98.679-55.987-94.323-105.288,39.609-89.871,97.631-89.871S-809,131.751-809,189.773Z" transform="translate(1009.355 -93.928)" fill="#e6e6e7" opacity="0.129"/>
              <path id="Trazado_310629" data-name="Trazado 310629" d="M-809.829,189.1c0,57.613-44.077,100.346-101.694,100.346s-98.138-55.02-93.943-104.24,39.594-89.769,97.212-89.769S-809.829,131.477-809.829,189.1Z" transform="translate(1009.782 -93.748)" fill="#e0e0e1" opacity="0.161"/>
              <path id="Trazado_310630" data-name="Trazado 310630" d="M-810.656,188.42c0,57.208-43.681,100.031-100.9,100.031s-97.593-54.055-93.56-103.2,39.58-89.664,96.794-89.664S-810.656,131.205-810.656,188.42Z" transform="translate(1010.209 -93.568)" fill="#dadada" opacity="0.194"/>
              <path id="Trazado_310631" data-name="Trazado 310631" d="M-811.486,187.745c0,56.806-43.285,99.715-100.1,99.715s-97.047-53.088-93.175-102.149,39.563-89.561,96.373-89.561S-811.486,130.932-811.486,187.745Z" transform="translate(1010.637 -93.389)" fill="#d4d4d4" opacity="0.226"/>
              <path id="Trazado_310632" data-name="Trazado 310632" d="M-812.314,187.068c0,56.4-42.887,99.4-99.3,99.4s-96.5-52.121-92.792-101.1,39.545-89.458,95.954-89.458S-812.314,130.66-812.314,187.068Z" transform="translate(1011.063 -93.209)" fill="#cecece" opacity="0.258"/>
              <path id="Trazado_310633" data-name="Trazado 310633" d="M-813.14,186.393c0,56-42.494,99.081-98.5,99.081s-95.958-51.156-92.409-100.055,39.531-89.356,95.534-89.356S-813.14,130.387-813.14,186.393Z" transform="translate(1011.489 -93.03)" fill="#c8c8c8" opacity="0.29"/>
              <path id="Trazado_310634" data-name="Trazado 310634" d="M-813.968,185.717c0,55.6-42.1,98.765-97.7,98.765s-95.415-50.189-92.026-99.009,39.515-89.251,95.117-89.251S-813.968,130.115-813.968,185.717Z" transform="translate(1011.914 -92.85)" fill="#c2c1c2" opacity="0.323"/>
              <path id="Trazado_310635" data-name="Trazado 310635" d="M-814.8,185.04c0,55.193-41.7,98.448-96.9,98.448s-94.869-49.222-91.643-97.96,39.5-89.148,94.7-89.148S-814.8,129.843-814.8,185.04Z" transform="translate(1012.34 -92.67)" fill="#bcbbbc" opacity="0.355"/>
              <path id="Trazado_310636" data-name="Trazado 310636" d="M-815.62,184.365c0,54.789-41.3,98.132-96.1,98.132s-94.326-48.255-91.26-96.914,39.485-89.045,94.279-89.045S-815.62,129.57-815.62,184.365Z" transform="translate(1012.765 -92.491)" fill="#b5b5b6" opacity="0.387"/>
              <path id="Trazado_310637" data-name="Trazado 310637" d="M-816.448,183.689c0,54.387-40.908,97.815-95.3,97.815s-93.782-47.29-90.877-95.868,39.466-88.941,93.857-88.941S-816.448,129.3-816.448,183.689Z" transform="translate(1013.19 -92.311)" fill="#afafb0" opacity="0.419"/>
              <path id="Trazado_310638" data-name="Trazado 310638" d="M-817.272,183.013c0,53.982-40.512,97.5-94.5,97.5s-93.237-46.323-90.494-94.82,39.451-88.84,93.44-88.84S-817.272,129.025-817.272,183.013Z" transform="translate(1013.614 -92.132)" fill="#a9a9aa" opacity="0.452"/>
              <path id="Trazado_310639" data-name="Trazado 310639" d="M-818.1,182.337c0,53.58-40.117,97.182-93.7,97.182s-92.693-45.356-90.111-93.774,39.436-88.735,93.021-88.735S-818.1,128.753-818.1,182.337Z" transform="translate(1014.038 -91.952)" fill="#a3a3a4" opacity="0.484"/>
              <path id="Trazado_310640" data-name="Trazado 310640" d="M-818.924,181.661c0,53.176-39.719,96.865-92.9,96.865s-92.147-44.389-89.728-92.725,39.421-88.632,92.6-88.632S-818.924,128.479-818.924,181.661Z" transform="translate(1014.461 -91.772)" fill="#9d9c9d" opacity="0.516"/>
              <path id="Trazado_310641" data-name="Trazado 310641" d="M-819.747,180.985c0,52.773-39.325,96.548-92.1,96.548s-91.6-43.424-89.345-91.679,39.4-88.53,92.182-88.53S-819.747,128.208-819.747,180.985Z" transform="translate(1014.884 -91.593)" fill="#979697" opacity="0.548"/>
              <path id="Trazado_310642" data-name="Trazado 310642" d="M-820.571,180.309c0,52.369-38.927,96.234-91.3,96.234s-91.059-42.459-88.962-90.635,39.389-88.425,91.762-88.425S-820.571,127.934-820.571,180.309Z" transform="translate(1015.306 -91.413)" fill="#919091" opacity="0.581"/>
              <path id="Trazado_310643" data-name="Trazado 310643" d="M-821.4,179.634c0,51.967-38.531,95.917-90.5,95.917s-90.513-41.492-88.577-89.587S-961.1,97.64-909.13,97.64-821.4,127.663-821.4,179.634Z" transform="translate(1015.73 -91.235)" fill="#8b8a8b" opacity="0.613"/>
              <path id="Trazado_310644" data-name="Trazado 310644" d="M-822.218,178.957c0,51.563-38.135,95.6-89.7,95.6s-89.97-40.525-88.194-88.54S-960.757,97.8-909.19,97.8-822.218,127.391-822.218,178.957Z" transform="translate(1016.151 -91.055)" fill="#848485" opacity="0.645"/>
              <path id="Trazado_310645" data-name="Trazado 310645" d="M-823.042,178.281c0,51.16-37.74,95.284-88.9,95.284s-89.424-39.56-87.811-87.494,39.34-88.115,90.5-88.115S-823.042,127.116-823.042,178.281Z" transform="translate(1016.572 -90.874)" fill="#7e7e7f" opacity="0.677"/>
              <path id="Trazado_310646" data-name="Trazado 310646" d="M-823.862,177.606c0,50.756-37.344,94.967-88.1,94.967s-88.883-38.593-87.43-86.446,39.325-88.014,90.085-88.014S-823.862,126.846-823.862,177.606Z" transform="translate(1016.993 -90.696)" fill="#787779" opacity="0.71"/>
              <path id="Trazado_310647" data-name="Trazado 310647" d="M-824.685,176.929c0,50.354-36.948,94.651-87.3,94.651s-88.337-37.626-87.047-85.4,39.31-87.909,89.668-87.909S-824.685,126.571-824.685,176.929Z" transform="translate(1017.414 -90.516)" fill="#727173" opacity="0.742"/>
              <path id="Trazado_310648" data-name="Trazado 310648" d="M-825.507,176.254c0,49.949-36.55,94.334-86.5,94.334s-87.792-36.659-86.664-84.354,39.295-87.807,89.249-87.807S-825.507,126.3-825.507,176.254Z" transform="translate(1017.833 -90.337)" fill="#6c6b6d" opacity="0.774"/>
              <path id="Trazado_310649" data-name="Trazado 310649" d="M-826.327,175.578c0,49.547-36.156,94.017-85.7,94.017S-999.279,233.9-998.31,186.29s39.278-87.7,88.827-87.7S-826.327,126.026-826.327,175.578Z" transform="translate(1018.254 -90.157)" fill="#666567" opacity="0.806"/>
              <path id="Trazado_310650" data-name="Trazado 310650" d="M-827.148,174.9c0,49.143-35.759,93.7-84.9,93.7s-86.7-34.727-85.9-82.259,39.261-87.6,88.408-87.6S-827.148,125.754-827.148,174.9Z" transform="translate(1018.673 -89.977)" fill="#605f60" opacity="0.839"/>
              <path id="Trazado_310651" data-name="Trazado 310651" d="M-827.969,174.226c0,48.738-35.363,93.384-84.1,93.384s-86.159-33.76-85.513-81.213,39.246-87.5,87.991-87.5S-827.969,125.481-827.969,174.226Z" transform="translate(1019.091 -89.798)" fill="#5a595a" opacity="0.871"/>
              <path id="Trazado_310652" data-name="Trazado 310652" d="M-828.787,173.55c0,48.336-34.969,93.068-83.305,93.068s-85.614-32.793-85.13-80.165,39.231-87.394,87.571-87.394S-828.787,125.209-828.787,173.55Z" transform="translate(1019.508 -89.618)" fill="#535254" opacity="0.903"/>
              <path id="Trazado_310653" data-name="Trazado 310653" d="M-829.606,172.875c0,47.932-34.571,92.751-82.505,92.751s-85.07-31.828-84.747-79.118,39.216-87.291,87.152-87.291S-829.606,124.938-829.606,172.875Z" transform="translate(1019.926 -89.439)" fill="#4d4c4e" opacity="0.935"/>
              <path id="Trazado_310654" data-name="Trazado 310654" d="M-830.423,172.2c0,47.53-34.177,92.436-81.707,92.436s-84.525-30.864-84.364-78.074,39.2-87.186,86.733-87.186S-830.423,124.664-830.423,172.2Z" transform="translate(1020.342 -89.259)" fill="#474648" opacity="0.968"/>
              <path id="Trazado_310655" data-name="Trazado 310655" d="M-831.243,171.522c0,47.125-33.78,92.12-80.9,92.12s-83.981-29.9-83.981-77.026,39.182-87.084,86.311-87.084S-831.243,124.392-831.243,171.522Z" transform="translate(1020.76 -89.079)" fill="#414042"/>
            </g>
            <path id="Trazado_310656" data-name="Trazado 310656" d="M-812.144,187.98A94.912,94.912,0,0,1-907.058,282.9a94.911,94.911,0,0,1-94.912-94.916,94.912,94.912,0,0,1,94.912-94.912A94.912,94.912,0,0,1-812.144,187.98Z" transform="translate(1025.309 -69.731)" fill="url(#radial-gradient-8)"/>
          </g>
        </g>
      </g>
      <g id="Grupo_594174" data-name="Grupo 594174" transform="translate(-208.519 70.084)">
        <path id="Trazado_310657" data-name="Trazado 310657" d="M-386.7,214.168A144.089,144.089,0,0,1-530.792,358.255,144.084,144.084,0,0,1-674.877,214.168,144.087,144.087,0,0,1-530.792,70.084,144.091,144.091,0,0,1-386.7,214.168Z" transform="translate(720.943 -70.084)" fill="url(#radial-gradient-9)"/>
        <g id="Grupo_594173" data-name="Grupo 594173" transform="translate(0 25.834)">
          <g id="Grupo_594172" data-name="Grupo 594172" transform="translate(71.899)">
            <path id="Trazado_310690" data-name="Trazado 310690" d="M-426.3,200.41A118.253,118.253,0,0,1-544.551,318.665,118.253,118.253,0,0,1-662.8,200.41,118.253,118.253,0,0,1-544.551,82.159,118.254,118.254,0,0,1-426.3,200.41Z" transform="translate(662.802 -82.159)" fill="url(#radial-gradient-2)"/>
            <path id="Trazado_310691" data-name="Trazado 310691" d="M-435.24,197.3A112.42,112.42,0,0,1-547.658,309.723,112.42,112.42,0,0,1-660.075,197.3,112.417,112.417,0,0,1-547.658,84.886,112.418,112.418,0,0,1-435.24,197.3Z" transform="translate(665.909 -79.052)" fill="url(#radial-gradient-7)"/>
            <g id="Grupo_594171" data-name="Grupo 594171" transform="translate(11.205 26.715)" style="mix-blend-mode: multiply;isolation: isolate">
              <path id="Trazado_310692" data-name="Trazado 310692" d="M-455.6,192.476c0,59.628-46.056,101.929-105.692,101.929s-100.859-59.853-95.857-109.475,39.674-90.284,99.308-90.284S-455.6,132.839-455.6,192.476Z" transform="translate(657.565 -94.646)" fill="#fff" opacity="0"/>
              <path id="Trazado_310693" data-name="Trazado 310693" d="M-456.433,191.8c0,59.226-45.662,101.612-104.894,101.612S-661.641,234.527-656.8,184.984-617.143,94.8-557.911,94.8-456.433,132.568-456.433,191.8Z" transform="translate(657.993 -94.467)" fill="#f9f9f9" opacity="0.032"/>
              <path id="Trazado_310694" data-name="Trazado 310694" d="M-457.265,191.124c0,58.822-45.264,101.3-104.094,101.3s-99.768-57.919-95.089-107.383,39.642-90.077,98.47-90.077S-457.265,132.294-457.265,191.124Z" transform="translate(658.423 -94.287)" fill="#f3f3f3" opacity="0.065"/>
              <path id="Trazado_310695" data-name="Trazado 310695" d="M-458.093,190.449c0,58.419-44.87,100.979-103.3,100.979s-99.225-56.954-94.706-106.334,39.627-89.976,98.05-89.976S-458.093,132.023-458.093,190.449Z" transform="translate(658.85 -94.108)" fill="#ededed" opacity="0.097"/>
              <path id="Trazado_310696" data-name="Trazado 310696" d="M-458.922,189.773c0,58.015-44.472,100.663-102.5,100.663s-98.679-55.987-94.323-105.288,39.609-89.871,97.631-89.871S-458.922,131.749-458.922,189.773Z" transform="translate(659.278 -93.928)" fill="#e6e6e7" opacity="0.129"/>
              <path id="Trazado_310697" data-name="Trazado 310697" d="M-459.752,189.1c0,57.613-44.077,100.346-101.694,100.346s-98.138-55.02-93.943-104.24,39.594-89.769,97.212-89.769S-459.752,131.477-459.752,189.1Z" transform="translate(659.705 -93.748)" fill="#e0e0e1" opacity="0.161"/>
              <path id="Trazado_310698" data-name="Trazado 310698" d="M-460.579,188.421c0,57.208-43.681,100.029-100.9,100.029s-97.593-54.053-93.56-103.193,39.579-89.666,96.794-89.666S-460.579,131.2-460.579,188.421Z" transform="translate(660.132 -93.569)" fill="#dadada" opacity="0.194"/>
              <path id="Trazado_310699" data-name="Trazado 310699" d="M-461.409,187.745c0,56.806-43.285,99.713-100.1,99.713s-97.047-53.088-93.174-102.147,39.562-89.561,96.373-89.561S-461.409,130.932-461.409,187.745Z" transform="translate(660.56 -93.389)" fill="#d4d4d4" opacity="0.226"/>
              <path id="Trazado_310700" data-name="Trazado 310700" d="M-462.237,187.069c0,56.4-42.887,99.4-99.3,99.4s-96.5-52.121-92.792-101.1,39.545-89.46,95.953-89.46S-462.237,130.661-462.237,187.069Z" transform="translate(660.986 -93.21)" fill="#cecece" opacity="0.258"/>
              <path id="Trazado_310701" data-name="Trazado 310701" d="M-463.063,186.393c0,56-42.494,99.079-98.5,99.079s-95.958-51.154-92.409-100.053,39.53-89.356,95.534-89.356S-463.063,130.387-463.063,186.393Z" transform="translate(661.412 -93.03)" fill="#c8c8c8" opacity="0.29"/>
              <path id="Trazado_310702" data-name="Trazado 310702" d="M-463.891,185.717c0,55.6-42.1,98.765-97.7,98.765S-657,234.293-653.614,185.473-614.1,96.222-558.5,96.222-463.891,130.115-463.891,185.717Z" transform="translate(661.837 -92.85)" fill="#c2c1c2" opacity="0.323"/>
              <path id="Trazado_310703" data-name="Trazado 310703" d="M-464.716,185.041c0,55.191-41.7,98.448-96.9,98.448s-94.869-49.224-91.643-97.96,39.5-89.15,94.7-89.15S-464.716,129.842-464.716,185.041Z" transform="translate(662.263 -92.671)" fill="#bcbbbc" opacity="0.355"/>
              <path id="Trazado_310704" data-name="Trazado 310704" d="M-465.543,184.365c0,54.789-41.3,98.132-96.1,98.132s-94.326-48.257-91.26-96.914,39.486-89.045,94.279-89.045S-465.543,129.57-465.543,184.365Z" transform="translate(662.688 -92.491)" fill="#b5b5b6" opacity="0.387"/>
              <path id="Trazado_310705" data-name="Trazado 310705" d="M-466.371,183.69c0,54.384-40.908,97.815-95.3,97.815s-93.78-47.29-90.875-95.868,39.466-88.943,93.857-88.943S-466.371,129.3-466.371,183.69Z" transform="translate(663.113 -92.312)" fill="#afafb0" opacity="0.419"/>
              <path id="Trazado_310706" data-name="Trazado 310706" d="M-467.2,183.013c0,53.982-40.512,97.5-94.5,97.5s-93.237-46.323-90.494-94.82,39.451-88.84,93.44-88.84S-467.2,129.025-467.2,183.013Z" transform="translate(663.537 -92.132)" fill="#a9a9aa" opacity="0.452"/>
              <path id="Trazado_310707" data-name="Trazado 310707" d="M-468.021,182.337c0,53.578-40.117,97.182-93.7,97.182s-92.693-45.356-90.111-93.774S-612.394,97.01-558.81,97.01-468.021,128.751-468.021,182.337Z" transform="translate(663.961 -91.952)" fill="#a3a3a4" opacity="0.484"/>
              <path id="Trazado_310708" data-name="Trazado 310708" d="M-468.847,181.662c0,53.176-39.719,96.865-92.9,96.865s-92.148-44.391-89.728-92.727,39.421-88.632,92.6-88.632S-468.847,128.48-468.847,181.662Z" transform="translate(664.384 -91.773)" fill="#9d9c9d" opacity="0.516"/>
              <path id="Trazado_310709" data-name="Trazado 310709" d="M-469.67,180.985c0,52.771-39.325,96.548-92.1,96.548s-91.6-43.424-89.345-91.679,39.4-88.53,92.182-88.53S-469.67,128.208-469.67,180.985Z" transform="translate(664.807 -91.593)" fill="#979697" opacity="0.548"/>
              <path id="Trazado_310710" data-name="Trazado 310710" d="M-470.494,180.31c0,52.369-38.927,96.232-91.3,96.232s-91.059-42.457-88.962-90.633,39.389-88.427,91.762-88.427S-470.494,127.935-470.494,180.31Z" transform="translate(665.229 -91.415)" fill="#919091" opacity="0.581"/>
              <path id="Trazado_310711" data-name="Trazado 310711" d="M-471.317,179.634c0,51.965-38.533,95.915-90.5,95.915s-90.513-41.49-88.577-89.587,39.372-88.322,91.343-88.322S-471.317,127.663-471.317,179.634Z" transform="translate(665.653 -91.235)" fill="#8b8a8b" opacity="0.613"/>
              <path id="Trazado_310712" data-name="Trazado 310712" d="M-472.141,178.957c0,51.563-38.135,95.6-89.7,95.6s-89.97-40.525-88.194-88.538S-610.68,97.8-559.114,97.8-472.141,127.389-472.141,178.957Z" transform="translate(666.074 -91.055)" fill="#848485" opacity="0.645"/>
              <path id="Trazado_310713" data-name="Trazado 310713" d="M-472.965,178.282c0,51.158-37.74,95.284-88.9,95.284s-89.424-39.56-87.811-87.494,39.34-88.117,90.5-88.117S-472.965,127.118-472.965,178.282Z" transform="translate(666.495 -90.876)" fill="#7e7e7f" opacity="0.677"/>
              <path id="Trazado_310714" data-name="Trazado 310714" d="M-473.786,177.606c0,50.756-37.344,94.967-88.1,94.967s-88.881-38.593-87.428-86.448,39.325-88.012,90.085-88.012S-473.786,126.843-473.786,177.606Z" transform="translate(666.916 -90.696)" fill="#787779" opacity="0.71"/>
              <path id="Trazado_310715" data-name="Trazado 310715" d="M-474.608,176.931c0,50.352-36.948,94.651-87.3,94.651s-88.337-37.626-87.047-85.4,39.31-87.911,89.668-87.911S-474.608,126.573-474.608,176.931Z" transform="translate(667.336 -90.517)" fill="#727173" opacity="0.742"/>
              <path id="Trazado_310716" data-name="Trazado 310716" d="M-475.43,176.254c0,49.949-36.55,94.334-86.5,94.334s-87.792-36.661-86.664-84.354,39.295-87.807,89.249-87.807S-475.43,126.3-475.43,176.254Z" transform="translate(667.756 -90.337)" fill="#6c6b6d" opacity="0.774"/>
              <path id="Trazado_310717" data-name="Trazado 310717" d="M-476.25,175.578c0,49.545-36.156,94.017-85.7,94.017S-649.2,233.9-648.233,186.288s39.278-87.7,88.827-87.7S-476.25,126.026-476.25,175.578Z" transform="translate(668.177 -90.157)" fill="#666567" opacity="0.806"/>
              <path id="Trazado_310718" data-name="Trazado 310718" d="M-477.072,174.9c0,49.143-35.759,93.7-84.9,93.7s-86.7-34.727-85.9-82.259,39.261-87.6,88.408-87.6S-477.072,125.756-477.072,174.9Z" transform="translate(668.595 -89.978)" fill="#605f60" opacity="0.839"/>
              <path id="Trazado_310719" data-name="Trazado 310719" d="M-477.89,174.226c0,48.738-35.365,93.384-84.105,93.384s-86.159-33.76-85.513-81.213,39.246-87.5,87.989-87.5S-477.89,125.481-477.89,174.226Z" transform="translate(669.014 -89.798)" fill="#5a595a" opacity="0.871"/>
              <path id="Trazado_310720" data-name="Trazado 310720" d="M-478.71,173.55c0,48.336-34.969,93.068-83.305,93.068s-85.614-32.8-85.13-80.167,39.231-87.392,87.571-87.392S-478.71,125.209-478.71,173.55Z" transform="translate(669.432 -89.618)" fill="#535254" opacity="0.903"/>
              <path id="Trazado_310721" data-name="Trazado 310721" d="M-479.529,172.875c0,47.932-34.571,92.751-82.505,92.751s-85.07-31.828-84.747-79.118,39.216-87.291,87.152-87.291S-479.529,124.936-479.529,172.875Z" transform="translate(669.849 -89.439)" fill="#4d4c4e" opacity="0.935"/>
              <path id="Trazado_310722" data-name="Trazado 310722" d="M-480.346,172.2c0,47.53-34.177,92.434-81.707,92.434s-84.525-30.861-84.365-78.072,39.2-87.186,86.733-87.186S-480.346,124.664-480.346,172.2Z" transform="translate(670.266 -89.259)" fill="#474648" opacity="0.968"/>
              <path id="Trazado_310723" data-name="Trazado 310723" d="M-481.166,171.523c0,47.125-33.78,92.118-80.9,92.118s-83.981-29.894-83.981-77.026,39.182-87.084,86.311-87.084S-481.166,124.391-481.166,171.523Z" transform="translate(670.683 -89.08)" fill="#414042"/>
            </g>
            <path id="Trazado_310724" data-name="Trazado 310724" d="M-462.067,187.98A94.912,94.912,0,0,1-556.981,282.9a94.911,94.911,0,0,1-94.912-94.916,94.912,94.912,0,0,1,94.912-94.912A94.912,94.912,0,0,1-462.067,187.98Z" transform="translate(675.232 -69.729)" fill="url(#radial-gradient-8)"/>
          </g>
        </g>
      </g>
      <g id="Grupo_594179" data-name="Grupo 594179" transform="translate(-528.615 70.084)">
        <path id="Trazado_310725" data-name="Trazado 310725" d="M-561.093,214.168A144.091,144.091,0,0,1-705.181,358.257,144.086,144.086,0,0,1-849.266,214.168,144.088,144.088,0,0,1-705.181,70.084,144.093,144.093,0,0,1-561.093,214.168Z" transform="translate(895.334 -70.084)" fill="url(#radial-gradient-13)"/>
        <g id="Grupo_594178" data-name="Grupo 594178" transform="translate(0 25.836)">
          <g id="Grupo_594177" data-name="Grupo 594177" transform="translate(71.899)">
            <path id="Trazado_310758" data-name="Trazado 310758" d="M-600.688,200.409A118.253,118.253,0,0,1-718.939,318.664,118.255,118.255,0,0,1-837.192,200.409,118.255,118.255,0,0,1-718.939,82.16,118.253,118.253,0,0,1-600.688,200.409Z" transform="translate(837.192 -82.16)" fill="url(#radial-gradient-14)"/>
            <path id="Trazado_310759" data-name="Trazado 310759" d="M-609.629,197.3A112.42,112.42,0,0,1-722.047,309.723,112.417,112.417,0,0,1-834.464,197.3,112.416,112.416,0,0,1-722.047,84.886,112.419,112.419,0,0,1-609.629,197.3Z" transform="translate(840.3 -79.054)" fill="url(#radial-gradient-7)"/>
            <g id="Grupo_594176" data-name="Grupo 594176" transform="translate(11.207 26.713)" style="mix-blend-mode: multiply;isolation: isolate">
              <path id="Trazado_310760" data-name="Trazado 310760" d="M-629.994,192.476c0,59.63-46.056,101.929-105.692,101.929s-100.859-59.853-95.858-109.475,39.674-90.284,99.308-90.284S-629.994,132.839-629.994,192.476Z" transform="translate(831.954 -94.646)" fill="#fff" opacity="0"/>
              <path id="Trazado_310761" data-name="Trazado 310761" d="M-630.824,191.8c0,59.226-45.66,101.612-104.892,101.612s-100.314-58.886-95.474-108.429S-791.532,94.8-732.3,94.8-630.824,132.568-630.824,191.8Z" transform="translate(832.382 -94.467)" fill="#f9f9f9" opacity="0.032"/>
              <path id="Trazado_310762" data-name="Trazado 310762" d="M-631.653,191.124c0,58.824-45.264,101.3-104.094,101.3s-99.77-57.919-95.091-107.38,39.644-90.079,98.47-90.079S-631.653,132.3-631.653,191.124Z" transform="translate(832.811 -94.287)" fill="#f3f3f3" opacity="0.065"/>
              <path id="Trazado_310763" data-name="Trazado 310763" d="M-632.484,190.448c0,58.419-44.868,100.979-103.294,100.979S-835,234.475-830.484,185.093s39.625-89.974,98.05-89.974S-632.484,132.022-632.484,190.448Z" transform="translate(833.24 -94.107)" fill="#ededed" opacity="0.097"/>
              <path id="Trazado_310764" data-name="Trazado 310764" d="M-633.311,189.773c0,58.015-44.472,100.663-102.5,100.663s-98.679-55.985-94.323-105.288,39.61-89.871,97.631-89.871S-633.311,131.751-633.311,189.773Z" transform="translate(833.667 -93.928)" fill="#e6e6e7" opacity="0.129"/>
              <path id="Trazado_310765" data-name="Trazado 310765" d="M-634.141,189.1c0,57.613-44.077,100.346-101.7,100.346s-98.136-55.02-93.94-104.24,39.594-89.769,97.212-89.769S-634.141,131.477-634.141,189.1Z" transform="translate(834.094 -93.748)" fill="#e0e0e1" opacity="0.161"/>
              <path id="Trazado_310766" data-name="Trazado 310766" d="M-634.97,188.42c0,57.208-43.679,100.031-100.9,100.031s-97.59-54.055-93.557-103.2,39.58-89.664,96.792-89.664S-634.97,131.205-634.97,188.42Z" transform="translate(834.521 -93.568)" fill="#dadada" opacity="0.194"/>
              <path id="Trazado_310767" data-name="Trazado 310767" d="M-635.8,187.745c0,56.806-43.285,99.715-100.1,99.715s-97.049-53.088-93.177-102.149,39.563-89.561,96.375-89.561S-635.8,130.932-635.8,187.745Z" transform="translate(834.948 -93.389)" fill="#d4d4d4" opacity="0.226"/>
              <path id="Trazado_310768" data-name="Trazado 310768" d="M-636.625,187.068c0,56.4-42.887,99.4-99.3,99.4s-96.5-52.121-92.794-101.1,39.547-89.458,95.956-89.458S-636.625,130.66-636.625,187.068Z" transform="translate(835.374 -93.209)" fill="#cecece" opacity="0.258"/>
              <path id="Trazado_310769" data-name="Trazado 310769" d="M-637.454,186.393c0,56-42.491,99.081-98.5,99.081s-95.958-51.156-92.409-100.055,39.53-89.356,95.534-89.356S-637.454,130.387-637.454,186.393Z" transform="translate(835.801 -93.03)" fill="#c8c8c8" opacity="0.29"/>
              <path id="Trazado_310770" data-name="Trazado 310770" d="M-638.28,185.717c0,55.6-42.1,98.765-97.7,98.765S-831.392,234.293-828,185.475s39.515-89.253,95.115-89.253S-638.28,130.115-638.28,185.717Z" transform="translate(836.227 -92.85)" fill="#c2c1c2" opacity="0.323"/>
              <path id="Trazado_310771" data-name="Trazado 310771" d="M-639.107,185.04c0,55.193-41.7,98.448-96.9,98.448s-94.869-49.222-91.643-97.96,39.5-89.148,94.7-89.148S-639.107,129.843-639.107,185.04Z" transform="translate(836.652 -92.67)" fill="#bcbbbc" opacity="0.355"/>
              <path id="Trazado_310772" data-name="Trazado 310772" d="M-639.932,184.365c0,54.789-41.3,98.132-96.1,98.132s-94.326-48.255-91.26-96.914,39.483-89.045,94.278-89.045S-639.932,129.57-639.932,184.365Z" transform="translate(837.077 -92.491)" fill="#b5b5b6" opacity="0.387"/>
              <path id="Trazado_310773" data-name="Trazado 310773" d="M-640.759,183.689c0,54.387-40.908,97.815-95.3,97.815s-93.78-47.29-90.877-95.866,39.468-88.943,93.859-88.943S-640.759,129.3-640.759,183.689Z" transform="translate(837.501 -92.311)" fill="#afafb0" opacity="0.419"/>
              <path id="Trazado_310774" data-name="Trazado 310774" d="M-641.586,183.013c0,53.982-40.512,97.5-94.5,97.5s-93.237-46.323-90.492-94.82,39.451-88.84,93.438-88.84S-641.586,129.025-641.586,183.013Z" transform="translate(837.926 -92.132)" fill="#a9a9aa" opacity="0.452"/>
              <path id="Trazado_310775" data-name="Trazado 310775" d="M-642.41,182.337c0,53.58-40.116,97.182-93.7,97.182s-92.693-45.356-90.111-93.774S-786.783,97.01-733.2,97.01-642.41,128.753-642.41,182.337Z" transform="translate(838.35 -91.952)" fill="#a3a3a4" opacity="0.484"/>
              <path id="Trazado_310776" data-name="Trazado 310776" d="M-643.236,181.661c0,53.176-39.721,96.865-92.9,96.865s-92.148-44.389-89.728-92.725,39.419-88.632,92.6-88.632S-643.236,128.479-643.236,181.661Z" transform="translate(838.773 -91.772)" fill="#9d9c9d" opacity="0.516"/>
              <path id="Trazado_310777" data-name="Trazado 310777" d="M-644.061,180.985c0,52.773-39.323,96.548-92.1,96.548s-91.6-43.424-89.345-91.679,39.4-88.53,92.182-88.53S-644.061,128.208-644.061,180.985Z" transform="translate(839.196 -91.593)" fill="#979697" opacity="0.548"/>
              <path id="Trazado_310778" data-name="Trazado 310778" d="M-644.883,180.309c0,52.369-38.929,96.234-91.3,96.234s-91.059-42.459-88.962-90.635,39.389-88.425,91.763-88.425S-644.883,127.936-644.883,180.309Z" transform="translate(839.619 -91.413)" fill="#919091" opacity="0.581"/>
              <path id="Trazado_310779" data-name="Trazado 310779" d="M-645.708,179.634c0,51.967-38.531,95.917-90.5,95.917s-90.515-41.492-88.579-89.587,39.374-88.324,91.343-88.324S-645.708,127.663-645.708,179.634Z" transform="translate(840.041 -91.235)" fill="#8b8a8b" opacity="0.613"/>
              <path id="Trazado_310780" data-name="Trazado 310780" d="M-646.53,178.957c0,51.563-38.138,95.6-89.7,95.6s-89.97-40.525-88.194-88.54S-785.071,97.8-733.5,97.8-646.53,127.391-646.53,178.957Z" transform="translate(840.463 -91.055)" fill="#848485" opacity="0.645"/>
              <path id="Trazado_310781" data-name="Trazado 310781" d="M-647.354,178.281c0,51.16-37.74,95.284-88.9,95.284S-825.68,234-824.067,186.071s39.34-88.115,90.5-88.115S-647.354,127.116-647.354,178.281Z" transform="translate(840.884 -90.874)" fill="#7e7e7f" opacity="0.677"/>
              <path id="Trazado_310782" data-name="Trazado 310782" d="M-648.177,177.606c0,50.756-37.344,94.967-88.1,94.967s-88.881-38.593-87.428-86.446,39.325-88.014,90.085-88.014S-648.177,126.846-648.177,177.606Z" transform="translate(841.305 -90.696)" fill="#787779" opacity="0.71"/>
              <path id="Trazado_310783" data-name="Trazado 310783" d="M-649,176.929c0,50.354-36.948,94.651-87.3,94.651s-88.335-37.626-87.045-85.4,39.31-87.909,89.666-87.909S-649,126.571-649,176.929Z" transform="translate(841.726 -90.516)" fill="#727173" opacity="0.742"/>
              <path id="Trazado_310784" data-name="Trazado 310784" d="M-649.819,176.254c0,49.949-36.552,94.334-86.5,94.334s-87.794-36.659-86.664-84.354,39.293-87.807,89.249-87.807S-649.819,126.3-649.819,176.254Z" transform="translate(842.145 -90.337)" fill="#6c6b6d" opacity="0.774"/>
              <path id="Trazado_310785" data-name="Trazado 310785" d="M-650.64,175.578c0,49.545-36.154,94.017-85.7,94.017S-823.59,233.9-822.623,186.29s39.278-87.7,88.829-87.7S-650.64,126.026-650.64,175.578Z" transform="translate(842.565 -90.157)" fill="#666567" opacity="0.806"/>
              <path id="Trazado_310786" data-name="Trazado 310786" d="M-651.46,174.9c0,49.143-35.761,93.7-84.9,93.7s-86.7-34.727-85.9-82.259,39.261-87.6,88.408-87.6S-651.46,125.754-651.46,174.9Z" transform="translate(842.984 -89.977)" fill="#605f60" opacity="0.839"/>
              <path id="Trazado_310787" data-name="Trazado 310787" d="M-652.281,174.226c0,48.738-35.363,93.384-84.1,93.384S-822.544,233.85-821.9,186.4s39.246-87.5,87.988-87.5S-652.281,125.483-652.281,174.226Z" transform="translate(843.403 -89.798)" fill="#5a595a" opacity="0.871"/>
              <path id="Trazado_310788" data-name="Trazado 310788" d="M-653.1,173.55c0,48.336-34.969,93.068-83.305,93.068s-85.614-32.793-85.13-80.165,39.231-87.394,87.569-87.394S-653.1,125.209-653.1,173.55Z" transform="translate(843.821 -89.618)" fill="#535254" opacity="0.903"/>
              <path id="Trazado_310789" data-name="Trazado 310789" d="M-653.918,172.875c0,47.932-34.571,92.751-82.505,92.751s-85.07-31.826-84.747-79.118,39.214-87.291,87.152-87.291S-653.918,124.938-653.918,172.875Z" transform="translate(844.238 -89.439)" fill="#4d4c4e" opacity="0.935"/>
              <path id="Trazado_310790" data-name="Trazado 310790" d="M-654.737,172.2c0,47.53-34.175,92.436-81.705,92.436s-84.525-30.864-84.364-78.074,39.2-87.186,86.733-87.186S-654.737,124.664-654.737,172.2Z" transform="translate(844.655 -89.259)" fill="#474648" opacity="0.968"/>
              <path id="Trazado_310791" data-name="Trazado 310791" d="M-655.553,171.522c0,47.125-33.78,92.12-80.907,92.12s-83.981-29.9-83.981-77.026,39.184-87.084,86.313-87.084S-655.553,124.392-655.553,171.522Z" transform="translate(845.071 -89.079)" fill="#414042"/>
            </g>
            <path id="Trazado_310792" data-name="Trazado 310792" d="M-636.456,187.98A94.912,94.912,0,0,1-731.37,282.9a94.911,94.911,0,0,1-94.912-94.916A94.912,94.912,0,0,1-731.37,93.068,94.912,94.912,0,0,1-636.456,187.98Z" transform="translate(849.623 -69.731)" fill="url(#radial-gradient-8)"/>
          </g>
        </g>
      </g>
    </g>
    <text id="Monitoreo_IoT" data-name="Monitoreo  IoT" transform="translate(246 10398.425)" fill="#12263f" font-size="22" font-family="ArialMT, Arial"><tspan x="0" y="20" xml:space="preserve">Monitoreo  IoT</tspan></text>
    <text id="Monitoreo_tradicional_GPS_" data-name="Monitoreo tradicional GPS
" transform="translate(568 10389.425)" fill="#12263f" font-size="22" font-family="ArialMT, Arial"><tspan x="28.626" y="20">Monitoreo </tspan><tspan x="1.115" y="50">tradicional GPS</tspan></text>
    <text id="Precinto_o_sello_electrónico_de_seguridad_" data-name="Precinto o sello electrónico de seguridad
" transform="translate(1209 10383.425)" fill="#12263f" font-size="22" font-family="ArialMT, Arial"><tspan x="3.334" y="20">Precinto o sello </tspan><tspan x="10.054" y="47">electrónico de </tspan><tspan x="30.228" y="74">seguridad</tspan></text>
    <text id="Monitoreo_inteligente_con_A-GPS_" data-name="Monitoreo inteligente con 
A-GPS
" transform="translate(890 10379.925)" fill="#12263f" font-size="22" font-family="ArialMT, Arial"><tspan x="24.626" y="20">Monitoreo </tspan><tspan x="2.599" y="50">inteligente con </tspan><tspan x="39.311" y="80">A-GPS</tspan></text>
    <g id="Grupo_594157" data-name="Grupo 594157" transform="translate(1946.899 10324.152)">
      <path id="Trazado_310171" data-name="Trazado 310171" d="M-1299.624,178.5h2.419c1.438,0,2.876-.011,4.314,0a3.737,3.737,0,0,1,3.6,2.831c.168.657.306,1.322.454,1.984.145.647.284,1.294.424,1.932.037.025.062.055.089.058a2.334,2.334,0,0,1,2.357,2.67c0,1.372,0,2.745,0,4.179.262,0,.493-.009.723,0a.745.745,0,0,1,.788.768c.018.553.027,1.107,0,1.659a2.262,2.262,0,0,1-2.215,2.117c-.853.02-1.707.014-2.56,0a.606.606,0,0,0-.576.3,4.514,4.514,0,0,1-7.479.009.613.613,0,0,0-.571-.305q-5.546.013-11.093,0a.653.653,0,0,0-.606.332,4.513,4.513,0,0,1-7.45-.022.638.638,0,0,0-.617-.309c-.774.018-1.549.009-2.323.006a2.287,2.287,0,0,1-2.43-2.437c0-.173,0-.347,0-.6-.179,0-.344,0-.509,0-.767-.005-1.005-.248-1.008-1.031,0-.111,0-.221,0-.332q0-8.63,0-17.26c0-.9.212-1.1,1.124-1.1h22.045c.9,0,1.107.213,1.107,1.122C-1299.623,176.189-1299.624,177.31-1299.624,178.5Zm-1.552,9.085V175.5h-21.18v12.082Zm1.571,4.572c.629,0,1.213.02,1.794-.012a.716.716,0,0,0,.479-.263,4.549,4.549,0,0,1,7.557.023c.069.1.169.234.258.237.671.02,1.343.011,2.03.011,0-1.476,0-2.882,0-4.289,0-.774-.245-1.017-1.021-1.017-2.4,0-4.8,0-7.206,0a2.275,2.275,0,0,1-2.391-2.379c-.006-1.312,0-2.624,0-3.936v-.486h-1.5Zm-22.755,0c1.6,0,3.157-.008,4.718.007a.688.688,0,0,0,.651-.336,4.509,4.509,0,0,1,7.418-.005.691.691,0,0,0,.648.342c2.449-.013,4.9-.007,7.346-.009.136,0,.272-.017.4-.025v-2.985h-21.181Zm32.414-6.829c-.289-1.27-.533-2.506-.857-3.72a1.977,1.977,0,0,0-1.832-1.551c-1.3-.087-2.607-.022-3.948-.022,0,1.555-.013,3.082.008,4.607.006.423.342.673.816.683.552.011,1.1,0,1.656,0Zm-20.3,9.083a3.039,3.039,0,0,0-3.067-3.012,3.039,3.039,0,0,0-3,3.032,3.04,3.04,0,0,0,3.042,3.037A3.043,3.043,0,0,0-1310.245,194.41Zm16.668-3.012a3.038,3.038,0,0,0-3.011,3.067,3.04,3.04,0,0,0,3.031,3,3.042,3.042,0,0,0,3.036-3.045A3.039,3.039,0,0,0-1293.577,191.4Zm-15.172,3.767h10.659V193.7h-10.659Zm-9.06.025v-1.482h-3.055c0,.253-.009.472,0,.691a.742.742,0,0,0,.765.787C-1319.343,195.2-1318.589,195.19-1317.809,195.19Zm28.784-1.5v1.492c.791,0,1.578.04,2.357-.024a.938.938,0,0,0,.635-.519,2.706,2.706,0,0,0,.026-.949Z" transform="translate(0 -141.716)"/>
      <path id="Trazado_310172" data-name="Trazado 310172" d="M-1232.191,83.907c1.723,0,3.445,0,5.167,0a2.274,2.274,0,0,1,2.424,2.439q0,4.694,0,9.388c0,.842.227,1.07,1.063,1.071q2.773,0,5.547,0a2.288,2.288,0,0,1,2.493,2.466q0,4.742,0,9.483a2.284,2.284,0,0,1-2.445,2.466q-1.351,0-2.7,0c-.569,0-.9-.279-.916-.739-.013-.476.336-.774.925-.776.9,0,1.8,0,2.7,0,.647,0,.918-.276.919-.929q0-4.765,0-9.531c0-.648-.275-.918-.927-.919-1.9,0-3.792,0-5.689,0a2.286,2.286,0,0,1-2.485-2.474q0-4.67,0-9.341c0-.865-.222-1.083-1.1-1.083h-9.955c-.867,0-1.083.22-1.084,1.1,0,1.612,0,3.224,0,4.836a2.271,2.271,0,0,1-2.4,2.412q-4.432.007-8.865,0a2.273,2.273,0,0,1-2.384-2.384c0-.443-.008-.885,0-1.328a.764.764,0,0,1,.77-.836.761.761,0,0,1,.742.817c.012.442,0,.885,0,1.327.01.594.282.883.867.884q4.432.008,8.865,0c.611,0,.884-.287.886-.914,0-1.66,0-3.319,0-4.979a2.283,2.283,0,0,1,2.459-2.451Q-1234.751,83.9-1232.191,83.907Z" transform="translate(-62.887 -63.057)"/>
      <path id="Trazado_310173" data-name="Trazado 310173" d="M-1282.47,11.724a5.351,5.351,0,0,1,5.306,5.285,4.82,4.82,0,0,1-.7,2.333,21.673,21.673,0,0,1-4.043,5.047.715.715,0,0,1-1.1.024,22.914,22.914,0,0,1-4.235-5.371c-1.519-2.812.426-6.589,3.788-7.2C-1283.13,11.783-1282.8,11.763-1282.47,11.724Zm0,11.094a19.351,19.351,0,0,0,3.452-4.547,3.042,3.042,0,0,0,.083-2.564,3.783,3.783,0,0,0-5.156-2.077,3.543,3.543,0,0,0-1.583,5.133A20.391,20.391,0,0,0-1282.469,22.818Z" transform="translate(-31.565)"/>
      <path id="Trazado_310174" data-name="Trazado 310174" d="M-1036.945,21.552c0,.111.007.222,0,.332a.76.76,0,0,1-.755.755.78.78,0,0,1-.76-.755,16.727,16.727,0,0,0-.392-2.467,8.337,8.337,0,0,0-7.723-5.891,1.342,1.342,0,0,1-.846-.373.749.749,0,0,1-.012-.725,1.041,1.041,0,0,1,.733-.388,9.132,9.132,0,0,1,4.867,1.335A9.808,9.808,0,0,1-1036.945,21.552Z" transform="translate(-241.44 -0.276)"/>
      <path id="Trazado_310175" data-name="Trazado 310175" d="M-1046.769,35.922a6.865,6.865,0,0,1,6.531,6.613c.008.594-.263.951-.733.966s-.758-.325-.786-.921a5.319,5.319,0,0,0-5.082-5.139c-.649-.029-.986-.3-.978-.777C-1047.809,36.166-1047.44,35.9-1046.769,35.922Z" transform="translate(-241.182 -21.138)"/>
      <path id="Trazado_310176" data-name="Trazado 310176" d="M-1046.9,59.938a3.815,3.815,0,0,1,3.621,3.572c.026.579-.251.952-.722.972-.451.019-.746-.3-.792-.863a2.275,2.275,0,0,0-2.161-2.165c-.565-.045-.883-.334-.866-.788S-1047.45,59.925-1046.9,59.938Z" transform="translate(-241.178 -42.119)"/>
      <path id="Trazado_310177" data-name="Trazado 310177" d="M-1124.694,281.98h.19c.6.007.943.289.941.762s-.351.749-.949.755c-.174,0-.348.007-.521,0a.761.761,0,0,1-.8-.761.762.762,0,0,1,.806-.753C-1124.915,281.975-1124.8,281.98-1124.694,281.98Z" transform="translate(-173.03 -236.091)"/>
      <path id="Trazado_310178" data-name="Trazado 310178" d="M-1259.316,38.192a2.281,2.281,0,0,1-2.246,2.276,2.284,2.284,0,0,1-2.3-2.272,2.282,2.282,0,0,1,2.247-2.276A2.282,2.282,0,0,1-1259.316,38.192Zm-2.251-.755a.764.764,0,0,0-.777.722.764.764,0,0,0,.756.79.762.762,0,0,0,.754-.745A.765.765,0,0,0-1261.567,37.436Z" transform="translate(-52.448 -21.137)"/>
    </g>
    <g id="Grupo_594158" data-name="Grupo 594158" transform="translate(1568.573 10099.287)">
      <path id="Trazado_310179" data-name="Trazado 310179" d="M-965.8,311.893a12.148,12.148,0,0,1-.967,1.83,3.51,3.51,0,0,1-2.866,1.326c-.384.009-.769,0-1.214,0v.743q0,5.17,0,10.339a3.837,3.837,0,0,1-1.936,3.616,3.745,3.745,0,0,1-5.633-3.136c-.072-3.075-.022-6.152-.025-9.229,0-.755,0-1.51,0-2.333-.437,0-.82.007-1.2,0a3.788,3.788,0,0,1-3.842-3.737,3.714,3.714,0,0,1,3.674-3.828c3.445-.071,6.893-.06,10.338,0a3.679,3.679,0,0,1,3.538,2.808c.044.144.09.288.135.432Zm-7.384,8.242c0-2.026-.008-4.052,0-6.078a1.2,1.2,0,0,1,1.333-1.341c.721-.014,1.442.005,2.162-.006a1.5,1.5,0,0,0,1.543-1.428,1.483,1.483,0,0,0-1.494-1.48q-5.026-.021-10.052,0a1.462,1.462,0,0,0-1.463,1.443,1.474,1.474,0,0,0,1.5,1.463c.584.013,1.169,0,1.753,0,1.469,0,1.8.323,1.8,1.78q0,5.873-.005,11.747a1.594,1.594,0,0,0,.512,1.308,1.314,1.314,0,0,0,1.466.261,1.5,1.5,0,0,0,.943-1.478Q-973.186,323.232-973.186,320.135Z" transform="translate(-245.902 -58.049)"/>
      <path id="Trazado_310180" data-name="Trazado 310180" d="M-1149.672,337.023a10.046,10.046,0,0,1-9.939-10.075,10.008,10.008,0,0,1,10.147-9.9,9.974,9.974,0,0,1,9.833,10.141A10.017,10.017,0,0,1-1149.672,337.023Zm.08-17.642a7.665,7.665,0,0,0-7.68,7.623,7.711,7.711,0,0,0,7.641,7.683,7.674,7.674,0,0,0,7.665-7.644A7.636,7.636,0,0,0-1149.592,319.381Z" transform="translate(-95.568 -66.251)"/>
      <path id="Trazado_310181" data-name="Trazado 310181" d="M-1271.563,318.647c0-2.338-.012-4.676,0-7.014a4.315,4.315,0,0,1,2.819-4.17,4.269,4.269,0,0,1,5.8,4.024c.072,4.753.049,9.508.006,14.261a4.245,4.245,0,0,1-3.451,4.213,4.215,4.215,0,0,1-4.726-2.389,5.471,5.471,0,0,1-.432-2.088C-1271.6,323.207-1271.563,320.926-1271.563,318.647Zm6.307-.052c0-2.318.006-4.636,0-6.954a2,2,0,0,0-1.487-2.054,1.972,1.972,0,0,0-2.474,1.987c-.017,2.63-.005,5.259-.005,7.889,0,2.045,0,4.091,0,6.136a2.005,2.005,0,0,0,1.263,1.983,1.985,1.985,0,0,0,2.7-1.974C-1265.244,323.27-1265.256,320.932-1265.256,318.595Z" transform="translate(0 -57.846)"/>
      <path id="Trazado_310182" data-name="Trazado 310182" d="M-1162.5,483.026a21.54,21.54,0,0,1-11.94-3.415,1.2,1.2,0,0,1-.512-1.7,1.187,1.187,0,0,1,1.749-.28,19.052,19.052,0,0,0,5.478,2.4,18.855,18.855,0,0,0,16.175-3.085c.789-.563,1.488-1.25,2.239-1.869a1.1,1.1,0,0,1,1.351-.131,1.033,1.033,0,0,1,.544,1.184,1.6,1.6,0,0,1-.432.736,21.134,21.134,0,0,1-12.09,5.934c-.25.034-.5.086-.751.1C-1161.288,482.956-1161.891,482.988-1162.5,483.026Z" transform="translate(-82.325 -200.889)"/>
      <path id="Trazado_310183" data-name="Trazado 310183" d="M-1182.534,239.428a22.479,22.479,0,0,1,12.03,2.931,2.247,2.247,0,0,1,.638.494,1.032,1.032,0,0,1,.017,1.347,1.038,1.038,0,0,1-1.338.4c-.724-.331-1.4-.755-2.133-1.075a18.709,18.709,0,0,0-18.86,1.628,25.5,25.5,0,0,0-2.086,1.686c-.2.161-.37.347-.569.5a1.164,1.164,0,0,1-1.633-.047,1.15,1.15,0,0,1,.087-1.671,28.96,28.96,0,0,1,2.578-2.189A20.329,20.329,0,0,1-1182.534,239.428Z" transform="translate(-63.837 0)"/>
      <path id="Trazado_310184" data-name="Trazado 310184" d="M-1157.8,277.97a15.567,15.567,0,0,1,10.719,4.443,1.174,1.174,0,0,1,.208,1.752,1.162,1.162,0,0,1-1.758-.024,13.35,13.35,0,0,0-6.545-3.51,13.206,13.206,0,0,0-11.569,2.9c-.285.235-.541.507-.834.73a1.148,1.148,0,0,1-1.624-.11,1.125,1.125,0,0,1,.112-1.623,22.549,22.549,0,0,1,2.445-1.979A15.745,15.745,0,0,1-1157.8,277.97Z" transform="translate(-87.13 -32.899)"/>
      <path id="Trazado_310185" data-name="Trazado 310185" d="M-1158.761,453.968a15.224,15.224,0,0,1-10.185-4.433,1.2,1.2,0,0,1-.2-1.755,1.148,1.148,0,0,1,1.76.038,13.224,13.224,0,0,0,6.719,3.543,13.188,13.188,0,0,0,11.571-3.1c.192-.165.369-.348.566-.505a1.161,1.161,0,0,1,1.715.056,1.143,1.143,0,0,1-.2,1.705,22.51,22.51,0,0,1-2.364,1.9A16.183,16.183,0,0,1-1158.761,453.968Z" transform="translate(-87.176 -177.51)"/>
      <path id="Trazado_310186" data-name="Trazado 310186" d="M-999.251,280.846a1.163,1.163,0,0,1-1.166,1.141,1.207,1.207,0,0,1-1.168-1.155,1.2,1.2,0,0,1,1.142-1.176A1.207,1.207,0,0,1-999.251,280.846Z" transform="translate(-230.455 -34.338)"/>
      <path id="Trazado_310187" data-name="Trazado 310187" d="M-1195.531,477.12a1.228,1.228,0,0,1-1.2-1.185,1.174,1.174,0,0,1,1.137-1.171,1.269,1.269,0,0,1,1.217,1.186A1.2,1.2,0,0,1-1195.531,477.12Z" transform="translate(-63.88 -200.877)"/>
      <path id="Trazado_310188" data-name="Trazado 310188" d="M-1116.4,364.32a4.3,4.3,0,0,1-4.313-4.3,4.336,4.336,0,0,1,4.3-4.327,4.362,4.362,0,0,1,4.323,4.311A4.336,4.336,0,0,1-1116.4,364.32Zm-.026-2.338a1.979,1.979,0,0,0,1.995-1.938,2,2,0,0,0-1.991-2.013,1.979,1.979,0,0,0-1.952,1.981A1.949,1.949,0,0,0-1116.421,361.982Z" transform="translate(-128.775 -99.242)"/>
    </g>
    <g id="Grupo_594155" data-name="Grupo 594155" transform="translate(1900.917 10040.572)">
      <path id="Trazado_310166" data-name="Trazado 310166" d="M-636.917,325.6V294.351a.421.421,0,0,0,.071-.114,4.638,4.638,0,0,1,4.869-3.891h.934c0-1.325,0-2.579,0-3.833a1.443,1.443,0,0,1,.8-1.41,1.4,1.4,0,0,1,2.027,1.333c.024,1.13,0,2.261.008,3.392,0,.163.017.326.028.517.466,0,.884-.024,1.3.007.352.027.495-.089.611-.436a5.733,5.733,0,0,1,5.391-3.905,5.707,5.707,0,0,1,5.41,3.808.669.669,0,0,0,.778.536c6.846-.013,13.693,0,20.539-.012a4.526,4.526,0,0,1,4.053,2.105,11.069,11.069,0,0,1,.792,1.9V325.6a9.582,9.582,0,0,1-.4,1.219,4.653,4.653,0,0,1-4.536,2.79q-16.145-.01-32.29,0c-1.936,0-3.872.016-5.807-.01a4.627,4.627,0,0,1-4.335-3.207C-636.769,326.125-636.839,325.859-636.917,325.6Zm23.8-32.442h-18.826a1.914,1.914,0,0,0-2.164,2.175q0,14.644,0,29.287a1.918,1.918,0,0,0,2.166,2.177h37.652a1.92,1.92,0,0,0,2.164-2.179q0-14.644,0-29.287a1.915,1.915,0,0,0-2.167-2.172Zm-5.25-2.821a2.8,2.8,0,0,0-2.866-1.47,2.486,2.486,0,0,0-2.054,1.47Z" transform="translate(0 0)"/>
      <path id="Trazado_310167" data-name="Trazado 310167" d="M-581.018,396.741q-8.3,0-16.593,0a2.449,2.449,0,0,1-2.606-1.857,3.291,3.291,0,0,1-.071-.782q-.005-12.2,0-24.4a2.437,2.437,0,0,1,2.635-2.639q16.616-.008,33.233,0a2.445,2.445,0,0,1,2.656,2.666q0,12.178,0,24.357a2.439,2.439,0,0,1-2.659,2.659Q-572.721,396.746-581.018,396.741Zm-16.444-2.869h32.854v-5.33c-.154-.008-.276-.019-.4-.019q-10.158,0-20.316.01a1.253,1.253,0,0,0-.654.258,1.377,1.377,0,0,1-1.762.01,20.929,20.929,0,0,1-4.957-5.913,5.949,5.949,0,0,1-.681-2.333,6.458,6.458,0,0,1,5.44-6.632,6.542,6.542,0,0,1,7.272,4.454c.166.526.246,1.079.372,1.643h15.683v-10.1h-32.854ZM-564.6,382.9h-8.9c-2.355,0-4.711.009-7.066-.009a.733.733,0,0,0-.722.426c-.43.7-.923,1.355-1.39,2.028-.074.107-.15.214-.243.346H-564.6Zm-22.281,2.879a19.532,19.532,0,0,0,3.262-4.041,2.84,2.84,0,0,0,.438-1.767,3.753,3.753,0,0,0-4.717-3.166c-1.883.513-3.6,2.971-2.117,5.194A24.89,24.89,0,0,0-586.877,385.774Z" transform="translate(-32.085 -71.929)"/>
      <path id="Trazado_310168" data-name="Trazado 310168" d="M-500.746,465.269a1.453,1.453,0,0,1-1.387,1.638c-.833.011-1.372-.654-1.434-1.6a1.435,1.435,0,0,1,2.11-1.441A1.4,1.4,0,0,1-500.746,465.269Z" transform="translate(-116.814 -156.572)"/>
    </g>
    <g id="Grupo_594156" data-name="Grupo 594156" transform="translate(2081.968 9915.937)">
      <path id="Trazado_310169" data-name="Trazado 310169" d="M-1118.485,455.335a9.874,9.874,0,0,1-1.124-1.087c-3.541-4.679-7.087-9.355-10.58-14.069a40.332,40.332,0,0,1-4.439-7.071,16.041,16.041,0,0,1-1.3-7.853,17.512,17.512,0,0,1,2.823-8.582,17.742,17.742,0,0,1,6.828-6.194,17.216,17.216,0,0,1,8.816-1.973,17.541,17.541,0,0,1,12.284,5.585,17.24,17.24,0,0,1,4.573,8.943,16.876,16.876,0,0,1-.7,9.313,21.735,21.735,0,0,1-2.792,5.019c-3.861,5.257-7.763,10.483-11.65,15.721-.309.416-.6.849-.944,1.234-.326.365-.712.678-1.071,1.014Zm.353-3.675c.127-.154.217-.254.3-.361,2.179-2.88,4.4-5.733,6.525-8.65s4.22-5.823,6.2-8.82a13.585,13.585,0,0,0,1.768-10.54,14.332,14.332,0,0,0-4.709-8.166,14.425,14.425,0,0,0-14.567-3.158c-5.748,1.832-9.207,5.9-10.359,11.844a13.8,13.8,0,0,0,.323,6.739,18.965,18.965,0,0,0,2.918,5.508c2.472,3.421,5,6.8,7.514,10.192C-1120.887,448.045-1119.524,449.821-1118.132,451.661Z" transform="translate(0 0)"/>
      <path id="Trazado_310170" data-name="Trazado 310170" d="M-1054.461,499.554a9.637,9.637,0,0,1-9.589-9.624,9.637,9.637,0,0,1,9.624-9.589,9.637,9.637,0,0,1,9.589,9.624A9.637,9.637,0,0,1-1054.461,499.554Zm.014-16.468a6.884,6.884,0,0,0-6.858,6.876,6.884,6.884,0,0,0,6.842,6.846,6.884,6.884,0,0,0,6.88-6.853A6.884,6.884,0,0,0-1054.448,483.086Z" transform="translate(-63.675 -63.618)"/>
    </g>
  </g>
</svg>
