<svg xmlns="http://www.w3.org/2000/svg" xmlns:xlink="http://www.w3.org/1999/xlink" width="123" height="123" viewBox="0 0 123 123">
  <defs>
    <clipPath id="clip-path">
      <rect id="Rect치ngulo_215236" data-name="Rect치ngulo 215236" width="98" height="98" transform="translate(-0.161 -0.161)" fill="none"/>
    </clipPath>
  </defs>
  <g id="Grupo_597142" data-name="Grupo 597142" transform="translate(9793 8787)">
    <rect id="Rect치ngulo_215611" data-name="Rect치ngulo 215611" width="123" height="123" transform="translate(-9793 -8787)" fill="none"/>
    <g id="Grupo_597141" data-name="Grupo 597141" transform="translate(-9779.839 -8774.944)">
      <g id="Grupo_596553" data-name="Grupo 596553" transform="translate(0 0.105)" clip-path="url(#clip-path)">
        <path id="Trazado_319387" data-name="Trazado 319387" d="M260.4,35.393c-1.639,2.175-3.236,4.384-4.927,6.518-3.048,3.843-6.146,7.647-9.235,11.456a3.586,3.586,0,0,1-5.951.057q-6.653-8.2-13.264-16.431a3.649,3.649,0,0,1-.56-4.1,3.534,3.534,0,0,1,3.559-2.091c.732.018,1.465.006,2.2,0,.217,0,.434-.027.711-.045a21.25,21.25,0,0,0-2.619-8.15,43.8,43.8,0,0,0-7.938-10.226c-.765-.768-1.552-1.513-2.3-2.3a6.592,6.592,0,0,1-2-4.708,5.352,5.352,0,0,1,3.746-5.11c.236-.078.467-.174.7-.261h2.1c1.858.639,3.765,1.165,5.565,1.937,10.091,4.326,17.525,11.342,21.474,21.72a70.861,70.861,0,0,1,1.919,7.144c.613,0,1.38.056,2.136-.01a4.093,4.093,0,0,1,4.681,2.88Zm-4.067-.723c-1.592,0-2.979,0-4.367,0-1.725,0-2.361-.7-2.5-2.416a23.407,23.407,0,0,0-.7-4.894c-3.822-12.475-12.508-19.87-24.786-23.412A1.542,1.542,0,0,0,222.1,6.114a5.577,5.577,0,0,0,1.267,1.756,64.614,64.614,0,0,1,8.3,9.478c3.052,4.506,5.176,9.344,5.256,14.9.025,1.731-.661,2.415-2.42,2.421-1.382,0-2.764,0-4.365,0l13.1,16.234L256.329,34.67" transform="translate(-162.443 -0.137)"/>
        <path id="Trazado_319388" data-name="Trazado 319388" d="M0,188.044c1.84-2.423,3.642-4.876,5.529-7.261,2.826-3.572,5.712-7.1,8.574-10.639,1.794-2.219,4.287-2.264,6.073-.061,4.393,5.418,8.756,10.861,13.143,16.284a3.711,3.711,0,0,1,.617,4.181,3.58,3.58,0,0,1-3.655,2.093c-.916-.028-1.834-.005-2.819-.005a21.347,21.347,0,0,0,2.627,8.2,44.488,44.488,0,0,0,8.142,10.429c.788.788,1.611,1.547,2.349,2.38a5.732,5.732,0,0,1-2.7,9.794h-2.1c-2.554-.953-5.2-1.708-7.645-2.894-9.1-4.423-15.8-11.193-19.4-20.761a73.738,73.738,0,0,1-1.918-7.146c-.61,0-1.377-.056-2.132.01A4.1,4.1,0,0,1,0,189.766v-1.722m4.068.723c1.6,0,2.986,0,4.375,0,1.719,0,2.344.7,2.5,2.424a24.262,24.262,0,0,0,.758,5.075c3.86,12.379,12.531,19.706,24.731,23.223a1.539,1.539,0,0,0,1.86-2.176,5.625,5.625,0,0,0-1.267-1.756A64.4,64.4,0,0,1,28.674,206c-2.986-4.43-5.074-9.182-5.193-14.629-.043-1.959.584-2.6,2.518-2.6,1.349,0,2.7,0,4.267,0l-13.1-16.234-13.1,16.234" transform="translate(0 -125.621)"/>
        <path id="Trazado_319389" data-name="Trazado 319389" d="M188.047,260.367c-2.125-1.6-4.284-3.157-6.367-4.809-3.843-3.048-7.644-6.147-11.457-9.233-2.359-1.909-2.349-4.352.009-6.255q7.956-6.419,15.908-12.845a4.29,4.29,0,0,1,2.938-1.17,3.64,3.64,0,0,1,3.553,3.546c.033,1.075.006,2.152.006,3.3a21.468,21.468,0,0,0,8.286-2.672,44.184,44.184,0,0,0,10.14-7.894c.835-.831,1.639-1.7,2.513-2.487a5.737,5.737,0,0,1,9.865,2.637v2.1a2.7,2.7,0,0,0-.189.418,38.443,38.443,0,0,1-4.052,9.86c-5.084,8.585-12.146,14.743-21.859,17.562-1.512.439-3.092.646-4.7.972,0,.761-.055,1.526.01,2.282a4.105,4.105,0,0,1-2.883,4.682ZM172.535,243.2l16.235,13.091c0-1.544,0-2.85,0-4.155,0-2,.628-2.574,2.589-2.716a21.42,21.42,0,0,0,4.7-.684c12.474-3.822,19.872-12.5,23.421-24.776a1.541,1.541,0,0,0-2.144-1.9,5.5,5.5,0,0,0-1.76,1.262,64.812,64.812,0,0,1-9.634,8.4c-4.491,3.018-9.311,5.1-14.831,5.161-1.625.018-2.336-.68-2.344-2.3-.007-1.418,0-2.836,0-4.482l-16.236,13.1" transform="translate(-125.487 -162.55)"/>
        <path id="Trazado_319390" data-name="Trazado 319390" d="M0,35.776c1.032-2.728,1.965-5.5,3.132-8.167a36.774,36.774,0,0,1,2.729-4.7,1.938,1.938,0,1,1,3.228,2.108,36.633,36.633,0,0,0-4.933,10.6,2.016,2.016,0,0,0-.186.733c.084.567.08,1.326.434,1.625a2.092,2.092,0,0,0,1.728.285,4.788,4.788,0,0,0,1.76-1.247,65.3,65.3,0,0,1,9.4-8.239,28.331,28.331,0,0,1,12.794-5.157,22.318,22.318,0,0,1,2.477-.135,1.9,1.9,0,0,1,2.1,2.065c.021,1.49,0,2.98,0,4.718l16.239-13.1L34.67,4.062c0,1.495,0,2.805,0,4.116,0,2.073-.6,2.7-2.64,2.749a24.037,24.037,0,0,0-9.8,2.586c-.316.151-.621.324-.939.469a1.943,1.943,0,1,1-1.746-3.459A29.469,29.469,0,0,1,29.558,7.228c.379-.049.755-.115,1.24-.19,0-.781.057-1.575-.011-2.357A4.1,4.1,0,0,1,33.671,0h1.722c2.377,1.8,4.786,3.556,7.123,5.406,3.623,2.869,7.2,5.8,10.791,8.709,2.214,1.794,2.243,4.279.028,6.077-5.4,4.379-10.817,8.727-16.219,13.1a3.743,3.743,0,0,1-4.266.625,3.606,3.606,0,0,1-2.055-3.683c.03-.887.005-1.776.005-2.753a19.057,19.057,0,0,0-6.714,1.878,41.31,41.31,0,0,0-11.694,8.657c-.837.831-1.64,1.7-2.513,2.491a6.09,6.09,0,0,1-7.23,1.075A6.024,6.024,0,0,1,0,37.88v-2.1" transform="translate(0 -0.137)"/>
        <path id="Trazado_319391" data-name="Trazado 319391" d="M48.215,62.223a1.9,1.9,0,0,1-1.962,1.9,1.927,1.927,0,1,1,1.962-1.9" transform="translate(-33.044 -45.036)"/>
        <path id="Trazado_319392" data-name="Trazado 319392" d="M267.667,45.976,254.573,62.21l-13.1-16.234c1.6,0,2.982,0,4.365,0,1.759-.005,2.445-.69,2.42-2.421-.08-5.556-2.2-10.395-5.256-14.9a64.613,64.613,0,0,0-8.3-9.478,5.577,5.577,0,0,1-1.267-1.756,1.542,1.542,0,0,1,1.875-2.166C247.591,18.8,256.276,26.191,260.1,38.666a23.41,23.41,0,0,1,.7,4.894c.143,1.718.779,2.411,2.5,2.416,1.387,0,2.775,0,4.367,0" transform="translate(-173.781 -11.442)" fill="#fa5d3f"/>
        <path id="Trazado_319393" data-name="Trazado 319393" d="M15.949,200.677l13.1-16.234,13.1,16.234c-1.568,0-2.917,0-4.267,0-1.934,0-2.561.644-2.518,2.6.119,5.447,2.207,10.2,5.193,14.629a64.4,64.4,0,0,0,8.348,9.558,5.625,5.625,0,0,1,1.267,1.756,1.539,1.539,0,0,1-1.86,2.176c-12.2-3.517-20.872-10.844-24.731-23.223a24.262,24.262,0,0,1-.758-5.075c-.151-1.722-.777-2.419-2.5-2.424-1.389,0-2.779,0-4.375,0" transform="translate(-11.881 -137.531)" fill="#fa5d3f"/>
        <path id="Trazado_319394" data-name="Trazado 319394" d="M184.439,254.566l16.236-13.1c0,1.646-.006,3.064,0,4.482.008,1.623.72,2.321,2.344,2.3,5.52-.063,10.34-2.143,14.831-5.161a64.816,64.816,0,0,0,9.634-8.4,5.5,5.5,0,0,1,1.76-1.262,1.541,1.541,0,0,1,2.144,1.9C227.84,247.6,220.442,256.28,207.968,260.1a21.417,21.417,0,0,1-4.7.684c-1.962.142-2.588.716-2.589,2.716,0,1.305,0,2.611,0,4.155l-16.235-13.091" transform="translate(-137.391 -173.913)" fill="#fac850"/>
        <path id="Trazado_319395" data-name="Trazado 319395" d="M43.792,15.177,60.811,28.054,44.623,41.968c-.051-1.637-.091-3.05-.139-4.464-.061-1.8-.783-2.478-2.552-2.4-5.68.258-10.562,2.583-15.073,5.848a66.108,66.108,0,0,0-9.431,8.786,5.708,5.708,0,0,1-1.756,1.352,1.578,1.578,0,0,1-2.275-1.849c3.234-12.67,10.522-21.788,23.16-26.093a23.952,23.952,0,0,1,4.983-.869c1.753-.2,2.441-.873,2.391-2.637-.04-1.419-.087-2.838-.138-4.466" transform="translate(-9.932 -11.442)" fill="#fac850"/>
      </g>
    </g>
  </g>
</svg>
