<svg xmlns="http://www.w3.org/2000/svg" width="79.735" height="79.736" viewBox="0 0 79.735 79.736">
  <g id="Grupo_596924" data-name="Grupo 596924" transform="translate(6847 7288)">
    <path id="Trazado_320345" data-name="Trazado 320345" d="M1341.487,493.192a39.868,39.868,0,1,1-39.868-39.868,39.868,39.868,0,0,1,39.868,39.868" transform="translate(-8108.751 -7741.324)" fill="#ffde96"/>
    <rect id="Rectángulo_215521" data-name="Rectángulo 215521" width="2.658" height="2.215" transform="translate(-6809 -7248.571) rotate(-9.283)" fill="#545454"/>
    <path id="Trazado_320348" data-name="Trazado 320348" d="M1345.52,507.858a29.237,29.237,0,1,1-29.236-29.236,29.236,29.236,0,0,1,29.236,29.236" transform="translate(-8123.047 -7755.622)" fill="#fff"/>
    <path id="Trazado_320352" data-name="Trazado 320352" d="M17.563,13.121a7.2,7.2,0,0,1-1.221,4.512A4.261,4.261,0,0,1,12.768,19.2a4.291,4.291,0,0,1-3.555-1.533,6.992,6.992,0,0,1-1.26-4.395V10.65A7.109,7.109,0,0,1,9.188,6.129a4.293,4.293,0,0,1,3.56-1.543A4.3,4.3,0,0,1,16.3,6.114a6.971,6.971,0,0,1,1.26,4.39ZM14.74,10.244a5.207,5.207,0,0,0-.483-2.576,1.634,1.634,0,0,0-1.509-.806,1.6,1.6,0,0,0-1.47.767,4.873,4.873,0,0,0-.5,2.4v3.46a5.466,5.466,0,0,0,.474,2.586,1.612,1.612,0,0,0,1.519.846,1.585,1.585,0,0,0,1.494-.811,5.335,5.335,0,0,0,.479-2.483Zm13.076,3.4h1.611v2.275H27.816V19H24.994V15.924h-5.83l-.127-1.777,5.928-9.365h2.852Zm-5.967,0h3.145V8.629l-.186.322Z" transform="translate(-6826 -7260)" fill="#12263f"/>
  </g>
</svg>
