<svg xmlns="http://www.w3.org/2000/svg" width="79.735" height="79.736" viewBox="0 0 79.735 79.736">
  <g id="Grupo_596925" data-name="Grupo 596925" transform="translate(7372.735 7154)">
    <rect id="Rectángulo_215519" data-name="Rectángulo 215519" width="2.214" height="2.658" transform="translate(-7335.67 -7113.814) rotate(-80.72)" fill="#545454"/>
    <path id="Trazado_320342" data-name="Trazado 320342" d="M1341.487,812.162a39.868,39.868,0,1,1-39.868-39.868,39.868,39.868,0,0,1,39.868,39.868" transform="translate(-8634.486 -7926.294)" fill="#ff8578"/>
    <path id="Trazado_320343" data-name="Trazado 320343" d="M1345.52,826.828a29.237,29.237,0,1,1-29.236-29.236,29.236,29.236,0,0,1,29.236,29.236" transform="translate(-8649.152 -7940.592)" fill="#fff"/>
    <path id="Trazado_320355" data-name="Trazado 320355" d="M17.563,13.121a7.2,7.2,0,0,1-1.221,4.512A4.261,4.261,0,0,1,12.768,19.2a4.291,4.291,0,0,1-3.555-1.533,6.992,6.992,0,0,1-1.26-4.395V10.65A7.109,7.109,0,0,1,9.188,6.129a4.293,4.293,0,0,1,3.56-1.543A4.3,4.3,0,0,1,16.3,6.114a6.971,6.971,0,0,1,1.26,4.39ZM14.74,10.244a5.207,5.207,0,0,0-.483-2.576,1.634,1.634,0,0,0-1.509-.806,1.6,1.6,0,0,0-1.47.767,4.873,4.873,0,0,0-.5,2.4v3.46a5.466,5.466,0,0,0,.474,2.586,1.612,1.612,0,0,0,1.519.846,1.585,1.585,0,0,0,1.494-.811,5.335,5.335,0,0,0,.479-2.483Zm5.146,1.764.82-7.227h7.969V7.135H23.021l-.352,3.057a4.474,4.474,0,0,1,2.139-.537,4.1,4.1,0,0,1,3.184,1.26,5.032,5.032,0,0,1,1.152,3.525,5.155,5.155,0,0,1-.581,2.466A4.1,4.1,0,0,1,26.9,18.595a5.2,5.2,0,0,1-2.559.6,5.52,5.52,0,0,1-2.393-.522A4.244,4.244,0,0,1,20.2,17.2a4.006,4.006,0,0,1-.679-2.158h2.793a2.086,2.086,0,0,0,.62,1.382,1.966,1.966,0,0,0,1.392.493,1.735,1.735,0,0,0,1.475-.688,3.189,3.189,0,0,0,.518-1.948,2.637,2.637,0,0,0-.6-1.855,2.186,2.186,0,0,0-1.689-.645,2.443,2.443,0,0,0-1.631.527l-.273.254Z" transform="translate(-7351 -7126)" fill="#12263f"/>
  </g>
</svg>
