<svg xmlns="http://www.w3.org/2000/svg" width="79.736" height="79.736" viewBox="0 0 79.736 79.736">
  <g id="Grupo_596922" data-name="Grupo 596922" transform="translate(6846.736 7424)">
    <path id="Trazado_320344" data-name="Trazado 320344" d="M1341.487,169.948a39.868,39.868,0,1,1-39.868-39.868,39.868,39.868,0,0,1,39.868,39.868" transform="translate(-8108.487 -7554.08)" fill="#a4a3ff"/>
    <rect id="Rectángulo_215520" data-name="Rectángulo 215520" width="2.658" height="2.215" transform="translate(-6809.745 -7384.877) rotate(-25)" fill="#545454"/>
    <path id="Trazado_320347" data-name="Trazado 320347" d="M1345.52,184.614a29.237,29.237,0,1,1-29.236-29.236,29.236,29.236,0,0,1,29.236,29.236" transform="translate(-8123.152 -7568.378)" fill="#fff"/>
    <path id="Trazado_320351" data-name="Trazado 320351" d="M17.563,13.121a7.2,7.2,0,0,1-1.221,4.512A4.261,4.261,0,0,1,12.768,19.2a4.291,4.291,0,0,1-3.555-1.533,6.992,6.992,0,0,1-1.26-4.395V10.65A7.109,7.109,0,0,1,9.188,6.129a4.293,4.293,0,0,1,3.56-1.543A4.3,4.3,0,0,1,16.3,6.114a6.971,6.971,0,0,1,1.26,4.39ZM14.74,10.244a5.207,5.207,0,0,0-.483-2.576,1.634,1.634,0,0,0-1.509-.806,1.6,1.6,0,0,0-1.47.767,4.873,4.873,0,0,0-.5,2.4v3.46a5.466,5.466,0,0,0,.474,2.586,1.612,1.612,0,0,0,1.519.846,1.585,1.585,0,0,0,1.494-.811,5.335,5.335,0,0,0,.479-2.483ZM29.213,19H19.467V17.066l4.6-4.9a11.347,11.347,0,0,0,1.4-1.807,2.9,2.9,0,0,0,.454-1.465A2.172,2.172,0,0,0,25.443,7.4a1.727,1.727,0,0,0-1.367-.542,1.863,1.863,0,0,0-1.509.659,2.611,2.611,0,0,0-.552,1.733H19.184a4.661,4.661,0,0,1,.62-2.373A4.371,4.371,0,0,1,21.557,5.2a5.328,5.328,0,0,1,2.568-.61,5.045,5.045,0,0,1,3.413,1.055,3.731,3.731,0,0,1,1.216,2.979,4.781,4.781,0,0,1-.547,2.148,11.939,11.939,0,0,1-1.875,2.549L23.1,16.725h6.113Z" transform="translate(-6825 -7396)" fill="#12263f"/>
  </g>
</svg>
