<svg xmlns="http://www.w3.org/2000/svg" xmlns:xlink="http://www.w3.org/1999/xlink" width="448.15" height="265.241" viewBox="0 0 448.15 265.241">
  <defs>
    <linearGradient id="linear-gradient" x1="0.5" y1="0.845" x2="0.5" y2="-0.605" gradientUnits="objectBoundingBox">
      <stop offset="0" stop-color="#a1a1a1"/>
      <stop offset="1" stop-color="#f5f2e4"/>
    </linearGradient>
    <linearGradient id="linear-gradient-2" y1="0.5" x2="1" y2="0.5" gradientUnits="objectBoundingBox">
      <stop offset="0.165" stop-color="#69ffe9"/>
      <stop offset="1" stop-color="#2749a8"/>
    </linearGradient>
    <linearGradient id="linear-gradient-3" x1="0.5" y1="1.264" x2="0.5" y2="0.131" xlink:href="#linear-gradient"/>
    <linearGradient id="linear-gradient-4" x1="0.5" y1="0.83" x2="0.5" y2="-2.149" gradientUnits="objectBoundingBox">
      <stop offset="0.01" stop-color="#8a8a8a"/>
      <stop offset="1" stop-color="#f5f2e4"/>
    </linearGradient>
    <linearGradient id="linear-gradient-5" x1="1.119" y1="0.188" x2="-0.146" y2="0.792" gradientUnits="objectBoundingBox">
      <stop offset="0" stop-color="#fffaed"/>
      <stop offset="0.462" stop-color="#d9d5ca"/>
      <stop offset="1" stop-color="#ada9a2"/>
    </linearGradient>
    <linearGradient id="linear-gradient-6" x1="-0.326" y1="0.641" x2="5.097" y2="-0.287" gradientUnits="objectBoundingBox">
      <stop offset="0" stop-color="#f27b1f"/>
      <stop offset="1" stop-color="#e8e3d8"/>
    </linearGradient>
    <radialGradient id="radial-gradient" cx="0.361" cy="0.205" r="0.535" gradientTransform="translate(0)" gradientUnits="objectBoundingBox">
      <stop offset="0.16" stop-color="#69beff"/>
      <stop offset="0.581" stop-color="#1c9cff"/>
      <stop offset="1" stop-color="#476cff"/>
    </radialGradient>
  </defs>
  <g id="Grupo_582087" data-name="Grupo 582087" transform="translate(-4022.776 108.927)">
    <g id="Grupo_582212" data-name="Grupo 582212" transform="translate(4022.776 -108.927)">
      <rect id="Rectángulo_212796" data-name="Rectángulo 212796" width="23.484" height="6.011" transform="translate(292.287 195.658)" fill="#3d414a"/>
      <rect id="Rectángulo_212797" data-name="Rectángulo 212797" width="282.483" height="104.213" transform="translate(72.069 92.894)" fill="url(#linear-gradient)"/>
      <rect id="Rectángulo_212798" data-name="Rectángulo 212798" width="276.151" height="97.13" transform="translate(75.235 96.435)" fill="url(#linear-gradient-2)"/>
      <path id="Trazado_295053" data-name="Trazado 295053" d="M5441.415,431.861h-92.92l5.517,8.563h87.4Z" transform="translate(-5090.027 -326.427)" fill="#fff"/>
      <path id="Trazado_295054" data-name="Trazado 295054" d="M5525.742,603.117h22.236c3.963,0,4.624-6.083,4.4-10.647s-2.862-5-2.862-5L5539.08,584v-5.432l10.88,1.087s2.458,0,2.458-4.346-.881-32.881-1.578-33.787a4.256,4.256,0,0,0-2.129-1.231l-3.266-29.4a4.228,4.228,0,0,0,.551-2.5c-.22-1.195-1.1-9.126-5.284-10.864s-70.012-6.3-71.773-1.956,0,80.827,0,80.827l2.862,1.521h-61.646s-2.715-2.607-4.33-3.042-25.833,0-25.833,0-7.779.29-10.273,7.243-2.055,15.5-1.615,16.658,3.375,4.346,3.375,4.346Z" transform="translate(-5105.539 -376.244)" fill="url(#linear-gradient-3)"/>
      <path id="Trazado_295055" data-name="Trazado 295055" d="M6046.53,604.337l-50.064-4.589a10.966,10.966,0,0,1-9.315-7.009,15.558,15.558,0,0,1-.909-4.118c-.661-7.713,1.981-15.323,7.265-15.318,1.984,0,49.757,1.63,49.757,1.63Z" transform="translate(-5603.357 -440.293)" fill="#454a54"/>
      <path id="Trazado_295056" data-name="Trazado 295056" d="M6033.524,618.822s-5.244-13.684.7-20.311c2.7-3.012,45.881-.812,45.881-.812l2.85,25.654Z" transform="translate(-5639.782 -459.308)" fill="#b8b8b8"/>
      <path id="Trazado_295057" data-name="Trazado 295057" d="M5538.08,993.931c-.551,3.55-.661,8.113-4.515,8.113h-177.6s-7.45.109-7.45-.869-.568-7.644,3.733-7.244c2.793.26,72.515.183,121.875.1,16.415-.031,30.577-.061,39.281-.078l9.151-.021c2.532,0,2.54-6.388,14.094-4.189C5536.652,989.741,5538.629,990.38,5538.08,993.931Z" transform="translate(-5090.026 -775.17)" fill="url(#linear-gradient-4)"/>
      <g id="Grupo_582088" data-name="Grupo 582088" transform="translate(387.744 202.973)">
        <path id="Trazado_295058" data-name="Trazado 295058" d="M6043.576,947.942a16,16,0,1,1-16-15.788A15.894,15.894,0,0,1,6043.576,947.942Z" transform="translate(-6011.581 -932.154)" fill="#3d414a"/>
        <path id="Trazado_295059" data-name="Trazado 295059" d="M6085.525,1002.572a2.592,2.592,0,1,1-2.591-2.558A2.575,2.575,0,0,1,6085.525,1002.572Z" transform="translate(-6066.937 -986.784)" fill="#ada9a2"/>
        <g id="Grupo_582087-2" data-name="Grupo 582087" transform="translate(4.293 4.238)">
          <path id="Trazado_295060" data-name="Trazado 295060" d="M6045.3,976.99a11.551,11.551,0,1,1,11.7-11.551A11.641,11.641,0,0,1,6045.3,976.99Zm0-22.856a11.307,11.307,0,1,0,11.456,11.306A11.395,11.395,0,0,0,6045.3,954.133Z" transform="translate(-6033.601 -953.889)" fill="#ada9a2"/>
        </g>
        <path id="Trazado_295061" data-name="Trazado 295061" d="M6087.927,1005.7a1.824,1.824,0,1,1-1.824-1.8A1.812,1.812,0,0,1,6087.927,1005.7Z" transform="translate(-6070.105 -989.913)" fill="#3d414a"/>
      </g>
      <path id="Trazado_295062" data-name="Trazado 295062" d="M6032.168,933.086v.021a19.076,19.076,0,0,1-1.8,8.092h-35.679a19,19,0,0,1-1.8-8.013v-.1a19.643,19.643,0,0,1,39.282,0Z" transform="translate(-5608.787 -714.326)" fill="#26292e"/>
      <path id="Trazado_295063" data-name="Trazado 295063" d="M5416.073,933.086v.021a19.084,19.084,0,0,1-1.8,8.092h-35.679a19.014,19.014,0,0,1-1.8-8.013v-.1a19.642,19.642,0,0,1,39.281,0Z" transform="translate(-5112.809 -714.326)" fill="#26292e"/>
      <g id="Grupo_582090" data-name="Grupo 582090" transform="translate(387.744 202.973)">
        <path id="Trazado_295064" data-name="Trazado 295064" d="M6043.576,947.942a16,16,0,1,1-16-15.788A15.894,15.894,0,0,1,6043.576,947.942Z" transform="translate(-6011.581 -932.154)" fill="#3d414a"/>
        <path id="Trazado_295065" data-name="Trazado 295065" d="M6085.525,1002.572a2.592,2.592,0,1,1-2.591-2.558A2.575,2.575,0,0,1,6085.525,1002.572Z" transform="translate(-6066.937 -986.784)" fill="#ada9a2"/>
        <g id="Grupo_582089" data-name="Grupo 582089" transform="translate(4.293 4.238)">
          <path id="Trazado_295066" data-name="Trazado 295066" d="M6045.3,976.99a11.551,11.551,0,1,1,11.7-11.551A11.641,11.641,0,0,1,6045.3,976.99Zm0-22.856a11.307,11.307,0,1,0,11.456,11.306A11.395,11.395,0,0,0,6045.3,954.133Z" transform="translate(-6033.601 -953.889)" fill="#ada9a2"/>
        </g>
        <path id="Trazado_295067" data-name="Trazado 295067" d="M6087.927,1005.7a1.824,1.824,0,1,1-1.824-1.8A1.812,1.812,0,0,1,6087.927,1005.7Z" transform="translate(-6070.105 -989.913)" fill="#3d414a"/>
      </g>
      <g id="Grupo_582092" data-name="Grupo 582092" transform="translate(267.627 202.973)">
        <path id="Trazado_295068" data-name="Trazado 295068" d="M5427.473,947.942a16,16,0,1,1-16-15.788A15.894,15.894,0,0,1,5427.473,947.942Z" transform="translate(-5395.479 -932.154)" fill="#3d414a"/>
        <path id="Trazado_295069" data-name="Trazado 295069" d="M5469.424,1002.572a2.592,2.592,0,1,1-2.592-2.558A2.575,2.575,0,0,1,5469.424,1002.572Z" transform="translate(-5450.834 -986.784)" fill="#ada9a2"/>
        <g id="Grupo_582091" data-name="Grupo 582091" transform="translate(4.293 4.238)">
          <path id="Trazado_295070" data-name="Trazado 295070" d="M5429.2,976.99a11.551,11.551,0,1,1,11.705-11.551A11.642,11.642,0,0,1,5429.2,976.99Zm0-22.856a11.307,11.307,0,1,0,11.458,11.306A11.394,11.394,0,0,0,5429.2,954.133Z" transform="translate(-5417.499 -953.889)" fill="#ada9a2"/>
        </g>
        <path id="Trazado_295071" data-name="Trazado 295071" d="M5471.825,1005.7a1.824,1.824,0,1,1-1.824-1.8A1.811,1.811,0,0,1,5471.825,1005.7Z" transform="translate(-5454.004 -989.913)" fill="#3d414a"/>
      </g>
      <path id="Trazado_295072" data-name="Trazado 295072" d="M6246.479,928.811v5.432l10.439,3.476a15.635,15.635,0,0,0,.441-7.821Z" transform="translate(-5812.938 -726.49)" fill="url(#linear-gradient-5)"/>
      <path id="Trazado_295073" data-name="Trazado 295073" d="M5359.671,942.451l-4.254,1.831-.587,9.053,2.534,1.447S5357.139,947.717,5359.671,942.451Z" transform="translate(-5095.128 -737.471)" fill="#3d414a"/>
      <rect id="Rectángulo_212799" data-name="Rectángulo 212799" width="2.293" height="2.263" transform="translate(259.519 207.935)" fill="#cf7923"/>
      <g id="Grupo_582093" data-name="Grupo 582093" transform="translate(398.403 133.208)">
        <path id="Trazado_295074" data-name="Trazado 295074" d="M6100.372,648.12l-10.75-.791-.028-.169c-2.364-14.315-19.659-14.276-19.825-14.266l-.211,0-3.308-58.578.442.014,3.281,58.13c2.009.042,17.646.816,20.026,14.46l9.933.73V641.8l4.115.108c-.016-2.956-.209-33.863-1.341-36.67-1.208-3-4.409-28.737-4.544-29.829l.451.016c.033.267,3.315,26.708,4.5,29.653,1.212,3.009,1.367,35.664,1.373,37.052l0,.224-4.118-.108Z" transform="translate(-6066.249 -574.318)" fill="#a8a59c"/>
      </g>
      <g id="Grupo_582094" data-name="Grupo 582094" transform="translate(369.421 125.54)">
        <rect id="Rectángulo_212800" data-name="Rectángulo 212800" width="0.435" height="67.456" transform="translate(0 0.434) rotate(-87.089)" fill="#a8a59c"/>
      </g>
      <g id="Grupo_582095" data-name="Grupo 582095" transform="translate(366.909 196.622)">
        <path id="Trazado_295075" data-name="Trazado 295075" d="M5930.156,903.544l-25.447-1.634.028-.434,25.283,1.624a21.789,21.789,0,0,1,20.871-1.607l-.174.4a21.281,21.281,0,0,0-20.5,1.6Z" transform="translate(-5904.709 -899.578)" fill="#a8a59c"/>
      </g>
      <g id="Grupo_582096" data-name="Grupo 582096" transform="translate(430.789 134.456)">
        <path id="Trazado_295076" data-name="Trazado 295076" d="M6237.336,609.735c-.015-.189-1.4-18.932-1.907-23.87-.262-2.549-1-3.4-1.417-3.675a2.77,2.77,0,0,0-1.492-.17l-.159-1.262a3.557,3.557,0,0,1,2.405.391c1.072.717,1.738,2.261,1.977,4.592.509,4.955,1.9,23.715,1.91,23.9Z" transform="translate(-6232.361 -580.72)" fill="#3d414a"/>
      </g>
      <path id="Trazado_295077" data-name="Trazado 295077" d="M6229.6,621.129l-5.71.4-1.026-14.377,5.636-.592Z" transform="translate(-5793.929 -467.064)" fill="#3d414a"/>
      <rect id="Rectángulo_212801" data-name="Rectángulo 212801" width="3.815" height="6.301" transform="translate(402.259 163.471)" fill="#a8a59c"/>
      <path id="Trazado_295078" data-name="Trazado 295078" d="M6246.479,928.811v5.432l2.441.813v-6Z" transform="translate(-5812.938 -726.49)" fill="url(#linear-gradient-6)"/>
      <g id="Grupo_582098" data-name="Grupo 582098" transform="translate(37.337)">
        <path id="Trazado_295079" data-name="Trazado 295079" d="M4447.414,7.637a116.565,116.565,0,1,1-116.566-116.564A116.565,116.565,0,0,1,4447.414,7.637Z" transform="translate(-4214.283 108.927)" fill="url(#radial-gradient)"/>
        <path id="Trazado_295080" data-name="Trazado 295080" d="M4980.116,73.581s-3.24.558-3.24,2.7a29.223,29.223,0,0,0,1.081,5.922l1.079,4.047,3.149,2.694,1.164-1.6a5.57,5.57,0,0,1,2.427-1.278c4.015-.481,4.044-1.66,4.044-1.66l3.5-1.937s1.347-2.691,0-3.5-5.242-3.238-5.586-3.238-2.232-5.122-2.232-5.122l-3.955-5.4s-2.786,2.237-2.247,3.683,1.349,1.982,1.079,3.33Z" transform="translate(-4828.199 -31.268)" fill="#fff"/>
        <g id="Grupo_582097" data-name="Grupo 582097" transform="translate(0 0.3)">
          <path id="Trazado_295081" data-name="Trazado 295081" d="M5006.692,416.459a27.459,27.459,0,0,1-6.634,2.76c-8.132,2.486-10.391,3.388-19.427,4.97s-18.975-2.484-26.882,2.485-9.339,5.12-9.339,5.12l-3.843.755s-10.356-1.648-12.044-.08c-1.47,1.372.377.08-6.4,8.212s-4.482,4.757-6.777,8.131c-5,7.36-6.324,4.066-4.52,10.843s9.489,13.1,9.489,13.1,11.745.905,14.006,1.806S4953.3,476.6,4953.3,476.6s11.967,17.168,14.222,20.781,2.432,7.433,4.077,14.008c.271,1.078.488,1.986.663,2.748a116.19,116.19,0,0,0,35.282-83.546A117.377,117.377,0,0,0,5006.692,416.459Z" transform="translate(-4774.408 -314.328)" fill="#fff"/>
          <path id="Trazado_295082" data-name="Trazado 295082" d="M4934.17-6.078c1.081,2.432,1.892-5.942,5.134-6.211s.271-2.433-3.242-4.407-5.944-10.18-8.1-12.883,3.244-8.645,8.647-10.984,4.322,2.883,6.748,5.309-.537,4.593,1.621,8.78,2.433,5,4.83,3.649-1.032-2.859-1.408-7.562c-.178-2.256-.178-4.591,3.332-1.676,3.438,2.848,5.063,12.848,4.367.776a116.642,116.642,0,0,0-101.114-76.1l17.566,8.843,9.655,3.921s14.188,1.81,15.692,3.017,1.509,4.831,3.021,5.619,7.542,6.454,15.688,8.566c4.772,1.239,6.543,6.32,7.19,10.309a5.29,5.29,0,0,0-2.322,4.035c0,1.083,1.352,2.436,1.083,3.847s-3.78,1.021-6.214.33-1.08-.122-2.433,0-3.508,1.765-5.4,4.246-5.943,2.387-9.187,2.943-2.43-1.368-6.75,0-6.215,10.787-4.591,14.839.8,6.487-.277,10.4-2.594,5.615-2.967,17.432c-.627,19.714,8.1,11.606,13.51,12.422s4.592-1.891,5.669-4.055-2.433-7.831-2.7-12.965-.544-6.216,0-7.6,2.969-4.016,5.13-6.452,7.837-2.7,9.729-2.7,12.968,10.807,16.477,15.666S4933.089-8.505,4934.17-6.078Z" transform="translate(-4730.07 107.388)" fill="#fff"/>
          <path id="Trazado_295083" data-name="Trazado 295083" d="M4226.7,46.271a2.439,2.439,0,0,0-.062.384c-.285,4.107-2.011,8.611-4.347,13.626-1.912,4.118-2.3,5.427-3.5,6.823a2.177,2.177,0,0,0-.292.436,116.646,116.646,0,0,0-4.206,31.109c0,2.31.074,4.6.208,6.875a2.222,2.222,0,0,0,.437.862l1.263,1.541a2.25,2.25,0,0,0,1.664.827c1.315.031,3.482.4,3.219,2.528-.371,3.033,1.714,6.24,1.615,7.545s3.188,1.638,2.982,6.77a27.1,27.1,0,0,0,.622,7.567,2.248,2.248,0,0,1,.069.741c-.091,1.219-.378,5.051-.625,8.285-.295,3.908,1.28,6.207,2.45,8.043,1.1,1.718,1.523,2.234,1.558,6.106a2.471,2.471,0,0,0,.064.471,116.812,116.812,0,0,0,71.851,54.72,6.437,6.437,0,0,0,.718-2.186v-.021c.088-1.138.789-6.435.934-7.533a1.826,1.826,0,0,0,.019-.4c-.05-1.139-.282-6.916.253-8.844.6-2.135-1.074-3.12-4.938-9.959s.031-6.107.785-10.415.432-5.642,1.5-8.185,0,0-.71-2.235-11.393-12.8-13.981-17.2-4.708-1.228-8.583-1.957,0,0-8.747-1.225c-4.383-.61-4.563.613-6.026.344-1.918-.35-3.524.38-6.563-.494s-7.3,3.662-9.817,2.241a14.58,14.58,0,0,1-3.984-3.275c-1.146-1.058-4.863-1.387-6.37-5.8s.081-3.71-1.067-7.608-.745-4.538-1.151-5-3.181-2.639-1.5-7.646c.785-2.331-.689-1.034-.294-6.24s4.154-1.58,6.072-3.823,4.452-1.209,6.883-4.514,7.211-2.953,11.337-6.975,8.085-4.305,8.456-5.16l12.87-9.607a2.139,2.139,0,0,0,.175-.149c.608-.567,3.771-3.836.485-7.654-3.609-4.2,1.646-4.457-3.609-4.2a12.954,12.954,0,0,0-6.629,2.3,2.262,2.262,0,0,1-3.25-.735,30.745,30.745,0,0,0-1.665-2.656c-1.077-1.494-3.611-4.948-4.546-6.221a2.24,2.24,0,0,0-.9-.722c-.923-.415-2.785-1.222-3.932-1.6a2.293,2.293,0,0,1-1.443-1.391c-.329-.925-.644-1.847-.924-2.743a2.262,2.262,0,0,1,1.093-2.682l10.27-5.474a2.254,2.254,0,0,1,3.021.858,15.323,15.323,0,0,0,4.018,4.766c2.544,1.8,7.063,2.552,8.624,2.765a2.23,2.23,0,0,0,1.007-.1c.826-.267,2.512-.672,2.8.415a15.628,15.628,0,0,0,5.729,8.1,2.262,2.262,0,0,0,3.548-1.158l3.438-11.686a2.268,2.268,0,0,1,.355-.711l7.1-9.6a6.112,6.112,0,0,0,.663-6.14l-1.274-2.825a4.862,4.862,0,0,0-4.062-2.847l-3.632-.273-13.872-.312a2.257,2.257,0,0,1-1.729-.871c-.691-.877-2.056-1.827-3.993.509l-2.127,2.57a2.252,2.252,0,0,1-1.937.813l-9.617-.832a2.212,2.212,0,0,1-.5-.1c-.679-.222-2.652-.856-3.941-1.187a2.266,2.266,0,0,1-1.377-1.052c-.386-.637-1.087-1.4-1.109-2.108-.153-9,6.739-16.789,8.633-18.755A117.053,117.053,0,0,0,4226.7,46.271Z" transform="translate(-4214.283 17.614)" fill="#fff"/>
        </g>
      </g>
      <g id="Grupo_582185" data-name="Grupo 582185" transform="translate(0 91.4)">
        <g id="Grupo_582099" data-name="Grupo 582099" transform="translate(52.552 69.171)">
          <rect id="Rectángulo_212802" data-name="Rectángulo 212802" width="32.356" height="1.92" fill="#e2d2ca"/>
        </g>
        <g id="Grupo_582100" data-name="Grupo 582100" transform="translate(56.889 76.09)">
          <rect id="Rectángulo_212803" data-name="Rectángulo 212803" width="2.835" height="87.348" transform="translate(2.835 87.348) rotate(180)" fill="#706865"/>
        </g>
        <g id="Grupo_582101" data-name="Grupo 582101" transform="translate(79.844 68.626)">
          <rect id="Rectángulo_212804" data-name="Rectángulo 212804" width="22.49" height="2.742" fill="#ccbdb7"/>
        </g>
        <g id="Grupo_582102" data-name="Grupo 582102" transform="translate(86.831 45.224)">
          <rect id="Rectángulo_212805" data-name="Rectángulo 212805" width="8.517" height="25.867" fill="#998e89"/>
        </g>
        <g id="Grupo_582103" data-name="Grupo 582103" transform="translate(40.946 71.123)">
          <rect id="Rectángulo_212806" data-name="Rectángulo 212806" width="124.61" height="4.966" fill="#b59074"/>
        </g>
        <g id="Grupo_582104" data-name="Grupo 582104" transform="translate(6.909 32.72)">
          <path id="Trazado_295084" data-name="Trazado 295084" d="M4068.335,536.047s-1.363,19.113,2.372,21.4c2.339,1.433,11.667,6.266,11.39,7.172s-5.267,8.064-5.267,8.064-17.916-11.8-18.494-15.516c-.564-3.633.883-27.985,3.345-29.107,1.845-.84,2.818-.145,5.142,1.581C4070.085,532.063,4068.335,536.047,4068.335,536.047Z" transform="translate(-4058.214 -527.704)" fill="#e64646"/>
        </g>
        <g id="Grupo_582107" data-name="Grupo 582107" transform="translate(31.753 151.012)">
          <g id="Grupo_582106" data-name="Grupo 582106">
            <g id="Grupo_582105" data-name="Grupo 582105">
              <path id="Trazado_295085" data-name="Trazado 295085" d="M4192.962,1134.945s-.557,3.867-.627,4.448-6.2-.342-6.2-.342l-.5-4.6S4192.2,1134.4,4192.962,1134.945Z" transform="translate(-4185.641 -1134.446)" fill="#424773"/>
            </g>
          </g>
        </g>
        <g id="Grupo_582110" data-name="Grupo 582110" transform="translate(30.795 155.206)">
          <g id="Grupo_582109" data-name="Grupo 582109">
            <g id="Grupo_582108" data-name="Grupo 582108">
              <path id="Trazado_295086" data-name="Trazado 295086" d="M4188.445,1156.217a16.559,16.559,0,0,0,3.82,3.346c1.877,1.015,4.828,1.418,5.939,2.469.8.759,2.919,4.026-4.88,3.96s-11.56.461-12.395-.791,1.208-9.246,1.208-9.246S4183.985,1156.62,4188.445,1156.217Z" transform="translate(-4180.729 -1155.955)" fill="#292c47"/>
            </g>
          </g>
        </g>
        <g id="Grupo_582113" data-name="Grupo 582113" transform="translate(71.015 151.049)">
          <g id="Grupo_582112" data-name="Grupo 582112">
            <g id="Grupo_582111" data-name="Grupo 582111">
              <path id="Trazado_295087" data-name="Trazado 295087" d="M4394.345,1135.133s-.558,3.867-.627,4.448-6.2-.342-6.2-.342l-.5-4.6S4393.579,1134.588,4394.345,1135.133Z" transform="translate(-4387.023 -1134.634)" fill="#424773"/>
            </g>
          </g>
        </g>
        <g id="Grupo_582116" data-name="Grupo 582116" transform="translate(70.057 155.243)">
          <g id="Grupo_582115" data-name="Grupo 582115">
            <g id="Grupo_582114" data-name="Grupo 582114">
              <path id="Trazado_295088" data-name="Trazado 295088" d="M4389.828,1156.4a16.538,16.538,0,0,0,3.82,3.347c1.877,1.015,8.789,1.85,9.9,2.9.8.76,2.134,3.814-8.839,3.528-7.8-.2-11.56.461-12.4-.791s1.209-9.246,1.209-9.246S4385.261,1156.853,4389.828,1156.4Z" transform="translate(-4382.111 -1156.143)" fill="#292c47"/>
            </g>
          </g>
        </g>
        <g id="Grupo_582119" data-name="Grupo 582119" transform="translate(13.752 84.711)">
          <g id="Grupo_582118" data-name="Grupo 582118">
            <g id="Grupo_582117" data-name="Grupo 582117">
              <path id="Trazado_295089" data-name="Trazado 295089" d="M4098.868,794.373s22.278,3.77,27.311,4.56,32.316,7.58,35.729,9.648c2.715,1.646-1.425,41.2-2.392,56.286h-10.748l-.779-45.263c-12.9.322-22.1-3.017-31.49-1.591s-17.22,3.454-23.188-4.55C4093.312,813.463,4093.091,796.122,4098.868,794.373Z" transform="translate(-4093.31 -794.373)" fill="#292c47"/>
            </g>
          </g>
        </g>
        <g id="Grupo_582122" data-name="Grupo 582122" transform="translate(9.371 89.529)">
          <g id="Grupo_582121" data-name="Grupo 582121">
            <g id="Grupo_582120" data-name="Grupo 582120">
              <path id="Trazado_295090" data-name="Trazado 295090" d="M4102.737,884.8l-10.473-.648-1.021-44.653a63.628,63.628,0,0,1-11.948-.758l-8.456-19.655c7.41,1.481,31.155,7.47,34.32,9.39C4107.877,830.125,4103.705,869.711,4102.737,884.8Z" transform="translate(-4070.84 -819.088)" fill="#292c47"/>
            </g>
          </g>
        </g>
        <g id="Grupo_582125" data-name="Grupo 582125" transform="translate(23.954 0.808)">
          <g id="Grupo_582124" data-name="Grupo 582124">
            <g id="Grupo_582123" data-name="Grupo 582123">
              <path id="Trazado_295091" data-name="Trazado 295091" d="M4151.25,364.413s8.167-2.257,11.283,4.083,1.7,18.36-2.413,19.491-10.035-.171-11.744-4.118-3.072-9.553-2.663-13.184S4149.081,365.281,4151.25,364.413Z" transform="translate(-4145.64 -364.023)" fill="#eea886"/>
            </g>
          </g>
        </g>
        <g id="Grupo_582128" data-name="Grupo 582128" transform="translate(25.369 17.95)">
          <g id="Grupo_582127" data-name="Grupo 582127">
            <g id="Grupo_582126" data-name="Grupo 582126">
              <path id="Trazado_295092" data-name="Trazado 295092" d="M4163.83,457.5s-.09,4.822.442,5.85-11.373.77-11.373.77,1.876-5.79.812-10.723C4152.657,448.518,4163.83,457.5,4163.83,457.5Z" transform="translate(-4152.899 -451.947)" fill="#eea886"/>
            </g>
          </g>
        </g>
        <g id="Grupo_582131" data-name="Grupo 582131" transform="translate(23.48)">
          <g id="Grupo_582130" data-name="Grupo 582130">
            <g id="Grupo_582129" data-name="Grupo 582129">
              <path id="Trazado_295093" data-name="Trazado 295093" d="M4145.27,377.456s.637,1.294,3.718,1.085,7.146-3.926,8.454-4.258,1.386-1.077,1.386-1.077l.693,1.231,1.339.2s-.911-3.726,1.073-5.038-.894-11.878-10.942-9.329c0,0-7.667,1.4-7.77,5.687S4143.782,375.188,4145.27,377.456Z" transform="translate(-4143.211 -359.878)" fill="#3a3f47"/>
            </g>
          </g>
        </g>
        <g id="Grupo_582134" data-name="Grupo 582134" transform="translate(25.525 26.062)">
          <g id="Grupo_582133" data-name="Grupo 582133">
            <g id="Grupo_582132" data-name="Grupo 582132">
              <path id="Trazado_295094" data-name="Trazado 295094" d="M4165.542,496.727s-.034-1.964-.924-2.152-9.358-1.353-10.451-.924l-.468,2.593S4155.8,497.54,4165.542,496.727Z" transform="translate(-4153.699 -493.557)" fill="#e2d2ca"/>
            </g>
          </g>
        </g>
        <g id="Grupo_582137" data-name="Grupo 582137" transform="translate(36.39 10.269)">
          <g id="Grupo_582136" data-name="Grupo 582136">
            <g id="Grupo_582135" data-name="Grupo 582135">
              <path id="Trazado_295095" data-name="Trazado 295095" d="M4212.855,414.731c-.229-1.61-2.059-3.458-3.107-.951s.708,6.159,1.884,5.963S4213.167,416.915,4212.855,414.731Z" transform="translate(-4209.428 -412.55)" fill="#eea886"/>
            </g>
          </g>
        </g>
        <g id="Grupo_582140" data-name="Grupo 582140" transform="translate(72.819 52.436)">
          <g id="Grupo_582139" data-name="Grupo 582139">
            <g id="Grupo_582138" data-name="Grupo 582138">
              <path id="Trazado_295096" data-name="Trazado 295096" d="M4396.29,628.835a.021.021,0,0,0-.014,0C4396.337,628.861,4396.346,628.863,4396.29,628.835Z" transform="translate(-4396.276 -628.834)" fill="#323657"/>
            </g>
          </g>
        </g>
        <g id="Grupo_582143" data-name="Grupo 582143" transform="translate(22.192 2.347)">
          <g id="Grupo_582142" data-name="Grupo 582142">
            <g id="Grupo_582141" data-name="Grupo 582141">
              <path id="Trazado_295097" data-name="Trazado 295097" d="M4141.592,371.918s-9.958-.469-1.738,15.076Z" transform="translate(-4136.603 -371.916)" fill="#3a3f47"/>
            </g>
          </g>
        </g>
        <g id="Grupo_582145" data-name="Grupo 582145" transform="translate(4.994 148.706)">
          <g id="Grupo_582144" data-name="Grupo 582144">
            <path id="Trazado_295098" data-name="Trazado 295098" d="M4048.393,1134.449l.74,2.084,31.3-9.7-1.5-4.219Z" transform="translate(-4048.393 -1122.615)" fill="#918783"/>
          </g>
        </g>
        <g id="Grupo_582147" data-name="Grupo 582147" transform="translate(34.551 117.411)">
          <g id="Grupo_582146" data-name="Grupo 582146">
            <rect id="Rectángulo_212807" data-name="Rectángulo 212807" width="3.558" height="34.03" fill="#918783"/>
          </g>
        </g>
        <g id="Grupo_582149" data-name="Grupo 582149" transform="translate(25.838 115.603)">
          <g id="Grupo_582148" data-name="Grupo 582148">
            <rect id="Rectángulo_212808" data-name="Rectángulo 212808" width="20.983" height="2.005" fill="#5e5854"/>
          </g>
        </g>
        <g id="Grupo_582151" data-name="Grupo 582151" transform="translate(35.9 148.441)">
          <g id="Grupo_582150" data-name="Grupo 582150">
            <path id="Trazado_295099" data-name="Trazado 295099" d="M4238.953,1133.354l-.741,2.084-31.3-9.7,1.376-4.484Z" transform="translate(-4206.912 -1121.256)" fill="#918783"/>
          </g>
        </g>
        <g id="Grupo_582153" data-name="Grupo 582153" transform="translate(35.9 148.441)">
          <g id="Grupo_582152" data-name="Grupo 582152">
            <path id="Trazado_295100" data-name="Trazado 295100" d="M4216.9,1135.216v2.424l-9.988-11.9,1.376-4.484Z" transform="translate(-4206.912 -1121.256)" fill="#918783"/>
          </g>
        </g>
        <g id="Grupo_582155" data-name="Grupo 582155" transform="translate(65.015 160.513)">
          <g id="Grupo_582154" data-name="Grupo 582154">
            <circle id="Elipse_6052" data-name="Elipse 6052" cx="2.925" cy="2.925" r="2.925" fill="#bfb2ac"/>
          </g>
        </g>
        <g id="Grupo_582157" data-name="Grupo 582157" transform="translate(40.286 160.513)">
          <g id="Grupo_582156" data-name="Grupo 582156">
            <path id="Trazado_295101" data-name="Trazado 295101" d="M4235.258,1186.1a2.925,2.925,0,1,1-2.925-2.925A2.925,2.925,0,0,1,4235.258,1186.1Z" transform="translate(-4229.408 -1183.174)" fill="#bfb2ac"/>
          </g>
        </g>
        <g id="Grupo_582159" data-name="Grupo 582159" transform="translate(2.069 160.513)">
          <g id="Grupo_582158" data-name="Grupo 582158">
            <path id="Trazado_295102" data-name="Trazado 295102" d="M4039.239,1186.1a2.925,2.925,0,1,1-2.925-2.925A2.925,2.925,0,0,1,4039.239,1186.1Z" transform="translate(-4033.389 -1183.174)" fill="#bfb2ac"/>
          </g>
        </g>
        <g id="Grupo_582160" data-name="Grupo 582160" transform="translate(11.613 108.008)">
          <path id="Rectángulo_212809" data-name="Rectángulo 212809" d="M3.8,0H45.912a3.8,3.8,0,0,1,3.8,3.8v0a3.8,3.8,0,0,1-3.8,3.8H3.8A3.8,3.8,0,0,1,0,3.8v0A3.8,3.8,0,0,1,3.8,0Z" fill="#e2d2ca"/>
        </g>
        <g id="Grupo_582161" data-name="Grupo 582161" transform="translate(146.777 76.09)">
          <rect id="Rectángulo_212810" data-name="Rectángulo 212810" width="2.835" height="87.348" fill="#706865"/>
        </g>
        <g id="Grupo_582162" data-name="Grupo 582162" transform="translate(54.319 5.805)">
          <path id="Rectángulo_212811" data-name="Rectángulo 212811" d="M19.184,0H54.357A19.184,19.184,0,0,1,73.54,19.184V32.695A19.184,19.184,0,0,1,54.357,51.879H19.185A19.185,19.185,0,0,1,0,32.693V19.184A19.184,19.184,0,0,1,19.184,0Z" fill="#b8aba5"/>
        </g>
        <g id="Grupo_582163" data-name="Grupo 582163" transform="translate(57.199 8.609)">
          <rect id="Rectángulo_212812" data-name="Rectángulo 212812" width="67.78" height="40.945" fill="#f5f7ff"/>
        </g>
        <g id="Grupo_582164" data-name="Grupo 582164" transform="translate(116.504 51.309)">
          <ellipse id="Elipse_6053" data-name="Elipse 6053" cx="2.732" cy="2.108" rx="2.732" ry="2.108" fill="#918681"/>
        </g>
        <g id="Grupo_582165" data-name="Grupo 582165" transform="translate(86.84 64.524)">
          <path id="Trazado_295103" data-name="Trazado 295103" d="M4487.666,697.5v-.923s-1.3-5.742-10.479-5.742-8.995,6.665-8.995,6.665Z" transform="translate(-4468.192 -690.834)" fill="#998e89"/>
        </g>
        <g id="Grupo_582167" data-name="Grupo 582167" transform="translate(84.7 61.82)">
          <g id="Grupo_582166" data-name="Grupo 582166">
            <path id="Trazado_295104" data-name="Trazado 295104" d="M4459.246,680.521a9.033,9.033,0,0,0,2.725-.6c.731-.44,5.1-3.381,6.129-2.91s7.86,2.564,7.624,3.563-.869.9-1.353.726a35.127,35.127,0,0,0-5.882-1.043s4.875,1.778,4.894,3.075-1.019,1.614-1.482,2.1-1.016,1.709-2.272,1.8-7.385-2.039-8.647-2.136-3.6.077-3.756-.127S4459.246,680.521,4459.246,680.521Z" transform="translate(-4457.217 -676.964)" fill="#eea886"/>
          </g>
        </g>
        <g id="Grupo_582170" data-name="Grupo 582170" transform="translate(8.853 28.75)">
          <g id="Grupo_582169" data-name="Grupo 582169">
            <g id="Grupo_582168" data-name="Grupo 582168">
              <path id="Trazado_295105" data-name="Trazado 295105" d="M4109.75,510.547c-6.358-1.117-13.052-2.722-13.052-2.722l-11.843-.483s-10.869,2.393-15.149,4.326c-.407.184-.408,9.7-1.523,12.191l3.549,7.487s2.051,14.832,2.476,21.428c.2,3.028-.552,29.265-.552,29.265s1.064.525,9.146,1.416,28.278-.322,28.405-1.276-3.911-35.547-4.09-37.339c-.274-2.749.794-15.454.794-15.454,1.523,2.046,5.406,11.283,9.452,15.678,2.381,2.586,14.167,4.171,16.388,4.245,4.837.161,13.66,1.124,13.917.654.207-.282.77-7.831.216-8.016-.484-.161-16.867-1.1-21.064-3.332-1.536-.814-6.125-10.823-6.125-10.823S4113.259,512.123,4109.75,510.547Z" transform="translate(-4068.184 -507.342)" fill="#e64646"/>
            </g>
          </g>
        </g>
        <g id="Grupo_582171" data-name="Grupo 582171" transform="translate(0 55.209)">
          <path id="Rectángulo_212813" data-name="Rectángulo 212813" d="M17.14,0h0A17.141,17.141,0,0,1,34.281,17.141v13.2a17.14,17.14,0,0,1-17.14,17.14h0A17.14,17.14,0,0,1,0,30.338V17.14A17.14,17.14,0,0,1,17.14,0Z" fill="#e2d2ca"/>
        </g>
        <g id="Grupo_582172" data-name="Grupo 582172" transform="translate(10.335 85.52)">
          <path id="Trazado_295106" data-name="Trazado 295106" d="M4093.659,826.716a15.7,15.7,0,0,1-12.185-5.045c-6.853-7.566-5.622-20.866-5.565-21.428a1.907,1.907,0,0,1,3.8.375c-.015.151-1.107,12.206,4.6,18.5,2.309,2.546,5.368,3.784,9.35,3.784a1.907,1.907,0,0,1,0,3.814Z" transform="translate(-4075.788 -798.523)" fill="#e2d2ca"/>
        </g>
        <g id="Grupo_582175" data-name="Grupo 582175" transform="translate(62.005 11.87)">
          <g id="Grupo_582174" data-name="Grupo 582174">
            <g id="Grupo_582173" data-name="Grupo 582173">
              <rect id="Rectángulo_212814" data-name="Rectángulo 212814" width="19.855" height="2.164" rx="1.082" fill="#dfe1e8"/>
            </g>
          </g>
        </g>
        <g id="Grupo_582178" data-name="Grupo 582178" transform="translate(62.005 16.511)">
          <g id="Grupo_582177" data-name="Grupo 582177">
            <g id="Grupo_582176" data-name="Grupo 582176">
              <rect id="Rectángulo_212815" data-name="Rectángulo 212815" width="19.855" height="2.163" rx="1.081" fill="#dfe1e8"/>
            </g>
          </g>
        </g>
        <g id="Grupo_582181" data-name="Grupo 582181" transform="translate(62.005 21.832)">
          <g id="Grupo_582180" data-name="Grupo 582180">
            <g id="Grupo_582179" data-name="Grupo 582179">
              <rect id="Rectángulo_212816" data-name="Rectángulo 212816" width="19.855" height="24.461" rx="9.246" fill="#dfe1e8"/>
            </g>
          </g>
        </g>
        <g id="Grupo_582184" data-name="Grupo 582184" transform="translate(85.867 11.87)">
          <g id="Grupo_582183" data-name="Grupo 582183">
            <g id="Grupo_582182" data-name="Grupo 582182">
              <rect id="Rectángulo_212817" data-name="Rectángulo 212817" width="35.357" height="34.422" rx="14.641" fill="#dfe1e8"/>
            </g>
          </g>
        </g>
      </g>
      <path id="Trazado_295107" data-name="Trazado 295107" d="M4974.438,689.124a10.7,10.7,0,0,0-21.393,0c0,.2.007.407.019.608h-.019c0,8.144,10.7,20.907,10.7,20.907s10.7-12.763,10.7-20.907h-.018C4974.431,689.531,4974.438,689.328,4974.438,689.124Zm-10.7,6.93a6.93,6.93,0,1,1,6.931-6.93A6.93,6.93,0,0,1,4963.741,696.054Z" transform="translate(-4771.676 -524.922)" fill="#e64646"/>
      <path id="Trazado_295108" data-name="Trazado 295108" d="M5231,206.315a10.7,10.7,0,0,0-21.393,0c0,.2.007.406.019.608h-.019c0,8.144,10.7,20.907,10.7,20.907s10.7-12.762,10.7-20.907h-.019C5230.994,206.722,5231,206.519,5231,206.315Zm-10.7,6.93a6.93,6.93,0,1,1,6.929-6.93A6.93,6.93,0,0,1,5220.3,213.245Z" transform="translate(-4978.219 -136.244)" fill="#e64646"/>
      <path id="Trazado_295109" data-name="Trazado 295109" d="M5083.407,359.948a10.7,10.7,0,0,0-21.393,0c0,.2.008.407.018.608h-.018c0,8.144,10.7,20.907,10.7,20.907s10.7-12.762,10.7-20.907h-.018Q5083.406,360.254,5083.407,359.948Zm-10.7,6.93a6.93,6.93,0,1,1,6.931-6.93A6.929,6.929,0,0,1,5072.71,366.878Z" transform="translate(-4859.4 -259.924)" fill="#e64646"/>
      <path id="Trazado_295110" data-name="Trazado 295110" d="M4240.713,214.116a10.7,10.7,0,0,0-21.393,0c0,.2.008.407.019.608h-.019c0,8.144,10.7,20.907,10.7,20.907s10.7-12.762,10.7-20.907h-.019C4240.707,214.523,4240.713,214.32,4240.713,214.116Zm-10.7,6.93a6.93,6.93,0,1,1,6.93-6.93A6.929,6.929,0,0,1,4230.017,221.046Z" transform="translate(-4181.001 -142.524)" fill="#e64646"/>
      <g id="Grupo_582203" data-name="Grupo 582203" transform="translate(281.051 71.592)">
        <g id="Grupo_582188" data-name="Grupo 582188" transform="translate(34.502 179.226)">
          <g id="Grupo_582187" data-name="Grupo 582187">
            <g id="Grupo_582186" data-name="Grupo 582186">
              <path id="Trazado_295111" data-name="Trazado 295111" d="M5643.93,1186.2c1.769.531,2.3,3.538,3.8,4.423s8.846,1.5,9.11-.8-3.08-4.361-4.583-5.511-5.339-5.25-6.029-6.753a1.707,1.707,0,0,1-1.808.779c-1.816-.148-2.237-.564-2.237-.564-.29,1.81-.555,3.043-.733,3.734A3.691,3.691,0,0,0,5643.93,1186.2Z" transform="translate(-5641.299 -1177.561)" fill="#1b384f"/>
            </g>
          </g>
        </g>
        <g id="Grupo_582191" data-name="Grupo 582191" transform="translate(8.206 179.792)">
          <g id="Grupo_582190" data-name="Grupo 582190">
            <g id="Grupo_582189" data-name="Grupo 582189">
              <path id="Trazado_295112" data-name="Trazado 295112" d="M5509.052,1189.1c1.769.53,2.3,3.538,3.8,4.422s8.846,1.5,9.112-.8-3.08-4.36-4.584-5.511-5.339-5.25-6.028-6.754a1.708,1.708,0,0,1-1.808.779c-1.816-.147-2.237-.564-2.237-.564-.291,1.811-.556,3.044-.734,3.735A3.691,3.691,0,0,0,5509.052,1189.1Z" transform="translate(-5506.421 -1180.463)" fill="#1b384f"/>
            </g>
          </g>
        </g>
        <g id="Grupo_582192" data-name="Grupo 582192" transform="translate(74.829 56.601)">
          <path id="Trazado_295113" data-name="Trazado 295113" d="M5848.773,551.668s2.557-2.247,2.957-2.578a8.2,8.2,0,0,1,3.519-.492,9.528,9.528,0,0,1,4.1.944,1.458,1.458,0,0,1,.428,1.146,2.815,2.815,0,0,1-.422,1.361,1.715,1.715,0,0,1-.151,1.645,1.491,1.491,0,0,1-.427,1.6,1.247,1.247,0,0,1-.289,1.345,11.271,11.271,0,0,0-1.968.353,23.752,23.752,0,0,1-6.473-.054S5846.809,556.673,5848.773,551.668Z" transform="translate(-5848.141 -548.598)" fill="#eea886"/>
        </g>
        <g id="Grupo_582193" data-name="Grupo 582193" transform="translate(79.301 60.357)">
          <path id="Trazado_295114" data-name="Trazado 295114" d="M5872.179,567.861a8.392,8.392,0,0,1-1.06,1.932c-.408.351,2.588,2.329,2.588,2.329S5874.079,568.706,5872.179,567.861Z" transform="translate(-5871.081 -567.861)" fill="#cf8c6c"/>
        </g>
        <g id="Grupo_582194" data-name="Grupo 582194" transform="translate(79.705 57.532)">
          <path id="Trazado_295115" data-name="Trazado 295115" d="M5879.047,553.374s-4.24.151-4.3.836a1.074,1.074,0,0,0,.333.974l-1.716.854s-.817,1.207.735,1.745c0,0-.88,1.048.681,1.388,0,0-.272.95.424,1.236a14.136,14.136,0,0,0,3.418.075s.6-.286.336-1.329a1.465,1.465,0,0,0,.443-1.6,1.64,1.64,0,0,0,.155-1.662s1.052-1.464-.073-2.5C5879.486,553.385,5879.225,553.366,5879.047,553.374Z" transform="translate(-5873.151 -553.372)" fill="#db9c7c"/>
        </g>
        <g id="Grupo_582195" data-name="Grupo 582195" transform="translate(78.375 52.021)">
          <path id="Trazado_295116" data-name="Trazado 295116" d="M5869.244,531.416a28.349,28.349,0,0,0,.48-5.665c-.049-.389-.036-.536-.416-.637s-1.012,1.251-1.433,2.442a12.309,12.309,0,0,1-1.545,2.66S5866.294,531.443,5869.244,531.416Z" transform="translate(-5866.331 -525.108)" fill="#eea886"/>
        </g>
        <path id="Trazado_295117" data-name="Trazado 295117" d="M5843.853,569.484a6.729,6.729,0,0,0-2.58-.385c-.957.177,1.81-4.753,1.81-4.753Z" transform="translate(-5767.621 -504.675)" fill="#eea886"/>
        <g id="Grupo_582196" data-name="Grupo 582196" transform="translate(33.137 30.618)">
          <path id="Trazado_295118" data-name="Trazado 295118" d="M5637.66,415.326s5.116.58,7.261,3.518,2.852,7.429,3.326,8.915,7.053,15.5,7.487,15.848,6.438.114,10.048.216c5.07.143,11.113.02,11.113.02l-.739,7.257s-24.115.566-25.782-1.327c-3.678-4.179-11.987-18.744-11.987-18.744S5629.685,419.241,5637.66,415.326Z" transform="translate(-5634.294 -415.326)" fill="#e64646"/>
        </g>
        <path id="Trazado_295119" data-name="Trazado 295119" d="M5686.354,500.2s.5,6.515-.811,10.763l-1.427-2.042S5686.547,502.431,5686.354,500.2Z" transform="translate(-5641.265 -453.039)" fill="#c43b3b"/>
        <path id="Trazado_295120" data-name="Trazado 295120" d="M5553.9,335.244a45.264,45.264,0,0,1-.521,10.227,62.686,62.686,0,0,1-2.41,9.222l8.295-2.827S5559.782,335.94,5553.9,335.244Z" transform="translate(-5534.077 -320.239)" fill="#323657"/>
        <path id="Trazado_295121" data-name="Trazado 295121" d="M5512,624.375s-5.012,6.516-6.373,14.248-1.312,33.352-1.372,37.174-.892,12.646-.787,20.854c.092,7.232-.317,36.734-.317,36.734l8.255-.129s3.993-30.458,4.437-33.479,1.9-14.239,2.077-15.484,9.541-34.879,9.541-40.453S5524.088,615.281,5512,624.375Z" transform="translate(-5495.585 -551.307)" fill="#285173"/>
        <path id="Trazado_295122" data-name="Trazado 295122" d="M5603.89,637.281c.32,1.777,6.09,32.6,6.527,36.576.487,4.436,1.387,9.784,1.2,11.622-.445,4.266-.819,8.459-.819,8.459l-6.167,48.722-8.21-.155s-1.158-27.685-.991-33.564,2.466-16.1,1.841-18.67-9.825-31.68-9.825-31.68S5579.59,625.569,5603.89,637.281Z" transform="translate(-5562.465 -561.367)" fill="#285173"/>
        <path id="Trazado_295123" data-name="Trazado 295123" d="M5544.459,453.793c.307,2.11,1.675,10.075,1.675,10.075-13.938,4.483-30.521-2.457-30.521-2.457.279-1.529,4.148-12.277,4.706-13.389a13.537,13.537,0,0,0,.555-8.119,39.7,39.7,0,0,0-2.131-6.093c-.533-1.256-.914-2.171-1.477-3.554v0c-2.4-5.879-4.762-12.229-4.317-13.38.788-2.039,4.634-2.966,6.488-3.292s8.528-2.826,8.528-2.826h7.114s8.413,1.368,9.222,2.144c1.634,1.567,3.013,9.859,3.013,9.859,3.058,6.745-.634,11.984-1.085,13.446a51.163,51.163,0,0,0-1.626,8.1A84.573,84.573,0,0,0,5544.459,453.793Z" transform="translate(-5503.427 -381.029)" fill="#e64646"/>
        <path id="Trazado_295124" data-name="Trazado 295124" d="M5567.932,259.227c2.549-.279,8.713,1.483,9.5,10.89s-1.483,14.136-3.569,15.155-7.878-.6-10.474-5.144-5.792-15.109-2.131-18.074S5567.932,259.227,5567.932,259.227Z" transform="translate(-5541.031 -259.021)" fill="#eea886"/>
        <path id="Trazado_295125" data-name="Trazado 295125" d="M5573.79,268.673a9.279,9.279,0,0,1,3,3.719s1.689-11.891-8.452-12.868c-7.719-.743-10.291,5.582-9.63,9.648a43.535,43.535,0,0,0,2.658,8.675s.657-2.3,2.033-2.368S5573.546,270.237,5573.79,268.673Z" transform="translate(-5540.227 -259.233)" fill="#323657"/>
        <path id="Trazado_295126" data-name="Trazado 295126" d="M5581.354,371.5c-4.355,0-5.339-4.569-5.339-4.569s.95-6.166-1.489-10.276,9.887,6.61,9.887,6.61-.011,1,.051,2.207a9.95,9.95,0,0,0,.592,3.227S5585.71,371.5,5581.354,371.5Z" transform="translate(-5552.785 -336.717)" fill="#eea886"/>
        <path id="Trazado_295127" data-name="Trazado 295127" d="M5577.185,327.538c-.466-.451-2.642-1.2-2.688,1.576s3.1,4.819,3.383,2.874S5577.969,328.3,5577.185,327.538Z" transform="translate(-5553.018 -313.679)" fill="#eea886"/>
        <path id="Trazado_295128" data-name="Trazado 295128" d="M5600.012,387.271c-.15-.043-.316-.094-.5-.155a12.274,12.274,0,0,1-6-4.321c3.709,2.576,6.442,2.269,6.442,2.269S5599.95,386.068,5600.012,387.271Z" transform="translate(-5568.331 -358.52)" fill="#a77860"/>
        <path id="Trazado_295129" data-name="Trazado 295129" d="M5530.292,494.623s6.631-3.784,9.34-8.246l15.694-1.062,3.632,7.507s-4.91,10.47-1.6,31.069c1.6,9.987-30.521-2.457-30.521-2.457S5531.67,506.267,5530.292,494.623Z" transform="translate(-5514.648 -441.052)" fill="#285173"/>
        <path id="Trazado_295130" data-name="Trazado 295130" d="M5562.169,432.887s-3.111-9.692-7.338-13.2c0,0,1.118-1.133,2.233-.728,0,0,3.25,1.779,8.557,13.7S5562.169,432.887,5562.169,432.887Z" transform="translate(-5537.187 -387.562)" fill="#285173"/>
        <path id="Trazado_295131" data-name="Trazado 295131" d="M5655.732,428.971s-1.165-9.116-2.817-13.4l-1.358-.248s2.028,10.368,1.82,13.805S5655.732,428.971,5655.732,428.971Z" transform="translate(-5615.055 -384.708)" fill="#285173"/>
        <rect id="Rectángulo_212818" data-name="Rectángulo 212818" width="32.49" height="34.412" transform="translate(6.194 46.651)" fill="#d88a51"/>
        <g id="Grupo_582201" data-name="Grupo 582201" transform="translate(20.862 78.295)">
          <g id="Grupo_582200" data-name="Grupo 582200">
            <g id="Grupo_582199" data-name="Grupo 582199">
              <g id="Grupo_582198" data-name="Grupo 582198">
                <g id="Grupo_582197" data-name="Grupo 582197">
                  <path id="Trazado_295132" data-name="Trazado 295132" d="M5579.421,669.364a3.633,3.633,0,0,1-1.152-.166s-.616-.357-1.069-.585a3.432,3.432,0,0,0-.358-.161,6.7,6.7,0,0,1-1.966-.832,44.886,44.886,0,0,1-3.542-3.738l1.305-1.983.956-2.031s5.8.374,6.584.794a2.4,2.4,0,0,1,.217.131,8.558,8.558,0,0,1,1.227,1.255c.112.1,1.157,1.119,1.12,1.555a1.427,1.427,0,0,1-.693,1.2,3.429,3.429,0,0,1-.732,1.73,2.12,2.12,0,0,1-1.022,1.571S5580.066,669.205,5579.421,669.364Z" transform="translate(-5571.334 -659.869)" fill="#eea886"/>
                </g>
              </g>
            </g>
          </g>
        </g>
        <g id="Grupo_582202" data-name="Grupo 582202" transform="translate(0 32.124)">
          <path id="Trazado_295133" data-name="Trazado 295133" d="M5481.975,423.053s-7.3.283-9.235,5.018c-2.522,6.155-2.889,8.019-3.3,10.9-.387,2.721-2.136,10.15-2.312,10.917s-4.137,9.917-2.322,13.114c1.826,3.214,20.363,12.675,20.246,13.383s3.211-7.154,3.211-7.154-7.5-4.18-8.73-5.468c-1.995-2.09-6.2-4.343-5.339-6.937,1.015-3.048,4.067-13.328,4.775-14.832S5486.489,424.971,5481.975,423.053Z" transform="translate(-5464.331 -423.053)" fill="#e64646"/>
        </g>
        <path id="Trazado_295134" data-name="Trazado 295134" d="M5559.028,273.287a40.724,40.724,0,0,1,16.835-2.818s1.4-14.729-12.524-11.8C5563.339,258.667,5553.491,260.622,5559.028,273.287Z" transform="translate(-5539.205 -258.282)" fill="#e64646"/>
        <path id="Trazado_295135" data-name="Trazado 295135" d="M5599.807,312.3s7.185-3.73,14.441-2.987-4.2,2.16-4.2,2.16A95.376,95.376,0,0,0,5599.807,312.3Z" transform="translate(-5573.394 -299.281)" fill="#ba3838"/>
      </g>
      <g id="Grupo_582207" data-name="Grupo 582207" transform="translate(79.796 18.085)">
        <g id="Grupo_582204" data-name="Grupo 582204" transform="translate(132.687 199.09)">
          <path id="Trazado_295136" data-name="Trazado 295136" d="M5117.328,1006.977c-.072-.014-1.807-.357-4.7-1.21l.228-.77c2.849.841,4.6,1.189,4.622,1.192Z" transform="translate(-5112.632 -1004.998)" fill="#ebebeb"/>
        </g>
        <g id="Grupo_582205" data-name="Grupo 582205" transform="translate(14.575 2.401)">
          <path id="Trazado_295137" data-name="Trazado 295137" d="M4615.589,190.28a93.209,93.209,0,0,1-8.946-4.3l.386-.7a92.377,92.377,0,0,0,8.869,4.26Zm-17.356-9.567a74.649,74.649,0,0,1-7.686-6.284l.549-.585a73.82,73.82,0,0,0,7.6,6.217Zm-14.408-13.593a61.68,61.68,0,0,1-5.506-8.265l.7-.389a61.032,61.032,0,0,0,5.435,8.158Zm-9.6-17.315a64.186,64.186,0,0,1-2.587-9.584l.788-.149a63.4,63.4,0,0,0,2.556,9.463Zm-3.619-19.461c-.055-1.424-.082-2.96-.082-4.565,0-1.657.028-3.4.086-5.341l.8.024c-.057,1.928-.084,3.668-.084,5.317,0,1.594.027,3.12.081,4.534Zm1.251-19.742-.8-.045q.131-2.343.273-4.746.147-2.531.293-5.119l.8.045q-.144,2.586-.294,5.121Q4572,108.257,4571.862,110.6Zm1.029-19.742-.8-.029c.123-3.423.181-6.518.181-9.461v-.4l.8,0v.4C4573.074,84.322,4573.014,87.426,4572.892,90.86Zm-.9-19.749c-.2-3.419-.5-6.721-.917-9.811l.8-.106c.415,3.11.726,6.431.924,9.871Zm-2.674-19.494a81.42,81.42,0,0,0-2.8-9.415l.754-.276a82.3,82.3,0,0,1,2.826,9.507Zm-6.814-18.362a62.346,62.346,0,0,0-5.314-8.23l.637-.487a63.1,63.1,0,0,1,5.383,8.336Zm-11.871-15.506a66.286,66.286,0,0,0-7.6-6.18l.46-.658a67.221,67.221,0,0,1,7.7,6.256Zm-16-11.25a91.105,91.105,0,0,0-8.951-4.043l.292-.748A91.716,91.716,0,0,1,4535,5.786ZM4516.367-.687c-3.036-.88-6.248-1.68-9.546-2.377l.166-.785c3.317.7,6.548,1.506,9.6,2.39Z" transform="translate(-4506.82 3.849)" fill="#ebebeb"/>
        </g>
        <g id="Grupo_582206" data-name="Grupo 582206" transform="translate(0 0)">
          <path id="Trazado_295138" data-name="Trazado 295138" d="M4436.824-14.73c-1.55-.229-3.152-.444-4.764-.639l.1-.8c1.617.2,3.227.413,4.783.643Z" transform="translate(-4432.061 16.166)" fill="#ebebeb"/>
        </g>
      </g>
      <g id="Grupo_582211" data-name="Grupo 582211" transform="translate(67.204 22.22)">
        <g id="Grupo_582208" data-name="Grupo 582208" transform="translate(5.521 193.605)">
          <path id="Trazado_295139" data-name="Trazado 295139" d="M4397.371,1002.89c-.007-.017-.672-1.7-1.578-4.577l.766-.241c.9,2.847,1.552,4.5,1.558,4.522Z" transform="translate(-4395.793 -998.072)" fill="#ebebeb"/>
        </g>
        <g id="Grupo_582209" data-name="Grupo 582209" transform="translate(0 14.565)">
          <path id="Trazado_295140" data-name="Trazado 295140" d="M4370.468,249.672c-.726-3.169-1.329-6.374-1.795-9.527l.794-.117c.463,3.132,1.063,6.316,1.782,9.465Zm-2.806-19.17c-.125-2.055-.188-4.106-.187-6.1,0-1.209.022-2.421.069-3.6l.8.031c-.045,1.171-.068,2.372-.068,3.57,0,1.976.063,4.013.186,6.051Zm1.6-19.24-.792-.123a71.724,71.724,0,0,1,2.131-9.475l.769.23A70.858,70.858,0,0,0,4369.258,211.262Zm5.551-18.317-.724-.347a57.655,57.655,0,0,1,4.916-8.38l.655.463A56.869,56.869,0,0,0,4374.81,192.944Zm11.028-15.577-.566-.568a60.955,60.955,0,0,1,7.409-6.275l.469.651A60.157,60.157,0,0,0,4385.838,177.368Zm15.479-11.221-.373-.711a81.9,81.9,0,0,1,8.847-3.973l.286.749A81.167,81.167,0,0,0,4401.317,166.147Zm17.908-6.934-.231-.768c3.138-.944,6.241-1.9,9.224-2.848l.242.765C4425.475,157.308,4422.367,158.267,4419.226,159.212Zm18.424-5.847-.256-.761c3.114-1.045,6.183-2.107,9.119-3.156l.271.755C4443.841,151.256,4440.769,152.319,4437.649,153.366Zm18.2-6.515-.287-.749c3.074-1.179,6.089-2.38,8.959-3.571l.308.742C4461.951,144.466,4458.929,145.67,4455.848,146.851Zm17.85-7.425-.331-.73c3.021-1.372,5.947-2.769,8.7-4.154l.362.717C4479.665,136.648,4476.729,138.05,4473.7,139.426Zm17.256-8.728-.4-.7c2.9-1.648,5.661-3.336,8.214-5.016l.441.67C4496.644,127.345,4493.864,129.041,4490.954,130.7Zm16.126-10.688-.5-.631a87.743,87.743,0,0,0,7.226-6.323l.563.573A88.477,88.477,0,0,1,4507.08,120.01Zm13.735-13.626-.637-.488a57.952,57.952,0,0,0,5.185-8.043l.708.376A58.71,58.71,0,0,1,4520.815,106.384Zm9.059-17.083-.762-.253a69.439,69.439,0,0,0,2.348-9.3l.79.145A70.321,70.321,0,0,1,4529.874,89.3Z" transform="translate(-4367.475 -79.748)" fill="#ebebeb"/>
        </g>
        <g id="Grupo_582210" data-name="Grupo 582210" transform="translate(165.314 0)">
          <path id="Trazado_295141" data-name="Trazado 295141" d="M5216.2,9.905l-.8-.078c.155-1.586.29-3.18.416-4.786l.8.063C5216.486,6.713,5216.351,8.314,5216.2,9.905Z" transform="translate(-5215.397 -5.041)" fill="#ebebeb"/>
        </g>
      </g>
    </g>
    <path id="Trazado_295142" data-name="Trazado 295142" d="M5651.557,415.309a3.106,3.106,0,0,1,1.358.248A2.716,2.716,0,0,1,5651.557,415.309Z" transform="translate(-1311.229 -422.026)" fill="#285173"/>
  </g>
</svg>
