<svg xmlns="http://www.w3.org/2000/svg" width="60" height="60" viewBox="0 0 60 60">
  <g id="Grupo_597153" data-name="Grupo 597153" transform="translate(-187 -10469.109)">
    <circle id="Elipse_5691" data-name="Elipse 5691" cx="30" cy="30" r="30" transform="translate(187 10469.109)" fill="#5263e2"/>
    <g id="Grupo_577362" data-name="Grupo 577362" transform="translate(2181.224 10195.182)">
      <path id="Trazado_289302" data-name="Trazado 289302" d="M-1986.6,303.492a1.023,1.023,0,0,1,1.013-.443c.344.028.692.006,1.084.006V300.1c0-.35,0-.7,0-1.049,0-.657.237-.888.9-.894.145,0,.29,0,.5,0v-1.218q0-1,0-2.01c0-.749.212-.962.955-.967h.434V288.4h1.389v5.542h1.405V290.5h1.4v3.464c.2,0,.36,0,.516,0,.65.006.885.243.886.905,0,1.076,0,2.152,0,3.289.206,0,.388,0,.571,0,.57.011.824.26.826.833,0,1.646,0,3.291,0,4.937v3.293h1.4v-.446q0-3.43,0-6.86c0-.871.183-1.058,1.039-1.058h6.652v-.486q0-3.474,0-6.947c0-.741.218-.956.966-.956h12.059c.74,0,.957.219.957.965q0,3.452,0,6.9v.52h.5q3.124,0,6.248,0c.716,0,.939.224.942.937,0,.364,0,.727,0,1.16.371,0,.73.023,1.084-.006a1.027,1.027,0,0,1,1.013.443v2.447c-.028.271-.064.541-.084.812-.212,2.858-.483,5.7-2.021,8.264a2.959,2.959,0,0,1,2.106,2.284v.874c-.363,1.552-1.523,2.385-3.416,2.379-12.7-.037-25.4-.019-38.1-.02-.175,0-.35,0-.524,0a2.815,2.815,0,0,1-2.519-1.792c-.061-.159-.123-.318-.185-.477v-1.049a3.009,3.009,0,0,1,2.427-2.267c.016,0,.026-.041.045-.072a11.174,11.174,0,0,1-2.115-5.307c-.149-.854-.239-1.719-.356-2.578Zm1.747,3.758a11.288,11.288,0,0,0,1.385,4.049,3.1,3.1,0,0,0,2.828,1.556q17.059-.031,34.117,0a1.462,1.462,0,0,0,1.317-.682,6.394,6.394,0,0,0,.488-.824,12.369,12.369,0,0,0,1.021-3.549c.136-.867.225-1.742.337-2.627h-4.783c0,.962-.015,1.9.008,2.847a.63.63,0,0,0,.583.614.651.651,0,0,0,.719-.379c.051-.1.089-.2.125-.284h1.353a2.031,2.031,0,0,1-.964,1.735,2.108,2.108,0,0,1-2.538-.169,2.085,2.085,0,0,1-2.476.195,2.035,2.035,0,0,1-1.01-1.769h1.358l.051.123c.174.424.474.633.822.544a.725.725,0,0,0,.565-.818c-.008-.291,0-.582,0-.874v-1.785c-2.441,0-4.814,0-7.186.01a.642.642,0,0,0-.419.232c-.444.539-.881,1.085-1.292,1.651a3.772,3.772,0,0,1-3.3,1.611c-3.742-.026-7.484-.008-11.227-.009-.947,0-1.894.023-2.839-.017a3.059,3.059,0,0,1-2.7-1.25c-.057-.088-.248-.124-.378-.125-1.107-.009-2.213-.005-3.32-.005Zm20.659,6.991h-19.224c-.146,0-.292-.005-.437,0a1.4,1.4,0,0,0-1.34,1.262,1.4,1.4,0,0,0,1.079,1.491,2.518,2.518,0,0,0,.564.039q19.334,0,38.667,0c.117,0,.234,0,.349-.006a1.416,1.416,0,0,0,1.274-1.238,1.38,1.38,0,0,0-.975-1.476,2.5,2.5,0,0,0-.689-.073Q-1954.556,314.239-1964.19,314.241Zm11.134-22.34H-1964.2v6.935h11.147Zm-7.7,15.3V300.28h-11.128V307.2Zm-15.373-.024v-7.586h-6.935v3.439a.459.459,0,0,0,.074.019c1.15,0,2.3,0,3.449.012a2.028,2.028,0,0,1,2.036,2.022c.007.276,0,.554.019.829C-1977.423,306.773-1977.025,307.143-1976.133,307.173Zm20.315-3.447h12.526v-1.37h-.506c-3.2,0-6.4.023-9.6-.013A2.526,2.526,0,0,0-1955.818,303.726Zm-25.849-8.346v2.758h4.133v-2.758Zm36.3,4.906h-11.139v1.936a3.869,3.869,0,0,1,3.41-1.264h7.729Zm-33.537,5.549v-.348c0-.892-.142-1.033-1.037-1.033q-2.38,0-4.76,0c-.151,0-.3.012-.468.02l.116,1.361Zm19.6.043c.474-.609.891-1.142,1.3-1.68a.351.351,0,0,0,.067-.2c0-1.233,0-2.465,0-3.714h-1.372Z" fill="#fff"/>
      <path id="Trazado_289303" data-name="Trazado 289303" d="M-1775.055,334.641h-1.345V330.5h1.345Z" transform="translate(-185.704 -37.198)" fill="#fff"/>
      <path id="Trazado_289304" data-name="Trazado 289304" d="M-1752.332,330.366h1.344v4.14h-1.344Z" transform="translate(-206.967 -37.079)" fill="#fff"/>
      <path id="Trazado_289305" data-name="Trazado 289305" d="M-1728.332,330.366h1.344v4.14h-1.344Z" transform="translate(-228.171 -37.079)" fill="#fff"/>
      <path id="Trazado_289306" data-name="Trazado 289306" d="M-1842.316,402.35h1.341v4.155h-1.341Z" transform="translate(-127.468 -100.675)" fill="#fff"/>
      <path id="Trazado_289307" data-name="Trazado 289307" d="M-1817,406.572h-1.348v-4.15H-1817Z" transform="translate(-148.644 -100.739)" fill="#fff"/>
      <path id="Trazado_289308" data-name="Trazado 289308" d="M-1794.439,406.545v-4.138h1.345v4.138Z" transform="translate(-169.767 -100.725)" fill="#fff"/>
    </g>
  </g>
</svg>
