<svg xmlns="http://www.w3.org/2000/svg" width="60" height="60" viewBox="0 0 60 60">
  <g id="Grupo_597151" data-name="Grupo 597151" transform="translate(-187 -10143.109)">
    <circle id="Elipse_5409" data-name="Elipse 5409" cx="30" cy="30" r="30" transform="translate(187 10143.109)" fill="#5263e2"/>
    <g id="Grupo_577360" data-name="Grupo 577360" transform="translate(865.447 9882.92)">
      <path id="Trazado_289286" data-name="Trazado 289286" d="M-669.447,288.37a1,1,0,0,1,1.033-.47c.373.042.519-.068.578-.476.39-2.687.817-5.369,1.233-8.053.08-.518.31-.743.834-.747q2.739-.016,5.479,0c.619,0,.833.279.833.99q0,4.433,0,8.867v1.531h1.432v-.5q0-5.6,0-11.209c0-.94.181-1.119,1.131-1.119h24.885c.912,0,1.113.2,1.114,1.1q0,4.517,0,9.034v.549c.165.008.311.022.457.022.962,0,1.924,0,2.886,0,.842.006,1.138.483.762,1.232q-1.957,3.9-3.92,7.8c-.068.136-.131.275-.215.453,1.2.387,2.177,1.277,3.52,1.232a.707.707,0,0,1,.782.742c-.023.432-.355.669-.891.667a5.6,5.6,0,0,1-2.776-.8,4.222,4.222,0,0,0-4.377-.032,5.9,5.9,0,0,1-6.084-.023,4.119,4.119,0,0,0-4.225,0,5.942,5.942,0,0,1-6.16-.017,4.03,4.03,0,0,0-4.147,0,5.888,5.888,0,0,1-5.137.507,7.778,7.778,0,0,1-1.012-.492,4.21,4.21,0,0,0-4.229-.006,6.088,6.088,0,0,1-2.8.86.894.894,0,0,1-.981-.528v-.418a1.134,1.134,0,0,1,1.026-.5c.281-.01.56-.07.9-.116l-1.931-3.235Zm1.461.957a1.265,1.265,0,0,0-.033.176q0,2.572,0,5.143a.569.569,0,0,0,.058.278c.571.968,1.15,1.932,1.723,2.89a5.753,5.753,0,0,1,5.525.129,4.464,4.464,0,0,0,4.678-.007,5.491,5.491,0,0,1,5.62-.016,4.59,4.59,0,0,0,4.725.018,5.6,5.6,0,0,1,5.666,0,4.515,4.515,0,0,0,4.722-.029,5.014,5.014,0,0,1,2.462-.706.6.6,0,0,0,.6-.392c1.169-2.356,2.355-4.7,3.535-7.055.06-.12.111-.243.185-.405-.122-.012-.2-.026-.279-.026-2.2,0-4.4-.006-6.607.008a.981.981,0,0,0-.522.2c-.733.531-1.438,1.1-2.185,1.613a1.734,1.734,0,0,1-.914.3c-6.955.017-13.91.011-20.865.018a1.231,1.231,0,0,1-.965-.394c-.49-.515-.99-1.021-1.512-1.5a.946.946,0,0,0-.575-.238c-1.547-.019-3.094-.011-4.641-.011Zm1.515-1.431c1.294,0,2.505.016,3.715-.008a1.443,1.443,0,0,1,1.254.517c.16.2.358.362.587.589v-8.921h-4.353Zm34.116-6.438v-2.809h-7.115c0,.819.017,1.609-.008,2.4-.011.353.1.444.447.441,2.088-.015,4.177-.007,6.265-.008C-632.63,281.481-632.5,281.467-632.354,281.459Zm-8.564-2.809H-648v2.8h7.081Zm-15.64,0v2.806h7.072v-2.806Zm17.129,4.288v2.8h7.083v-2.8Zm-17.14,2.8h7.091v-2.789h-7.091Zm15.649-2.792H-648v2.8h7.08Zm-8.567,7.088v-2.81h-7.074v2.81Zm8.551,0v-2.8H-648v2.8Zm1.485.113a3.86,3.86,0,0,0,.727-.307c.736-.527,1.439-1.1,2.185-1.612a1.842,1.842,0,0,1,.915-.311c.946-.04,1.894-.013,2.842-.016.146,0,.292-.017.427-.026v-.648h-7.1Z" fill="#fff"/>
      <path id="Trazado_289287" data-name="Trazado 289287" d="M-669.447,534.571a.878.878,0,0,1,.895-.554,4.231,4.231,0,0,0,2.058-.607,5.677,5.677,0,0,1,5.884,0,4.293,4.293,0,0,0,4.45,0,5.679,5.679,0,0,1,5.849-.022,4.388,4.388,0,0,0,4.5.023,5.79,5.79,0,0,1,5.9,0,4.373,4.373,0,0,0,4.459,0,5.812,5.812,0,0,1,6.006.058,3.889,3.889,0,0,0,1.864.541,2.113,2.113,0,0,1,.291.031.715.715,0,0,1,.673.756.722.722,0,0,1-.786.651,5.266,5.266,0,0,1-2.49-.608,5.329,5.329,0,0,0-2.307-.791,4.241,4.241,0,0,0-2.335.5,6.179,6.179,0,0,1-3.719.866,6.1,6.1,0,0,1-2.4-.787,3.955,3.955,0,0,0-2.606-.553,6.148,6.148,0,0,0-1.77.563,6.364,6.364,0,0,1-3.577.774,5.537,5.537,0,0,1-2.251-.712,4.466,4.466,0,0,0-4.714.007,5.478,5.478,0,0,1-5.619,0,4.445,4.445,0,0,0-4.713.007,5.426,5.426,0,0,1-2.458.729,1.06,1.06,0,0,1-1.075-.453Z" transform="translate(0 -232.565)" fill="#fff"/>
      <path id="Trazado_289288" data-name="Trazado 289288" d="M-524.524,454.247c-.723,0-1.051-.226-1.044-.719s.345-.707,1.067-.707h.125c.592.008.927.273.92.73s-.323.689-.9.7Z" transform="translate(-131.014 -159.928)" fill="#fff"/>
      <path id="Trazado_289289" data-name="Trazado 289289" d="M-484.731,454.256c-.715.008-1.066-.228-1.062-.7s.36-.715,1.073-.711a2.3,2.3,0,0,1,.5.038.685.685,0,0,1,.558.725.685.685,0,0,1-.648.651A4.079,4.079,0,0,1-484.731,454.256Z" transform="translate(-167.232 -159.944)" fill="#fff"/>
      <path id="Trazado_289290" data-name="Trazado 289290" d="M-404.7,454.275a2.929,2.929,0,0,1-.458,0,.648.648,0,0,1-.6-.641.615.615,0,0,1,.5-.711,3.391,3.391,0,0,1,.951-.038.685.685,0,0,1,.65.731.7.7,0,0,1-.713.671c-.111.007-.222,0-.334,0Z" transform="translate(-240.105 -159.968)" fill="#fff"/>
      <path id="Trazado_289291" data-name="Trazado 289291" d="M-364.948,454.244c-.727,0-1.068-.22-1.077-.7s.354-.731,1.1-.73c.056,0,.111,0,.167,0,.531.015.863.284.871.707s-.332.711-.89.719Z" transform="translate(-276.291 -159.924)" fill="#fff"/>
      <path id="Trazado_289292" data-name="Trazado 289292" d="M-285.022,454.247c-.723,0-1.05-.227-1.042-.72s.345-.706,1.068-.706h.125c.592.008.926.274.919.731s-.323.688-.9.694Z" transform="translate(-349.101 -159.928)" fill="#fff"/>
      <path id="Trazado_289293" data-name="Trazado 289293" d="M-604.458,454.248c-.709,0-1.06-.24-1.045-.722s.355-.7,1.041-.7a2.746,2.746,0,0,1,.458.02.724.724,0,0,1,.631.717.718.718,0,0,1-.709.683C-604.207,454.256-604.333,454.248-604.458,454.248Z" transform="translate(-58.226 -159.932)" fill="#fff"/>
      <path id="Trazado_289294" data-name="Trazado 289294" d="M-564.514,454.186c-.083,0-.167,0-.25,0-.5-.016-.81-.293-.808-.71a.736.736,0,0,1,.773-.712,4.009,4.009,0,0,1,.667.008.7.7,0,0,1,.674.751.693.693,0,0,1-.722.659c-.111.007-.222,0-.334,0Z" transform="translate(-94.587 -159.867)" fill="#fff"/>
      <path id="Trazado_289295" data-name="Trazado 289295" d="M-444.752,454.177c-.1,0-.195,0-.292,0a.72.72,0,0,1-.773-.7.729.729,0,0,1,.724-.715,3.889,3.889,0,0,1,.708,0,.7.7,0,0,1,.682.745.691.691,0,0,1-.715.666c-.111.007-.222,0-.334,0Z" transform="translate(-203.634 -159.859)" fill="#fff"/>
      <path id="Trazado_289296" data-name="Trazado 289296" d="M-325.024,454.258c-.713.007-1.057-.232-1.045-.716.012-.466.358-.7,1.036-.7a2.349,2.349,0,0,1,.537.041.651.651,0,0,1,.537.733.671.671,0,0,1-.649.64C-324.745,454.27-324.885,454.258-325.024,454.258Z" transform="translate(-312.674 -159.946)" fill="#fff"/>
      <path id="Trazado_289297" data-name="Trazado 289297" d="M-612.356,318.5c-.1,0-.195,0-.292,0a.707.707,0,0,1-.763-.709.709.709,0,0,1,.725-.709,4.794,4.794,0,0,1,.626,0,.713.713,0,0,1,.762.716.7.7,0,0,1-.765.706C-612.161,318.5-612.259,318.5-612.356,318.5Z" transform="translate(-51.025 -36.31)" fill="#fff"/>
    </g>
  </g>
</svg>
