<svg xmlns="http://www.w3.org/2000/svg" width="466.691" height="291.901" viewBox="0 0 466.691 291.901">
  <g id="Grupo_581295" data-name="Grupo 581295" transform="translate(-4629.057 -1409.35)">
    <path id="Trazado_292342" data-name="Trazado 292342" d="M5053.855,2018.254s25.085,2.3,39.638-29.569c21.346-46.746-.457-107.573-52.282-110.769-74.748-4.61-31.125-105.97-149.074-73.59-33.166,9.1-105.3-37.9-147.768,41.741-7.221,13.542-28.807,12.877-57.565,35.978-50.731,40.752-32.468,136.64,10.276,137.076S5053.855,2018.254,5053.855,2018.254Z" transform="translate(-22.123 -318.011)" fill="#fcecdb"/>
    <path id="Trazado_292343" data-name="Trazado 292343" d="M4922.857,2857.49s1.558-10.209,21.439-12.956,38.366-24.769,71.152-21.572,59.991,23.251,97.311,17.106,60.688,1.688,69.06,7.865,43.015-1.45,45.573,9.869Z" transform="translate(-240.427 -1156.552)" fill="#a8d29f"/>
    <path id="Trazado_292344" data-name="Trazado 292344" d="M5309.576,1675.322s-22.438-1.1-10.535,67.289c0,0,8.008,23.213-2.1,38.175h148.806V1675.322Z" transform="translate(-545.424 -217.654)" fill="#afcdfb"/>
    <g id="Grupo_581280" data-name="Grupo 581280" transform="translate(4899.542 1471.982)">
      <path id="Trazado_292345" data-name="Trazado 292345" d="M6237.1,1775.164s-7.48-14.114,3.728-19.489c0,0,7.9-2.645,13.49-1.027,0,0-11.062,11.661-8.765,13.585s11.389-13.882,11.389-13.882,16.165,2.025,20.7,5.616c0,0-16.014,8.025-13.313,9.324s19.751-6.277,19.751-6.277,14.16,5.818,11.354,14.623-8.175,8.41-10.351,7.67-12.637-10.86-15.122-4.864c-.726,1.751,5.813,9.5,11.248,11.016,0,0-12.956,9.112-19.111,4.256s-5.566-10.226-9.424-13.157-7.531-3.753-6.207-1.35,8.67,6.1,10.151,11,3.027,8.334-3.869,5.654-17.323-10.513-16.487-16.608Z" transform="translate(-6213.46 -1754.124)" fill="#82b378"/>
      <g id="Grupo_581279" data-name="Grupo 581279" transform="translate(0 17.105)">
        <path id="Trazado_292346" data-name="Trazado 292346" d="M6245.153,1853.305s-39.643-10.538-51.047-1.088a29.642,29.642,0,0,1-10.477,9.384l-1.512,2.343s8.574-5.747,11.153-5.631C6193.27,1858.313,6192.58,1843.271,6245.153,1853.305Z" transform="translate(-6170.469 -1848.282)" fill="#82b378"/>
        <path id="Trazado_292347" data-name="Trazado 292347" d="M6131.156,1919.169a25.74,25.74,0,0,0-13.16,15.625l1.526.49s5.38-11.111,11.367-14.583S6131.156,1919.169,6131.156,1919.169Z" transform="translate(-6117.996 -1905.85)" fill="#599dad"/>
      </g>
    </g>
    <g id="Grupo_581282" data-name="Grupo 581282" transform="translate(4859.003 1409.35)">
      <path id="Trazado_292348" data-name="Trazado 292348" d="M5909.763,1467.565s-22.152-11.553-12.477-28.416c0,0,7.832-10.411,16.47-13.285,0,0-3.913,24.833.752,25.276s2.365-27.986,2.365-27.986,22.623-11.724,31.655-11.12c0,0-13.518,24.538-8.887,23.818s19.883-25.6,19.883-25.6,23.4-5.059,27.595,8.774-1.7,20.987-5.162,21.962-25.839,1.351-25.172,4.239,15.914,7.086,24.261,4.221c0,0-8.613,23.229-20.85,22.43s-16.238-8.24-23.81-8.6-13.03,1.842-9.193,3.763,16.58.173,22.835,5.178,11.29,8.054.028,10.715-31.641,1.815-35.968-6.78Z" transform="translate(-5894.84 -1409.35)" fill="#a8d29f"/>
      <g id="Grupo_581281" data-name="Grupo 581281" transform="translate(4.646 14.355)">
        <path id="Trazado_292349" data-name="Trazado 292349" d="M6020.4,1488.368s-60.422,21.573-66.737,43.86a46.367,46.367,0,0,1-5.179,21.382l.13,4.358s5.951-15.007,9.376-17.145C5957.986,1540.823,5943.76,1522.055,6020.4,1488.368Z" transform="translate(-5943.381 -1488.368)" fill="#82b378"/>
        <path id="Trazado_292350" data-name="Trazado 292350" d="M5925.513,1834.917s-8.983,14.568-3.1,31.8l2.4-.722s-2.92-19.086,1.716-28.868S5925.513,1834.917,5925.513,1834.917Z" transform="translate(-5920.414 -1769.674)" fill="#6bb7bf"/>
      </g>
    </g>
    <rect id="Rectángulo_212517" data-name="Rectángulo 212517" width="155.358" height="202.608" transform="translate(4773.588 1498.146)" fill="#9abcef"/>
    <rect id="Rectángulo_212518" data-name="Rectángulo 212518" width="152.746" height="202.608" transform="translate(4778.667 1498.146)" fill="#e9f3fe"/>
    <path id="Trazado_292351" data-name="Trazado 292351" d="M5546.186,1715.8l0,0H5393.437c.845-11.551-.428-19.938-2.468-25.97-3.917-11.6-10.668-14.508-10.668-14.508h144.055c12.3,0,21.829,7.407,24.424,17.239.1.37.187.738.265,1.106C5551.508,1704.916,5546.287,1715.593,5546.186,1715.8Z" transform="translate(-614.77 -217.656)" fill="#e9f3fe"/>
    <path id="Trazado_292352" data-name="Trazado 292352" d="M5594.244,1781.151l0,0H5441.495c.845-11.551-.428-19.938-2.468-25.97,15.61,2.858,54.272,8.949,95.654,7.923,26.772-.664,47.928-2.456,62.421-4.086C5599.565,1770.269,5594.345,1780.945,5594.244,1781.151Z" transform="translate(-662.828 -283.008)" fill="#d8e8fd"/>
    <path id="Trazado_292353" data-name="Trazado 292353" d="M6305.613,2903.246s4.717-16.4,10.25-14.466S6305.613,2903.246,6305.613,2903.246Z" transform="translate(-1371.987 -1210.543)" fill="#a8d29f"/>
    <path id="Trazado_292354" data-name="Trazado 292354" d="M6329.31,2937.49s12.041-7.9,14.687-5.461S6329.31,2937.49,6329.31,2937.49Z" transform="translate(-1391.379 -1245.681)" fill="#a8d29f"/>
    <g id="Grupo_581284" data-name="Grupo 581284" transform="translate(4788.252 1517.351)">
      <rect id="Rectángulo_212519" data-name="Rectángulo 212519" width="134.629" height="7.7" fill="#a8c3f7"/>
      <rect id="Rectángulo_212520" data-name="Rectángulo 212520" width="134.629" height="3.532" transform="translate(0 46.993)" fill="#a8c3f7"/>
      <rect id="Rectángulo_212521" data-name="Rectángulo 212521" width="134.629" height="3.532" transform="translate(0 55.304)" fill="#a8c3f7"/>
      <rect id="Rectángulo_212522" data-name="Rectángulo 212522" width="134.629" height="3.532" transform="translate(0 63.614)" fill="#a8c3f7"/>
      <rect id="Rectángulo_212523" data-name="Rectángulo 212523" width="134.629" height="3.532" transform="translate(0 71.924)" fill="#a8c3f7"/>
      <rect id="Rectángulo_212524" data-name="Rectángulo 212524" width="134.629" height="3.532" transform="translate(0 80.235)" fill="#a8c3f7"/>
      <rect id="Rectángulo_212525" data-name="Rectángulo 212525" width="134.629" height="3.532" transform="translate(0 88.545)" fill="#a8c3f7"/>
      <g id="Grupo_581283" data-name="Grupo 581283" transform="translate(18.646 126.422)">
        <path id="Trazado_292355" data-name="Trazado 292355" d="M5628.794,2710.169a10.388,10.388,0,1,1-10.388-10.388A10.388,10.388,0,0,1,5628.794,2710.169Z" transform="translate(-5608.018 -2699.781)" fill="#a8c3f7"/>
        <path id="Trazado_292356" data-name="Trazado 292356" d="M5959.451,2724.643a.507.507,0,0,1-.087-.008.519.519,0,0,1-.425-.6c.1-.57,2.46-14.01,9.914-18.584a.806.806,0,0,1,1.016-.026c.654.56.156,1.986-2.088,7.368-.894,2.145-1.954,4.688-2.391,6.233.794-1.041,1.982-2.823,2.926-4.24,2.948-4.426,3.522-5.147,4.1-5.147a.631.631,0,0,1,.525.272c.313.449.076,1.2-.738,3.406a24.925,24.925,0,0,0-.929,2.836,15.207,15.207,0,0,0,1.42-1.68c1.021-1.33,1.54-1.965,2.149-1.869a.745.745,0,0,1,.587.523,3.019,3.019,0,0,1,.122.568,1.786,1.786,0,0,0,.812,1.5c1.294.73,5.023.688,15.439-3.655a.519.519,0,1,1,.4.959c-8.8,3.667-14.144,4.845-16.35,3.6a2.76,2.76,0,0,1-1.326-2.232c-.3.312-.708.848-1.009,1.241-1.127,1.468-1.869,2.351-2.624,2.289a.712.712,0,0,1-.551-.334c-.361-.569-.008-1.687.885-4.1.143-.386.307-.831.449-1.243-.721.985-1.7,2.456-2.494,3.648-3.3,4.957-3.9,5.677-4.565,5.494a.646.646,0,0,1-.465-.637c-.066-1.16,1.015-3.852,2.672-7.827a55.981,55.981,0,0,0,2.217-5.828c-6.779,4.554-9.054,17.511-9.077,17.644A.52.52,0,0,1,5959.451,2724.643Zm11.5-8.28Z" transform="translate(-5895.183 -2704.269)" fill="#a8c3f7"/>
      </g>
    </g>
    <g id="Grupo_581287" data-name="Grupo 581287" transform="translate(4701.099 1462.463)">
      <path id="Trazado_292357" data-name="Trazado 292357" d="M5251.016,1849.677l-.008,1.553s.423,4.856-5.557,5.565-10.883.618-10.721-3.13a79.049,79.049,0,0,0,1.543-9.806,16.83,16.83,0,0,0-.212-2.908l11.587-.231,3.413.557Z" transform="translate(-5196.74 -1815.469)" fill="#ffb27d"/>
      <path id="Trazado_292358" data-name="Trazado 292358" d="M5257.073,1841.277l-.044,8.4a9.8,9.8,0,0,1-4.177.922c-5.325,0-8.767-3.905-10.566-6.739a16.932,16.932,0,0,0-.213-2.908l11.587-.231Z" transform="translate(-5202.752 -1815.469)" fill="#e2915a"/>
      <path id="Trazado_292359" data-name="Trazado 292359" d="M5228.66,1749.646c1.344,7.235,10.68,7,14.715,6.543,1.135-.126,1.85-.271,1.85-.271,1.28-.342,1.995-2.358,2.326-5,.659-5.227-.173-12.9-1.056-14.863-1.329-2.953-3.832-6.147-13.234-3.843S5226.935,1740.376,5228.66,1749.646Z" transform="translate(-5190.227 -1726.029)" fill="#ffb27d"/>
      <path id="Trazado_292360" data-name="Trazado 292360" d="M5195.136,2974.409h13.229a31.876,31.876,0,0,0-1.055-4.749,13.482,13.482,0,0,0-.749-1.906c-1.287-2.568-9.458-.935-9.458-.935s-.759.65-1.352,3.134A26.336,26.336,0,0,0,5195.136,2974.409Z" transform="translate(-5164.342 -2736.58)" fill="#233862"/>
      <path id="Trazado_292361" data-name="Trazado 292361" d="M5415.165,2945.979c.036,1.8.263,3.5.916,4.175h26.167c-.333-.947-1.274-2.371-3.96-2.807-3.053-.494-7.811-1.963-10.589-4.9a7.887,7.887,0,0,1-2.05-3.713c-1.231-5.481-10.179,1.679-10.179,1.679A44.4,44.4,0,0,0,5415.165,2945.979Z" transform="translate(-5344.395 -2712.324)" fill="#233862"/>
      <path id="Trazado_292362" data-name="Trazado 292362" d="M5260.133,2361.121a41.228,41.228,0,0,1,.657,4.834c.832,16.225,13.658,53.325,15.953,54.19,3.55,1.34,9.14-1.508,12.064-2.44a2.508,2.508,0,0,0,1.76-2.849c-6.352-29.2-8.687-71.25-9.536-96.145a112.97,112.97,0,0,0-2.582-21.2s-31.283-8.347-31.469,2.212C5246.816,2309.066,5257.344,2345.708,5260.133,2361.121Z" transform="translate(-5206.768 -2186.715)" fill="#2b478b"/>
      <path id="Trazado_292363" data-name="Trazado 292363" d="M5260.133,2361.121l20.9-42.409a112.97,112.97,0,0,0-2.582-21.2s-31.283-8.347-31.469,2.212C5246.816,2309.066,5257.344,2345.708,5260.133,2361.121Z" transform="translate(-5206.768 -2186.715)" fill="#233862"/>
      <path id="Trazado_292364" data-name="Trazado 292364" d="M5199.625,2306.822l-16.538,119.86s-7.263,1.751-12.911.35c0,0-4.842-63.747-4.438-79.158s-3.475-41.238.885-44.086S5199.625,2306.822,5199.625,2306.822Z" transform="translate(-5139.298 -2193.777)" fill="#2b478b"/>
      <path id="Trazado_292365" data-name="Trazado 292365" d="M5230.928,1704.863a31.1,31.1,0,0,1-9.019-2.44c-3.962-1.723-8.96.174-10.582,1.029a2.412,2.412,0,0,1,.4-.976,2.178,2.178,0,0,0-.836,1.239c-.075.055-.108.094-.089.106a2.8,2.8,0,0,0-1.357.088s.372-.053.5.186a.232.232,0,0,0,.06.066c-6.18,2.986-6.75,12.752-4.762,15.012,2.393,2.719,5.262,8.842,5.262,8.842a5.25,5.25,0,0,0,.611-3.839c-.435-2.393,1.632-2.393,4.242-3.48s.435-4.133,2.719-5.982,10.658-.761,10.549-2.175C5231.733,1711.405,5230.928,1705.181,5230.928,1704.863Z" transform="translate(-5171.775 -1701.723)" fill="#233862"/>
      <path id="Trazado_292366" data-name="Trazado 292366" d="M5226.983,1923.44l3.808,81.7s31.779.519,30.872-6.672-11.455-72.522-11.455-72.522l-23.225-2.5Z" transform="translate(-5190.404 -1883.162)" fill="#e9f3fe"/>
      <path id="Trazado_292367" data-name="Trazado 292367" d="M5137.021,1956.061c1.891,5.672-1.674,24.7-2.944,31.151-.279,1.364-.465,2.17-.465,2.17,4.4,7.159,20.52,7.067,20.52,7.067,3.1-13.7,4.711-35.521,4.711-35.521l-12.367-54.212-15.56,14.382s1.178,8.772,2.635,17.7C5134.7,1945.863,5136,1953.054,5137.021,1956.061Z" transform="translate(-5111.788 -1869.476)" fill="#22407a"/>
      <path id="Trazado_292368" data-name="Trazado 292368" d="M5310.11,1834.39s.3.933,2.657.593c0,0,1.978-.286,1.831-1.327A6.416,6.416,0,0,0,5310.11,1834.39Z" transform="translate(-5258.43 -1809.582)" fill="#fff"/>
      <path id="Trazado_292369" data-name="Trazado 292369" d="M5347.552,1911.663l.007.034c.751.729,21.966,21.326,26.076,29.394,4.185,8.183-19.124,24.486-19.124,24.486a5.427,5.427,0,0,1-2.541.361c1.1,9.048,2.333,17.4,1.6,20.961-1.321,6.441-7.279,8.6-7.279,8.109,0-.157-1.535-23.486-3.362-35.536-4.056-26.745-8.893-51.846-8.893-51.846A44.725,44.725,0,0,1,5347.552,1911.663Zm12.631,32.962a.187.187,0,0,0,.031-.124c0-1.178-4.495-3.782-9.361-6.85l-.093-.094-.009-.006c.086,2.507.077,4.966-.072,7.256a92.836,92.836,0,0,0,.546,14.49C5353.542,1955.68,5359.73,1945.958,5360.183,1944.625Z" transform="translate(-5278.01 -1870.221)" fill="#22407a"/>
      <g id="Grupo_581286" data-name="Grupo 581286" transform="translate(35.678 34.354)">
        <path id="Trazado_292370" data-name="Trazado 292370" d="M5222.025,1897.814c-.039-.78,3.654-1.857,3.654-1.857s4.227,5.861,11.191,5.962c0,0-1.984,3.862-4.323,4.862C5232.546,1906.781,5222.254,1902.444,5222.025,1897.814Z" transform="translate(-5222.024 -1895.026)" fill="#d9e9f9"/>
        <g id="Grupo_581285" data-name="Grupo 581285" transform="translate(14.319 7.971)">
          <path id="Trazado_292371" data-name="Trazado 292371" d="M5311.154,1988.844a7.711,7.711,0,0,1-2.456,4.984l-2.216,2.042a1.3,1.3,0,0,1-1.9-.152l-2.745-3.486a4.626,4.626,0,0,1-.97-3.3c.257-2.638.735-7.72,1.118-12.625.312-3.974.562-7.835.58-10.184.06-7.5-1.428-31.415-1.428-31.415l1.8.094a96.292,96.292,0,0,1,6.8,21.914,83.487,83.487,0,0,1,1.243,9.846S5311.921,1980.22,5311.154,1988.844Z" transform="translate(-5300.848 -1934.706)" fill="#c65447"/>
          <path id="Trazado_292372" data-name="Trazado 292372" d="M5311.154,2087.983a7.711,7.711,0,0,1-2.456,4.984l-2.216,2.042a1.3,1.3,0,0,1-1.9-.153l-2.745-3.486a4.626,4.626,0,0,1-.97-3.3c.257-2.637.735-7.72,1.118-12.625,4.968-5.582,6.981-13.3,7.754-19.591a83.49,83.49,0,0,1,1.243,9.846S5311.921,2079.358,5311.154,2087.983Z" transform="translate(-5300.848 -2033.845)" fill="#ba4c43"/>
        </g>
        <path id="Trazado_292373" data-name="Trazado 292373" d="M5303.743,1907.333s3.689-2.187,3.7-4.558c0,0,2.382-.3,3.423.857,0,0,.875,4.063-.286,6.423C5310.583,1910.056,5305.271,1909.246,5303.743,1907.333Z" transform="translate(-5288.898 -1900.577)" fill="#d9e9f9"/>
        <path id="Trazado_292374" data-name="Trazado 292374" d="M5289.012,1920.684l5-1.2a.758.758,0,0,1,.635.872c-.018.815-1.409,3.2-2.025,3.386S5287.829,1922.333,5289.012,1920.684Z" transform="translate(-5276.671 -1914.279)" fill="#ba4c43"/>
        <path id="Trazado_292375" data-name="Trazado 292375" d="M5225.231,1893.215c-.039-.78,2.461-2.386,2.461-2.386s4.837,5.654,11.8,5.755c0,0-1.984,3.862-4.323,4.862C5235.17,1901.447,5225.461,1897.845,5225.231,1893.215Z" transform="translate(-5224.648 -1890.829)" fill="#e9f3fe"/>
        <path id="Trazado_292376" data-name="Trazado 292376" d="M5303.743,1902.921s3.731-1.978,3.744-4.349a11.921,11.921,0,0,1,3.293,2.146,6.848,6.848,0,0,1-.2,4.925S5305.271,1904.834,5303.743,1902.921Z" transform="translate(-5288.898 -1897.165)" fill="#e9f3fe"/>
      </g>
      <path id="Trazado_292377" data-name="Trazado 292377" d="M5423.42,2218.264a3.44,3.44,0,0,0-3.89-3.442,2.128,2.128,0,0,0-1.445.8c-1.417,1.886-2.765,7.373-.254,7.629a5.516,5.516,0,0,0,3.346-1.381c1.027-.781,2.243-2,2.243-3.293Z" transform="translate(-5345.433 -2121.58)" fill="#ffb27d"/>
      <path id="Trazado_292378" data-name="Trazado 292378" d="M5145.946,2131.727c4.556-4.742,12.429-14.072,12.15-21.729-.372-10.724-12.678-26.687-12.678-26.687,1.147,7.067,2.449,14.258,3.472,17.265C5150.781,2106.248,5147.217,2125.279,5145.946,2131.727Z" transform="translate(-5123.657 -2013.99)" fill="#233862"/>
      <path id="Trazado_292379" data-name="Trazado 292379" d="M5143.646,2247.138s3.276,1.638,5.264.819,4.329-1.434,6.551,1.1,2.69,4.285,2.223,5.22-5.65.585-6.51,0-2.22-2.025-3.083-1.773c-2.38.692-4.385-1.124-5.507-2.57C5141.907,2249.057,5143.734,2248.635,5143.646,2247.138Z" transform="translate(-5121.213 -2148.056)" fill="#ffb27d"/>
      <path id="Trazado_292380" data-name="Trazado 292380" d="M5060.313,1906.715s-13.046,1.444-16.123,7.126-19.075,28.706-18.552,38.275,21.824,20.3,21.824,20.3,4.718-1.993,4.789-4.138-14.726-14.964-13.829-17.356,17.19-21.313,18.762-27.551S5060.313,1906.715,5060.313,1906.715Z" transform="translate(-5025.625 -1869.476)" fill="#22407a"/>
      <path id="Trazado_292381" data-name="Trazado 292381" d="M5426,2045.986l.093.094c4.866,3.068,9.361,5.672,9.361,6.85.651-2.077-5.672-10.756-7.718-12.522C5425.656,2038.61,5426,2045.986,5426,2045.986Z" transform="translate(-5353.247 -1978.65)" fill="#233862"/>
      <path id="Trazado_292382" data-name="Trazado 292382" d="M5212.97,1890.829s9.9,41.483,8.328,57.109c0,0-3.642-16.7-12.405-30.377,0,0,3.2-2.812,3.024-3.849a10.944,10.944,0,0,0-4.677-.23s.254-17.882,1.69-19.77A10.468,10.468,0,0,1,5212.97,1890.829Z" transform="translate(-5174.248 -1856.475)" fill="#233862"/>
      <path id="Trazado_292383" data-name="Trazado 292383" d="M5324.346,1898.572c-.134.063,9.815,40.536,10.652,53.491,0,0-.993-23.118-.9-29.78,0,0-4.113-2.178-4.113-2.942s4.388-2.83,4.388-2.83-2.779-14.237-4.3-15.805S5324.346,1898.572,5324.346,1898.572Z" transform="translate(-5270.079 -1862.812)" fill="#233862"/>
    </g>
    <g id="Grupo_581288" data-name="Grupo 581288" transform="translate(4657.839 1669.275)">
      <path id="Trazado_292384" data-name="Trazado 292384" d="M4815.146,2894.4l28.709-.033a6.813,6.813,0,0,0,6.785-6.8l-.015-12.441a6.813,6.813,0,0,0-6.8-6.786l-28.709.033a6.813,6.813,0,0,0-6.785,6.8l.015,12.441A6.813,6.813,0,0,0,4815.146,2894.4Z" transform="translate(-4804.546 -2863.216)" fill="#233862"/>
      <path id="Trazado_292385" data-name="Trazado 292385" d="M4828.884,2848.519v0a6.843,6.843,0,0,0-5.245-3.4h-.007c-.22-.021-.441-.033-.667-.033l-5.717.008,0-2.685a2.251,2.251,0,0,0-2.252-2.247H4813.5l-6,.007-1.083,0a2.252,2.252,0,0,0-2.247,2.252l0,2.685-9.867.01a6.841,6.841,0,0,0-6.812,6.826l.016,12.586a6.837,6.837,0,0,0,6.826,6.81l28.657-.032a6.666,6.666,0,0,0,1.471-.164h0a6.7,6.7,0,0,0,2.113-.868,6.832,6.832,0,0,0,3.223-5.795l-.015-12.584A6.753,6.753,0,0,0,4828.884,2848.519Zm-23.3-6.1a.841.841,0,0,1,.59-.8.852.852,0,0,1,.25-.039l1.275,0,4.724,0,2.575,0a.84.84,0,0,1,.841.838l0,2.685-10.255.011Z" transform="translate(-4787.494 -2840.159)" fill="#2b478b"/>
    </g>
    <path id="Rectángulo_212526" data-name="Rectángulo 212526" d="M.5,0h465.7a.5.5,0,0,1,.5.5v0a.5.5,0,0,1-.5.5H.5A.5.5,0,0,1,0,.5v0A.5.5,0,0,1,.5,0Z" transform="translate(4629.057 1700.257)" fill="#1c468a"/>
    <g id="Grupo_581291" data-name="Grupo 581291" transform="translate(4872.414 1462.463)">
      <path id="Trazado_292386" data-name="Trazado 292386" d="M6282.208,1957.986c1.281,2.584,3.34,5.524,5.241,6.11a7.085,7.085,0,0,1,3.145,1.818l1.565-1.141,1.868-1.364s-.07-.216-.205-.566-.334-.832-.594-1.363a1.936,1.936,0,0,1-.422-1.745,4.131,4.131,0,0,0-.7-3.4c-.735-.86-1.589-3.08-1.966-2.972-.914.257.8,3.252.464,3.876a.69.69,0,0,1-.861.4l-.017-.007c-2.73-.875-6.541-6.729-7.855-5.748C6281.383,1952.251,6281.663,1956.885,6282.208,1957.986Z" transform="translate(-6224.766 -1906.348)" fill="#ffb27d"/>
      <path id="Trazado_292387" data-name="Trazado 292387" d="M6370.039,1950.491s-12.729,19.5-18.457,25.231l-23.222-15.193a8.12,8.12,0,0,0-4.374,4.507s15.171,26.646,28.52,27,29.89-34.888,29.89-34.888Z" transform="translate(-6259.436 -1905.299)" fill="#ed7d2b"/>
      <g id="Grupo_581289" data-name="Grupo 581289" transform="translate(100.05 107.473)">
        <path id="Trazado_292388" data-name="Trazado 292388" d="M6827.668,2926.064h9.663a5.858,5.858,0,0,0,2.643-4.428c.472-3.113,3.961-4.811,4.716-7.358s-3.113-6.129-3.113-6.129l-.647-.834-.673-.865-6.414,1.51s-.159,1.528-.255,3.474a44.288,44.288,0,0,0-.028,4.448c.188,3.4-.949,7.052-3.967,7.713C6827.363,2924.083,6827.463,2925.406,6827.668,2926.064Z" transform="translate(-6771.585 -2795.068)" fill="#233862"/>
        <path id="Trazado_292389" data-name="Trazado 292389" d="M6519.4,2963.51h22.1c1.063-1.3.671-6.083.511-7.646-.033-.315-.056-.5-.056-.5s-7.546-6.036-8.583-1.414c-.032.145-.07.287-.112.427-1.305,4.323-7.163,6.288-10.546,6.835C6520.513,2961.57,6519.7,2962.713,6519.4,2963.51Z" transform="translate(-6519.4 -2832.515)" fill="#233862"/>
        <path id="Trazado_292390" data-name="Trazado 292390" d="M6542.578,2326.458s1.146,14.3,2.493,31.482c1.83,23.345,4.032,52.021,4.249,57.453.377,9.433,1.888,24.522,1.888,24.522s3.582,3.584,10.751,2.074a246.833,246.833,0,0,0,8.213-44.33c.028-.374.057-.75.085-1.126,1.7-23.2,4.337-72.055,4.337-72.055Z" transform="translate(-6538.368 -2318.818)" fill="#22407a"/>
        <path id="Trazado_292391" data-name="Trazado 292391" d="M6542.578,2326.458s1.146,14.3,2.493,31.482l25.1,39.719c.028-.374.057-.75.085-1.126,1.7-23.2,4.337-72.055,4.337-72.055Z" transform="translate(-6538.368 -2318.818)" fill="#233862"/>
        <path id="Trazado_292392" data-name="Trazado 292392" d="M6571.385,2302.665s20.654,51.777,34.235,76.11,17.825,31.123,17.825,31.123,7.781-3.112,8.488-5.234c0,0-5.193-46.975-14.288-58.426-5.139-6.471-11.176-25.889-11.459-32.679s-1.839-20.23-1.839-20.23Z" transform="translate(-6561.941 -2293.328)" fill="#22407a"/>
      </g>
      <path id="Trazado_292393" data-name="Trazado 292393" d="M6599.687,1832.267c8.071,2.547,22.037-4.327,22.037-4.327s-7.441-5.585-7.051-17.2l-6.241,5.029-4.239,3.416a50.81,50.81,0,0,0,.481,5.543c.123.928.274,1.963.467,3.094A19.322,19.322,0,0,0,6599.687,1832.267Z" transform="translate(-6485.052 -1790.938)" fill="#ffb27d"/>
      <path id="Trazado_292394" data-name="Trazado 292394" d="M6624.484,1841.3a50.81,50.81,0,0,0,.481,5.543c4.7-.806,10.025-8.4,10.025-8.4a14.962,14.962,0,0,0-6.267-.561Z" transform="translate(-6505.344 -1813.048)" fill="#ed975d"/>
      <path id="Trazado_292395" data-name="Trazado 292395" d="M6599.179,1756.824s13.332,2.215,14.583-6.109,3.815-13.643-4.644-15.409-10.594,1.161-11.688,3.837S6595.743,1756.034,6599.179,1756.824Z" transform="translate(-6482.508 -1728.766)" fill="#ffb27d"/>
      <path id="Trazado_292396" data-name="Trazado 292396" d="M6536.467,1970.242a1.3,1.3,0,0,0,.848.323c3.031-.041,11.869,1.642,19.348.874a55.716,55.716,0,0,0,17.877-5.159c.8-.357,2.627-1.334,2.586-2.224-.027-.974-.124-2.386-.245-4.166a222.874,222.874,0,0,1-.442-29.1c.129-2.286.2-4.553.206-6.785.062-16.635-3.237-31.266-9.865-36.218-.566-.406-4.042,1.293-7.235,2.868a13.219,13.219,0,0,1-8.689,1.052l-2.788,2.465a27.86,27.86,0,0,0-8.73,13.943c-1.375,5.537-2.183,15.521-2.627,25.868-.2,4.688-.364,9.418-.406,13.9v.161c-.039.445-.039.931-.039,1.375C6536.1,1960.945,6536.265,1970.079,6536.467,1970.242Z" transform="translate(-6433.097 -1853.939)" fill="#f99746"/>
      <path id="Trazado_292397" data-name="Trazado 292397" d="M6701.964,2071.264a222.877,222.877,0,0,1-.442-29.1c.129-2.286.2-4.553.206-6.785-2.761-6.7-5.018-11.555-5.018-11.555h-6.959S6684.648,2058.677,6701.964,2071.264Z" transform="translate(-6558.18 -1965.312)" fill="#ed7d2b"/>
      <path id="Trazado_292398" data-name="Trazado 292398" d="M6598.157,1722.872s-1.368-.229-1.147-2.113.218-4.348-1.314-3.888-1.609,1.686-2.238.969-.641-3.734-5.2-3.944-6.412,1.376-8.531.444-2.232-4.14-2.232-4.14a3.647,3.647,0,0,0,1.514,1.51s-3.537-4.837.558-8.155,8.271-1.145,10.64-1c5.221.316,8.593.629,10.3,4.06S6601.507,1719.57,6598.157,1722.872Z" transform="translate(-6466.892 -1701.723)" fill="#233862"/>
      <g id="Grupo_581290" data-name="Grupo 581290" transform="translate(0 2.84)">
        <path id="Trazado_292399" data-name="Trazado 292399" d="M5969.291,1719.827l12.527,7.744,1.4-2.27-12.528-7.744a1.334,1.334,0,0,0-1.836.433h0A1.334,1.334,0,0,0,5969.291,1719.827Z" transform="translate(-5968.658 -1717.358)" fill="#233862"/>
        <path id="Trazado_292400" data-name="Trazado 292400" d="M6130.632,1805.113l-3.36,8.1.066.041-.16.184-.093.226-.066-.041-5.744,6.627s-86.074-53.175-118.409-80.474a2.737,2.737,0,0,1-.559-3.53h0a2.737,2.737,0,0,1,3.408-1.078C6044.588,1751.89,6130.632,1805.113,6130.632,1805.113Z" transform="translate(-5995.858 -1731.751)" fill="#6bb7bf"/>
        <path id="Trazado_292401" data-name="Trazado 292401" d="M6004.175,1735.179a2.714,2.714,0,0,0,.849,1.3c32.335,27.3,118.409,80.474,118.409,80.474l4.542-5.24-.7,1.7.066.041-.16.184-.094.226-.066-.041-5.744,6.627s-86.074-53.175-118.409-80.474a2.738,2.738,0,0,1,1.31-4.788Z" transform="translate(-5995.858 -1731.941)" fill="#599dad"/>
        <path id="Trazado_292402" data-name="Trazado 292402" d="M7086.231,2406.289l-14.9-9.21,4.174-6.751,14.9,9.21a3.968,3.968,0,0,1,1.289,5.462h0A3.969,3.969,0,0,1,7086.231,2406.289Z" transform="translate(-6871.017 -2268.073)" fill="#233862"/>
        <path id="Trazado_292403" data-name="Trazado 292403" d="M6641.905,2124.692l67.659,41.825a10.788,10.788,0,0,0,14.849-3.5h0a10.789,10.789,0,0,0-3.5-14.849l-67.659-41.825a1.857,1.857,0,0,0-2.556.6l-9.392,15.193A1.857,1.857,0,0,0,6641.905,2124.692Z" transform="translate(-6518.88 -2035.449)" fill="#6bb7bf"/>
        <path id="Trazado_292404" data-name="Trazado 292404" d="M6725.324,2224.959a10.82,10.82,0,0,1-.911,1.85h0a10.788,10.788,0,0,1-14.849,3.5l-67.659-41.825a1.856,1.856,0,0,1-.6-2.556l1.182-1.912,69.238,42.8A10.79,10.79,0,0,0,6725.324,2224.959Z" transform="translate(-6518.88 -2099.244)" fill="#599dad"/>
        <path id="Trazado_292405" data-name="Trazado 292405" d="M6755.948,2108.646l6.687,4.253a13.389,13.389,0,0,0,13.458,8.56l39.957,25.413a11.988,11.988,0,0,1,3.678,16.53l-3.824,6.013a2.053,2.053,0,1,0,3.464,2.2l3.825-6.013a16.1,16.1,0,0,0-4.939-22.2l-60.1-38.226a2.053,2.053,0,0,0-2.2,3.464Z" transform="translate(-6612.147 -2034.466)" fill="#2b478b"/>
        <path id="Trazado_292406" data-name="Trazado 292406" d="M6633.918,2127.234l.144-2.917,8.193-13.253-11.522,12.918Z" transform="translate(-6510.458 -2039.542)" fill="#599dad"/>
      </g>
      <path id="Trazado_292407" data-name="Trazado 292407" d="M6827.009,2285.8c-.007-.159-.017-.322-.029-.489-.062-.829-1.621-2.906-1.621-2.906l3.908-2.029,1.548,2.557c2.337,1.86,2.379,1.893,1.954,5.453-.369,3.087,1.65,3.124,1.6,5.328s-2.888,1.121-2.888,1.121c-4.4-2.066-4.766-3.107-4.63-5.2-.417.593-.885.938-1.282.679-.35-.227.348-1.13.652-3.219A3.745,3.745,0,0,1,6827.009,2285.8Z" transform="translate(-6669.728 -2175.26)" fill="#ffb27d"/>
      <path id="Trazado_292408" data-name="Trazado 292408" d="M6686.271,1967.937a22.8,22.8,0,0,1-5.223.29s-7.44-22.983-8.4-25.083-22.1-26.95-22.1-26.95l8.807-22.041s22.867,38.2,25.189,43.564c3.837,8.869,5.169,28.754,5.169,28.754A9.572,9.572,0,0,1,6686.271,1967.937Z" transform="translate(-6526.677 -1859.196)" fill="#f99746"/>
      <path id="Trazado_292409" data-name="Trazado 292409" d="M6281.755,1952.509s-.209-3.391,1.125-3.391,8.137,8.783,8.137,8.783l-.542,1.891Z" transform="translate(-6224.867 -1904.176)" fill="#ffb27d"/>
    </g>
  </g>
</svg>
