<?xml version="1.0" encoding="utf-8"?>
<!-- Generator: Adobe Illustrator 26.2.1, SVG Export Plug-In . SVG Version: 6.00 Build 0)  -->
<svg version="1.1" id="Layer_1" xmlns="http://www.w3.org/2000/svg" xmlns:xlink="http://www.w3.org/1999/xlink" x="0px" y="0px"
	 viewBox="0 0 296 243" style="enable-background:new 0 0 296 243;" xml:space="preserve">
<style type="text/css">
	.st0{fill:#FFCBC5;}
	.st1{enable-background:new    ;}
	.st2{fill:#FF4A36;}
	.st3{fill:none;stroke:#FF8578;}
	.st4{fill:none;}
	.st5{fill:none;stroke:#FF4A36;}
</style>
<g id="Grupo_596862" transform="translate(-284 -2571)">
	<g id="Grupo_595674" transform="translate(50 72)">
		<rect id="Rectángulo_213040" x="248" y="2511" class="st0" width="36" height="35"/>
		<rect id="Rectángulo_213053" x="325" y="2511" class="st0" width="36" height="35"/>
		<rect id="Rectángulo_213060" x="436" y="2511" class="st0" width="36" height="35"/>
		<rect id="Rectángulo_213059" x="360" y="2511" class="st0" width="36" height="35"/>
		<rect id="Rectángulo_213061" x="471" y="2511" class="st0" width="36" height="35"/>
		<rect id="Rectángulo_213047" x="248" y="2639" class="st0" width="36" height="35"/>
		<rect id="Rectángulo_213048" x="325" y="2639" class="st0" width="36" height="35"/>
		<rect id="Rectángulo_213068" x="436" y="2639" class="st0" width="36" height="35"/>
		<rect id="Rectángulo_213054" x="360" y="2639" class="st0" width="36" height="35"/>
		<rect id="Rectángulo_213069" x="471" y="2639" class="st0" width="36" height="35"/>
		<rect id="Rectángulo_213041" x="248" y="2542" class="st0" width="36" height="35"/>
		<rect id="Rectángulo_213052" x="325" y="2542" class="st0" width="36" height="35"/>
		<rect id="Rectángulo_213062" x="436" y="2542" class="st0" width="36" height="35"/>
		<rect id="Rectángulo_213058" x="360" y="2542" class="st0" width="36" height="35"/>
		<rect id="Rectángulo_213063" x="471" y="2542" class="st0" width="36" height="35"/>
		<rect id="Rectángulo_213046" x="248" y="2672" class="st0" width="36" height="35"/>
		<rect id="Rectángulo_213049" x="325" y="2672" class="st0" width="36" height="35"/>
		<rect id="Rectángulo_213070" x="436" y="2672" class="st0" width="36" height="35"/>
		<rect id="Rectángulo_213055" x="360" y="2672" class="st0" width="36" height="35"/>
		<rect id="Rectángulo_213071" x="471" y="2672" class="st0" width="36" height="35"/>
		<rect id="Rectángulo_213042" x="248" y="2573" class="st0" width="36" height="35"/>
		<rect id="Rectángulo_213051" x="325" y="2573" class="st0" width="36" height="35"/>
		<rect id="Rectángulo_213064" x="436" y="2573" class="st0" width="36" height="35"/>
		<rect id="Rectángulo_213057" x="360" y="2573" class="st0" width="36" height="35"/>
		<rect id="Rectángulo_213065" x="471" y="2573" class="st0" width="36" height="35"/>
		<rect id="Rectángulo_213043" x="248" y="2606" class="st0" width="36" height="35"/>
		<rect id="Rectángulo_213050" x="325" y="2606" class="st0" width="36" height="35"/>
		<rect id="Rectángulo_213066" x="436" y="2606" class="st0" width="36" height="35"/>
		<rect id="Rectángulo_213056" x="360" y="2606" class="st0" width="36" height="35"/>
		<rect id="Rectángulo_213067" x="471" y="2606" class="st0" width="36" height="35"/>
		<g class="st1">
			<path class="st2" d="M259.7,2699.2c-3.3,0-5-2.3-5-7c0-2.4,0.5-4.3,1.4-5.6s2.2-1.9,3.9-1.9c3.3,0,4.9,2.4,4.9,7.1
				c0,2.4-0.4,4.2-1.3,5.4S261.3,2699.2,259.7,2699.2z M259.8,2687.1c-1.3,0-2,1.7-2,5c0,3.2,0.7,4.7,2,4.7c1.3,0,1.9-1.6,1.9-4.9
				S261.1,2687.1,259.8,2687.1z"/>
			<path class="st2" d="M273.6,2684.7v14.3h-3.1v-10.8c-0.2,0.1-0.4,0.3-0.6,0.4s-0.5,0.3-0.7,0.4s-0.5,0.2-0.8,0.3
				s-0.6,0.1-0.8,0.2v-2.6c0.8-0.2,1.6-0.5,2.3-0.9s1.4-0.8,1.9-1.2H273.6z"/>
		</g>
		<g class="st1">
			<path class="st2" d="M268.1,2711.7v14.3H265v-10.8c-0.2,0.1-0.4,0.3-0.6,0.4s-0.5,0.3-0.7,0.4s-0.5,0.2-0.8,0.3s-0.6,0.1-0.8,0.2
				v-2.6c0.8-0.2,1.6-0.5,2.3-0.9s1.4-0.8,1.9-1.2H268.1z"/>
		</g>
		<g class="st1">
			<path class="st2" d="M341.2,2723.4h5.9v2.6h-9.3v-1.1c0-0.7,0.1-1.4,0.4-1.9s0.5-1.1,0.9-1.5s0.8-0.9,1.2-1.2s0.8-0.7,1.2-0.9
				c0.4-0.3,0.8-0.6,1.1-0.8s0.6-0.5,0.8-0.8s0.4-0.5,0.5-0.8s0.2-0.6,0.2-0.9c0-0.6-0.2-1.1-0.5-1.4s-0.9-0.5-1.6-0.5
				c-1.2,0-2.4,0.5-3.5,1.4v-2.7c1.2-0.8,2.6-1.2,4.1-1.2c0.7,0,1.3,0.1,1.9,0.3s1,0.5,1.4,0.8s0.7,0.8,0.9,1.3s0.3,1,0.3,1.6
				c0,0.6-0.1,1.2-0.3,1.7s-0.5,1-0.8,1.4s-0.7,0.8-1.1,1.1s-0.9,0.7-1.3,1c-0.3,0.2-0.6,0.4-0.9,0.7s-0.5,0.4-0.8,0.6
				s-0.4,0.4-0.5,0.6S341.2,2723.3,341.2,2723.4z"/>
		</g>
		<g class="st1">
			<path class="st2" d="M373.1,2725.5v-2.7c0.9,0.7,2,1,3.3,1c0.8,0,1.4-0.2,1.8-0.5s0.7-0.8,0.7-1.4c0-0.6-0.3-1.1-0.8-1.4
				s-1.3-0.5-2.2-0.5h-1.3v-2.4h1.2c1.8,0,2.7-0.6,2.7-1.8c0-1.1-0.7-1.7-2.1-1.7c-0.9,0-1.8,0.3-2.7,0.9v-2.5
				c1-0.5,2.1-0.7,3.4-0.7c1.4,0,2.5,0.3,3.3,1s1.2,1.5,1.2,2.5c0,1.8-0.9,3-2.8,3.4v0c1,0.1,1.8,0.5,2.3,1.1s0.9,1.3,0.9,2.2
				c0,1.3-0.5,2.3-1.4,3.1s-2.3,1.1-4,1.1C375.2,2726.2,374,2726,373.1,2725.5z"/>
		</g>
		<g class="st1">
			<path class="st2" d="M457.3,2712v8.8h1.7v2.3h-1.7v2.9h-2.8v-2.9h-6.1v-2.4c0.5-0.6,1.1-1.3,1.7-2s1.1-1.5,1.7-2.2s1-1.5,1.5-2.3
				s0.9-1.5,1.2-2.2H457.3z M451.1,2720.8h3.3v-4.9c-0.2,0.4-0.5,0.9-0.7,1.3s-0.5,0.9-0.8,1.3s-0.6,0.8-0.9,1.2
				S451.4,2720.5,451.1,2720.8z"/>
		</g>
		<g class="st1">
			<path class="st2" d="M478.4,2725.6v-2.6c1,0.6,2,0.9,3.1,0.9c0.8,0,1.5-0.2,1.9-0.6s0.7-0.9,0.7-1.6c0-1.4-1-2.1-2.9-2.1
				c-0.7,0-1.6,0.1-2.5,0.2l0.5-7.8h7.4v2.5h-5.1l-0.2,2.8c0.5,0,0.9-0.1,1.3-0.1c1.4,0,2.6,0.4,3.4,1.1s1.2,1.8,1.2,3
				c0,1.4-0.5,2.6-1.5,3.5s-2.3,1.3-3.9,1.3C480.4,2726.2,479.3,2726,478.4,2725.6z"/>
		</g>
		<g class="st1">
			<path class="st2" d="M371.7,2699.2c-3.3,0-5-2.3-5-7c0-2.4,0.5-4.3,1.4-5.6s2.2-1.9,3.9-1.9c3.3,0,4.9,2.4,4.9,7.1
				c0,2.4-0.4,4.2-1.3,5.4S373.3,2699.2,371.7,2699.2z M371.8,2687.1c-1.3,0-2,1.7-2,5c0,3.2,0.7,4.7,2,4.7c1.3,0,1.9-1.6,1.9-4.9
				S373.1,2687.1,371.8,2687.1z"/>
			<path class="st2" d="M385.6,2684.7v14.3h-3.1v-10.8c-0.2,0.1-0.4,0.3-0.6,0.4s-0.5,0.3-0.7,0.4s-0.5,0.2-0.8,0.3
				s-0.6,0.1-0.8,0.2v-2.6c0.8-0.2,1.6-0.5,2.3-0.9s1.4-0.8,1.9-1.2H385.6z"/>
		</g>
		<g class="st1">
			<path class="st2" d="M483.7,2699.2c-3.3,0-5-2.3-5-7c0-2.4,0.5-4.3,1.4-5.6s2.2-1.9,3.9-1.9c3.3,0,4.9,2.4,4.9,7.1
				c0,2.4-0.4,4.2-1.3,5.4S485.3,2699.2,483.7,2699.2z M483.8,2687.1c-1.3,0-2,1.7-2,5c0,3.2,0.7,4.7,2,4.7c1.3,0,1.9-1.6,1.9-4.9
				S485.1,2687.1,483.8,2687.1z"/>
			<path class="st2" d="M497.6,2684.7v14.3h-3.1v-10.8c-0.2,0.1-0.4,0.3-0.6,0.4s-0.5,0.3-0.7,0.4s-0.5,0.2-0.8,0.3
				s-0.6,0.1-0.8,0.2v-2.6c0.8-0.2,1.6-0.5,2.3-0.9s1.4-0.8,1.9-1.2H497.6z"/>
		</g>
		<g class="st1">
			<path class="st2" d="M336.7,2699.2c-3.3,0-5-2.3-5-7c0-2.4,0.5-4.3,1.4-5.6s2.2-1.9,3.9-1.9c3.3,0,4.9,2.4,4.9,7.1
				c0,2.4-0.4,4.2-1.3,5.4S338.3,2699.2,336.7,2699.2z M336.8,2687.1c-1.3,0-2,1.7-2,5c0,3.2,0.7,4.7,2,4.7c1.3,0,1.9-1.6,1.9-4.9
				S338.1,2687.1,336.8,2687.1z"/>
			<path class="st2" d="M353.3,2694.3c0,0.7-0.1,1.3-0.4,1.9s-0.6,1.1-1,1.6s-0.9,0.8-1.5,1s-1.2,0.4-1.9,0.4
				c-0.8,0-1.5-0.1-2.1-0.4s-1.1-0.7-1.6-1.3s-0.8-1.2-1-2s-0.3-1.7-0.3-2.7c0-1.2,0.1-2.3,0.4-3.3s0.7-1.8,1.3-2.5s1.2-1.2,2-1.6
				s1.7-0.6,2.6-0.6c1.1,0,1.9,0.1,2.5,0.4v2.6c-0.7-0.4-1.5-0.6-2.3-0.6c-0.5,0-1,0.1-1.4,0.3s-0.8,0.5-1.1,0.9s-0.5,0.8-0.7,1.3
				s-0.3,1.1-0.3,1.8h0.1c0.7-0.9,1.6-1.4,2.9-1.4c0.6,0,1.1,0.1,1.6,0.3s0.9,0.5,1.2,0.9s0.6,0.8,0.8,1.4
				S353.3,2693.7,353.3,2694.3z M350.3,2694.5c0-1.5-0.6-2.3-1.8-2.3c-0.3,0-0.5,0.1-0.8,0.2s-0.4,0.3-0.6,0.4s-0.3,0.4-0.4,0.7
				s-0.1,0.5-0.1,0.9c0,0.3,0,0.7,0.1,1s0.2,0.6,0.4,0.8s0.4,0.4,0.6,0.5s0.5,0.2,0.8,0.2s0.5-0.1,0.8-0.2s0.4-0.3,0.6-0.5
				s0.3-0.5,0.4-0.7S350.3,2694.9,350.3,2694.5z"/>
		</g>
		<g class="st1">
			<path class="st2" d="M448.7,2699.2c-3.3,0-5-2.3-5-7c0-2.4,0.5-4.3,1.4-5.6s2.2-1.9,3.9-1.9c3.3,0,4.9,2.4,4.9,7.1
				c0,2.4-0.4,4.2-1.3,5.4S450.3,2699.2,448.7,2699.2z M448.8,2687.1c-1.3,0-2,1.7-2,5c0,3.2,0.7,4.7,2,4.7c1.3,0,1.9-1.6,1.9-4.9
				S450.1,2687.1,448.8,2687.1z"/>
			<path class="st2" d="M465.3,2694.3c0,0.7-0.1,1.3-0.4,1.9s-0.6,1.1-1,1.6s-0.9,0.8-1.5,1s-1.2,0.4-1.9,0.4
				c-0.8,0-1.5-0.1-2.1-0.4s-1.1-0.7-1.6-1.3s-0.8-1.2-1-2s-0.3-1.7-0.3-2.7c0-1.2,0.1-2.3,0.4-3.3s0.7-1.8,1.3-2.5s1.2-1.2,2-1.6
				s1.7-0.6,2.6-0.6c1.1,0,1.9,0.1,2.5,0.4v2.6c-0.7-0.4-1.5-0.6-2.3-0.6c-0.5,0-1,0.1-1.4,0.3s-0.8,0.5-1.1,0.9s-0.5,0.8-0.7,1.3
				s-0.3,1.1-0.3,1.8h0.1c0.7-0.9,1.6-1.4,2.9-1.4c0.6,0,1.1,0.1,1.6,0.3s0.9,0.5,1.2,0.9s0.6,0.8,0.8,1.4
				S465.3,2693.7,465.3,2694.3z M462.3,2694.5c0-1.5-0.6-2.3-1.8-2.3c-0.3,0-0.5,0.1-0.8,0.2s-0.4,0.3-0.6,0.4s-0.3,0.4-0.4,0.7
				s-0.1,0.5-0.1,0.9c0,0.3,0,0.7,0.1,1s0.2,0.6,0.4,0.8s0.4,0.4,0.6,0.5s0.5,0.2,0.8,0.2s0.5-0.1,0.8-0.2s0.4-0.3,0.6-0.5
				s0.3-0.5,0.4-0.7S462.3,2694.9,462.3,2694.5z"/>
		</g>
		<g class="st1">
			<path class="st2" d="M259.7,2665.2c-3.3,0-5-2.3-5-7c0-2.4,0.5-4.3,1.4-5.6s2.2-1.9,3.9-1.9c3.3,0,4.9,2.4,4.9,7.1
				c0,2.4-0.4,4.2-1.3,5.4S261.3,2665.2,259.7,2665.2z M259.8,2653.1c-1.3,0-2,1.7-2,5c0,3.2,0.7,4.7,2,4.7c1.3,0,1.9-1.6,1.9-4.9
				S261.1,2653.1,259.8,2653.1z"/>
			<path class="st2" d="M269.7,2662.4h5.9v2.6h-9.3v-1.1c0-0.7,0.1-1.4,0.4-1.9s0.5-1.1,0.9-1.5s0.8-0.9,1.2-1.2s0.8-0.7,1.2-0.9
				c0.4-0.3,0.8-0.6,1.1-0.8s0.6-0.5,0.8-0.8s0.4-0.5,0.5-0.8s0.2-0.6,0.2-0.9c0-0.6-0.2-1.1-0.5-1.4s-0.9-0.5-1.6-0.5
				c-1.2,0-2.4,0.5-3.5,1.4v-2.7c1.2-0.8,2.6-1.2,4.1-1.2c0.7,0,1.3,0.1,1.9,0.3s1,0.5,1.4,0.8s0.7,0.8,0.9,1.3s0.3,1,0.3,1.6
				c0,0.6-0.1,1.2-0.3,1.7s-0.5,1-0.8,1.4s-0.7,0.8-1.1,1.1s-0.9,0.7-1.3,1c-0.3,0.2-0.6,0.4-0.9,0.7s-0.5,0.4-0.8,0.6
				s-0.4,0.4-0.5,0.6S269.7,2662.3,269.7,2662.4z"/>
		</g>
		<g class="st1">
			<path class="st2" d="M371.7,2665.2c-3.3,0-5-2.3-5-7c0-2.4,0.5-4.3,1.4-5.6s2.2-1.9,3.9-1.9c3.3,0,4.9,2.4,4.9,7.1
				c0,2.4-0.4,4.2-1.3,5.4S373.3,2665.2,371.7,2665.2z M371.8,2653.1c-1.3,0-2,1.7-2,5c0,3.2,0.7,4.7,2,4.7c1.3,0,1.9-1.6,1.9-4.9
				S373.1,2653.1,371.8,2653.1z"/>
			<path class="st2" d="M381.7,2662.4h5.9v2.6h-9.3v-1.1c0-0.7,0.1-1.4,0.4-1.9s0.5-1.1,0.9-1.5s0.8-0.9,1.2-1.2s0.8-0.7,1.2-0.9
				c0.4-0.3,0.8-0.6,1.1-0.8c0.3-0.3,0.6-0.5,0.8-0.8s0.4-0.5,0.5-0.8s0.2-0.6,0.2-0.9c0-0.6-0.2-1.1-0.5-1.4s-0.9-0.5-1.6-0.5
				c-1.2,0-2.4,0.5-3.5,1.4v-2.7c1.2-0.8,2.6-1.2,4.1-1.2c0.7,0,1.3,0.1,1.9,0.3s1,0.5,1.4,0.8s0.7,0.8,0.9,1.3s0.3,1,0.3,1.6
				c0,0.6-0.1,1.2-0.3,1.7s-0.5,1-0.8,1.4s-0.7,0.8-1.1,1.1s-0.9,0.7-1.3,1c-0.3,0.2-0.6,0.4-0.9,0.7c-0.3,0.2-0.5,0.4-0.8,0.6
				s-0.4,0.4-0.5,0.6S381.7,2662.3,381.7,2662.4z"/>
		</g>
		<g class="st1">
			<path class="st2" d="M483.7,2665.2c-3.3,0-5-2.3-5-7c0-2.4,0.5-4.3,1.4-5.6s2.2-1.9,3.9-1.9c3.3,0,4.9,2.4,4.9,7.1
				c0,2.4-0.4,4.2-1.3,5.4S485.3,2665.2,483.7,2665.2z M483.8,2653.1c-1.3,0-2,1.7-2,5c0,3.2,0.7,4.7,2,4.7c1.3,0,1.9-1.6,1.9-4.9
				S485.1,2653.1,483.8,2653.1z"/>
			<path class="st2" d="M493.7,2662.4h5.9v2.6h-9.3v-1.1c0-0.7,0.1-1.4,0.4-1.9s0.5-1.1,0.9-1.5s0.8-0.9,1.2-1.2s0.8-0.7,1.2-0.9
				c0.4-0.3,0.8-0.6,1.1-0.8s0.6-0.5,0.8-0.8s0.4-0.5,0.5-0.8s0.2-0.6,0.2-0.9c0-0.6-0.2-1.1-0.5-1.4s-0.9-0.5-1.6-0.5
				c-1.2,0-2.4,0.5-3.5,1.4v-2.7c1.2-0.8,2.6-1.2,4.1-1.2c0.7,0,1.3,0.1,1.9,0.3s1,0.5,1.4,0.8s0.7,0.8,0.9,1.3s0.3,1,0.3,1.6
				c0,0.6-0.1,1.2-0.3,1.7s-0.5,1-0.8,1.4s-0.7,0.8-1.1,1.1s-0.9,0.7-1.3,1c-0.3,0.2-0.6,0.4-0.9,0.7s-0.5,0.4-0.8,0.6
				s-0.4,0.4-0.5,0.6S493.7,2662.3,493.7,2662.4z"/>
		</g>
		<g class="st1">
			<path class="st2" d="M336.7,2665.2c-3.3,0-5-2.3-5-7c0-2.4,0.5-4.3,1.4-5.6s2.2-1.9,3.9-1.9c3.3,0,4.9,2.4,4.9,7.1
				c0,2.4-0.4,4.2-1.3,5.4S338.3,2665.2,336.7,2665.2z M336.8,2653.1c-1.3,0-2,1.7-2,5c0,3.2,0.7,4.7,2,4.7c1.3,0,1.9-1.6,1.9-4.9
				S338.1,2653.1,336.8,2653.1z"/>
			<path class="st2" d="M343.9,2664.6v-2.6c1,0.6,2,0.9,3.1,0.9c0.8,0,1.5-0.2,1.9-0.6s0.7-0.9,0.7-1.6c0-1.4-1-2.1-2.9-2.1
				c-0.7,0-1.6,0.1-2.5,0.2l0.5-7.8h7.4v2.5H347l-0.2,2.8c0.5,0,0.9-0.1,1.3-0.1c1.4,0,2.6,0.4,3.4,1.1s1.2,1.8,1.2,3
				c0,1.4-0.5,2.6-1.5,3.5s-2.3,1.3-3.9,1.3C345.9,2665.2,344.8,2665,343.9,2664.6z"/>
		</g>
		<g class="st1">
			<path class="st2" d="M448.7,2665.2c-3.3,0-5-2.3-5-7c0-2.4,0.5-4.3,1.4-5.6s2.2-1.9,3.9-1.9c3.3,0,4.9,2.4,4.9,7.1
				c0,2.4-0.4,4.2-1.3,5.4S450.3,2665.2,448.7,2665.2z M448.8,2653.1c-1.3,0-2,1.7-2,5c0,3.2,0.7,4.7,2,4.7c1.3,0,1.9-1.6,1.9-4.9
				S450.1,2653.1,448.8,2653.1z"/>
			<path class="st2" d="M455.9,2664.6v-2.6c1,0.6,2,0.9,3.1,0.9c0.8,0,1.5-0.2,1.9-0.6s0.7-0.9,0.7-1.6c0-1.4-1-2.1-2.9-2.1
				c-0.7,0-1.6,0.1-2.5,0.2l0.5-7.8h7.4v2.5H459l-0.2,2.8c0.5,0,0.9-0.1,1.3-0.1c1.4,0,2.6,0.4,3.4,1.1s1.2,1.8,1.2,3
				c0,1.4-0.5,2.6-1.5,3.5s-2.3,1.3-3.9,1.3C457.9,2665.2,456.8,2665,455.9,2664.6z"/>
		</g>
		<g class="st1">
			<path class="st2" d="M259.7,2632.2c-3.3,0-5-2.3-5-7c0-2.4,0.5-4.3,1.4-5.6s2.2-1.9,3.9-1.9c3.3,0,4.9,2.4,4.9,7.1
				c0,2.4-0.4,4.2-1.3,5.4S261.3,2632.2,259.7,2632.2z M259.8,2620.1c-1.3,0-2,1.7-2,5c0,3.2,0.7,4.7,2,4.7c1.3,0,1.9-1.6,1.9-4.9
				S261.1,2620.1,259.8,2620.1z"/>
			<path class="st2" d="M266.6,2631.5v-2.7c0.9,0.7,2,1,3.3,1c0.8,0,1.4-0.2,1.8-0.5s0.7-0.8,0.7-1.4c0-0.6-0.3-1.1-0.8-1.4
				s-1.3-0.5-2.2-0.5h-1.3v-2.4h1.2c1.8,0,2.7-0.6,2.7-1.8c0-1.1-0.7-1.7-2.1-1.7c-0.9,0-1.8,0.3-2.7,0.9v-2.5
				c1-0.5,2.1-0.7,3.4-0.7c1.4,0,2.5,0.3,3.3,1s1.2,1.5,1.2,2.5c0,1.8-0.9,3-2.8,3.4v0c1,0.1,1.8,0.5,2.3,1.1s0.9,1.3,0.9,2.2
				c0,1.3-0.5,2.3-1.4,3.1s-2.3,1.1-4,1.1C268.7,2632.2,267.6,2632,266.6,2631.5z"/>
		</g>
		<g class="st1">
			<path class="st2" d="M371.7,2632.2c-3.3,0-5-2.3-5-7c0-2.4,0.5-4.3,1.4-5.6s2.2-1.9,3.9-1.9c3.3,0,4.9,2.4,4.9,7.1
				c0,2.4-0.4,4.2-1.3,5.4S373.3,2632.2,371.7,2632.2z M371.8,2620.1c-1.3,0-2,1.7-2,5c0,3.2,0.7,4.7,2,4.7c1.3,0,1.9-1.6,1.9-4.9
				S373.1,2620.1,371.8,2620.1z"/>
			<path class="st2" d="M378.6,2631.5v-2.7c0.9,0.7,2,1,3.3,1c0.8,0,1.4-0.2,1.8-0.5s0.7-0.8,0.7-1.4c0-0.6-0.3-1.1-0.8-1.4
				s-1.3-0.5-2.2-0.5h-1.3v-2.4h1.2c1.8,0,2.7-0.6,2.7-1.8c0-1.1-0.7-1.7-2.1-1.7c-0.9,0-1.8,0.3-2.7,0.9v-2.5
				c1-0.5,2.1-0.7,3.4-0.7c1.4,0,2.5,0.3,3.3,1s1.2,1.5,1.2,2.5c0,1.8-0.9,3-2.8,3.4v0c1,0.1,1.8,0.5,2.3,1.1s0.9,1.3,0.9,2.2
				c0,1.3-0.5,2.3-1.4,3.1s-2.3,1.1-4,1.1C380.7,2632.2,379.6,2632,378.6,2631.5z"/>
		</g>
		<g class="st1">
			<path class="st2" d="M483.7,2632.2c-3.3,0-5-2.3-5-7c0-2.4,0.5-4.3,1.4-5.6s2.2-1.9,3.9-1.9c3.3,0,4.9,2.4,4.9,7.1
				c0,2.4-0.4,4.2-1.3,5.4S485.3,2632.2,483.7,2632.2z M483.8,2620.1c-1.3,0-2,1.7-2,5c0,3.2,0.7,4.7,2,4.7c1.3,0,1.9-1.6,1.9-4.9
				S485.1,2620.1,483.8,2620.1z"/>
			<path class="st2" d="M490.6,2631.5v-2.7c0.9,0.7,2,1,3.3,1c0.8,0,1.4-0.2,1.8-0.5s0.7-0.8,0.7-1.4c0-0.6-0.3-1.1-0.8-1.4
				s-1.3-0.5-2.2-0.5h-1.3v-2.4h1.2c1.8,0,2.7-0.6,2.7-1.8c0-1.1-0.7-1.7-2.1-1.7c-0.9,0-1.8,0.3-2.7,0.9v-2.5
				c1-0.5,2.1-0.7,3.4-0.7c1.4,0,2.5,0.3,3.3,1s1.2,1.5,1.2,2.5c0,1.8-0.9,3-2.8,3.4v0c1,0.1,1.8,0.5,2.3,1.1s0.9,1.3,0.9,2.2
				c0,1.3-0.5,2.3-1.4,3.1s-2.3,1.1-4,1.1C492.7,2632.2,491.6,2632,490.6,2631.5z"/>
		</g>
		<g class="st1">
			<path class="st2" d="M336.7,2632.2c-3.3,0-5-2.3-5-7c0-2.4,0.5-4.3,1.4-5.6s2.2-1.9,3.9-1.9c3.3,0,4.9,2.4,4.9,7.1
				c0,2.4-0.4,4.2-1.3,5.4S338.3,2632.2,336.7,2632.2z M336.8,2620.1c-1.3,0-2,1.7-2,5c0,3.2,0.7,4.7,2,4.7c1.3,0,1.9-1.6,1.9-4.9
				S338.1,2620.1,336.8,2620.1z"/>
			<path class="st2" d="M351.8,2618v8.8h1.7v2.3h-1.7v2.9H349v-2.9h-6.1v-2.4c0.5-0.6,1.1-1.3,1.7-2s1.1-1.5,1.7-2.2s1-1.5,1.5-2.3
				s0.9-1.5,1.2-2.2H351.8z M345.6,2626.8h3.3v-4.9c-0.2,0.4-0.5,0.9-0.7,1.3s-0.5,0.9-0.8,1.3s-0.6,0.8-0.9,1.2
				S345.9,2626.5,345.6,2626.8z"/>
		</g>
		<g class="st1">
			<path class="st2" d="M448.7,2632.2c-3.3,0-5-2.3-5-7c0-2.4,0.5-4.3,1.4-5.6s2.2-1.9,3.9-1.9c3.3,0,4.9,2.4,4.9,7.1
				c0,2.4-0.4,4.2-1.3,5.4S450.3,2632.2,448.7,2632.2z M448.8,2620.1c-1.3,0-2,1.7-2,5c0,3.2,0.7,4.7,2,4.7c1.3,0,1.9-1.6,1.9-4.9
				S450.1,2620.1,448.8,2620.1z"/>
			<path class="st2" d="M463.8,2618v8.8h1.7v2.3h-1.7v2.9H461v-2.9h-6.1v-2.4c0.5-0.6,1.1-1.3,1.7-2s1.1-1.5,1.7-2.2s1-1.5,1.5-2.3
				s0.9-1.5,1.2-2.2H463.8z M457.6,2626.8h3.3v-4.9c-0.2,0.4-0.5,0.9-0.7,1.3s-0.5,0.9-0.8,1.3s-0.6,0.8-0.9,1.2
				S457.9,2626.5,457.6,2626.8z"/>
		</g>
		<g class="st1">
			<path class="st2" d="M259.7,2598.2c-3.3,0-5-2.3-5-7c0-2.4,0.5-4.3,1.4-5.6s2.2-1.9,3.9-1.9c3.3,0,4.9,2.4,4.9,7.1
				c0,2.4-0.4,4.2-1.3,5.4S261.3,2598.2,259.7,2598.2z M259.8,2586.1c-1.3,0-2,1.7-2,5c0,3.2,0.7,4.7,2,4.7c1.3,0,1.9-1.6,1.9-4.9
				S261.1,2586.1,259.8,2586.1z"/>
			<path class="st2" d="M274.8,2584v8.8h1.7v2.3h-1.7v2.9H272v-2.9h-6.1v-2.4c0.5-0.6,1.1-1.3,1.7-2s1.1-1.5,1.7-2.2s1-1.5,1.5-2.3
				s0.9-1.5,1.2-2.2H274.8z M268.6,2592.8h3.3v-4.9c-0.2,0.4-0.5,0.9-0.7,1.3s-0.5,0.9-0.8,1.3s-0.6,0.8-0.9,1.2
				S268.9,2592.5,268.6,2592.8z"/>
		</g>
		<g class="st1">
			<path class="st2" d="M371.7,2598.2c-3.3,0-5-2.3-5-7c0-2.4,0.5-4.3,1.4-5.6s2.2-1.9,3.9-1.9c3.3,0,4.9,2.4,4.9,7.1
				c0,2.4-0.4,4.2-1.3,5.4S373.3,2598.2,371.7,2598.2z M371.8,2586.1c-1.3,0-2,1.7-2,5c0,3.2,0.7,4.7,2,4.7c1.3,0,1.9-1.6,1.9-4.9
				S373.1,2586.1,371.8,2586.1z"/>
			<path class="st2" d="M386.8,2584v8.8h1.7v2.3h-1.7v2.9H384v-2.9h-6.1v-2.4c0.5-0.6,1.1-1.3,1.7-2s1.1-1.5,1.7-2.2s1-1.5,1.5-2.3
				c0.5-0.8,0.9-1.5,1.2-2.2H386.8z M380.6,2592.8h3.3v-4.9c-0.2,0.4-0.5,0.9-0.7,1.3c-0.3,0.4-0.5,0.9-0.8,1.3s-0.6,0.8-0.9,1.2
				S380.9,2592.5,380.6,2592.8z"/>
		</g>
		<g class="st1">
			<path class="st2" d="M483.7,2598.2c-3.3,0-5-2.3-5-7c0-2.4,0.5-4.3,1.4-5.6s2.2-1.9,3.9-1.9c3.3,0,4.9,2.4,4.9,7.1
				c0,2.4-0.4,4.2-1.3,5.4S485.3,2598.2,483.7,2598.2z M483.8,2586.1c-1.3,0-2,1.7-2,5c0,3.2,0.7,4.7,2,4.7c1.3,0,1.9-1.6,1.9-4.9
				S485.1,2586.1,483.8,2586.1z"/>
			<path class="st2" d="M498.8,2584v8.8h1.7v2.3h-1.7v2.9H496v-2.9h-6.1v-2.4c0.5-0.6,1.1-1.3,1.7-2s1.1-1.5,1.7-2.2s1-1.5,1.5-2.3
				s0.9-1.5,1.2-2.2H498.8z M492.6,2592.8h3.3v-4.9c-0.2,0.4-0.5,0.9-0.7,1.3s-0.5,0.9-0.8,1.3s-0.6,0.8-0.9,1.2
				S492.9,2592.5,492.6,2592.8z"/>
		</g>
		<g class="st1">
			<path class="st2" d="M336.7,2598.2c-3.3,0-5-2.3-5-7c0-2.4,0.5-4.3,1.4-5.6s2.2-1.9,3.9-1.9c3.3,0,4.9,2.4,4.9,7.1
				c0,2.4-0.4,4.2-1.3,5.4S338.3,2598.2,336.7,2598.2z M336.8,2586.1c-1.3,0-2,1.7-2,5c0,3.2,0.7,4.7,2,4.7c1.3,0,1.9-1.6,1.9-4.9
				S338.1,2586.1,336.8,2586.1z"/>
			<path class="st2" d="M343.6,2597.5v-2.7c0.9,0.7,2,1,3.3,1c0.8,0,1.4-0.2,1.8-0.5s0.7-0.8,0.7-1.4c0-0.6-0.3-1.1-0.8-1.4
				s-1.3-0.5-2.2-0.5h-1.3v-2.4h1.2c1.8,0,2.7-0.6,2.7-1.8c0-1.1-0.7-1.7-2.1-1.7c-0.9,0-1.8,0.3-2.7,0.9v-2.5
				c1-0.5,2.1-0.7,3.4-0.7c1.4,0,2.5,0.3,3.3,1s1.2,1.5,1.2,2.5c0,1.8-0.9,3-2.8,3.4v0c1,0.1,1.8,0.5,2.3,1.1s0.9,1.3,0.9,2.2
				c0,1.3-0.5,2.3-1.4,3.1s-2.3,1.1-4,1.1C345.7,2598.2,344.6,2598,343.6,2597.5z"/>
		</g>
		<g class="st1">
			<path class="st2" d="M448.7,2598.2c-3.3,0-5-2.3-5-7c0-2.4,0.5-4.3,1.4-5.6s2.2-1.9,3.9-1.9c3.3,0,4.9,2.4,4.9,7.1
				c0,2.4-0.4,4.2-1.3,5.4S450.3,2598.2,448.7,2598.2z M448.8,2586.1c-1.3,0-2,1.7-2,5c0,3.2,0.7,4.7,2,4.7c1.3,0,1.9-1.6,1.9-4.9
				S450.1,2586.1,448.8,2586.1z"/>
			<path class="st2" d="M455.6,2597.5v-2.7c0.9,0.7,2,1,3.3,1c0.8,0,1.4-0.2,1.8-0.5s0.7-0.8,0.7-1.4c0-0.6-0.3-1.1-0.8-1.4
				s-1.3-0.5-2.2-0.5h-1.3v-2.4h1.2c1.8,0,2.7-0.6,2.7-1.8c0-1.1-0.7-1.7-2.1-1.7c-0.9,0-1.8,0.3-2.7,0.9v-2.5
				c1-0.5,2.1-0.7,3.4-0.7c1.4,0,2.5,0.3,3.3,1s1.2,1.5,1.2,2.5c0,1.8-0.9,3-2.8,3.4v0c1,0.1,1.8,0.5,2.3,1.1s0.9,1.3,0.9,2.2
				c0,1.3-0.5,2.3-1.4,3.1s-2.3,1.1-4,1.1C457.7,2598.2,456.6,2598,455.6,2597.5z"/>
		</g>
		<g class="st1">
			<path class="st2" d="M259.7,2566.2c-3.3,0-5-2.3-5-7c0-2.4,0.5-4.3,1.4-5.6s2.2-1.9,3.9-1.9c3.3,0,4.9,2.4,4.9,7.1
				c0,2.4-0.4,4.2-1.3,5.4S261.3,2566.2,259.7,2566.2z M259.8,2554.1c-1.3,0-2,1.7-2,5c0,3.2,0.7,4.7,2,4.7c1.3,0,1.9-1.6,1.9-4.9
				S261.1,2554.1,259.8,2554.1z"/>
			<path class="st2" d="M266.9,2565.6v-2.6c1,0.6,2,0.9,3.1,0.9c0.8,0,1.5-0.2,1.9-0.6s0.7-0.9,0.7-1.6c0-1.4-1-2.1-2.9-2.1
				c-0.7,0-1.6,0.1-2.5,0.2l0.5-7.8h7.4v2.5H270l-0.2,2.8c0.5,0,0.9-0.1,1.3-0.1c1.4,0,2.6,0.4,3.4,1.1s1.2,1.8,1.2,3
				c0,1.4-0.5,2.6-1.5,3.5s-2.3,1.3-3.9,1.3C268.9,2566.2,267.8,2566,266.9,2565.6z"/>
		</g>
		<g class="st1">
			<path class="st2" d="M371.7,2566.2c-3.3,0-5-2.3-5-7c0-2.4,0.5-4.3,1.4-5.6s2.2-1.9,3.9-1.9c3.3,0,4.9,2.4,4.9,7.1
				c0,2.4-0.4,4.2-1.3,5.4S373.3,2566.2,371.7,2566.2z M371.8,2554.1c-1.3,0-2,1.7-2,5c0,3.2,0.7,4.7,2,4.7c1.3,0,1.9-1.6,1.9-4.9
				S373.1,2554.1,371.8,2554.1z"/>
			<path class="st2" d="M378.9,2565.6v-2.6c1,0.6,2,0.9,3.1,0.9c0.8,0,1.5-0.2,1.9-0.6s0.7-0.9,0.7-1.6c0-1.4-1-2.1-2.9-2.1
				c-0.7,0-1.6,0.1-2.5,0.2l0.5-7.8h7.4v2.5H382l-0.2,2.8c0.5,0,0.9-0.1,1.3-0.1c1.4,0,2.6,0.4,3.4,1.1s1.2,1.8,1.2,3
				c0,1.4-0.5,2.6-1.5,3.5s-2.3,1.3-3.9,1.3C380.9,2566.2,379.8,2566,378.9,2565.6z"/>
		</g>
		<g class="st1">
			<path class="st2" d="M483.7,2566.2c-3.3,0-5-2.3-5-7c0-2.4,0.5-4.3,1.4-5.6s2.2-1.9,3.9-1.9c3.3,0,4.9,2.4,4.9,7.1
				c0,2.4-0.4,4.2-1.3,5.4S485.3,2566.2,483.7,2566.2z M483.8,2554.1c-1.3,0-2,1.7-2,5c0,3.2,0.7,4.7,2,4.7c1.3,0,1.9-1.6,1.9-4.9
				S485.1,2554.1,483.8,2554.1z"/>
			<path class="st2" d="M490.9,2565.6v-2.6c1,0.6,2,0.9,3.1,0.9c0.8,0,1.5-0.2,1.9-0.6s0.7-0.9,0.7-1.6c0-1.4-1-2.1-2.9-2.1
				c-0.7,0-1.6,0.1-2.5,0.2l0.5-7.8h7.4v2.5H494l-0.2,2.8c0.5,0,0.9-0.1,1.3-0.1c1.4,0,2.6,0.4,3.4,1.1s1.2,1.8,1.2,3
				c0,1.4-0.5,2.6-1.5,3.5s-2.3,1.3-3.9,1.3C492.9,2566.2,491.8,2566,490.9,2565.6z"/>
		</g>
		<g class="st1">
			<path class="st2" d="M336.7,2566.2c-3.3,0-5-2.3-5-7c0-2.4,0.5-4.3,1.4-5.6s2.2-1.9,3.9-1.9c3.3,0,4.9,2.4,4.9,7.1
				c0,2.4-0.4,4.2-1.3,5.4S338.3,2566.2,336.7,2566.2z M336.8,2554.1c-1.3,0-2,1.7-2,5c0,3.2,0.7,4.7,2,4.7c1.3,0,1.9-1.6,1.9-4.9
				S338.1,2554.1,336.8,2554.1z"/>
			<path class="st2" d="M346.7,2563.4h5.9v2.6h-9.3v-1.1c0-0.7,0.1-1.4,0.4-1.9s0.5-1.1,0.9-1.5s0.8-0.9,1.2-1.2s0.8-0.7,1.2-0.9
				c0.4-0.3,0.8-0.6,1.1-0.8s0.6-0.5,0.8-0.8s0.4-0.5,0.5-0.8s0.2-0.6,0.2-0.9c0-0.6-0.2-1.1-0.5-1.4s-0.9-0.5-1.6-0.5
				c-1.2,0-2.4,0.5-3.5,1.4v-2.7c1.2-0.8,2.6-1.2,4.1-1.2c0.7,0,1.3,0.1,1.9,0.3s1,0.5,1.4,0.8s0.7,0.8,0.9,1.3s0.3,1,0.3,1.6
				c0,0.6-0.1,1.2-0.3,1.7s-0.5,1-0.8,1.4s-0.7,0.8-1.1,1.1s-0.9,0.7-1.3,1c-0.3,0.2-0.6,0.4-0.9,0.7s-0.5,0.4-0.8,0.6
				s-0.4,0.4-0.5,0.6S346.7,2563.3,346.7,2563.4z"/>
		</g>
		<g class="st1">
			<path class="st2" d="M448.7,2566.2c-3.3,0-5-2.3-5-7c0-2.4,0.5-4.3,1.4-5.6s2.2-1.9,3.9-1.9c3.3,0,4.9,2.4,4.9,7.1
				c0,2.4-0.4,4.2-1.3,5.4S450.3,2566.2,448.7,2566.2z M448.8,2554.1c-1.3,0-2,1.7-2,5c0,3.2,0.7,4.7,2,4.7c1.3,0,1.9-1.6,1.9-4.9
				S450.1,2554.1,448.8,2554.1z"/>
			<path class="st2" d="M458.7,2563.4h5.9v2.6h-9.3v-1.1c0-0.7,0.1-1.4,0.4-1.9s0.5-1.1,0.9-1.5s0.8-0.9,1.2-1.2s0.8-0.7,1.2-0.9
				c0.4-0.3,0.8-0.6,1.1-0.8s0.6-0.5,0.8-0.8s0.4-0.5,0.5-0.8s0.2-0.6,0.2-0.9c0-0.6-0.2-1.1-0.5-1.4s-0.9-0.5-1.6-0.5
				c-1.2,0-2.4,0.5-3.5,1.4v-2.7c1.2-0.8,2.6-1.2,4.1-1.2c0.7,0,1.3,0.1,1.9,0.3s1,0.5,1.4,0.8s0.7,0.8,0.9,1.3s0.3,1,0.3,1.6
				c0,0.6-0.1,1.2-0.3,1.7s-0.5,1-0.8,1.4s-0.7,0.8-1.1,1.1s-0.9,0.7-1.3,1c-0.3,0.2-0.6,0.4-0.9,0.7s-0.5,0.4-0.8,0.6
				s-0.4,0.4-0.5,0.6S458.7,2563.3,458.7,2563.4z"/>
		</g>
		<g class="st1">
			<path class="st2" d="M371.7,2534.2c-3.3,0-5-2.3-5-7c0-2.4,0.5-4.3,1.4-5.6s2.2-1.9,3.9-1.9c3.3,0,4.9,2.4,4.9,7.1
				c0,2.4-0.4,4.2-1.3,5.4S373.3,2534.2,371.7,2534.2z M371.8,2522.1c-1.3,0-2,1.7-2,5c0,3.2,0.7,4.7,2,4.7c1.3,0,1.9-1.6,1.9-4.9
				S373.1,2522.1,371.8,2522.1z"/>
			<path class="st2" d="M388.3,2529.3c0,0.7-0.1,1.3-0.4,1.9s-0.6,1.1-1,1.6s-0.9,0.8-1.5,1s-1.2,0.4-1.9,0.4
				c-0.8,0-1.5-0.1-2.1-0.4s-1.1-0.7-1.6-1.3s-0.8-1.2-1-2s-0.3-1.7-0.3-2.7c0-1.2,0.1-2.3,0.4-3.3s0.7-1.8,1.3-2.5s1.2-1.2,2-1.6
				s1.7-0.6,2.6-0.6c1.1,0,1.9,0.1,2.5,0.4v2.6c-0.7-0.4-1.5-0.6-2.3-0.6c-0.5,0-1,0.1-1.4,0.3s-0.8,0.5-1.1,0.9s-0.5,0.8-0.7,1.3
				s-0.3,1.1-0.3,1.8h0.1c0.7-0.9,1.6-1.4,2.9-1.4c0.6,0,1.1,0.1,1.6,0.3s0.9,0.5,1.2,0.9s0.6,0.8,0.8,1.4
				S388.3,2528.7,388.3,2529.3z M385.3,2529.5c0-1.5-0.6-2.3-1.8-2.3c-0.3,0-0.5,0.1-0.8,0.2s-0.4,0.3-0.6,0.4s-0.3,0.4-0.4,0.7
				s-0.1,0.5-0.1,0.9c0,0.3,0,0.7,0.1,1s0.2,0.6,0.4,0.8s0.4,0.4,0.6,0.5s0.5,0.2,0.8,0.2s0.5-0.1,0.8-0.2s0.4-0.3,0.6-0.5
				s0.3-0.5,0.4-0.7S385.3,2529.9,385.3,2529.5z"/>
		</g>
		<g class="st1">
			<path class="st2" d="M483.7,2534.2c-3.3,0-5-2.3-5-7c0-2.4,0.5-4.3,1.4-5.6s2.2-1.9,3.9-1.9c3.3,0,4.9,2.4,4.9,7.1
				c0,2.4-0.4,4.2-1.3,5.4S485.3,2534.2,483.7,2534.2z M483.8,2522.1c-1.3,0-2,1.7-2,5c0,3.2,0.7,4.7,2,4.7c1.3,0,1.9-1.6,1.9-4.9
				S485.1,2522.1,483.8,2522.1z"/>
			<path class="st2" d="M500.3,2529.3c0,0.7-0.1,1.3-0.4,1.9s-0.6,1.1-1,1.6s-0.9,0.8-1.5,1s-1.2,0.4-1.9,0.4
				c-0.8,0-1.5-0.1-2.1-0.4s-1.1-0.7-1.6-1.3s-0.8-1.2-1-2s-0.3-1.7-0.3-2.7c0-1.2,0.1-2.3,0.4-3.3s0.7-1.8,1.3-2.5s1.2-1.2,2-1.6
				s1.7-0.6,2.6-0.6c1.1,0,1.9,0.1,2.5,0.4v2.6c-0.7-0.4-1.5-0.6-2.3-0.6c-0.5,0-1,0.1-1.4,0.3s-0.8,0.5-1.1,0.9s-0.5,0.8-0.7,1.3
				s-0.3,1.1-0.3,1.8h0.1c0.7-0.9,1.6-1.4,2.9-1.4c0.6,0,1.1,0.1,1.6,0.3s0.9,0.5,1.2,0.9s0.6,0.8,0.8,1.4
				S500.3,2528.7,500.3,2529.3z M497.3,2529.5c0-1.5-0.6-2.3-1.8-2.3c-0.3,0-0.5,0.1-0.8,0.2s-0.4,0.3-0.6,0.4s-0.3,0.4-0.4,0.7
				s-0.1,0.5-0.1,0.9c0,0.3,0,0.7,0.1,1s0.2,0.6,0.4,0.8s0.4,0.4,0.6,0.5s0.5,0.2,0.8,0.2s0.5-0.1,0.8-0.2s0.4-0.3,0.6-0.5
				s0.3-0.5,0.4-0.7S497.3,2529.9,497.3,2529.5z"/>
		</g>
		<g class="st1">
			<path class="st2" d="M336.7,2534.2c-3.3,0-5-2.3-5-7c0-2.4,0.5-4.3,1.4-5.6s2.2-1.9,3.9-1.9c3.3,0,4.9,2.4,4.9,7.1
				c0,2.4-0.4,4.2-1.3,5.4S338.3,2534.2,336.7,2534.2z M336.8,2522.1c-1.3,0-2,1.7-2,5c0,3.2,0.7,4.7,2,4.7c1.3,0,1.9-1.6,1.9-4.9
				S338.1,2522.1,336.8,2522.1z"/>
			<path class="st2" d="M350.6,2519.7v14.3h-3.1v-10.8c-0.2,0.1-0.4,0.3-0.6,0.4s-0.5,0.3-0.7,0.4s-0.5,0.2-0.8,0.3
				s-0.6,0.1-0.8,0.2v-2.6c0.8-0.2,1.6-0.5,2.3-0.9s1.4-0.8,1.9-1.2H350.6z"/>
		</g>
		<g class="st1">
			<path class="st2" d="M448.7,2534.2c-3.3,0-5-2.3-5-7c0-2.4,0.5-4.3,1.4-5.6s2.2-1.9,3.9-1.9c3.3,0,4.9,2.4,4.9,7.1
				c0,2.4-0.4,4.2-1.3,5.4S450.3,2534.2,448.7,2534.2z M448.8,2522.1c-1.3,0-2,1.7-2,5c0,3.2,0.7,4.7,2,4.7c1.3,0,1.9-1.6,1.9-4.9
				S450.1,2522.1,448.8,2522.1z"/>
			<path class="st2" d="M462.6,2519.7v14.3h-3.1v-10.8c-0.2,0.1-0.4,0.3-0.6,0.4s-0.5,0.3-0.7,0.4s-0.5,0.2-0.8,0.3
				s-0.6,0.1-0.8,0.2v-2.6c0.8-0.2,1.6-0.5,2.3-0.9s1.4-0.8,1.9-1.2H462.6z"/>
		</g>
		<g id="Grupo_593727" transform="translate(1)">
			<line id="Línea_1906" class="st3" x1="288" y1="2707.5" x2="288" y2="2516.5"/>
			<path id="Polígono_1" class="st2" d="M288,2513l4,7h-8L288,2513z"/>
		</g>
		<g id="Grupo_593731" transform="translate(113)">
			<line id="Línea_1906-2" class="st3" x1="288" y1="2707.5" x2="288" y2="2516.5"/>
			<path id="Polígono_1-2" class="st2" d="M288,2513l4,7h-8L288,2513z"/>
		</g>
		<g id="Grupo_593734" transform="translate(226)">
			<line id="Línea_1906-3" class="st3" x1="288" y1="2707.5" x2="288" y2="2516.5"/>
			<path id="Polígono_1-3" class="st2" d="M288,2513l4,7h-8L288,2513z"/>
		</g>
		<g id="Grupo_593728" transform="translate(607 5222) rotate(180)">
			<line id="Línea_1906-4" class="st3" x1="288" y1="2707.5" x2="288" y2="2516.5"/>
			<path id="Polígono_1-4" class="st2" d="M288,2513l4,7h-8L288,2513z"/>
		</g>
		<g id="Grupo_593732" transform="translate(718 5222) rotate(180)">
			<line id="Línea_1906-5" class="st3" x1="288" y1="2707.5" x2="288" y2="2516.5"/>
			<path id="Polígono_1-5" class="st2" d="M288,2513l4,7h-8L288,2513z"/>
		</g>
		<g class="st1">
			<path class="st2" d="M259.7,2534.2c-3.3,0-5-2.3-5-7c0-2.4,0.5-4.3,1.4-5.6s2.2-1.9,3.9-1.9c3.3,0,4.9,2.4,4.9,7.1
				c0,2.4-0.4,4.2-1.3,5.4S261.3,2534.2,259.7,2534.2z M259.8,2522.1c-1.3,0-2,1.7-2,5c0,3.2,0.7,4.7,2,4.7c1.3,0,1.9-1.6,1.9-4.9
				S261.1,2522.1,259.8,2522.1z"/>
			<path class="st2" d="M276.3,2529.3c0,0.7-0.1,1.3-0.4,1.9s-0.6,1.1-1,1.6s-0.9,0.8-1.5,1s-1.2,0.4-1.9,0.4
				c-0.8,0-1.5-0.1-2.1-0.4s-1.1-0.7-1.6-1.3s-0.8-1.2-1-2s-0.3-1.7-0.3-2.7c0-1.2,0.1-2.3,0.4-3.3s0.7-1.8,1.3-2.5s1.2-1.2,2-1.6
				s1.7-0.6,2.6-0.6c1.1,0,1.9,0.1,2.5,0.4v2.6c-0.7-0.4-1.5-0.6-2.3-0.6c-0.5,0-1,0.1-1.4,0.3s-0.8,0.5-1.1,0.9s-0.5,0.8-0.7,1.3
				s-0.3,1.1-0.3,1.8h0.1c0.7-0.9,1.6-1.4,2.9-1.4c0.6,0,1.1,0.1,1.6,0.3s0.9,0.5,1.2,0.9s0.6,0.8,0.8,1.4
				S276.3,2528.7,276.3,2529.3z M273.3,2529.5c0-1.5-0.6-2.3-1.8-2.3c-0.3,0-0.5,0.1-0.8,0.2s-0.4,0.3-0.6,0.4s-0.3,0.4-0.4,0.7
				s-0.1,0.5-0.1,0.9c0,0.3,0,0.7,0.1,1s0.2,0.6,0.4,0.8s0.4,0.4,0.6,0.5s0.5,0.2,0.8,0.2s0.5-0.1,0.8-0.2s0.4-0.3,0.6-0.5
				s0.3-0.5,0.4-0.7S273.3,2529.9,273.3,2529.5z"/>
		</g>
		<line id="Línea_1908" class="st3" x1="360" y1="2707.5" x2="360" y2="2512.5"/>
		<line id="Línea_1909" class="st3" x1="472" y1="2707.5" x2="472" y2="2511.5"/>
		<g id="Grupo_593729">
			<line id="Línea_1907" class="st3" x1="312.5" y1="2516.5" x2="292.5" y2="2516.5"/>
			<path id="Polígono_2" class="st2" d="M317.5,2516.5l-7,4v-8L317.5,2516.5z"/>
		</g>
		<g id="Grupo_593733" transform="translate(111.5)">
			<line id="Línea_1907-2" class="st3" x1="312.5" y1="2516.5" x2="292.5" y2="2516.5"/>
			<path id="Polígono_2-2" class="st2" d="M317.5,2516.5l-7,4v-8L317.5,2516.5z"/>
		</g>
		<g id="Rectángulo_213072" transform="translate(234 2499)">
			<rect class="st4" width="296" height="239"/>
			<rect x="0.5" y="0.5" class="st5" width="295" height="238"/>
		</g>
	</g>
</g>
</svg>
