<svg xmlns="http://www.w3.org/2000/svg" width="167.283" height="167.28" viewBox="0 0 167.283 167.28">
  <g id="Grupo_593746" data-name="Grupo 593746" transform="translate(-80.652 -123.952)">
    <rect id="Rectángulo_213109" data-name="Rectángulo 213109" width="6.689" height="6.693" transform="translate(80.652 123.952)"/>
    <rect id="Rectángulo_213110" data-name="Rectángulo 213110" width="6.693" height="6.693" transform="translate(87.341 123.952)"/>
    <rect id="Rectángulo_213111" data-name="Rectángulo 213111" width="6.693" height="6.693" transform="translate(94.033 123.952)"/>
    <rect id="Rectángulo_213112" data-name="Rectángulo 213112" width="6.697" height="6.693" transform="translate(100.726 123.952)"/>
    <rect id="Rectángulo_213113" data-name="Rectángulo 213113" width="6.68" height="6.693" transform="translate(107.423 123.952)"/>
    <rect id="Rectángulo_213114" data-name="Rectángulo 213114" width="6.693" height="6.693" transform="translate(114.103 123.952)"/>
    <rect id="Rectángulo_213115" data-name="Rectángulo 213115" width="6.693" height="6.693" transform="translate(120.796 123.952)"/>
    <rect id="Rectángulo_213116" data-name="Rectángulo 213116" width="6.701" height="6.693" transform="translate(134.181 123.952)"/>
    <rect id="Rectángulo_213117" data-name="Rectángulo 213117" width="6.689" height="6.693" transform="translate(154.259 123.952)"/>
    <rect id="Rectángulo_213118" data-name="Rectángulo 213118" width="6.693" height="6.693" transform="translate(160.947 123.952)"/>
    <rect id="Rectángulo_213119" data-name="Rectángulo 213119" width="6.68" height="6.693" transform="translate(174.333 123.952)"/>
    <rect id="Rectángulo_213120" data-name="Rectángulo 213120" width="6.697" height="6.693" transform="translate(201.095 123.952)"/>
    <rect id="Rectángulo_213121" data-name="Rectángulo 213121" width="6.68" height="6.693" transform="translate(207.792 123.952)"/>
    <rect id="Rectángulo_213122" data-name="Rectángulo 213122" width="6.701" height="6.693" transform="translate(214.472 123.952)"/>
    <rect id="Rectángulo_213123" data-name="Rectángulo 213123" width="6.684" height="6.693" transform="translate(221.173 123.952)"/>
    <rect id="Rectángulo_213124" data-name="Rectángulo 213124" width="6.689" height="6.693" transform="translate(227.857 123.952)"/>
    <rect id="Rectángulo_213125" data-name="Rectángulo 213125" width="6.701" height="6.693" transform="translate(234.546 123.952)"/>
    <rect id="Rectángulo_213126" data-name="Rectángulo 213126" width="6.688" height="6.693" transform="translate(241.247 123.952)"/>
    <rect id="Rectángulo_213127" data-name="Rectángulo 213127" width="6.689" height="6.693" transform="translate(80.652 130.644)"/>
    <rect id="Rectángulo_213128" data-name="Rectángulo 213128" width="6.693" height="6.693" transform="translate(120.796 130.644)"/>
    <rect id="Rectángulo_213129" data-name="Rectángulo 213129" width="6.701" height="6.693" transform="translate(134.181 130.644)"/>
    <rect id="Rectángulo_213130" data-name="Rectángulo 213130" width="6.684" height="6.693" transform="translate(140.882 130.644)"/>
    <rect id="Rectángulo_213131" data-name="Rectángulo 213131" width="6.693" height="6.693" transform="translate(147.566 130.644)"/>
    <rect id="Rectángulo_213132" data-name="Rectángulo 213132" width="6.693" height="6.693" transform="translate(160.947 130.644)"/>
    <rect id="Rectángulo_213133" data-name="Rectángulo 213133" width="6.693" height="6.693" transform="translate(167.64 130.644)"/>
    <rect id="Rectángulo_213134" data-name="Rectángulo 213134" width="6.697" height="6.693" transform="translate(187.706 130.644)"/>
    <rect id="Rectángulo_213135" data-name="Rectángulo 213135" width="6.697" height="6.693" transform="translate(201.095 130.644)"/>
    <rect id="Rectángulo_213136" data-name="Rectángulo 213136" width="6.688" height="6.693" transform="translate(241.247 130.644)"/>
    <rect id="Rectángulo_213137" data-name="Rectángulo 213137" width="6.689" height="6.69" transform="translate(80.652 137.337)"/>
    <rect id="Rectángulo_213138" data-name="Rectángulo 213138" width="6.693" height="6.69" transform="translate(94.033 137.337)"/>
    <rect id="Rectángulo_213139" data-name="Rectángulo 213139" width="6.697" height="6.69" transform="translate(100.726 137.337)"/>
    <rect id="Rectángulo_213140" data-name="Rectángulo 213140" width="6.68" height="6.69" transform="translate(107.423 137.337)"/>
    <rect id="Rectángulo_213141" data-name="Rectángulo 213141" width="6.693" height="6.69" transform="translate(120.796 137.337)"/>
    <rect id="Rectángulo_213142" data-name="Rectángulo 213142" width="6.693" height="6.69" transform="translate(147.566 137.337)"/>
    <rect id="Rectángulo_213143" data-name="Rectángulo 213143" width="6.689" height="6.69" transform="translate(154.259 137.337)"/>
    <rect id="Rectángulo_213144" data-name="Rectángulo 213144" width="6.693" height="6.69" transform="translate(160.947 137.337)"/>
    <rect id="Rectángulo_213145" data-name="Rectángulo 213145" width="6.693" height="6.69" transform="translate(167.64 137.337)"/>
    <rect id="Rectángulo_213146" data-name="Rectángulo 213146" width="6.693" height="6.69" transform="translate(181.013 137.337)"/>
    <rect id="Rectángulo_213147" data-name="Rectángulo 213147" width="6.697" height="6.69" transform="translate(187.706 137.337)"/>
    <rect id="Rectángulo_213148" data-name="Rectángulo 213148" width="6.697" height="6.69" transform="translate(201.095 137.337)"/>
    <rect id="Rectángulo_213149" data-name="Rectángulo 213149" width="6.701" height="6.69" transform="translate(214.472 137.337)"/>
    <rect id="Rectángulo_213150" data-name="Rectángulo 213150" width="6.684" height="6.69" transform="translate(221.173 137.337)"/>
    <rect id="Rectángulo_213151" data-name="Rectángulo 213151" width="6.689" height="6.69" transform="translate(227.857 137.337)"/>
    <rect id="Rectángulo_213152" data-name="Rectángulo 213152" width="6.688" height="6.69" transform="translate(241.247 137.337)"/>
    <rect id="Rectángulo_213153" data-name="Rectángulo 213153" width="6.689" height="6.691" transform="translate(80.652 144.028)"/>
    <rect id="Rectángulo_213154" data-name="Rectángulo 213154" width="6.693" height="6.691" transform="translate(94.033 144.028)"/>
    <rect id="Rectángulo_213155" data-name="Rectángulo 213155" width="6.697" height="6.691" transform="translate(100.726 144.028)"/>
    <rect id="Rectángulo_213156" data-name="Rectángulo 213156" width="6.68" height="6.691" transform="translate(107.423 144.028)"/>
    <rect id="Rectángulo_213157" data-name="Rectángulo 213157" width="6.693" height="6.691" transform="translate(120.796 144.028)"/>
    <rect id="Rectángulo_213158" data-name="Rectángulo 213158" width="6.693" height="6.691" transform="translate(147.566 144.028)"/>
    <rect id="Rectángulo_213159" data-name="Rectángulo 213159" width="6.693" height="6.691" transform="translate(167.64 144.028)"/>
    <rect id="Rectángulo_213160" data-name="Rectángulo 213160" width="6.693" height="6.691" transform="translate(181.013 144.028)"/>
    <rect id="Rectángulo_213161" data-name="Rectángulo 213161" width="6.697" height="6.691" transform="translate(201.095 144.028)"/>
    <rect id="Rectángulo_213162" data-name="Rectángulo 213162" width="6.701" height="6.691" transform="translate(214.472 144.028)"/>
    <rect id="Rectángulo_213163" data-name="Rectángulo 213163" width="6.684" height="6.691" transform="translate(221.173 144.028)"/>
    <rect id="Rectángulo_213164" data-name="Rectángulo 213164" width="6.689" height="6.691" transform="translate(227.857 144.028)"/>
    <rect id="Rectángulo_213165" data-name="Rectángulo 213165" width="6.688" height="6.691" transform="translate(241.247 144.028)"/>
    <rect id="Rectángulo_213166" data-name="Rectángulo 213166" width="6.689" height="6.693" transform="translate(80.652 150.718)"/>
    <rect id="Rectángulo_213167" data-name="Rectángulo 213167" width="6.693" height="6.693" transform="translate(94.033 150.718)"/>
    <rect id="Rectángulo_213168" data-name="Rectángulo 213168" width="6.697" height="6.693" transform="translate(100.726 150.718)"/>
    <rect id="Rectángulo_213169" data-name="Rectángulo 213169" width="6.68" height="6.693" transform="translate(107.423 150.718)"/>
    <rect id="Rectángulo_213170" data-name="Rectángulo 213170" width="6.693" height="6.693" transform="translate(120.796 150.718)"/>
    <rect id="Rectángulo_213171" data-name="Rectángulo 213171" width="6.701" height="6.693" transform="translate(134.181 150.718)"/>
    <rect id="Rectángulo_213172" data-name="Rectángulo 213172" width="6.684" height="6.693" transform="translate(140.882 150.718)"/>
    <rect id="Rectángulo_213173" data-name="Rectángulo 213173" width="6.693" height="6.693" transform="translate(147.566 150.718)"/>
    <rect id="Rectángulo_213174" data-name="Rectángulo 213174" width="6.689" height="6.693" transform="translate(154.259 150.718)"/>
    <rect id="Rectángulo_213175" data-name="Rectángulo 213175" width="6.68" height="6.693" transform="translate(174.333 150.718)"/>
    <rect id="Rectángulo_213176" data-name="Rectángulo 213176" width="6.697" height="6.693" transform="translate(201.095 150.718)"/>
    <rect id="Rectángulo_213177" data-name="Rectángulo 213177" width="6.701" height="6.693" transform="translate(214.472 150.718)"/>
    <rect id="Rectángulo_213178" data-name="Rectángulo 213178" width="6.684" height="6.693" transform="translate(221.173 150.718)"/>
    <rect id="Rectángulo_213179" data-name="Rectángulo 213179" width="6.689" height="6.693" transform="translate(227.857 150.718)"/>
    <rect id="Rectángulo_213180" data-name="Rectángulo 213180" width="6.688" height="6.693" transform="translate(241.247 150.718)"/>
    <rect id="Rectángulo_213181" data-name="Rectángulo 213181" width="6.689" height="6.691" transform="translate(80.652 157.411)"/>
    <rect id="Rectángulo_213182" data-name="Rectángulo 213182" width="6.693" height="6.691" transform="translate(120.796 157.411)"/>
    <rect id="Rectángulo_213183" data-name="Rectángulo 213183" width="6.701" height="6.691" transform="translate(134.181 157.411)"/>
    <rect id="Rectángulo_213184" data-name="Rectángulo 213184" width="6.689" height="6.691" transform="translate(154.259 157.411)"/>
    <rect id="Rectángulo_213185" data-name="Rectángulo 213185" width="6.693" height="6.691" transform="translate(167.64 157.411)"/>
    <rect id="Rectángulo_213186" data-name="Rectángulo 213186" width="6.68" height="6.691" transform="translate(174.333 157.411)"/>
    <rect id="Rectángulo_213187" data-name="Rectángulo 213187" width="6.697" height="6.691" transform="translate(201.095 157.411)"/>
    <rect id="Rectángulo_213188" data-name="Rectángulo 213188" width="6.688" height="6.691" transform="translate(241.247 157.411)"/>
    <rect id="Rectángulo_213189" data-name="Rectángulo 213189" width="6.689" height="6.691" transform="translate(80.652 164.101)"/>
    <rect id="Rectángulo_213190" data-name="Rectángulo 213190" width="6.693" height="6.691" transform="translate(87.341 164.101)"/>
    <rect id="Rectángulo_213191" data-name="Rectángulo 213191" width="6.693" height="6.691" transform="translate(94.033 164.101)"/>
    <rect id="Rectángulo_213192" data-name="Rectángulo 213192" width="6.697" height="6.691" transform="translate(100.726 164.101)"/>
    <rect id="Rectángulo_213193" data-name="Rectángulo 213193" width="6.68" height="6.691" transform="translate(107.423 164.101)"/>
    <rect id="Rectángulo_213194" data-name="Rectángulo 213194" width="6.693" height="6.691" transform="translate(114.103 164.101)"/>
    <rect id="Rectángulo_213195" data-name="Rectángulo 213195" width="6.693" height="6.691" transform="translate(120.796 164.101)"/>
    <rect id="Rectángulo_213196" data-name="Rectángulo 213196" width="6.701" height="6.691" transform="translate(134.181 164.101)"/>
    <rect id="Rectángulo_213197" data-name="Rectángulo 213197" width="6.693" height="6.691" transform="translate(147.566 164.101)"/>
    <rect id="Rectángulo_213198" data-name="Rectángulo 213198" width="6.693" height="6.691" transform="translate(160.947 164.101)"/>
    <rect id="Rectángulo_213199" data-name="Rectángulo 213199" width="6.68" height="6.691" transform="translate(174.333 164.101)"/>
    <rect id="Rectángulo_213200" data-name="Rectángulo 213200" width="6.697" height="6.691" transform="translate(187.706 164.101)"/>
    <rect id="Rectángulo_213201" data-name="Rectángulo 213201" width="6.697" height="6.691" transform="translate(201.095 164.101)"/>
    <rect id="Rectángulo_213202" data-name="Rectángulo 213202" width="6.68" height="6.691" transform="translate(207.792 164.101)"/>
    <rect id="Rectángulo_213203" data-name="Rectángulo 213203" width="6.701" height="6.691" transform="translate(214.472 164.101)"/>
    <rect id="Rectángulo_213204" data-name="Rectángulo 213204" width="6.684" height="6.691" transform="translate(221.173 164.101)"/>
    <rect id="Rectángulo_213205" data-name="Rectángulo 213205" width="6.689" height="6.691" transform="translate(227.857 164.101)"/>
    <rect id="Rectángulo_213206" data-name="Rectángulo 213206" width="6.701" height="6.691" transform="translate(234.546 164.101)"/>
    <rect id="Rectángulo_213207" data-name="Rectángulo 213207" width="6.688" height="6.691" transform="translate(241.247 164.101)"/>
    <rect id="Rectángulo_213208" data-name="Rectángulo 213208" width="6.701" height="6.692" transform="translate(134.181 170.792)"/>
    <rect id="Rectángulo_213209" data-name="Rectángulo 213209" width="6.693" height="6.692" transform="translate(147.566 170.792)"/>
    <rect id="Rectángulo_213210" data-name="Rectángulo 213210" width="6.689" height="6.692" transform="translate(154.259 170.792)"/>
    <rect id="Rectángulo_213211" data-name="Rectángulo 213211" width="6.693" height="6.692" transform="translate(160.947 170.792)"/>
    <rect id="Rectángulo_213212" data-name="Rectángulo 213212" width="6.689" height="6.693" transform="translate(80.652 177.484)"/>
    <rect id="Rectángulo_213213" data-name="Rectángulo 213213" width="6.693" height="6.693" transform="translate(87.341 177.484)"/>
    <rect id="Rectángulo_213214" data-name="Rectángulo 213214" width="6.693" height="6.693" transform="translate(94.033 177.484)"/>
    <rect id="Rectángulo_213215" data-name="Rectángulo 213215" width="6.693" height="6.693" transform="translate(114.103 177.484)"/>
    <rect id="Rectángulo_213216" data-name="Rectángulo 213216" width="6.693" height="6.693" transform="translate(120.796 177.484)"/>
    <rect id="Rectángulo_213217" data-name="Rectángulo 213217" width="6.701" height="6.693" transform="translate(134.181 177.484)"/>
    <rect id="Rectángulo_213218" data-name="Rectángulo 213218" width="6.684" height="6.693" transform="translate(140.882 177.484)"/>
    <rect id="Rectángulo_213219" data-name="Rectángulo 213219" width="6.693" height="6.693" transform="translate(147.566 177.484)"/>
    <rect id="Rectángulo_213220" data-name="Rectángulo 213220" width="6.693" height="6.693" transform="translate(181.013 177.484)"/>
    <rect id="Rectángulo_213221" data-name="Rectángulo 213221" width="6.693" height="6.693" transform="translate(194.402 177.484)"/>
    <rect id="Rectángulo_213222" data-name="Rectángulo 213222" width="6.697" height="6.693" transform="translate(201.095 177.484)"/>
    <rect id="Rectángulo_213223" data-name="Rectángulo 213223" width="6.68" height="6.693" transform="translate(207.792 177.484)"/>
    <rect id="Rectángulo_213224" data-name="Rectángulo 213224" width="6.701" height="6.693" transform="translate(214.472 177.484)"/>
    <rect id="Rectángulo_213225" data-name="Rectángulo 213225" width="6.701" height="6.693" transform="translate(234.546 177.484)"/>
    <rect id="Rectángulo_213226" data-name="Rectángulo 213226" width="6.688" height="6.693" transform="translate(241.247 177.484)"/>
    <rect id="Rectángulo_213227" data-name="Rectángulo 213227" width="6.693" height="6.693" transform="translate(94.033 184.176)"/>
    <rect id="Rectángulo_213228" data-name="Rectángulo 213228" width="6.68" height="6.693" transform="translate(107.423 184.176)"/>
    <rect id="Rectángulo_213229" data-name="Rectángulo 213229" width="6.701" height="6.693" transform="translate(134.181 184.176)"/>
    <rect id="Rectángulo_213230" data-name="Rectángulo 213230" width="6.684" height="6.693" transform="translate(140.882 184.176)"/>
    <rect id="Rectángulo_213231" data-name="Rectángulo 213231" width="6.693" height="6.693" transform="translate(147.566 184.176)"/>
    <rect id="Rectángulo_213232" data-name="Rectángulo 213232" width="6.693" height="6.693" transform="translate(181.013 184.176)"/>
    <rect id="Rectángulo_213233" data-name="Rectángulo 213233" width="6.697" height="6.693" transform="translate(187.706 184.176)"/>
    <rect id="Rectángulo_213234" data-name="Rectángulo 213234" width="6.693" height="6.693" transform="translate(194.402 184.176)"/>
    <rect id="Rectángulo_213235" data-name="Rectángulo 213235" width="6.697" height="6.693" transform="translate(201.095 184.176)"/>
    <rect id="Rectángulo_213236" data-name="Rectángulo 213236" width="6.68" height="6.693" transform="translate(207.792 184.176)"/>
    <rect id="Rectángulo_213237" data-name="Rectángulo 213237" width="6.684" height="6.693" transform="translate(221.173 184.176)"/>
    <rect id="Rectángulo_213238" data-name="Rectángulo 213238" width="6.701" height="6.693" transform="translate(234.546 184.176)"/>
    <rect id="Rectángulo_213239" data-name="Rectángulo 213239" width="6.688" height="6.693" transform="translate(241.247 184.176)"/>
    <rect id="Rectángulo_213240" data-name="Rectángulo 213240" width="6.693" height="6.689" transform="translate(87.341 190.869)"/>
    <rect id="Rectángulo_213241" data-name="Rectángulo 213241" width="6.697" height="6.689" transform="translate(100.726 190.869)"/>
    <rect id="Rectángulo_213242" data-name="Rectángulo 213242" width="6.68" height="6.689" transform="translate(107.423 190.869)"/>
    <rect id="Rectángulo_213243" data-name="Rectángulo 213243" width="6.693" height="6.689" transform="translate(120.796 190.869)"/>
    <rect id="Rectángulo_213244" data-name="Rectángulo 213244" width="6.693" height="6.689" transform="translate(127.488 190.869)"/>
    <rect id="Rectángulo_213245" data-name="Rectángulo 213245" width="6.701" height="6.689" transform="translate(134.181 190.869)"/>
    <rect id="Rectángulo_213246" data-name="Rectángulo 213246" width="6.689" height="6.689" transform="translate(154.259 190.869)"/>
    <rect id="Rectángulo_213247" data-name="Rectángulo 213247" width="6.68" height="6.689" transform="translate(174.333 190.869)"/>
    <rect id="Rectángulo_213248" data-name="Rectángulo 213248" width="6.693" height="6.689" transform="translate(181.013 190.869)"/>
    <rect id="Rectángulo_213249" data-name="Rectángulo 213249" width="6.697" height="6.689" transform="translate(201.095 190.869)"/>
    <rect id="Rectángulo_213250" data-name="Rectángulo 213250" width="6.684" height="6.689" transform="translate(221.173 190.869)"/>
    <rect id="Rectángulo_213251" data-name="Rectángulo 213251" width="6.689" height="6.689" transform="translate(227.857 190.869)"/>
    <rect id="Rectángulo_213252" data-name="Rectángulo 213252" width="6.688" height="6.689" transform="translate(241.247 190.869)"/>
    <rect id="Rectángulo_213253" data-name="Rectángulo 213253" width="6.689" height="6.693" transform="translate(80.652 197.558)"/>
    <rect id="Rectángulo_213254" data-name="Rectángulo 213254" width="6.697" height="6.693" transform="translate(100.726 197.558)"/>
    <rect id="Rectángulo_213255" data-name="Rectángulo 213255" width="6.693" height="6.693" transform="translate(114.103 197.558)"/>
    <rect id="Rectángulo_213256" data-name="Rectángulo 213256" width="6.693" height="6.693" transform="translate(127.488 197.558)"/>
    <rect id="Rectángulo_213257" data-name="Rectángulo 213257" width="6.701" height="6.693" transform="translate(134.181 197.558)"/>
    <rect id="Rectángulo_213258" data-name="Rectángulo 213258" width="6.684" height="6.693" transform="translate(140.882 197.558)"/>
    <rect id="Rectángulo_213259" data-name="Rectángulo 213259" width="6.68" height="6.693" transform="translate(174.333 197.558)"/>
    <rect id="Rectángulo_213260" data-name="Rectángulo 213260" width="6.697" height="6.693" transform="translate(187.706 197.558)"/>
    <rect id="Rectángulo_213261" data-name="Rectángulo 213261" width="6.693" height="6.693" transform="translate(194.402 197.558)"/>
    <rect id="Rectángulo_213262" data-name="Rectángulo 213262" width="6.697" height="6.693" transform="translate(201.095 197.558)"/>
    <rect id="Rectángulo_213263" data-name="Rectángulo 213263" width="6.68" height="6.693" transform="translate(207.792 197.558)"/>
    <rect id="Rectángulo_213264" data-name="Rectángulo 213264" width="6.684" height="6.693" transform="translate(221.173 197.558)"/>
    <rect id="Rectángulo_213265" data-name="Rectángulo 213265" width="6.693" height="6.689" transform="translate(94.033 204.25)"/>
    <rect id="Rectángulo_213266" data-name="Rectángulo 213266" width="6.693" height="6.689" transform="translate(114.103 204.25)"/>
    <rect id="Rectángulo_213267" data-name="Rectángulo 213267" width="6.693" height="6.689" transform="translate(120.796 204.25)"/>
    <rect id="Rectángulo_213268" data-name="Rectángulo 213268" width="6.701" height="6.689" transform="translate(134.181 204.25)"/>
    <rect id="Rectángulo_213269" data-name="Rectángulo 213269" width="6.684" height="6.689" transform="translate(140.882 204.25)"/>
    <rect id="Rectángulo_213270" data-name="Rectángulo 213270" width="6.689" height="6.689" transform="translate(154.259 204.25)"/>
    <rect id="Rectángulo_213271" data-name="Rectángulo 213271" width="6.693" height="6.689" transform="translate(160.947 204.25)"/>
    <rect id="Rectángulo_213272" data-name="Rectángulo 213272" width="6.693" height="6.689" transform="translate(181.013 204.25)"/>
    <rect id="Rectángulo_213273" data-name="Rectángulo 213273" width="6.697" height="6.689" transform="translate(187.706 204.25)"/>
    <rect id="Rectángulo_213274" data-name="Rectángulo 213274" width="6.693" height="6.689" transform="translate(194.402 204.25)"/>
    <rect id="Rectángulo_213275" data-name="Rectángulo 213275" width="6.697" height="6.689" transform="translate(201.095 204.25)"/>
    <rect id="Rectángulo_213276" data-name="Rectángulo 213276" width="6.688" height="6.689" transform="translate(241.247 204.25)"/>
    <rect id="Rectángulo_213277" data-name="Rectángulo 213277" width="6.693" height="6.686" transform="translate(87.341 210.939)"/>
    <rect id="Rectángulo_213278" data-name="Rectángulo 213278" width="6.697" height="6.686" transform="translate(100.726 210.939)"/>
    <rect id="Rectángulo_213279" data-name="Rectángulo 213279" width="6.68" height="6.686" transform="translate(107.423 210.939)"/>
    <rect id="Rectángulo_213280" data-name="Rectángulo 213280" width="6.693" height="6.686" transform="translate(127.488 210.939)"/>
    <rect id="Rectángulo_213281" data-name="Rectángulo 213281" width="6.701" height="6.686" transform="translate(134.181 210.939)"/>
    <rect id="Rectángulo_213282" data-name="Rectángulo 213282" width="6.684" height="6.686" transform="translate(140.882 210.939)"/>
    <rect id="Rectángulo_213283" data-name="Rectángulo 213283" width="6.693" height="6.686" transform="translate(160.947 210.939)"/>
    <rect id="Rectángulo_213284" data-name="Rectángulo 213284" width="6.693" height="6.686" transform="translate(167.64 210.939)"/>
    <rect id="Rectángulo_213285" data-name="Rectángulo 213285" width="6.693" height="6.686" transform="translate(181.013 210.939)"/>
    <rect id="Rectángulo_213286" data-name="Rectángulo 213286" width="6.697" height="6.686" transform="translate(187.706 210.939)"/>
    <rect id="Rectángulo_213287" data-name="Rectángulo 213287" width="6.697" height="6.686" transform="translate(201.095 210.939)"/>
    <rect id="Rectángulo_213288" data-name="Rectángulo 213288" width="6.68" height="6.686" transform="translate(207.792 210.939)"/>
    <rect id="Rectángulo_213289" data-name="Rectángulo 213289" width="6.701" height="6.686" transform="translate(234.546 210.939)"/>
    <rect id="Rectángulo_213290" data-name="Rectángulo 213290" width="6.688" height="6.686" transform="translate(241.247 210.939)"/>
    <rect id="Rectángulo_213291" data-name="Rectángulo 213291" width="6.689" height="6.697" transform="translate(80.652 217.625)"/>
    <rect id="Rectángulo_213292" data-name="Rectángulo 213292" width="6.693" height="6.697" transform="translate(87.341 217.625)"/>
    <rect id="Rectángulo_213293" data-name="Rectángulo 213293" width="6.697" height="6.697" transform="translate(100.726 217.625)"/>
    <rect id="Rectángulo_213294" data-name="Rectángulo 213294" width="6.693" height="6.697" transform="translate(114.103 217.625)"/>
    <rect id="Rectángulo_213295" data-name="Rectángulo 213295" width="6.693" height="6.697" transform="translate(120.796 217.625)"/>
    <rect id="Rectángulo_213296" data-name="Rectángulo 213296" width="6.701" height="6.697" transform="translate(134.181 217.625)"/>
    <rect id="Rectángulo_213297" data-name="Rectángulo 213297" width="6.684" height="6.697" transform="translate(140.882 217.625)"/>
    <rect id="Rectángulo_213298" data-name="Rectángulo 213298" width="6.693" height="6.697" transform="translate(160.947 217.625)"/>
    <rect id="Rectángulo_213299" data-name="Rectángulo 213299" width="6.693" height="6.697" transform="translate(181.013 217.625)"/>
    <rect id="Rectángulo_213300" data-name="Rectángulo 213300" width="6.684" height="6.697" transform="translate(221.173 217.625)"/>
    <rect id="Rectángulo_213301" data-name="Rectángulo 213301" width="6.689" height="6.697" transform="translate(227.857 217.625)"/>
    <rect id="Rectángulo_213302" data-name="Rectángulo 213302" width="6.688" height="6.697" transform="translate(241.247 217.625)"/>
    <rect id="Rectángulo_213303" data-name="Rectángulo 213303" width="6.697" height="6.693" transform="translate(100.726 224.322)"/>
    <rect id="Rectángulo_213304" data-name="Rectángulo 213304" width="6.68" height="6.693" transform="translate(107.423 224.322)"/>
    <rect id="Rectángulo_213305" data-name="Rectángulo 213305" width="6.693" height="6.693" transform="translate(114.103 224.322)"/>
    <rect id="Rectángulo_213306" data-name="Rectángulo 213306" width="6.693" height="6.693" transform="translate(147.566 224.322)"/>
    <rect id="Rectángulo_213307" data-name="Rectángulo 213307" width="6.689" height="6.693" transform="translate(154.259 224.322)"/>
    <rect id="Rectángulo_213308" data-name="Rectángulo 213308" width="6.693" height="6.693" transform="translate(160.947 224.322)"/>
    <rect id="Rectángulo_213309" data-name="Rectángulo 213309" width="6.68" height="6.693" transform="translate(174.333 224.322)"/>
    <rect id="Rectángulo_213310" data-name="Rectángulo 213310" width="6.697" height="6.693" transform="translate(187.706 224.322)"/>
    <rect id="Rectángulo_213311" data-name="Rectángulo 213311" width="6.697" height="6.693" transform="translate(201.095 224.322)"/>
    <rect id="Rectángulo_213312" data-name="Rectángulo 213312" width="6.68" height="6.693" transform="translate(207.792 224.322)"/>
    <rect id="Rectángulo_213313" data-name="Rectángulo 213313" width="6.689" height="6.689" transform="translate(80.652 231.014)"/>
    <rect id="Rectángulo_213314" data-name="Rectángulo 213314" width="6.693" height="6.689" transform="translate(87.341 231.014)"/>
    <rect id="Rectángulo_213315" data-name="Rectángulo 213315" width="6.693" height="6.689" transform="translate(94.033 231.014)"/>
    <rect id="Rectángulo_213316" data-name="Rectángulo 213316" width="6.693" height="6.689" transform="translate(120.796 231.014)"/>
    <rect id="Rectángulo_213317" data-name="Rectángulo 213317" width="6.693" height="6.689" transform="translate(127.488 231.014)"/>
    <rect id="Rectángulo_213318" data-name="Rectángulo 213318" width="6.701" height="6.689" transform="translate(134.181 231.014)"/>
    <rect id="Rectángulo_213319" data-name="Rectángulo 213319" width="6.693" height="6.689" transform="translate(147.566 231.014)"/>
    <rect id="Rectángulo_213320" data-name="Rectángulo 213320" width="6.693" height="6.689" transform="translate(181.013 231.014)"/>
    <rect id="Rectángulo_213321" data-name="Rectángulo 213321" width="6.697" height="6.689" transform="translate(187.706 231.014)"/>
    <rect id="Rectángulo_213322" data-name="Rectángulo 213322" width="6.693" height="6.689" transform="translate(194.402 231.014)"/>
    <rect id="Rectángulo_213323" data-name="Rectángulo 213323" width="6.697" height="6.689" transform="translate(201.095 231.014)"/>
    <rect id="Rectángulo_213324" data-name="Rectángulo 213324" width="6.68" height="6.689" transform="translate(207.792 231.014)"/>
    <rect id="Rectángulo_213325" data-name="Rectángulo 213325" width="6.701" height="6.689" transform="translate(214.472 231.014)"/>
    <rect id="Rectángulo_213326" data-name="Rectángulo 213326" width="6.701" height="6.689" transform="translate(234.546 231.014)"/>
    <rect id="Rectángulo_213327" data-name="Rectángulo 213327" width="6.701" height="6.693" transform="translate(134.181 237.703)"/>
    <rect id="Rectángulo_213328" data-name="Rectángulo 213328" width="6.684" height="6.693" transform="translate(140.882 237.703)"/>
    <rect id="Rectángulo_213329" data-name="Rectángulo 213329" width="6.693" height="6.693" transform="translate(147.566 237.703)"/>
    <rect id="Rectángulo_213330" data-name="Rectángulo 213330" width="6.693" height="6.693" transform="translate(167.64 237.703)"/>
    <rect id="Rectángulo_213331" data-name="Rectángulo 213331" width="6.697" height="6.693" transform="translate(187.706 237.703)"/>
    <rect id="Rectángulo_213332" data-name="Rectángulo 213332" width="6.701" height="6.693" transform="translate(214.472 237.703)"/>
    <rect id="Rectángulo_213333" data-name="Rectángulo 213333" width="6.689" height="6.693" transform="translate(227.857 237.703)"/>
    <rect id="Rectángulo_213334" data-name="Rectángulo 213334" width="6.688" height="6.693" transform="translate(241.247 237.703)"/>
    <rect id="Rectángulo_213335" data-name="Rectángulo 213335" width="6.689" height="6.688" transform="translate(80.652 244.396)"/>
    <rect id="Rectángulo_213336" data-name="Rectángulo 213336" width="6.693" height="6.688" transform="translate(87.341 244.396)"/>
    <rect id="Rectángulo_213337" data-name="Rectángulo 213337" width="6.693" height="6.688" transform="translate(94.033 244.396)"/>
    <rect id="Rectángulo_213338" data-name="Rectángulo 213338" width="6.697" height="6.688" transform="translate(100.726 244.396)"/>
    <rect id="Rectángulo_213339" data-name="Rectángulo 213339" width="6.68" height="6.688" transform="translate(107.423 244.396)"/>
    <rect id="Rectángulo_213340" data-name="Rectángulo 213340" width="6.693" height="6.688" transform="translate(114.103 244.396)"/>
    <rect id="Rectángulo_213341" data-name="Rectángulo 213341" width="6.693" height="6.688" transform="translate(120.796 244.396)"/>
    <rect id="Rectángulo_213342" data-name="Rectángulo 213342" width="6.693" height="6.688" transform="translate(147.566 244.396)"/>
    <rect id="Rectángulo_213343" data-name="Rectángulo 213343" width="6.689" height="6.688" transform="translate(154.259 244.396)"/>
    <rect id="Rectángulo_213344" data-name="Rectángulo 213344" width="6.693" height="6.688" transform="translate(167.64 244.396)"/>
    <rect id="Rectángulo_213345" data-name="Rectángulo 213345" width="6.697" height="6.688" transform="translate(187.706 244.396)"/>
    <rect id="Rectángulo_213346" data-name="Rectángulo 213346" width="6.697" height="6.688" transform="translate(201.095 244.396)"/>
    <rect id="Rectángulo_213347" data-name="Rectángulo 213347" width="6.701" height="6.688" transform="translate(214.472 244.396)"/>
    <rect id="Rectángulo_213348" data-name="Rectángulo 213348" width="6.684" height="6.688" transform="translate(221.173 244.396)"/>
    <rect id="Rectángulo_213349" data-name="Rectángulo 213349" width="6.688" height="6.688" transform="translate(241.247 244.396)"/>
    <rect id="Rectángulo_213350" data-name="Rectángulo 213350" width="6.689" height="6.693" transform="translate(80.652 251.084)"/>
    <rect id="Rectángulo_213351" data-name="Rectángulo 213351" width="6.693" height="6.693" transform="translate(120.796 251.084)"/>
    <rect id="Rectángulo_213352" data-name="Rectángulo 213352" width="6.701" height="6.693" transform="translate(134.181 251.084)"/>
    <rect id="Rectángulo_213353" data-name="Rectángulo 213353" width="6.693" height="6.693" transform="translate(147.566 251.084)"/>
    <rect id="Rectángulo_213354" data-name="Rectángulo 213354" width="6.68" height="6.693" transform="translate(174.333 251.084)"/>
    <rect id="Rectángulo_213355" data-name="Rectángulo 213355" width="6.693" height="6.693" transform="translate(181.013 251.084)"/>
    <rect id="Rectángulo_213356" data-name="Rectángulo 213356" width="6.697" height="6.693" transform="translate(187.706 251.084)"/>
    <rect id="Rectángulo_213357" data-name="Rectángulo 213357" width="6.701" height="6.693" transform="translate(214.472 251.084)"/>
    <rect id="Rectángulo_213358" data-name="Rectángulo 213358" width="6.701" height="6.693" transform="translate(234.546 251.084)"/>
    <rect id="Rectángulo_213359" data-name="Rectángulo 213359" width="6.688" height="6.693" transform="translate(241.247 251.084)"/>
    <rect id="Rectángulo_213360" data-name="Rectángulo 213360" width="6.689" height="6.693" transform="translate(80.652 257.777)"/>
    <rect id="Rectángulo_213361" data-name="Rectángulo 213361" width="6.693" height="6.693" transform="translate(94.033 257.777)"/>
    <rect id="Rectángulo_213362" data-name="Rectángulo 213362" width="6.697" height="6.693" transform="translate(100.726 257.777)"/>
    <rect id="Rectángulo_213363" data-name="Rectángulo 213363" width="6.68" height="6.693" transform="translate(107.423 257.777)"/>
    <rect id="Rectángulo_213364" data-name="Rectángulo 213364" width="6.693" height="6.693" transform="translate(120.796 257.777)"/>
    <rect id="Rectángulo_213365" data-name="Rectángulo 213365" width="6.693" height="6.693" transform="translate(147.566 257.777)"/>
    <rect id="Rectángulo_213366" data-name="Rectángulo 213366" width="6.689" height="6.693" transform="translate(154.259 257.777)"/>
    <rect id="Rectángulo_213367" data-name="Rectángulo 213367" width="6.693" height="6.693" transform="translate(160.947 257.777)"/>
    <rect id="Rectángulo_213368" data-name="Rectángulo 213368" width="6.68" height="6.693" transform="translate(174.333 257.777)"/>
    <rect id="Rectángulo_213369" data-name="Rectángulo 213369" width="6.693" height="6.693" transform="translate(181.013 257.777)"/>
    <rect id="Rectángulo_213370" data-name="Rectángulo 213370" width="6.697" height="6.693" transform="translate(187.706 257.777)"/>
    <rect id="Rectángulo_213371" data-name="Rectángulo 213371" width="6.693" height="6.693" transform="translate(194.402 257.777)"/>
    <rect id="Rectángulo_213372" data-name="Rectángulo 213372" width="6.697" height="6.693" transform="translate(201.095 257.777)"/>
    <rect id="Rectángulo_213373" data-name="Rectángulo 213373" width="6.68" height="6.693" transform="translate(207.792 257.777)"/>
    <rect id="Rectángulo_213374" data-name="Rectángulo 213374" width="6.701" height="6.693" transform="translate(214.472 257.777)"/>
    <rect id="Rectángulo_213375" data-name="Rectángulo 213375" width="6.684" height="6.693" transform="translate(221.173 257.777)"/>
    <rect id="Rectángulo_213376" data-name="Rectángulo 213376" width="6.688" height="6.693" transform="translate(241.247 257.777)"/>
    <rect id="Rectángulo_213377" data-name="Rectángulo 213377" width="6.689" height="6.688" transform="translate(80.652 264.47)"/>
    <rect id="Rectángulo_213378" data-name="Rectángulo 213378" width="6.693" height="6.688" transform="translate(94.033 264.47)"/>
    <rect id="Rectángulo_213379" data-name="Rectángulo 213379" width="6.697" height="6.688" transform="translate(100.726 264.47)"/>
    <rect id="Rectángulo_213380" data-name="Rectángulo 213380" width="6.68" height="6.688" transform="translate(107.423 264.47)"/>
    <rect id="Rectángulo_213381" data-name="Rectángulo 213381" width="6.693" height="6.688" transform="translate(120.796 264.47)"/>
    <rect id="Rectángulo_213382" data-name="Rectángulo 213382" width="6.684" height="6.688" transform="translate(140.882 264.47)"/>
    <rect id="Rectángulo_213383" data-name="Rectángulo 213383" width="6.693" height="6.688" transform="translate(160.947 264.47)"/>
    <rect id="Rectángulo_213384" data-name="Rectángulo 213384" width="6.693" height="6.688" transform="translate(167.64 264.47)"/>
    <rect id="Rectángulo_213385" data-name="Rectángulo 213385" width="6.697" height="6.688" transform="translate(187.706 264.47)"/>
    <rect id="Rectángulo_213386" data-name="Rectángulo 213386" width="6.693" height="6.688" transform="translate(194.402 264.47)"/>
    <rect id="Rectángulo_213387" data-name="Rectángulo 213387" width="6.68" height="6.688" transform="translate(207.792 264.47)"/>
    <rect id="Rectángulo_213388" data-name="Rectángulo 213388" width="6.701" height="6.688" transform="translate(214.472 264.47)"/>
    <rect id="Rectángulo_213389" data-name="Rectángulo 213389" width="6.684" height="6.688" transform="translate(221.173 264.47)"/>
    <rect id="Rectángulo_213390" data-name="Rectángulo 213390" width="6.689" height="6.688" transform="translate(227.857 264.47)"/>
    <rect id="Rectángulo_213391" data-name="Rectángulo 213391" width="6.701" height="6.688" transform="translate(234.546 264.47)"/>
    <rect id="Rectángulo_213392" data-name="Rectángulo 213392" width="6.689" height="6.693" transform="translate(80.652 271.158)"/>
    <rect id="Rectángulo_213393" data-name="Rectángulo 213393" width="6.693" height="6.693" transform="translate(94.033 271.158)"/>
    <rect id="Rectángulo_213394" data-name="Rectángulo 213394" width="6.697" height="6.693" transform="translate(100.726 271.158)"/>
    <rect id="Rectángulo_213395" data-name="Rectángulo 213395" width="6.68" height="6.693" transform="translate(107.423 271.158)"/>
    <rect id="Rectángulo_213396" data-name="Rectángulo 213396" width="6.693" height="6.693" transform="translate(120.796 271.158)"/>
    <rect id="Rectángulo_213397" data-name="Rectángulo 213397" width="6.701" height="6.693" transform="translate(134.181 271.158)"/>
    <rect id="Rectángulo_213398" data-name="Rectángulo 213398" width="6.684" height="6.693" transform="translate(140.882 271.158)"/>
    <rect id="Rectángulo_213399" data-name="Rectángulo 213399" width="6.693" height="6.693" transform="translate(160.947 271.158)"/>
    <rect id="Rectángulo_213400" data-name="Rectángulo 213400" width="6.693" height="6.693" transform="translate(181.013 271.158)"/>
    <rect id="Rectángulo_213401" data-name="Rectángulo 213401" width="6.697" height="6.693" transform="translate(187.706 271.158)"/>
    <rect id="Rectángulo_213402" data-name="Rectángulo 213402" width="6.693" height="6.693" transform="translate(194.402 271.158)"/>
    <rect id="Rectángulo_213403" data-name="Rectángulo 213403" width="6.701" height="6.693" transform="translate(214.472 271.158)"/>
    <rect id="Rectángulo_213404" data-name="Rectángulo 213404" width="6.701" height="6.693" transform="translate(234.546 271.158)"/>
    <rect id="Rectángulo_213405" data-name="Rectángulo 213405" width="6.688" height="6.693" transform="translate(241.247 271.158)"/>
    <rect id="Rectángulo_213406" data-name="Rectángulo 213406" width="6.689" height="6.689" transform="translate(80.652 277.851)"/>
    <rect id="Rectángulo_213407" data-name="Rectángulo 213407" width="6.693" height="6.689" transform="translate(120.796 277.851)"/>
    <rect id="Rectángulo_213408" data-name="Rectángulo 213408" width="6.701" height="6.689" transform="translate(134.181 277.851)"/>
    <rect id="Rectángulo_213409" data-name="Rectángulo 213409" width="6.689" height="6.689" transform="translate(154.259 277.851)"/>
    <rect id="Rectángulo_213410" data-name="Rectángulo 213410" width="6.693" height="6.689" transform="translate(160.947 277.851)"/>
    <rect id="Rectángulo_213411" data-name="Rectángulo 213411" width="6.68" height="6.689" transform="translate(174.333 277.851)"/>
    <rect id="Rectángulo_213412" data-name="Rectángulo 213412" width="6.693" height="6.689" transform="translate(181.013 277.851)"/>
    <rect id="Rectángulo_213413" data-name="Rectángulo 213413" width="6.697" height="6.689" transform="translate(187.706 277.851)"/>
    <rect id="Rectángulo_213414" data-name="Rectángulo 213414" width="6.693" height="6.689" transform="translate(194.402 277.851)"/>
    <rect id="Rectángulo_213415" data-name="Rectángulo 213415" width="6.68" height="6.689" transform="translate(207.792 277.851)"/>
    <rect id="Rectángulo_213416" data-name="Rectángulo 213416" width="6.701" height="6.689" transform="translate(214.472 277.851)"/>
    <rect id="Rectángulo_213417" data-name="Rectángulo 213417" width="6.689" height="6.693" transform="translate(80.652 284.539)"/>
    <rect id="Rectángulo_213418" data-name="Rectángulo 213418" width="6.693" height="6.693" transform="translate(87.341 284.539)"/>
    <rect id="Rectángulo_213419" data-name="Rectángulo 213419" width="6.693" height="6.693" transform="translate(94.033 284.539)"/>
    <rect id="Rectángulo_213420" data-name="Rectángulo 213420" width="6.697" height="6.693" transform="translate(100.726 284.539)"/>
    <rect id="Rectángulo_213421" data-name="Rectángulo 213421" width="6.68" height="6.693" transform="translate(107.423 284.539)"/>
    <rect id="Rectángulo_213422" data-name="Rectángulo 213422" width="6.693" height="6.693" transform="translate(114.103 284.539)"/>
    <rect id="Rectángulo_213423" data-name="Rectángulo 213423" width="6.693" height="6.693" transform="translate(120.796 284.539)"/>
    <rect id="Rectángulo_213424" data-name="Rectángulo 213424" width="6.701" height="6.693" transform="translate(134.181 284.539)"/>
    <rect id="Rectángulo_213425" data-name="Rectángulo 213425" width="6.684" height="6.693" transform="translate(140.882 284.539)"/>
    <rect id="Rectángulo_213426" data-name="Rectángulo 213426" width="6.693" height="6.693" transform="translate(160.947 284.539)"/>
    <rect id="Rectángulo_213427" data-name="Rectángulo 213427" width="6.693" height="6.693" transform="translate(167.64 284.539)"/>
    <rect id="Rectángulo_213428" data-name="Rectángulo 213428" width="6.68" height="6.693" transform="translate(174.333 284.539)"/>
    <rect id="Rectángulo_213429" data-name="Rectángulo 213429" width="6.697" height="6.693" transform="translate(187.706 284.539)"/>
    <rect id="Rectángulo_213430" data-name="Rectángulo 213430" width="6.693" height="6.693" transform="translate(194.402 284.539)"/>
    <rect id="Rectángulo_213431" data-name="Rectángulo 213431" width="6.684" height="6.693" transform="translate(221.173 284.539)"/>
    <rect id="Rectángulo_213432" data-name="Rectángulo 213432" width="6.688" height="6.693" transform="translate(241.247 284.539)"/>
  </g>
</svg>
