<?xml version="1.0" encoding="utf-8"?>
<!-- Generator: Adobe Illustrator 26.2.1, SVG Export Plug-In . SVG Version: 6.00 Build 0)  -->
<svg version="1.1" id="Layer_1" xmlns="http://www.w3.org/2000/svg" xmlns:xlink="http://www.w3.org/1999/xlink" x="0px" y="0px"
	 viewBox="0 0 356 249.5" style="enable-background:new 0 0 356 249.5;" xml:space="preserve">
<style type="text/css">
	.st0{fill:none;stroke:#000000;stroke-width:1.407;stroke-miterlimit:10;}
	.st1{fill:none;stroke:#000000;stroke-width:3.753;stroke-miterlimit:10;}
	.st2{fill:none;stroke:#000000;stroke-width:2.815;stroke-miterlimit:10;}
	.st3{fill:none;stroke:#000000;stroke-width:4.691;stroke-miterlimit:10;}
	.st4{enable-background:new    ;}
	.st5{fill:none;stroke:#FF1111;}
	.st6{fill:none;stroke:#FF1111;stroke-linecap:round;}
	.st7{fill:#12263F;}
</style>
<g id="Grupo_593759" transform="translate(-1025 -3995)">
	<g id="Grupo_593753" transform="translate(1336.513 3765.465)">
		<g id="Grupo_593752" transform="translate(-302.27 229.535)">
			<g id="Grupo_593750" transform="translate(23.088)">
				<line id="Línea_1944" class="st0" x1="0" y1="0" x2="0" y2="114"/>
				<line id="Línea_1945" class="st0" x1="4.9" y1="0" x2="4.9" y2="114"/>
				<line id="Línea_1946" class="st1" x1="13.1" y1="0" x2="13.1" y2="98.5"/>
				<line id="Línea_1947" class="st1" x1="94.7" y1="0" x2="94.7" y2="98.5"/>
				<line id="Línea_1948" class="st2" x1="22" y1="0" x2="22" y2="98.5"/>
				<line id="Línea_1949" class="st2" x1="106.1" y1="0" x2="106.1" y2="98.5"/>
				<line id="Línea_1950" class="st2" x1="77.5" y1="0" x2="77.5" y2="98.5"/>
				<line id="Línea_1951" class="st0" x1="34" y1="0" x2="34" y2="98.5"/>
				<line id="Línea_1952" class="st0" x1="41.9" y1="0" x2="41.9" y2="98.5"/>
				<line id="Línea_1953" class="st0" x1="115.6" y1="0" x2="115.6" y2="98.5"/>
				<line id="Línea_1954" class="st0" x1="120.8" y1="0" x2="120.8" y2="114"/>
				<line id="Línea_1955" class="st0" x1="126.2" y1="0" x2="126.2" y2="114"/>
				<line id="Línea_1956" class="st0" x1="241.6" y1="0" x2="241.6" y2="98.5"/>
				<line id="Línea_1957" class="st0" x1="247" y1="0" x2="247" y2="114"/>
				<line id="Línea_1958" class="st0" x1="131.7" y1="0" x2="131.7" y2="98.5"/>
				<line id="Línea_1959" class="st0" x1="143.9" y1="0" x2="143.9" y2="98.5"/>
				<line id="Línea_1960" class="st0" x1="149.9" y1="0" x2="149.9" y2="98.5"/>
				<line id="Línea_1961" class="st0" x1="160.2" y1="0" x2="160.2" y2="98.5"/>
				<line id="Línea_1962" class="st0" x1="179.8" y1="0" x2="179.8" y2="98.5"/>
				<line id="Línea_1963" class="st0" x1="186.6" y1="0" x2="186.6" y2="98.5"/>
				<line id="Línea_1964" class="st0" x1="191.8" y1="0" x2="191.8" y2="98.5"/>
				<line id="Línea_1965" class="st0" x1="223.1" y1="0" x2="223.1" y2="98.5"/>
				<line id="Línea_1966" class="st2" x1="206.2" y1="0" x2="206.2" y2="98.5"/>
				<line id="Línea_1967" class="st2" x1="214.1" y1="0" x2="214.1" y2="98.5"/>
				<line id="Línea_1968" class="st3" x1="170.9" y1="0" x2="170.9" y2="98.5"/>
				<line id="Línea_1969" class="st3" x1="231.5" y1="0" x2="231.5" y2="98.5"/>
				<line id="Línea_1970" class="st0" x1="47.3" y1="0" x2="47.3" y2="98.5"/>
				<line id="Línea_1971" class="st0" x1="83.8" y1="0" x2="83.8" y2="98.5"/>
				<line id="Línea_1972" class="st0" x1="68.3" y1="0" x2="68.3" y2="98.5"/>
				<line id="Línea_1973" class="st1" x1="57.4" y1="0" x2="57.4" y2="98.5"/>
			</g>
			<g id="Grupo_593751" transform="translate(0 91.484)">
				<g class="st4">
					<path d="M-3.7,26.1c0-0.6,0.1-1.1,0.3-1.7c0.2-0.6,0.4-1.1,0.8-1.6s0.7-0.9,1.2-1.3s1-0.7,1.6-1c-0.9-0.5-1.6-1.2-2.2-2
						S-2.8,17-2.8,16c0-0.8,0.1-1.5,0.4-2.1s0.7-1.2,1.2-1.7s1.2-0.9,1.9-1.1c0.7-0.3,1.5-0.4,2.3-0.4c0.8,0,1.6,0.1,2.4,0.4
						s1.3,0.6,1.9,1.1s0.9,1,1.2,1.7S9,15.2,9,16c0,1-0.3,1.8-0.8,2.6s-1.2,1.4-2.1,2c0.6,0.2,1.1,0.6,1.6,1s0.9,0.8,1.2,1.3
						s0.6,1,0.8,1.6c0.2,0.6,0.3,1.1,0.3,1.7c0,0.9-0.2,1.8-0.5,2.5s-0.8,1.4-1.4,2c-0.6,0.5-1.3,1-2.2,1.3s-1.8,0.5-2.8,0.5
						c-1,0-1.9-0.2-2.7-0.5s-1.5-0.7-2.2-1.3c-0.6-0.5-1.1-1.2-1.4-2S-3.7,27.1-3.7,26.1z M-1.1,25.9c0,0.7,0.1,1.2,0.3,1.8
						s0.5,1,0.8,1.3s0.8,0.7,1.3,0.9c0.5,0.2,1.1,0.3,1.7,0.3c0.6,0,1.2-0.1,1.7-0.3s1-0.5,1.3-0.9s0.7-0.8,0.9-1.3s0.3-1.1,0.3-1.8
						c0-0.6-0.1-1.1-0.3-1.6c-0.2-0.5-0.5-1-0.9-1.4S5.4,22.2,4.9,22s-1.1-0.3-1.7-0.3c-0.6,0-1.2,0.1-1.7,0.3s-1,0.5-1.3,0.9
						s-0.7,0.8-0.9,1.3S-1.1,25.3-1.1,25.9z M-0.3,16.2c0,0.5,0.1,1,0.3,1.4c0.2,0.4,0.4,0.8,0.7,1.1C1,19,1.4,19.3,1.8,19.4
						s0.9,0.3,1.3,0.3s0.9-0.1,1.4-0.3s0.8-0.4,1.1-0.8s0.6-0.7,0.7-1.1c0.2-0.4,0.3-0.9,0.3-1.4c0-0.5-0.1-1-0.3-1.4
						S5.9,14,5.6,13.7s-0.7-0.6-1.1-0.7s-0.9-0.3-1.4-0.3c-0.5,0-1,0.1-1.4,0.3s-0.8,0.4-1.1,0.8s-0.5,0.7-0.7,1.1
						S-0.3,15.7-0.3,16.2z"/>
				</g>
				<g class="st4">
					<path d="M40.6,11v13.9h2.7v2.2h-2.7V32h-2.4v-4.9h-9.9V25c0.9-1,1.8-2.1,2.8-3.3s1.8-2.4,2.7-3.6s1.6-2.4,2.4-3.6
						s1.3-2.4,1.8-3.5H40.6z M31,24.9h7.2V14.6c-0.7,1.3-1.4,2.4-2.1,3.4s-1.3,1.9-1.9,2.7s-1.2,1.6-1.7,2.2S31.5,24.3,31,24.9z"/>
					<path d="M63.7,32h-2.4V13.9c-0.2,0.2-0.5,0.4-0.8,0.6s-0.8,0.5-1.2,0.7s-0.9,0.5-1.4,0.7s-1,0.4-1.4,0.5v-2.4
						c0.5-0.1,1.1-0.3,1.7-0.6c0.6-0.2,1.2-0.5,1.7-0.8c0.6-0.3,1.1-0.6,1.6-1c0.5-0.3,0.9-0.7,1.3-1h0.9V32z"/>
					<path d="M82,11v13.9h2.7v2.2H82V32h-2.4v-4.9h-9.9V25c0.9-1,1.8-2.1,2.8-3.3s1.8-2.4,2.7-3.6s1.6-2.4,2.4-3.6s1.3-2.4,1.8-3.5
						H82z M72.5,24.9h7.2V14.6c-0.7,1.3-1.4,2.4-2.1,3.4s-1.3,1.9-1.9,2.7S74.6,22.3,74,23S73,24.3,72.5,24.9z"/>
					<path d="M97.4,16.5c0-0.6-0.1-1.2-0.3-1.7s-0.5-0.9-0.8-1.2c-0.3-0.3-0.8-0.6-1.2-0.7s-1-0.2-1.5-0.2c-0.5,0-0.9,0.1-1.4,0.2
						s-0.9,0.3-1.3,0.5s-0.8,0.5-1.2,0.8s-0.8,0.7-1.1,1v-2.6c0.7-0.7,1.4-1.2,2.3-1.5c0.8-0.3,1.9-0.5,3.1-0.5
						c0.9,0,1.7,0.1,2.4,0.4c0.7,0.2,1.4,0.6,1.9,1.1s1,1.1,1.3,1.8s0.5,1.5,0.5,2.4c0,0.8-0.1,1.6-0.3,2.3s-0.5,1.3-0.9,1.9
						s-0.9,1.2-1.5,1.7s-1.3,1.1-2.1,1.7c-1,0.7-1.8,1.3-2.4,1.8s-1.1,1-1.5,1.4c-0.4,0.4-0.6,0.9-0.8,1.3s-0.2,0.9-0.2,1.5h10.5V32
						h-13v-1c0-0.9,0.1-1.7,0.3-2.4s0.5-1.3,1-1.9s1-1.2,1.8-1.8s1.6-1.3,2.7-2.1c0.8-0.5,1.4-1.1,1.9-1.6s0.9-1,1.2-1.5
						s0.5-1,0.7-1.5C97.3,17.6,97.4,17.1,97.4,16.5z"/>
					<path d="M116.5,26.1c0,0.9-0.2,1.8-0.5,2.6c-0.4,0.8-0.9,1.4-1.5,2s-1.4,1-2.3,1.3s-1.9,0.5-3,0.5c-2,0-3.6-0.4-4.8-1.1v-2.6
						c1.4,1.1,3,1.7,4.9,1.7c0.7,0,1.4-0.1,2-0.3s1.1-0.5,1.5-0.8s0.8-0.8,1-1.3s0.3-1.1,0.3-1.7c0-2.7-2-4.1-5.9-4.1h-1.7v-2h1.7
						c3.5,0,5.2-1.3,5.2-3.9c0-2.4-1.3-3.6-4-3.6c-1.5,0-2.9,0.5-4.2,1.5v-2.3c1.3-0.8,2.9-1.2,4.8-1.2c0.9,0,1.7,0.1,2.4,0.4
						s1.3,0.6,1.8,1s0.9,1,1.2,1.6s0.4,1.3,0.4,2c0,2.8-1.4,4.5-4.2,5.3V21c0.7,0.1,1.4,0.3,2,0.5c0.6,0.3,1.1,0.6,1.6,1
						s0.8,0.9,1,1.5S116.5,25.3,116.5,26.1z"/>
					<path d="M133.8,12.4c-0.3,0.6-0.7,1.2-1.2,2.1s-0.9,1.8-1.4,2.8s-1,2.1-1.6,3.3s-1,2.4-1.5,3.7s-0.9,2.6-1.2,3.9
						c-0.3,1.3-0.6,2.6-0.8,3.8h-2.6c0.2-1.2,0.4-2.5,0.8-3.8c0.4-1.3,0.8-2.6,1.2-3.8s1-2.5,1.5-3.6s1-2.2,1.5-3.2s0.9-1.8,1.3-2.6
						c0.4-0.7,0.7-1.3,1-1.8h-10.5V11h13.4V12.4z"/>
				</g>
				<g class="st4">
					<path d="M170.2,21.4c0,1.8-0.2,3.3-0.5,4.7c-0.3,1.4-0.8,2.5-1.4,3.4s-1.3,1.6-2.2,2.1c-0.9,0.5-1.9,0.7-3,0.7
						c-1.1,0-2-0.2-2.8-0.7c-0.8-0.5-1.5-1.1-2.1-2s-1-2-1.3-3.3c-0.3-1.3-0.4-2.8-0.4-4.4c0-1.8,0.2-3.5,0.5-4.9s0.8-2.6,1.4-3.5
						c0.6-1,1.3-1.7,2.2-2.2c0.9-0.5,1.9-0.7,3-0.7C168,10.6,170.2,14.2,170.2,21.4z M167.8,21.6c0-6-1.4-9-4.3-9
						c-3,0-4.5,3-4.5,9.1c0,5.7,1.5,8.5,4.4,8.5C166.3,30.3,167.8,27.4,167.8,21.6z"/>
					<path d="M189.7,21.4c0,1.8-0.2,3.3-0.5,4.7s-0.8,2.5-1.4,3.4s-1.3,1.6-2.2,2.1c-0.9,0.5-1.9,0.7-3,0.7c-1.1,0-2-0.2-2.8-0.7
						c-0.8-0.5-1.5-1.1-2.1-2s-1-2-1.3-3.3c-0.3-1.3-0.4-2.8-0.4-4.4c0-1.8,0.2-3.5,0.5-4.9s0.8-2.6,1.4-3.5c0.6-1,1.3-1.7,2.2-2.2
						c0.9-0.5,1.9-0.7,3-0.7C187.5,10.6,189.7,14.2,189.7,21.4z M187.3,21.6c0-6-1.4-9-4.3-9c-3,0-4.5,3-4.5,9.1
						c0,5.7,1.5,8.5,4.4,8.5C185.8,30.3,187.3,27.4,187.3,21.6z"/>
					<path d="M209.2,21.4c0,1.8-0.2,3.3-0.5,4.7s-0.8,2.5-1.4,3.4s-1.3,1.6-2.2,2.1c-0.9,0.5-1.9,0.7-3,0.7c-1.1,0-2-0.2-2.8-0.7
						c-0.8-0.5-1.5-1.1-2.1-2s-1-2-1.3-3.3c-0.3-1.3-0.4-2.8-0.4-4.4c0-1.8,0.2-3.5,0.5-4.9s0.8-2.6,1.4-3.5c0.6-1,1.3-1.7,2.2-2.2
						c0.9-0.5,1.9-0.7,3-0.7C207,10.6,209.2,14.2,209.2,21.4z M206.7,21.6c0-6-1.4-9-4.3-9c-3,0-4.5,3-4.5,9.1
						c0,5.7,1.5,8.5,4.4,8.5C205.3,30.3,206.7,27.4,206.7,21.6z"/>
					<path d="M224.3,32h-2.4V13.9c-0.2,0.2-0.5,0.4-0.8,0.6s-0.8,0.5-1.2,0.7s-0.9,0.5-1.4,0.7s-1,0.4-1.4,0.5v-2.4
						c0.5-0.1,1.1-0.3,1.7-0.6c0.6-0.2,1.2-0.5,1.7-0.8c0.6-0.3,1.1-0.6,1.6-1c0.5-0.3,0.9-0.7,1.3-1h0.9V32z"/>
					<path d="M247.4,25.6c0,1-0.2,2-0.5,2.8s-0.9,1.5-1.5,2.1s-1.4,1.1-2.4,1.4s-1.9,0.5-3.1,0.5c-2,0-3.4-0.3-4.4-0.9v-2.5
						c1.4,0.9,2.9,1.4,4.4,1.4c0.8,0,1.4-0.1,2.1-0.3s1.1-0.5,1.6-0.9s0.8-0.9,1-1.5s0.3-1.2,0.3-1.9c0-1.4-0.5-2.4-1.4-3.2
						c-0.9-0.8-2.3-1.2-4-1.2c-0.3,0-0.6,0-0.9,0s-0.6,0-0.9,0c-0.3,0-0.6,0-0.9,0.1s-0.6,0-0.8,0.1l0.7-10.5h9.7v2.2h-7.6l-0.4,6.2
						c0.3,0,0.6,0,1-0.1c0.4,0,0.7,0,0.9,0c1.1,0,2.1,0.1,3,0.4s1.6,0.7,2.2,1.3c0.6,0.5,1.1,1.2,1.4,2
						C247.2,23.7,247.4,24.6,247.4,25.6z"/>
					<path d="M266.6,26.1c0,0.9-0.2,1.8-0.5,2.6c-0.4,0.8-0.9,1.4-1.5,2s-1.4,1-2.3,1.3s-1.9,0.5-3,0.5c-2,0-3.6-0.4-4.8-1.1v-2.6
						c1.4,1.1,3,1.7,4.9,1.7c0.7,0,1.4-0.1,2-0.3s1.1-0.5,1.5-0.8s0.8-0.8,1-1.3s0.3-1.1,0.3-1.7c0-2.7-2-4.1-5.9-4.1h-1.7v-2h1.7
						c3.5,0,5.2-1.3,5.2-3.9c0-2.4-1.3-3.6-4-3.6c-1.5,0-2.9,0.5-4.2,1.5v-2.3c1.3-0.8,2.9-1.2,4.8-1.2c0.9,0,1.7,0.1,2.4,0.4
						s1.3,0.6,1.8,1s0.9,1,1.2,1.6s0.4,1.3,0.4,2c0,2.8-1.4,4.5-4.2,5.3V21c0.7,0.1,1.4,0.3,2,0.5c0.6,0.3,1.1,0.6,1.6,1
						s0.8,0.9,1,1.5S266.6,25.3,266.6,26.1z"/>
				</g>
			</g>
		</g>
	</g>
	<g id="Grupo_593758">
		<g id="Grupo_593754">
			<line id="Línea_1974" class="st5" x1="1025.5" y1="4121.5" x2="1025.5" y2="4133.5"/>
			<line id="Línea_1975" class="st5" x1="1077.5" y1="4121.5" x2="1077.5" y2="4133.5"/>
			<line id="Línea_1977" class="st5" x1="1051.5" y1="4133.5" x2="1051.5" y2="4147.5"/>
			<line id="Línea_1976" class="st6" x1="1025.5" y1="4133.5" x2="1077.5" y2="4133.5"/>
		</g>
		<g id="Grupo_593755" transform="translate(59)">
			<line id="Línea_1974-2" class="st5" x1="1025.5" y1="4121.5" x2="1025.5" y2="4133.5"/>
			<line id="Línea_1975-2" class="st5" x1="1112.1" y1="4121.5" x2="1112.1" y2="4133.5"/>
			<line id="Línea_1977-2" class="st5" x1="1068.8" y1="4133.5" x2="1068.8" y2="4199.5"/>
			<line id="Línea_1976-2" class="st6" x1="1025.5" y1="4133.5" x2="1112.1" y2="4133.5"/>
		</g>
		<g id="Grupo_593756" transform="translate(164)">
			<line id="Línea_1974-3" class="st5" x1="1025.5" y1="4121.5" x2="1025.5" y2="4133.5"/>
			<line id="Línea_1975-3" class="st5" x1="1115.5" y1="4121.5" x2="1115.5" y2="4133.5"/>
			<line id="Línea_1977-3" class="st5" x1="1070.5" y1="4133.5" x2="1070.5" y2="4147.5"/>
			<line id="Línea_1976-3" class="st6" x1="1025.5" y1="4133.5" x2="1115.5" y2="4133.5"/>
		</g>
		<g id="Grupo_593757" transform="translate(260)">
			<line id="Línea_1974-4" class="st5" x1="1025.5" y1="4121.5" x2="1025.5" y2="4133.5"/>
			<line id="Línea_1975-4" class="st5" x1="1044.4" y1="4121.5" x2="1044.4" y2="4133.5"/>
			<line id="Línea_1977-4" class="st5" x1="1034.9" y1="4133.5" x2="1034.9" y2="4220.5"/>
			<line id="Línea_1976-4" class="st6" x1="1025.5" y1="4133.5" x2="1044.4" y2="4133.5"/>
		</g>
	</g>
	<g class="st4">
		<path class="st7" d="M1026.3,4162.5V4151h3.7c1.4,0,2.3,0.1,2.8,0.2c0.7,0.2,1.2,0.5,1.6,1.1c0.4,0.6,0.7,1.3,0.7,2.2
			c0,0.7-0.1,1.3-0.4,1.8c-0.3,0.5-0.6,0.9-1,1.1c-0.4,0.3-0.8,0.5-1.2,0.5c-0.6,0.1-1.4,0.2-2.4,0.2h-1.5v4.3H1026.3z M1028.6,4153
			v3.2h1.3c0.9,0,1.5-0.1,1.8-0.2c0.3-0.1,0.5-0.3,0.7-0.6c0.2-0.3,0.3-0.6,0.3-0.9c0-0.4-0.1-0.8-0.4-1c-0.2-0.3-0.6-0.4-0.9-0.5
			c-0.3-0.1-0.8-0.1-1.7-0.1H1028.6z"/>
		<path class="st7" d="M1039,4162.5h-2.2v-8.3h2v1.2c0.3-0.6,0.7-0.9,0.9-1.1c0.3-0.2,0.6-0.3,0.9-0.3c0.5,0,1,0.1,1.4,0.4l-0.7,1.9
			c-0.4-0.2-0.7-0.4-1-0.4c-0.3,0-0.6,0.1-0.8,0.3c-0.2,0.2-0.4,0.5-0.5,0.9c-0.1,0.4-0.2,1.4-0.2,2.8V4162.5z"/>
		<path class="st7" d="M1048,4159.9l2.2,0.4c-0.3,0.8-0.7,1.4-1.3,1.8c-0.6,0.4-1.4,0.6-2.3,0.6c-1.4,0-2.5-0.5-3.2-1.4
			c-0.5-0.8-0.8-1.7-0.8-2.9c0-1.4,0.4-2.5,1.1-3.2s1.6-1.2,2.7-1.2c1.2,0,2.2,0.4,2.9,1.2c0.7,0.8,1.1,2.1,1,3.7h-5.5
			c0,0.7,0.2,1.2,0.5,1.5c0.3,0.4,0.8,0.5,1.3,0.5c0.3,0,0.6-0.1,0.9-0.3S1047.8,4160.3,1048,4159.9z M1048.1,4157.6
			c0-0.6-0.2-1.1-0.5-1.4s-0.7-0.5-1.1-0.5c-0.5,0-0.9,0.2-1.2,0.5s-0.5,0.8-0.5,1.4H1048.1z"/>
		<path class="st7" d="M1051.1,4154.2h1.2v-0.6c0-0.7,0.1-1.2,0.2-1.6s0.4-0.6,0.8-0.8s0.9-0.3,1.5-0.3c0.6,0,1.2,0.1,1.8,0.3
			l-0.3,1.5c-0.3-0.1-0.7-0.1-1-0.1c-0.3,0-0.5,0.1-0.7,0.2c-0.1,0.1-0.2,0.4-0.2,0.9v0.6h1.6v1.7h-1.6v6.6h-2.2v-6.6h-1.2V4154.2z"
			/>
		<path class="st7" d="M1057.4,4153.1v-2h2.2v2H1057.4z M1057.4,4162.5v-8.3h2.2v8.3H1057.4z"/>
		<path class="st7" d="M1064,4154.2v8c0,1.1-0.1,1.8-0.2,2.2c-0.1,0.4-0.4,0.8-0.8,1c-0.4,0.2-0.9,0.4-1.5,0.4c-0.2,0-0.5,0-0.7-0.1
			s-0.5-0.1-0.8-0.2l0.4-1.9c0.1,0,0.2,0,0.3,0.1s0.2,0,0.3,0c0.2,0,0.4,0,0.6-0.1c0.1-0.1,0.2-0.2,0.3-0.3s0.1-0.5,0.1-1.2v-7.9
			H1064z M1061.8,4153.1v-2h2.2v2H1061.8z"/>
		<path class="st7" d="M1065.8,4158.2c0-0.7,0.2-1.4,0.5-2.1s0.9-1.2,1.5-1.6c0.7-0.4,1.4-0.5,2.2-0.5c1.3,0,2.3,0.4,3.1,1.2
			c0.8,0.8,1.2,1.8,1.2,3.1c0,1.3-0.4,2.3-1.2,3.1c-0.8,0.8-1.8,1.2-3.1,1.2c-0.8,0-1.5-0.2-2.2-0.5c-0.7-0.3-1.2-0.8-1.6-1.5
			S1065.8,4159.2,1065.8,4158.2z M1068,4158.4c0,0.8,0.2,1.5,0.6,1.9s0.9,0.7,1.4,0.7c0.6,0,1.1-0.2,1.4-0.7
			c0.4-0.4,0.6-1.1,0.6-1.9c0-0.8-0.2-1.4-0.6-1.9c-0.4-0.4-0.9-0.7-1.4-0.7c-0.6,0-1.1,0.2-1.4,0.7S1068,4157.5,1068,4158.4z"/>
	</g>
	<g class="st4">
		<path class="st7" d="M1040.5,4179.3v-1.9h5v4.6c-0.5,0.5-1.2,0.9-2.1,1.2c-0.9,0.4-1.9,0.5-2.8,0.5c-1.2,0-2.2-0.3-3.1-0.8
			s-1.6-1.2-2-2.2c-0.4-0.9-0.7-2-0.7-3.1c0-1.2,0.2-2.3,0.8-3.2s1.2-1.6,2.2-2.1c0.7-0.4,1.6-0.6,2.7-0.6c1.4,0,2.5,0.3,3.3,0.9
			c0.8,0.6,1.3,1.4,1.5,2.5l-2.3,0.4c-0.2-0.6-0.5-1-0.9-1.3s-1-0.5-1.7-0.5c-1,0-1.8,0.3-2.4,1c-0.6,0.6-0.9,1.6-0.9,2.9
			c0,1.4,0.3,2.4,0.9,3.1c0.6,0.7,1.4,1,2.4,1c0.5,0,1-0.1,1.5-0.3c0.5-0.2,0.9-0.4,1.3-0.7v-1.5H1040.5z"/>
		<path class="st7" d="M1047,4179.8l2.2-0.2c0.1,0.8,0.4,1.3,0.8,1.7s1,0.5,1.7,0.5c0.7,0,1.3-0.2,1.7-0.5c0.4-0.3,0.6-0.7,0.6-1.1
			c0-0.3-0.1-0.5-0.2-0.7c-0.2-0.2-0.4-0.4-0.8-0.5c-0.3-0.1-0.9-0.3-1.9-0.5c-1.2-0.3-2.1-0.7-2.6-1.1c-0.7-0.6-1.1-1.4-1.1-2.3
			c0-0.6,0.2-1.1,0.5-1.6c0.3-0.5,0.8-0.9,1.4-1.2c0.6-0.3,1.4-0.4,2.3-0.4c1.4,0,2.5,0.3,3.2,0.9s1.1,1.5,1.1,2.5l-2.3,0.1
			c-0.1-0.6-0.3-1-0.6-1.3c-0.3-0.3-0.8-0.4-1.5-0.4c-0.7,0-1.2,0.1-1.6,0.4c-0.2,0.2-0.4,0.4-0.4,0.7c0,0.3,0.1,0.5,0.3,0.7
			c0.3,0.2,1,0.5,2.1,0.8s2,0.5,2.5,0.8s1,0.7,1.3,1.2s0.5,1.1,0.5,1.8c0,0.7-0.2,1.3-0.5,1.8c-0.4,0.6-0.9,1-1.5,1.3
			c-0.7,0.3-1.5,0.4-2.5,0.4c-1.4,0-2.6-0.3-3.3-1C1047.6,4182,1047.2,4181.1,1047,4179.8z"/>
		<path class="st7" d="M1063.4,4183.5h-2.2v-8.3c-0.8,0.8-1.7,1.3-2.8,1.7v-2c0.6-0.2,1.2-0.5,1.9-1.1s1.1-1.1,1.4-1.8h1.8V4183.5z"
			/>
	</g>
	<g class="st4">
		<path class="st7" d="M1035.1,4196.2h2v1.2c0.3-0.4,0.6-0.8,1.1-1s1-0.4,1.5-0.4c1,0,1.8,0.4,2.5,1.1s1,1.8,1,3.2
			c0,1.4-0.3,2.5-1,3.2c-0.7,0.8-1.5,1.2-2.5,1.2c-0.5,0-0.9-0.1-1.2-0.3c-0.4-0.2-0.8-0.5-1.2-0.9v4.2h-2.2V4196.2z M1037.2,4200.2
			c0,0.9,0.2,1.6,0.6,2.1c0.4,0.4,0.8,0.7,1.4,0.7c0.5,0,0.9-0.2,1.3-0.6c0.3-0.4,0.5-1.1,0.5-2c0-0.9-0.2-1.5-0.5-1.9
			c-0.3-0.4-0.8-0.6-1.3-0.6c-0.5,0-1,0.2-1.3,0.6C1037.4,4198.8,1037.2,4199.4,1037.2,4200.2z"/>
		<path class="st7" d="M1046.6,4198.7l-2-0.4c0.2-0.8,0.6-1.4,1.2-1.8s1.4-0.6,2.4-0.6c1,0,1.7,0.1,2.2,0.3c0.5,0.2,0.8,0.5,1,0.9
			s0.3,1,0.3,2l0,2.6c0,0.7,0,1.3,0.1,1.6s0.2,0.7,0.4,1.1h-2.2c-0.1-0.1-0.1-0.4-0.2-0.6c0-0.1-0.1-0.2-0.1-0.3
			c-0.4,0.4-0.8,0.6-1.2,0.8c-0.4,0.2-0.9,0.3-1.4,0.3c-0.9,0-1.5-0.2-2-0.7s-0.7-1-0.7-1.8c0-0.5,0.1-0.9,0.3-1.3
			c0.2-0.4,0.5-0.6,0.9-0.8c0.4-0.2,1-0.4,1.7-0.5c1-0.2,1.7-0.4,2.1-0.5v-0.2c0-0.4-0.1-0.7-0.3-0.9c-0.2-0.2-0.6-0.3-1.2-0.3
			c-0.4,0-0.7,0.1-0.9,0.2S1046.7,4198.3,1046.6,4198.7z M1049.5,4200.5c-0.3,0.1-0.7,0.2-1.3,0.3s-1,0.3-1.2,0.4
			c-0.3,0.2-0.4,0.5-0.4,0.8c0,0.3,0.1,0.6,0.3,0.8c0.2,0.2,0.5,0.3,0.9,0.3c0.4,0,0.8-0.1,1.1-0.4c0.3-0.2,0.4-0.4,0.5-0.7
			c0.1-0.2,0.1-0.5,0.1-1.1V4200.5z"/>
		<path class="st7" d="M1053.6,4195.2l1.1-2.3h2.5l-2.1,2.3H1053.6z M1053.8,4204.5v-8.3h2.2v8.3H1053.8z"/>
		<path class="st7" d="M1057.5,4202.1l2.2-0.3c0.1,0.4,0.3,0.8,0.6,1c0.3,0.2,0.7,0.3,1.2,0.3c0.6,0,1-0.1,1.3-0.3
			c0.2-0.1,0.3-0.3,0.3-0.6c0-0.2-0.1-0.3-0.2-0.4c-0.1-0.1-0.4-0.2-0.7-0.3c-1.8-0.4-2.9-0.7-3.4-1.1c-0.7-0.4-1-1.1-1-1.9
			c0-0.7,0.3-1.3,0.9-1.8c0.6-0.5,1.4-0.7,2.6-0.7c1.1,0,2,0.2,2.5,0.6c0.6,0.4,0.9,0.9,1.1,1.6l-2.1,0.4c-0.1-0.3-0.3-0.6-0.5-0.7
			c-0.2-0.2-0.6-0.3-1.1-0.3c-0.6,0-1,0.1-1.2,0.2c-0.2,0.1-0.2,0.3-0.2,0.4c0,0.2,0.1,0.3,0.2,0.4c0.2,0.1,0.9,0.4,2.1,0.6
			c1.2,0.3,2,0.6,2.4,1c0.5,0.4,0.7,0.9,0.7,1.6c0,0.8-0.3,1.4-1,2c-0.6,0.5-1.6,0.8-2.8,0.8c-1.1,0-2-0.2-2.7-0.7
			C1058.1,4203.5,1057.7,4202.9,1057.5,4202.1z"/>
	</g>
	<g class="st4">
		<path class="st7" d="M1200.4,4158.3l2.2,0.7c-0.3,1.2-0.9,2.2-1.7,2.8c-0.8,0.6-1.8,0.9-3,0.9c-1.5,0-2.8-0.5-3.8-1.6
			c-1-1-1.5-2.5-1.5-4.3c0-1.9,0.5-3.4,1.5-4.4s2.3-1.6,3.9-1.6c1.4,0,2.5,0.4,3.4,1.2c0.5,0.5,0.9,1.2,1.2,2.1l-2.3,0.5
			c-0.1-0.6-0.4-1.1-0.8-1.4s-1-0.5-1.6-0.5c-0.8,0-1.5,0.3-2.1,0.9c-0.5,0.6-0.8,1.6-0.8,3c0,1.4,0.3,2.5,0.8,3.1
			c0.5,0.6,1.2,0.9,2,0.9c0.6,0,1.1-0.2,1.6-0.6C1199.9,4159.7,1200.2,4159.1,1200.4,4158.3z"/>
		<path class="st7" d="M1204.1,4158.2c0-0.7,0.2-1.4,0.5-2.1s0.9-1.2,1.5-1.6c0.7-0.4,1.4-0.5,2.2-0.5c1.3,0,2.3,0.4,3.1,1.2
			c0.8,0.8,1.2,1.8,1.2,3.1c0,1.3-0.4,2.3-1.2,3.1c-0.8,0.8-1.8,1.2-3.1,1.2c-0.8,0-1.5-0.2-2.2-0.5c-0.7-0.3-1.2-0.8-1.6-1.5
			S1204.1,4159.2,1204.1,4158.2z M1206.3,4158.4c0,0.8,0.2,1.5,0.6,1.9s0.9,0.7,1.4,0.7c0.6,0,1.1-0.2,1.4-0.7
			c0.4-0.4,0.6-1.1,0.6-1.9c0-0.8-0.2-1.4-0.6-1.9c-0.4-0.4-0.9-0.7-1.4-0.7c-0.6,0-1.1,0.2-1.4,0.7S1206.3,4157.5,1206.3,4158.4z
			 M1207.3,4153.2l1.1-2.3h2.5l-2.1,2.3H1207.3z"/>
		<path class="st7" d="M1222,4162.5h-2v-1.2c-0.3,0.5-0.7,0.8-1.2,1.1s-0.9,0.3-1.4,0.3c-1,0-1.8-0.4-2.4-1.2s-1-1.8-1-3.2
			c0-1.4,0.3-2.5,1-3.2c0.7-0.7,1.5-1.1,2.5-1.1c0.9,0,1.7,0.4,2.4,1.2v-4.1h2.2V4162.5z M1216.1,4158.2c0,0.9,0.1,1.5,0.4,1.9
			c0.4,0.6,0.8,0.9,1.5,0.9c0.5,0,0.9-0.2,1.3-0.6c0.4-0.4,0.5-1.1,0.5-1.9c0-1-0.2-1.6-0.5-2.1s-0.8-0.6-1.3-0.6
			c-0.5,0-1,0.2-1.3,0.6S1216.1,4157.3,1216.1,4158.2z"/>
		<path class="st7" d="M1224.1,4153.1v-2h2.2v2H1224.1z M1224.1,4162.5v-8.3h2.2v8.3H1224.1z"/>
		<path class="st7" d="M1228.4,4163l2.5,0.3c0,0.3,0.1,0.5,0.3,0.6c0.2,0.2,0.5,0.2,1,0.2c0.6,0,1-0.1,1.3-0.3
			c0.2-0.1,0.3-0.3,0.4-0.6c0.1-0.2,0.1-0.5,0.1-1v-1.2c-0.7,0.9-1.5,1.3-2.5,1.3c-1.1,0-2-0.5-2.6-1.4c-0.5-0.7-0.8-1.7-0.8-2.8
			c0-1.4,0.3-2.5,1-3.2c0.7-0.7,1.5-1.1,2.5-1.1c1,0,1.9,0.5,2.5,1.4v-1.2h2.1v7.4c0,1-0.1,1.7-0.2,2.2c-0.2,0.5-0.4,0.9-0.7,1.1
			c-0.3,0.3-0.7,0.5-1.2,0.6c-0.5,0.2-1.1,0.2-1.8,0.2c-1.4,0-2.4-0.2-3-0.7c-0.6-0.5-0.9-1.1-0.9-1.8
			C1228.4,4163.2,1228.4,4163.2,1228.4,4163z M1230.3,4158.2c0,0.9,0.2,1.5,0.5,1.9c0.3,0.4,0.8,0.6,1.3,0.6c0.5,0,1-0.2,1.4-0.6
			c0.4-0.4,0.6-1,0.6-1.9c0-0.9-0.2-1.5-0.5-1.9c-0.4-0.4-0.8-0.6-1.3-0.6c-0.5,0-1,0.2-1.3,0.6
			C1230.5,4156.7,1230.3,4157.3,1230.3,4158.2z"/>
		<path class="st7" d="M1237.9,4158.2c0-0.7,0.2-1.4,0.5-2.1s0.9-1.2,1.5-1.6c0.7-0.4,1.4-0.5,2.2-0.5c1.3,0,2.3,0.4,3.1,1.2
			c0.8,0.8,1.2,1.8,1.2,3.1c0,1.3-0.4,2.3-1.2,3.1c-0.8,0.8-1.8,1.2-3.1,1.2c-0.8,0-1.5-0.2-2.2-0.5c-0.7-0.3-1.2-0.8-1.6-1.5
			S1237.9,4159.2,1237.9,4158.2z M1240.1,4158.4c0,0.8,0.2,1.5,0.6,1.9s0.9,0.7,1.4,0.7c0.6,0,1.1-0.2,1.4-0.7
			c0.4-0.4,0.6-1.1,0.6-1.9c0-0.8-0.2-1.4-0.6-1.9c-0.4-0.4-0.9-0.7-1.4-0.7c-0.6,0-1.1,0.2-1.4,0.7S1240.1,4157.5,1240.1,4158.4z"
			/>
		<path class="st7" d="M1260.2,4162.5h-2v-1.2c-0.3,0.5-0.7,0.8-1.2,1.1s-0.9,0.3-1.4,0.3c-1,0-1.8-0.4-2.4-1.2s-1-1.8-1-3.2
			c0-1.4,0.3-2.5,1-3.2c0.7-0.7,1.5-1.1,2.5-1.1c0.9,0,1.7,0.4,2.4,1.2v-4.1h2.2V4162.5z M1254.3,4158.2c0,0.9,0.1,1.5,0.4,1.9
			c0.4,0.6,0.8,0.9,1.5,0.9c0.5,0,0.9-0.2,1.3-0.6c0.4-0.4,0.5-1.1,0.5-1.9c0-1-0.2-1.6-0.5-2.1s-0.8-0.6-1.3-0.6
			c-0.5,0-1,0.2-1.3,0.6S1254.3,4157.3,1254.3,4158.2z"/>
		<path class="st7" d="M1267.2,4159.9l2.2,0.4c-0.3,0.8-0.7,1.4-1.3,1.8c-0.6,0.4-1.4,0.6-2.3,0.6c-1.4,0-2.5-0.5-3.2-1.4
			c-0.5-0.8-0.8-1.7-0.8-2.9c0-1.4,0.4-2.5,1.1-3.2s1.6-1.2,2.7-1.2c1.2,0,2.2,0.4,2.9,1.2c0.7,0.8,1.1,2.1,1,3.7h-5.5
			c0,0.7,0.2,1.2,0.5,1.5c0.3,0.4,0.8,0.5,1.3,0.5c0.3,0,0.6-0.1,0.9-0.3S1267,4160.3,1267.2,4159.9z M1267.3,4157.6
			c0-0.6-0.2-1.1-0.5-1.4s-0.7-0.5-1.1-0.5c-0.5,0-0.9,0.2-1.2,0.5s-0.5,0.8-0.5,1.4H1267.3z"/>
	</g>
	<g class="st4">
		<path class="st7" d="M1197.4,4175.2h2v1.2c0.3-0.4,0.6-0.8,1.1-1s1-0.4,1.5-0.4c1,0,1.8,0.4,2.5,1.1s1,1.8,1,3.2
			c0,1.4-0.3,2.5-1,3.2c-0.7,0.8-1.5,1.2-2.5,1.2c-0.5,0-0.9-0.1-1.2-0.3c-0.4-0.2-0.8-0.5-1.2-0.9v4.2h-2.2V4175.2z M1199.6,4179.2
			c0,0.9,0.2,1.6,0.6,2.1c0.4,0.4,0.8,0.7,1.4,0.7c0.5,0,0.9-0.2,1.3-0.6c0.3-0.4,0.5-1.1,0.5-2c0-0.9-0.2-1.5-0.5-1.9
			c-0.3-0.4-0.8-0.6-1.3-0.6c-0.5,0-1,0.2-1.3,0.6C1199.8,4177.8,1199.6,4178.4,1199.6,4179.2z"/>
		<path class="st7" d="M1209.4,4183.5h-2.2v-8.3h2v1.2c0.3-0.6,0.7-0.9,0.9-1.1s0.6-0.3,0.9-0.3c0.5,0,1,0.1,1.4,0.4l-0.7,1.9
			c-0.4-0.2-0.7-0.4-1-0.4c-0.3,0-0.6,0.1-0.8,0.3s-0.4,0.5-0.5,0.9s-0.2,1.4-0.2,2.8V4183.5z"/>
		<path class="st7" d="M1213,4179.2c0-0.7,0.2-1.4,0.5-2.1s0.9-1.2,1.5-1.6s1.4-0.5,2.2-0.5c1.3,0,2.3,0.4,3.1,1.2s1.2,1.8,1.2,3.1
			c0,1.3-0.4,2.3-1.2,3.1s-1.8,1.2-3.1,1.2c-0.8,0-1.5-0.2-2.2-0.5s-1.2-0.8-1.6-1.5S1213,4180.2,1213,4179.2z M1215.2,4179.4
			c0,0.8,0.2,1.5,0.6,1.9s0.9,0.7,1.4,0.7s1.1-0.2,1.4-0.7s0.6-1.1,0.6-1.9c0-0.8-0.2-1.4-0.6-1.9s-0.9-0.7-1.4-0.7
			s-1.1,0.2-1.4,0.7S1215.2,4178.5,1215.2,4179.4z"/>
		<path class="st7" d="M1230.9,4183.5h-2v-1.2c-0.3,0.5-0.7,0.8-1.2,1.1s-0.9,0.3-1.4,0.3c-1,0-1.8-0.4-2.4-1.2s-1-1.8-1-3.2
			c0-1.4,0.3-2.5,1-3.2s1.5-1.1,2.5-1.1c0.9,0,1.7,0.4,2.4,1.2v-4.1h2.2V4183.5z M1225,4179.2c0,0.9,0.1,1.5,0.4,1.9
			c0.4,0.6,0.8,0.9,1.5,0.9c0.5,0,0.9-0.2,1.3-0.6s0.5-1.1,0.5-1.9c0-1-0.2-1.6-0.5-2.1s-0.8-0.6-1.3-0.6c-0.5,0-1,0.2-1.3,0.6
			S1225,4178.3,1225,4179.2z"/>
		<path class="st7" d="M1238.5,4183.5v-1.2c-0.3,0.4-0.7,0.8-1.2,1s-1,0.4-1.6,0.4c-0.6,0-1.1-0.1-1.5-0.4s-0.8-0.6-1-1
			s-0.3-1.1-0.3-1.8v-5.2h2.2v3.8c0,1.2,0,1.9,0.1,2.1s0.2,0.5,0.4,0.6s0.5,0.2,0.8,0.2c0.4,0,0.7-0.1,1-0.3s0.5-0.5,0.6-0.8
			s0.2-1.1,0.2-2.2v-3.5h2.2v8.3H1238.5z"/>
		<path class="st7" d="M1250,4177.7l-2.2,0.4c-0.1-0.4-0.2-0.8-0.5-1s-0.6-0.3-1-0.3c-0.5,0-1,0.2-1.3,0.6s-0.5,1-0.5,1.9
			c0,1,0.2,1.7,0.5,2.1s0.8,0.6,1.3,0.6c0.4,0,0.8-0.1,1-0.4s0.5-0.6,0.6-1.2l2.2,0.4c-0.2,1-0.7,1.7-1.3,2.2s-1.5,0.8-2.6,0.8
			c-1.2,0-2.2-0.4-2.9-1.1s-1.1-1.8-1.1-3.2c0-1.4,0.4-2.4,1.1-3.2s1.7-1.1,2.9-1.1c1,0,1.8,0.2,2.4,0.7S1249.8,4176.8,1250,4177.7z
			"/>
		<path class="st7" d="M1255.5,4175.2v1.8h-1.5v3.3c0,0.7,0,1.1,0,1.2s0.1,0.2,0.2,0.3s0.2,0.1,0.4,0.1c0.2,0,0.5-0.1,0.9-0.2
			l0.2,1.7c-0.5,0.2-1.1,0.3-1.7,0.3c-0.4,0-0.8-0.1-1.1-0.2s-0.6-0.3-0.7-0.5s-0.3-0.5-0.3-0.9c0-0.3-0.1-0.8-0.1-1.5v-3.6h-1v-1.8
			h1v-1.6l2.2-1.3v2.9H1255.5z"/>
		<path class="st7" d="M1256.5,4179.2c0-0.7,0.2-1.4,0.5-2.1s0.9-1.2,1.5-1.6s1.4-0.5,2.2-0.5c1.3,0,2.3,0.4,3.1,1.2
			s1.2,1.8,1.2,3.1c0,1.3-0.4,2.3-1.2,3.1s-1.8,1.2-3.1,1.2c-0.8,0-1.5-0.2-2.2-0.5s-1.2-0.8-1.6-1.5S1256.5,4180.2,1256.5,4179.2z
			 M1258.8,4179.4c0,0.8,0.2,1.5,0.6,1.9s0.9,0.7,1.4,0.7s1.1-0.2,1.4-0.7s0.6-1.1,0.6-1.9c0-0.8-0.2-1.4-0.6-1.9s-0.9-0.7-1.4-0.7
			s-1.1,0.2-1.4,0.7S1258.8,4178.5,1258.8,4179.4z"/>
	</g>
	<g class="st4">
		<path class="st7" d="M1216.2,4229h4.2c1,0,1.7,0.1,2.2,0.2c0.7,0.2,1.2,0.5,1.7,1.1s0.8,1.1,1.1,1.9s0.4,1.6,0.4,2.7
			c0,0.9-0.1,1.8-0.4,2.4c-0.3,0.8-0.7,1.5-1.2,2c-0.4,0.4-0.9,0.7-1.6,0.9c-0.5,0.2-1.2,0.2-2,0.2h-4.4V4229z M1218.5,4231v7.6h1.7
			c0.6,0,1.1,0,1.4-0.1c0.4-0.1,0.7-0.3,0.9-0.5s0.4-0.6,0.6-1.1s0.2-1.2,0.2-2.1s-0.1-1.6-0.2-2s-0.4-0.8-0.7-1.1s-0.6-0.4-1.1-0.5
			c-0.3-0.1-1-0.1-1.9-0.1H1218.5z"/>
		<path class="st7" d="M1227.7,4231.1v-2h2.2v2H1227.7z M1227.7,4240.5v-8.3h2.2v8.3H1227.7z"/>
		<path class="st7" d="M1232,4241l2.5,0.3c0,0.3,0.1,0.5,0.3,0.6c0.2,0.2,0.5,0.2,1,0.2c0.6,0,1-0.1,1.3-0.3
			c0.2-0.1,0.3-0.3,0.4-0.6c0.1-0.2,0.1-0.5,0.1-1v-1.2c-0.7,0.9-1.5,1.3-2.5,1.3c-1.1,0-2-0.5-2.6-1.4c-0.5-0.7-0.8-1.7-0.8-2.8
			c0-1.4,0.3-2.5,1-3.2s1.5-1.1,2.5-1.1c1,0,1.9,0.5,2.5,1.4v-1.2h2.1v7.4c0,1-0.1,1.7-0.2,2.2s-0.4,0.9-0.7,1.1s-0.7,0.5-1.2,0.6
			s-1.1,0.2-1.8,0.2c-1.4,0-2.4-0.2-3-0.7s-0.9-1.1-0.9-1.8C1231.9,4241.2,1231.9,4241.2,1232,4241z M1233.9,4236.2
			c0,0.9,0.2,1.5,0.5,1.9s0.8,0.6,1.3,0.6c0.5,0,1-0.2,1.4-0.6s0.6-1,0.6-1.9c0-0.9-0.2-1.5-0.5-1.9s-0.8-0.6-1.3-0.6
			c-0.5,0-1,0.2-1.3,0.6S1233.9,4235.3,1233.9,4236.2z"/>
		<path class="st7" d="M1241.9,4231.1v-2h2.2v2H1241.9z M1241.9,4240.5v-8.3h2.2v8.3H1241.9z"/>
		<path class="st7" d="M1250.2,4232.2v1.8h-1.5v3.3c0,0.7,0,1.1,0,1.2s0.1,0.2,0.2,0.3s0.2,0.1,0.4,0.1c0.2,0,0.5-0.1,0.9-0.2
			l0.2,1.7c-0.5,0.2-1.1,0.3-1.7,0.3c-0.4,0-0.8-0.1-1.1-0.2s-0.6-0.3-0.7-0.5s-0.3-0.5-0.3-0.9c0-0.3-0.1-0.8-0.1-1.5v-3.6h-1v-1.8
			h1v-1.6l2.2-1.3v2.9H1250.2z"/>
		<path class="st7" d="M1251.2,4236.2c0-0.7,0.2-1.4,0.5-2.1s0.9-1.2,1.5-1.6s1.4-0.5,2.2-0.5c1.3,0,2.3,0.4,3.1,1.2
			s1.2,1.8,1.2,3.1c0,1.3-0.4,2.3-1.2,3.1s-1.8,1.2-3.1,1.2c-0.8,0-1.5-0.2-2.2-0.5s-1.2-0.8-1.6-1.5S1251.2,4237.2,1251.2,4236.2z
			 M1253.4,4236.4c0,0.8,0.2,1.5,0.6,1.9s0.9,0.7,1.4,0.7s1.1-0.2,1.4-0.7s0.6-1.1,0.6-1.9c0-0.8-0.2-1.4-0.6-1.9s-0.9-0.7-1.4-0.7
			s-1.1,0.2-1.4,0.7S1253.4,4235.5,1253.4,4236.4z"/>
		<path class="st7" d="M1273.2,4234.7l-2.2,0.4c-0.1-0.4-0.2-0.8-0.5-1s-0.6-0.3-1-0.3c-0.5,0-1,0.2-1.3,0.6s-0.5,1-0.5,1.9
			c0,1,0.2,1.7,0.5,2.1s0.8,0.6,1.3,0.6c0.4,0,0.8-0.1,1-0.4s0.5-0.6,0.6-1.2l2.2,0.4c-0.2,1-0.7,1.7-1.3,2.2s-1.5,0.8-2.6,0.8
			c-1.2,0-2.2-0.4-2.9-1.1s-1.1-1.8-1.1-3.2c0-1.4,0.4-2.4,1.1-3.2s1.7-1.1,2.9-1.1c1,0,1.8,0.2,2.4,0.7
			S1272.9,4233.8,1273.2,4234.7z"/>
		<path class="st7" d="M1274.3,4236.2c0-0.7,0.2-1.4,0.5-2.1s0.9-1.2,1.5-1.6s1.4-0.5,2.2-0.5c1.3,0,2.3,0.4,3.1,1.2
			s1.2,1.8,1.2,3.1c0,1.3-0.4,2.3-1.2,3.1s-1.8,1.2-3.1,1.2c-0.8,0-1.5-0.2-2.2-0.5s-1.2-0.8-1.6-1.5S1274.3,4237.2,1274.3,4236.2z
			 M1276.6,4236.4c0,0.8,0.2,1.5,0.6,1.9s0.9,0.7,1.4,0.7s1.1-0.2,1.4-0.7s0.6-1.1,0.6-1.9c0-0.8-0.2-1.4-0.6-1.9s-0.9-0.7-1.4-0.7
			s-1.1,0.2-1.4,0.7S1276.6,4235.5,1276.6,4236.4z"/>
		<path class="st7" d="M1292.1,4240.5h-2.2v-4.2c0-0.9,0-1.5-0.1-1.7s-0.2-0.5-0.5-0.6s-0.5-0.2-0.8-0.2c-0.4,0-0.7,0.1-1,0.3
			s-0.5,0.5-0.6,0.8s-0.2,1-0.2,1.9v3.8h-2.2v-8.3h2v1.2c0.7-0.9,1.6-1.4,2.7-1.4c0.5,0,0.9,0.1,1.3,0.3s0.7,0.4,0.9,0.7
			s0.3,0.6,0.4,0.9s0.1,0.8,0.1,1.5V4240.5z"/>
		<path class="st7" d="M1298.2,4232.2v1.8h-1.5v3.3c0,0.7,0,1.1,0,1.2s0.1,0.2,0.2,0.3s0.2,0.1,0.4,0.1c0.2,0,0.5-0.1,0.9-0.2
			l0.2,1.7c-0.5,0.2-1.1,0.3-1.7,0.3c-0.4,0-0.8-0.1-1.1-0.2s-0.6-0.3-0.7-0.5s-0.3-0.5-0.3-0.9c0-0.3-0.1-0.8-0.1-1.5v-3.6h-1v-1.8
			h1v-1.6l2.2-1.3v2.9H1298.2z"/>
		<path class="st7" d="M1301.8,4240.5h-2.2v-8.3h2v1.2c0.3-0.6,0.7-0.9,0.9-1.1s0.6-0.3,0.9-0.3c0.5,0,1,0.1,1.4,0.4l-0.7,1.9
			c-0.4-0.2-0.7-0.4-1-0.4c-0.3,0-0.6,0.1-0.8,0.3s-0.4,0.5-0.5,0.9s-0.2,1.4-0.2,2.8V4240.5z"/>
		<path class="st7" d="M1305.4,4236.2c0-0.7,0.2-1.4,0.5-2.1s0.9-1.2,1.5-1.6s1.4-0.5,2.2-0.5c1.3,0,2.3,0.4,3.1,1.2
			s1.2,1.8,1.2,3.1c0,1.3-0.4,2.3-1.2,3.1s-1.8,1.2-3.1,1.2c-0.8,0-1.5-0.2-2.2-0.5s-1.2-0.8-1.6-1.5S1305.4,4237.2,1305.4,4236.2z
			 M1307.7,4236.4c0,0.8,0.2,1.5,0.6,1.9s0.9,0.7,1.4,0.7s1.1-0.2,1.4-0.7s0.6-1.1,0.6-1.9c0-0.8-0.2-1.4-0.6-1.9s-0.9-0.7-1.4-0.7
			s-1.1,0.2-1.4,0.7S1307.7,4235.5,1307.7,4236.4z"/>
		<path class="st7" d="M1315.7,4240.5V4229h2.2v11.5H1315.7z"/>
	</g>
	<g class="st4">
		<path class="st7" d="M1076.7,4216.5V4205h3.7c1.4,0,2.3,0.1,2.8,0.2c0.7,0.2,1.2,0.5,1.6,1.1c0.4,0.6,0.7,1.3,0.7,2.2
			c0,0.7-0.1,1.3-0.4,1.8c-0.3,0.5-0.6,0.9-1,1.1c-0.4,0.3-0.8,0.5-1.2,0.5c-0.6,0.1-1.4,0.2-2.4,0.2h-1.5v4.3H1076.7z M1079,4207
			v3.2h1.3c0.9,0,1.5-0.1,1.8-0.2c0.3-0.1,0.5-0.3,0.7-0.6c0.2-0.3,0.3-0.6,0.3-0.9c0-0.4-0.1-0.8-0.4-1c-0.2-0.3-0.6-0.4-0.9-0.5
			c-0.3-0.1-0.8-0.1-1.7-0.1H1079z"/>
		<path class="st7" d="M1089.5,4216.5h-2.2v-8.3h2v1.2c0.3-0.6,0.7-0.9,0.9-1.1c0.3-0.2,0.6-0.3,0.9-0.3c0.5,0,1,0.1,1.4,0.4
			l-0.7,1.9c-0.4-0.2-0.7-0.4-1-0.4c-0.3,0-0.6,0.1-0.8,0.3c-0.2,0.2-0.4,0.5-0.5,0.9c-0.1,0.4-0.2,1.4-0.2,2.8V4216.5z"/>
		<path class="st7" d="M1098.4,4213.9l2.2,0.4c-0.3,0.8-0.7,1.4-1.3,1.8c-0.6,0.4-1.4,0.6-2.3,0.6c-1.4,0-2.5-0.5-3.2-1.4
			c-0.5-0.8-0.8-1.7-0.8-2.9c0-1.4,0.4-2.5,1.1-3.2s1.6-1.2,2.7-1.2c1.2,0,2.2,0.4,2.9,1.2c0.7,0.8,1.1,2.1,1,3.7h-5.5
			c0,0.7,0.2,1.2,0.5,1.5c0.3,0.4,0.8,0.5,1.3,0.5c0.3,0,0.6-0.1,0.9-0.3S1098.3,4214.3,1098.4,4213.9z M1098.5,4211.6
			c0-0.6-0.2-1.1-0.5-1.4s-0.7-0.5-1.1-0.5c-0.5,0-0.9,0.2-1.2,0.5s-0.5,0.8-0.5,1.4H1098.5z"/>
		<path class="st7" d="M1101.5,4208.2h1.2v-0.6c0-0.7,0.1-1.2,0.2-1.6s0.4-0.6,0.8-0.8s0.9-0.3,1.5-0.3c0.6,0,1.2,0.1,1.8,0.3
			l-0.3,1.5c-0.3-0.1-0.7-0.1-1-0.1c-0.3,0-0.5,0.1-0.7,0.2c-0.1,0.1-0.2,0.4-0.2,0.9v0.6h1.6v1.7h-1.6v6.6h-2.2v-6.6h-1.2V4208.2z"
			/>
		<path class="st7" d="M1107.8,4207.1v-2h2.2v2H1107.8z M1107.8,4216.5v-8.3h2.2v8.3H1107.8z"/>
		<path class="st7" d="M1114.4,4208.2v8c0,1.1-0.1,1.8-0.2,2.2c-0.1,0.4-0.4,0.8-0.8,1c-0.4,0.2-0.9,0.4-1.5,0.4
			c-0.2,0-0.5,0-0.7-0.1s-0.5-0.1-0.8-0.2l0.4-1.9c0.1,0,0.2,0,0.3,0.1s0.2,0,0.3,0c0.2,0,0.4,0,0.6-0.1c0.1-0.1,0.2-0.2,0.3-0.3
			s0.1-0.5,0.1-1.2v-7.9H1114.4z M1112.2,4207.1v-2h2.2v2H1112.2z"/>
		<path class="st7" d="M1116.2,4212.2c0-0.7,0.2-1.4,0.5-2.1s0.9-1.2,1.5-1.6c0.7-0.4,1.4-0.5,2.2-0.5c1.3,0,2.3,0.4,3.1,1.2
			c0.8,0.8,1.2,1.8,1.2,3.1c0,1.3-0.4,2.3-1.2,3.1c-0.8,0.8-1.8,1.2-3.1,1.2c-0.8,0-1.5-0.2-2.2-0.5c-0.7-0.3-1.2-0.8-1.6-1.5
			S1116.2,4213.2,1116.2,4212.2z M1118.5,4212.4c0,0.8,0.2,1.5,0.6,1.9s0.9,0.7,1.4,0.7c0.6,0,1.1-0.2,1.4-0.7
			c0.4-0.4,0.6-1.1,0.6-1.9c0-0.8-0.2-1.4-0.6-1.9c-0.4-0.4-0.9-0.7-1.4-0.7c-0.6,0-1.1,0.2-1.4,0.7S1118.5,4211.5,1118.5,4212.4z"
			/>
		<path class="st7" d="M1138.5,4216.5h-2v-1.2c-0.3,0.5-0.7,0.8-1.2,1.1s-0.9,0.3-1.4,0.3c-1,0-1.8-0.4-2.4-1.2s-1-1.8-1-3.2
			c0-1.4,0.3-2.5,1-3.2c0.7-0.7,1.5-1.1,2.5-1.1c0.9,0,1.7,0.4,2.4,1.2v-4.1h2.2V4216.5z M1132.7,4212.2c0,0.9,0.1,1.5,0.4,1.9
			c0.4,0.6,0.8,0.9,1.5,0.9c0.5,0,0.9-0.2,1.3-0.6c0.4-0.4,0.5-1.1,0.5-1.9c0-1-0.2-1.6-0.5-2.1s-0.8-0.6-1.3-0.6
			c-0.5,0-1,0.2-1.3,0.6S1132.7,4211.3,1132.7,4212.2z"/>
		<path class="st7" d="M1145.5,4213.9l2.2,0.4c-0.3,0.8-0.7,1.4-1.3,1.8c-0.6,0.4-1.4,0.6-2.3,0.6c-1.4,0-2.5-0.5-3.2-1.4
			c-0.5-0.8-0.8-1.7-0.8-2.9c0-1.4,0.4-2.5,1.1-3.2s1.6-1.2,2.7-1.2c1.2,0,2.2,0.4,2.9,1.2c0.7,0.8,1.1,2.1,1,3.7h-5.5
			c0,0.7,0.2,1.2,0.5,1.5c0.3,0.4,0.8,0.5,1.3,0.5c0.3,0,0.6-0.1,0.9-0.3S1145.4,4214.3,1145.5,4213.9z M1145.6,4211.6
			c0-0.6-0.2-1.1-0.5-1.4s-0.7-0.5-1.1-0.5c-0.5,0-0.9,0.2-1.2,0.5s-0.5,0.8-0.5,1.4H1145.6z"/>
	</g>
	<g class="st4">
		<path class="st7" d="M1087.3,4234.9l2.2,0.4c-0.3,0.8-0.7,1.4-1.3,1.8c-0.6,0.4-1.4,0.6-2.3,0.6c-1.4,0-2.5-0.5-3.2-1.4
			c-0.5-0.8-0.8-1.7-0.8-2.9c0-1.4,0.4-2.5,1.1-3.2s1.6-1.2,2.7-1.2c1.2,0,2.2,0.4,2.9,1.2c0.7,0.8,1.1,2.1,1,3.7h-5.5
			c0,0.7,0.2,1.2,0.5,1.5c0.3,0.4,0.8,0.5,1.3,0.5c0.3,0,0.6-0.1,0.9-0.3S1087.1,4235.3,1087.3,4234.9z M1087.4,4232.6
			c0-0.6-0.2-1.1-0.5-1.4s-0.7-0.5-1.1-0.5c-0.5,0-0.9,0.2-1.2,0.5s-0.5,0.8-0.5,1.4H1087.4z"/>
		<path class="st7" d="M1091.2,4229.2h2v1.1c0.7-0.9,1.6-1.3,2.6-1.3c0.5,0,1,0.1,1.4,0.3s0.7,0.5,1,1c0.4-0.4,0.8-0.8,1.2-1
			s0.9-0.3,1.4-0.3c0.6,0,1.1,0.1,1.5,0.4s0.7,0.6,0.9,1.1c0.2,0.4,0.2,0.9,0.2,1.7v5.3h-2.2v-4.7c0-0.8-0.1-1.4-0.2-1.6
			c-0.2-0.3-0.5-0.5-0.9-0.5c-0.3,0-0.6,0.1-0.9,0.3c-0.3,0.2-0.5,0.5-0.6,0.8c-0.1,0.4-0.2,0.9-0.2,1.7v4h-2.2v-4.5
			c0-0.8,0-1.3-0.1-1.6s-0.2-0.4-0.4-0.5s-0.4-0.2-0.7-0.2c-0.3,0-0.6,0.1-0.9,0.3c-0.3,0.2-0.5,0.4-0.6,0.8s-0.2,0.9-0.2,1.7v4
			h-2.2V4229.2z"/>
		<path class="st7" d="M1105.5,4229.2h2v1.2c0.3-0.4,0.6-0.8,1.1-1s1-0.4,1.5-0.4c1,0,1.8,0.4,2.5,1.1s1,1.8,1,3.2
			c0,1.4-0.3,2.5-1,3.2c-0.7,0.8-1.5,1.2-2.5,1.2c-0.5,0-0.9-0.1-1.2-0.3c-0.4-0.2-0.8-0.5-1.2-0.9v4.2h-2.2V4229.2z M1107.7,4233.2
			c0,0.9,0.2,1.6,0.6,2.1c0.4,0.4,0.8,0.7,1.4,0.7c0.5,0,0.9-0.2,1.3-0.6c0.3-0.4,0.5-1.1,0.5-2c0-0.9-0.2-1.5-0.5-1.9
			c-0.3-0.4-0.8-0.6-1.3-0.6c-0.5,0-1,0.2-1.3,0.6C1107.9,4231.8,1107.7,4232.4,1107.7,4233.2z"/>
		<path class="st7" d="M1117.5,4237.5h-2.2v-8.3h2v1.2c0.3-0.6,0.7-0.9,0.9-1.1c0.3-0.2,0.6-0.3,0.9-0.3c0.5,0,1,0.1,1.4,0.4
			l-0.7,1.9c-0.4-0.2-0.7-0.4-1-0.4c-0.3,0-0.6,0.1-0.8,0.3c-0.2,0.2-0.4,0.5-0.5,0.9c-0.1,0.4-0.2,1.4-0.2,2.8V4237.5z"/>
		<path class="st7" d="M1126.4,4234.9l2.2,0.4c-0.3,0.8-0.7,1.4-1.3,1.8c-0.6,0.4-1.4,0.6-2.3,0.6c-1.4,0-2.5-0.5-3.2-1.4
			c-0.5-0.8-0.8-1.7-0.8-2.9c0-1.4,0.4-2.5,1.1-3.2s1.6-1.2,2.7-1.2c1.2,0,2.2,0.4,2.9,1.2c0.7,0.8,1.1,2.1,1,3.7h-5.5
			c0,0.7,0.2,1.2,0.5,1.5c0.3,0.4,0.8,0.5,1.3,0.5c0.3,0,0.6-0.1,0.9-0.3S1126.3,4235.3,1126.4,4234.9z M1126.5,4232.6
			c0-0.6-0.2-1.1-0.5-1.4s-0.7-0.5-1.1-0.5c-0.5,0-0.9,0.2-1.2,0.5s-0.5,0.8-0.5,1.4H1126.5z"/>
		<path class="st7" d="M1129.7,4235.1l2.2-0.3c0.1,0.4,0.3,0.8,0.6,1c0.3,0.2,0.7,0.3,1.2,0.3c0.6,0,1-0.1,1.3-0.3
			c0.2-0.1,0.3-0.3,0.3-0.6c0-0.2-0.1-0.3-0.2-0.4c-0.1-0.1-0.4-0.2-0.7-0.3c-1.8-0.4-2.9-0.7-3.4-1.1c-0.7-0.4-1-1.1-1-1.9
			c0-0.7,0.3-1.3,0.9-1.8c0.6-0.5,1.4-0.7,2.6-0.7c1.1,0,2,0.2,2.5,0.6c0.6,0.4,0.9,0.9,1.1,1.6l-2.1,0.4c-0.1-0.3-0.3-0.6-0.5-0.7
			c-0.2-0.2-0.6-0.3-1.1-0.3c-0.6,0-1,0.1-1.2,0.2c-0.2,0.1-0.2,0.3-0.2,0.4c0,0.2,0.1,0.3,0.2,0.4c0.2,0.1,0.9,0.4,2.1,0.6
			c1.2,0.3,2,0.6,2.4,1c0.5,0.4,0.7,0.9,0.7,1.6c0,0.8-0.3,1.4-1,2c-0.6,0.5-1.6,0.8-2.8,0.8c-1.1,0-2-0.2-2.7-0.7
			C1130.3,4236.5,1129.9,4235.9,1129.7,4235.1z"/>
		<path class="st7" d="M1141,4231.7l-2-0.4c0.2-0.8,0.6-1.4,1.2-1.8s1.4-0.6,2.4-0.6c1,0,1.7,0.1,2.2,0.3c0.5,0.2,0.8,0.5,1,0.9
			s0.3,1,0.3,2l0,2.6c0,0.7,0,1.3,0.1,1.6s0.2,0.7,0.4,1.1h-2.2c-0.1-0.1-0.1-0.4-0.2-0.6c0-0.1-0.1-0.2-0.1-0.3
			c-0.4,0.4-0.8,0.6-1.2,0.8c-0.4,0.2-0.9,0.3-1.4,0.3c-0.9,0-1.5-0.2-2-0.7s-0.7-1-0.7-1.8c0-0.5,0.1-0.9,0.3-1.3
			c0.2-0.4,0.5-0.6,0.9-0.8c0.4-0.2,1-0.4,1.7-0.5c1-0.2,1.7-0.4,2.1-0.5v-0.2c0-0.4-0.1-0.7-0.3-0.9c-0.2-0.2-0.6-0.3-1.2-0.3
			c-0.4,0-0.7,0.1-0.9,0.2S1141.2,4231.3,1141,4231.7z M1144,4233.5c-0.3,0.1-0.7,0.2-1.3,0.3s-1,0.3-1.2,0.4
			c-0.3,0.2-0.4,0.5-0.4,0.8c0,0.3,0.1,0.6,0.3,0.8c0.2,0.2,0.5,0.3,0.9,0.3c0.4,0,0.8-0.1,1.1-0.4c0.3-0.2,0.4-0.4,0.5-0.7
			c0.1-0.2,0.1-0.5,0.1-1.1V4233.5z"/>
	</g>
</g>
</svg>
